<svg width="603" height="412" viewBox="0 0 603 412" xmlns="http://www.w3.org/2000/svg"><title>AF13F209-4128-47DE-8455-D325B78C39FA</title><g fill="none" fill-rule="evenodd"><path d="M157.061 54.654c.663 3.734 1.698 7.414 2.193 11.165.86 6.513.244 13.025-.676 19.5-.09.633-.516 1.525-1.033 1.74-1.263.522-1.343 1.4-1.314 2.457.102 3.742.449 7.5.2 11.222-.183 2.74-.511 5.379.36 8.076.475 1.467-.244 2.24-1.84 2.267a74.496 74.496 0 0 1-5.969-.129c-1.772-.112-1.942-.1-1.8 1.658.387 4.78 3.068 8.623 5.588 12.534.443.686.911 1.52.907 2.284-.013 2.118-.325 4.233-.397 6.352-.024.69.114 1.559.54 2.06 2.308 2.72 4.968 4.837 9 3.972.151-.032.316.008.471-.01 1.013-.119 1.553.336 1.794 1.271.608 2.356 1.322 4.689 1.865 7.059.521 2.269.898 4.57 1.305 6.862.248 1.396.96 2.295 2.478 2.54 1.393.227 2.769.549 4.158.797 1.164.208 1.773.843 2.113 1.955.32 1.045.833 2.063 1.427 2.995a58.283 58.283 0 0 0 3.18 4.474c.31.4.91.716 1.43.81 1.23.224 2.49.382 3.74.404 3.007.053 4.73-1.595 4.936-4.417.094-1.295.048-2.888.79-3.785 1.37-1.658 1.453-3.237.93-5.08-.317-1.116.191-1.747 1.353-1.928.465-.072.926-.229 1.39-.232 1.62-.013 2.159-.767 2.104-2.307-.081-2.25.585-4.21 3.015-5.164.32-.126.647-.387.826-.67.909-1.434 1.928-1.074 3.001-.231 1.054.828 1.98 1.943 3.182 2.431 2.393.975 4.307 2.371 5.963 4.292 1.308 1.517 2.415 1.505 4.076.4.881-.587 1.887-1.003 2.735-.23 1.075.98 2.111.789 3.33.454 2.386-.659 4.338.02 5.507 1.789.988 1.494 1.247 1.555 2.49.173 1.443-1.602 2.746-3.32 4.168-4.94 1.557-1.773 3.551-2.419 5.927-1.96 1.231.238 2.473.432 3.709.648 1.768.31 2.163-.042 2.02-1.814-.025-.301-.091-.6-.144-.899-1.044-5.984-2.067-11.972-3.145-17.95-.412-2.288-.104-4.282 1.354-6.279 3.081-4.216 5.94-8.586 8.848-12.918 1.226-1.824 2.367-3.703 3.509-5.577.566-.93.298-1.476-.782-1.98-2.618-1.225-5.152-2.619-7.708-3.966-.314-.165-.532-.491-.837-.682-.95-.595-1.936-1.135-2.874-1.745-1.499-.978-3.057-1.897-4.43-3.024-1.413-1.161-2.44-2.843-3.975-3.768-4.244-2.56-5.072-6.65-5.852-10.871-.3-1.622-.78-3.22-1.3-4.793-.365-1.102-.988-2.122-1.405-3.212-1.483-3.882-4.076-6.76-8-8.506-.59-.263-1.143-.703-1.583-1.174-3.014-3.23-5.99-6.494-8.993-9.734-.345-.373-.804-.646-1.185-.992-1.357-1.232-2.91-2.329-4.003-3.753-1.456-1.896-2.508-4.077-3.827-6.077-.341-.517-1.017-1.13-1.574-1.165-6.112-.386-12.232-.641-18.346-.984a1156.21 1156.21 0 0 1-17.55-1.105c-1.1-.079-1.588.233-1.625 1.261-.08 2.172-.2 4.343-.228 6.515-.04 3.063-.01 3.063-3.089 2.773-.26-.024-.523-.035-.785-.051-1.926-.07-2.497.37-2.388 2.283.126 2.217.356 4.442.745 6.63" fill="#DBDBDB"/><path d="M135.073 143.614c-1.004 1.371-.276 2.08.781 2.504 1.82.732 1.995 1.942 1.675 3.563-.17.863-.03 1.781-.03 2.675l.463.077c.363-.756.667-1.547 1.115-2.252.208-.327.68-.62 1.066-.666.187-.022.533.537.658.883.161.448.174.945.28 1.6.574-.222.976-.312 1.304-.514 1.726-1.06 3.605-1.964 5.107-3.267 2.399-2.081 4.631-4.36 6.755-6.707.91-1.007 1.194-2.482.027-3.588-1.753-1.66-2.213-3.662-1.791-5.836.415-2.133.221-4.132-.742-6.058-.82-1.64-1.83-3.196-2.562-4.869-1.155-2.638-2.322-5.295-3.154-8.037-.658-2.17.386-3.258 2.727-3.317a117.65 117.65 0 0 1 5.509.014c1.16.025 1.509-.43 1.486-1.56a1240.45 1240.45 0 0 1-.239-20.324c-.002-.483.51-.99.838-1.448.438-.611 1.264-1.147 1.343-1.781.41-3.307.751-6.63.892-9.957.12-2.823.208-5.691-.173-8.479-.615-4.5-1.63-8.948-2.47-13.42-.355-1.884-1.057-3.791-.935-5.647.1-1.516-.448-1.757-1.613-1.873-.573-.057-1.152-.059-1.727-.109-10.383-.896-20.768-1.779-31.149-2.705-3.275-.292-6.587-.365-9.631-1.905-9.8-4.957-19.648-9.826-29.448-14.78-12.08-6.105-24.129-12.265-36.202-18.382-.38-.192-.937-.335-1.313-.214-1.179.38-2.37 2.738-2.024 3.905.695 2.341.7 4.655.089 7.031-.16.619.256 1.477.636 2.095.442.721 1.265 1.226 1.692 1.953 1.199 2.035 2.707 3.537 5.323 3.604.258.007.524.272.76.45.733.557 1.522 1.068 2.16 1.716.54.549 1.255 1.256 1.27 1.907.036 1.436.846 1.8 2.021 2.268 2.827 1.128 6.209.322 8.853 2.585l-.252-2.133c2.941 1.915 3.162 3.008 1.24 4.793.539 1.508 1.036 2.81 1.466 4.132.573 1.76.948 3.593 1.666 5.292 1.202 2.847 2.594 5.62 3.94 8.408.325.673.625 1.572 1.21 1.872 1.625.83 1.902 2.197 1.992 3.69.14 2.32.116 4.655.362 6.964.098.917.547 1.922 1.151 2.643 2.137 2.553 4.213 5.071 3.912 8.649-.083.979.354 1.669 1.433 2.083.665.255 1.362.89 1.646 1.52.574 1.277 1.114 2.647 1.248 4.017.339 3.475 1.88 5.898 5.511 6.855.294.077.516.404.903.724-1.965.983-1.307 2.099-.432 3.257.523.694 1.233 1.377 1.42 2.163.484 2.02 2.01 2.86 3.75 3.54 1.427.557 2.282 1.55 2.665 2.972.341 1.272.703 2.54 1.095 3.799.243.779.754 1.265 1.648.885.937-.4 1.221.024 1.612.793.495.977 1.278 1.817 1.936 2.717l.454-.208.98-2.924.543.04c.485 1.41.526 3.102 2.17 3.644.471-.202.876-.547 1.208-.49 1.301.224 2.28 1.788 2.072 3.119-.405 2.591-1.898 5.2.127 7.76.082.104.045.294.065.445.522 3.885 4.187 6.922 8.305 7.022 1.06.026 2.154.34 3.15.723.939.361 1.823.937.993 2.19-.155.234-.067.714.068 1.013.749 1.668 1.498 3.338 2.362 4.95.226.421.818.759 1.316.923.845.278 1.75.389 2.652.576l-.827-1.362 2.78-.5c.273.697 1.133 1.898.833 2.31m111.404-19.747c-.356.607-.605 1.447-.487 2.112 1.182 6.605 2.457 13.194 3.692 19.79.495 2.646 1.5 4.993 3.642 6.86 1.075.936 1.918 2.13 2.808 3.25 1.237 1.557 1.698 3.291 1.32 5.266-.304 1.582-.317 3.217-.655 4.79-.569 2.646-.983 5.387-2.051 7.85-.826 1.905-1.771 3.39.465 4.844.081.053.13.157.185.243.527.806.38 1.33-.669 1.474-.545.074-1.09.146-1.695.226.054.37.023.594.117.747 1.68 2.732 3.303 5.5 5.12 8.145.452.658 1.5 1.038 2.354 1.316 1.427.466 2.957.647 4.369 1.144.908.318 1.364.173 1.725-.628.624-1.388 1.283-2.76 1.905-4.149.742-1.657 1.883-2.64 3.886-2.8 5.689-.453 10.82 1.325 15.86 3.49.873.375 1.608 1.064 2.369 1.654.535.416 1.205.827 1.457 1.39.387.862.919 1.24 1.802 1.016 2.95-.745 4.99-.079 6.127 2.941.545 1.444 1.897 2.51 3.764 2.561.76.022 1.514.197 2.394.32-.02.058.077-.12.1-.306.28-2.178.57-4.355.798-6.54.03-.294-.241-.643-.433-.93-1.18-1.773-1.027-3.384.524-5.254 1.546-1.862 2.893-2.233 5.023-1.526 1.792.595 3.594.563 5.37-.203a3.491 3.491 0 0 0-1.374-.754c-2.717-.742-5.033-1.916-6.027-4.73-.17-.482-.657-.954-1.125-1.229-2.826-1.668-3.87-4.254-4.145-7.254-.225-2.46-1.167-4.557-3.1-6.25-.807-.704-1.427-1.606-2.134-2.416-.847-.973-.844-1.897.137-2.793 2.626-2.4 5.272-4.728 8.865-5.79 2.72-.804 4.181-5.324 2.538-7.548-.48-.65-.964-1.003-1.97-.655-.887.306-2.507.48-2.825.047-.511-.697-.273-1.945-.234-2.957.014-.36.347-.723.577-1.057 1.384-2.017 3.397-3.114 5.815-3.51 2.013-.33 3.175-1.378 3.51-3.325.146-.843.326-1.695.622-2.496.921-2.487 3.343-3.108 5.398-1.425.28.229.575.447.81.712.58.653 1.103.543 1.738.038 2.149-1.704 2.712-4.816.998-6.934-1.301-1.61-2.883-3.01-4.34-4.504-.676-.695-1.542-1.292-1.994-2.104-1.593-2.87-3.267-5.729-4.497-8.749-1.599-3.922-2.937-7.896-5.47-11.438-1.291-1.804-2.729-3.216-4.77-3.933-1.746-.611-3.522-1.476-5.523-.832-.247.079-.78-.136-.896-.355-.125-.233-.024-.724.172-.943.535-.6 1.17-1.117 1.667-1.575-.45-.724-1.019-1.303-1.182-1.973-.3-1.236-1.043-1.994-2.218-2.311-1.25-.336-2.537-.615-3.826-.729-4.941-.435-9.89-.81-14.838-1.163-.81-.058-1.835-.162-2.422.23-2.634 1.755-5.078 3.734-5.95 6.929-.714 2.607-2.248 4.73-4.135 6.682-1.206 1.247-2.397 2.552-3.338 3.987-4.462 6.806-8.827 13.67-13.25 20.501-.774 1.197-1.731 2.289-2.45 3.513" fill="#DBDBDB"/><path d="M236.044 239.23c.296-4.234.529-8.475.972-12.696.262-2.491.54-5.044 2.363-7.096 1.905-2.147 4.066-4.155 3.772-7.413-.084-.914.257-1.916.615-2.796.269-.66.816-1.25 1.347-1.765 2.198-2.135 4.545-4.137 6.608-6.386.853-.929 1.609-1.523 2.859-1.436 2.078.145 4.152.39 6.233.453 3.478.107 6.96.112 10.44.138.814.006 1.549-.27 1.368-1.227a332.658 332.658 0 0 0-2.02-9.923c-.128-.572-.632-1.067-1.08-1.786-.377.577-.649.884-.8 1.24-.617 1.448-1.196 2.913-1.791 4.37-.47 1.145-1.012 1.589-2.338.758-1-.627-2.301-.997-3.5-1.085-1.76-.128-3.204-.731-4.156-2.079-1.706-2.416-3.292-4.915-4.833-7.434-.408-.666-.902-1.763-.615-2.264.964-1.684.374-3.445.697-5.113.27-1.4 1.265-2.654 1.743-4.035.42-1.219.915-2.567.762-3.786-.286-2.29-.178-4.437.881-6.502.653-1.272.55-2.508-.321-3.568-1.944-2.367-3.89-4.746-6.036-6.934-.752-.768-2.068-1.07-3.177-1.441-.924-.31-1.944-.341-2.885-.616-2.55-.745-4.922-.09-6.593 1.934-.75.908-1.39 1.905-2.178 2.779-.853.945-1.757 1.869-2.755 2.663-.84.67-1.716.586-2.402-.386-1.811-2.57-2.648-2.786-5.776-2.02-.808.198-1.811.022-2.62-.263-.898-.315-1.724-.647-2.429.145-.955 1.073-2.017 1.003-3.067.331-1.034-.662-1.972-1.468-2.925-2.24-.838-.68-1.558-1.524-2.47-2.08-2.135-1.303-4.355-2.478-6.548-3.71-.526.485-1.054 1.22-1.78 1.593-1.897.978-2.614 2.037-2.226 4.17.263 1.443-.369 2.22-1.634 2.692-.483.181-.998.371-1.504.389-1.297.046-1.627.556-1.52 1.837.101 1.194.06 2.676-.585 3.586-1.016 1.429-1.466 2.84-1.482 4.506-.034 3.324-.851 4.361-4.224 4.927-1.836.308-3.731.312-5.602.371-.967.03-1.418.345-1.45 1.33-.086 2.627-.404 5.255-.325 7.875.096 3.128.98 5.972 3.476 8.301 2.536 2.365 4.438 5.26 5.488 8.554.728 2.283 1.153 2.666 3.611 2.292.514-.078 1.034-.174 1.522-.343 1.355-.467 2.418-.047 3.412.868 2.33 2.146 3.498 4.83 4.154 7.827.808 3.687 1.75 7.347 2.66 11.013.094.38.346.73.564 1.07.632.988 1.578 1.89 1.868 2.96.753 2.779 4.04 3.031 5.267 5.272.07.129.486.06.73.12 2.2.554 4.413 1.064 6.582 1.711.53.158 1.206.716 1.315 1.195.636 2.812 1.908 5.72-.725 8.281-.188.184-.24.497-.55 1.176 1.109-.501 1.829-.837 2.557-1.155 2.85-1.241 4.605-.525 5.823 2.207.349.785.94 1.732 1.674 2.045 2.83 1.205 5.351-.432 5.559-3.4m211.897 136.454c1.907.891 3.784 1.842 5.948 2.907-.097-.737-.07-1.328-.264-1.84-.375-.989-.806-1.973-1.345-2.888-.592-1.006-.623-1.94-.209-3.017 1.414-3.682 2.764-7.388 4.127-11.088.73-1.981.523-2.29-1.636-2.363-3.914-.134-7.828-.23-11.74-.36-1.984-.066-3.97-.106-5.94-.3-.55-.055-1.367-.523-1.501-.96-.37-1.21-1.331-1.649-2.248-2.33a44.533 44.533 0 0 1-5.261-4.625c-.56-.573-.578-1.64-.903-2.669-1.492.87-3.192 1.75-4.765 2.805-2.065 1.384-4.202 1.429-6.395.523-2.249-.93-3.582-4.75-2.292-6.606 1.175-1.693 1.2-3.447.371-5.16-.807-1.667-2.618-1.26-4.125-1.534-1.595-.29-3.492-.5-4.599-1.455-1.433-1.236-2.344-3.11-3.24-4.828-.88-1.686-1.768-3.244-3.918-3.458-.416-.041-1.204.391-1.29.731-.803 3.158-2.566 5.81-4.488 8.404-1.361 1.838-3.22 2.661-5.491 2.712-1.828.042-3.658.038-5.486.015-1.265-.014-2.35.2-3.108 1.344-.473.712-1.278 1.098-1.899.187a37.829 37.829 0 0 1-2.449-4.165c-.528-1.046-1.052-1.226-1.97-.421-1.265 1.112-1.475 2.442-.898 4.075.26.737.488 2.03.116 2.307-.587.438-1.708.372-2.571.27-1.34-.156-2.643-.61-3.982-.778-2.37-.296-3.73.538-3.937 2.811-.237 2.585-.07 5.21-.009 7.816.071 2.992 1.394 5.456 3.726 7.38 2.298 1.897 3.546 4.246 3.991 7.128.198 1.28-.132 2.035-1.092 2.867-2.72 2.353-5.346 4.804-7.984 7.244-.452.418-.774.967-1.424 1.798 5.249-.367 9.132 1.508 12.615 4.55.893.78 2.334 1.143 3.584 1.338 2.363.37 4.772.462 7.16.701 3.029.304 5.868 1.007 8.613 2.48 3.703 1.988 7.837 3.071 12.094 3.19 3.457.099 6.634-1.075 9.65-2.731 1.616-.888 3.434-1.435 5.166-2.125 3.917-1.56 8.135-2.514 11.144-5.8.732-.798 2.151-1.2 3.322-1.387 2.03-.326 4.11-.342 6.168-.487l-.016-.348h-2.853l-.049-.25 1.001-.484c-.475-.382-.97-.78-1.464-1.18.82-.844 1.49-2.052 2.499-2.441 1.21-.467 1.557.766 1.723 1.766.03.18.172.344.293.575 1.03-.427 1.993-1.128 2.974-1.153.99-.024 2.08.54 2.188 1.88l-2.365.422.007.46c1.966.35 3.964.583 5.887 1.083 1.924.499 3.773 1.262 5.655 1.909-1.454-.935-3.043-1.546-4.59-2.247a3.812 3.812 0 0 1-1.401-1.099c-.183-.238-.117-.85.09-1.1.145-.176.776-.146 1.085-.001M240 308.833c2.012-.268 4.065-.287 6.105-.335 3.106-.074 4.45 1.206 4.545 4.275.017.55-.057 1.107-.14 1.654-.21 1.398-.426 2.795-.683 4.185-.209 1.129.268 1.494 1.38 1.306 1.13-.192 2.3-.606 3.391-.47 1.97.243 3.392-.573 4.908-1.552 2.246-1.45 4.646-2.676 6.9-4.115 1.07-.683 2.004-1.591 2.898-2.49.308-.313.308-.909.449-1.375-.478-.13-.957-.367-1.435-.366-.899.002-1.726-.055-2.018-1.034-.604-2.03-1.393-4.06-.597-6.212.37-1-.05-1.571-1-1.842-1.852-.525-3.699-1.092-5.582-1.484-1.769-.369-2.124-.933-1.596-2.638.824-2.662 3.07-3.155 5.451-3.62 1.886-.368 3.961-.563 5.544-1.486 2.464-1.437 5.057-2.096 7.805-2.532.922-.147 1.872-.332 2.717-.697 1.758-.76 3.145-3.008 2.409-4.038-1.611-2.255-.741-4.03.738-5.893 1.395-1.755 2.583-3.664 3.956-5.438.696-.9 1.468-1.87 2.443-2.412 1.176-.656 1.664-1.39 1.548-2.653-.182-1.969.297-3.772 1.4-5.477.599-.924.941-2.02 1.274-3.077.107-.342-.044-.985-.315-1.177-1.665-1.178-3.397-2.265-5.294-3.507-1.594 1.366-3.444 2.777-5.077 4.391-2.902 2.87-6.06 3.77-9.904 1.829-.848-.428-1.91-.706-2.847-.648-.78.046-1.521.685-2.28 1.063.32.59.54 1.263.979 1.755 1.343 1.508 1.65 2.905.493 4.389-1.831 2.35-4.088 4.253-7.293 4.544-4.888.444-9.786.787-14.683 1.138-.44.032-.957-.104-1.338-.324a37.845 37.845 0 0 1-3.12-1.993c-.658-.468-1.128-1.024-.487-1.907a48.186 48.186 0 0 0 2.449-3.726c.724-1.218 1.369-2.484 1.995-3.754.39-.79.845-1.601.983-2.446.333-2.032 1.442-3.075 3.534-3.233.785-.06 1.55-.375 2.28-.563l-1.224-1.732c.651-.236 1.3-.482 1.957-.703.14-.047.347.046.462-.02.661-.388 1.614-.663 1.895-1.236.799-1.636 1.375-3.38 1.92-5.118.14-.446-.047-1.404-.284-1.471-1.215-.345-2.516-.713-3.75-.616-1.188.093-1.486 1.258-1.594 2.321-.318 3.124-1.68 3.981-4.87 3.14-.912-.24-1.34-.637-1.129-1.61.448-2.067.875-4.142 1.205-6.23.082-.52-.234-1.098-.369-1.648l-.57.06c-.304.681-.574 1.38-.922 2.041-.59 1.12-1.17 2.253-1.878 3.302-.232.344-.851.444-1.294.655-.126-.451-.444-.945-.348-1.348.692-2.907.873-6.008 3.213-8.285-.112-.159-.168-.31-.231-.314-.981-.045-2.139-.402-2.906-.026-1.17.575.006 1.34.318 1.99.904 1.885-.046 3.507-2.177 3.688-2.574.219-3.44.91-4.143 3.372-.32 1.12-.488 2.285-.888 3.374-.69 1.873-.347 3.322 1.301 4.628 2.006 1.59 2.994 3.541 1.751 6.114-.66 1.368-.117 2.51 1.138 3.425 1.212.884 1.629 2.062.963 3.482-.651 1.39-2.173 2.253-3.65 2.128-.525-.043-1.066.09-1.6.144.17.541.22 1.163.535 1.61.963 1.368 1.113 2.66.052 4.05-.395.518-.65 1.154-.878 1.767-.455 1.223-.847 2.47-1.366 4.004-1.886-1.55-3.412-3.022-5.171-4.161-.999-.647-2.645-1.354-3.535-.987-3.26 1.342-7.002 2.067-9.214 5.134-2.149 2.98-4.855 5.077-8.66 5.668-.248.038-.48.197-.709.319-1.531.812-1.73 1.413-.917 2.935 1.67 3.13 2.297 6.755 4.878 9.465.389.409.343 1.173.667 1.671.789 1.213 1.608 2.42 2.543 3.527 1.075 1.274 2.316 2.415 3.433 3.657.786.873 1.34 1.996 2.257 2.688 1.33 1.006 2.855 1.801 4.376 2.534.837.404 1.876.788 2.754.673 2.846-.372 5.677-.912 8.478-1.533.917-.203 1.723-.866 2.59-1.298.892-.446 1.762-1.118 2.706-1.245zm88.947-172.59c1.35 2.54 2.084 5.256 1.655 8.17-.108.735-.246 1.605.865 1.808 1.32.242 1.303 1.006 1.047 2.03-.65 2.606-.63 2.664 2.123 3.225 1.388.282 1.921.99 1.918 2.31-.002 1 .112 2.013.308 2.995.284 1.431 1.037 2.534 2.67 2.806.997.165 1.398.754 1.43 1.69.054 1.628 1.044 2.233 2.624 2.664 2.127.58 4.145 1.408 6.413.733.315-.094.72.137 1.08.127 1.172-.034 1.481.557 1.535 1.597.135 2.613.353 5.224.595 7.83.106 1.142.43 2.136 1.895 2.426 1.287.257 1.633 1.146.705 2.105-3.126 3.23-6.77 5.836-10.886 7.807-.225.107-.508.107-.766.146-2.216.33-2.772 1.019-3.296 3.188-.256 1.059-.804 2.28-1.636 2.934-1.712 1.35-3.7 2.379-5.587 3.518-.99.598-2.012 1.15-3.18 1.812 1.722 1.754 2.226 3.696 1.638 5.753-.638 2.223-.092 4.05 1.41 5.735.302.338.52.758.72 1.167.75 1.524.523 2.789-.639 4.041-.838.904-1.824 1.199-3.088 1.076-3.778-.366-4.56.186-5.375 3.785-.255 1.123-.29 2.294-.4 3.446-.088.922-.515 1.388-1.533 1.201-1.279-.234-1.508.478-1.495 1.494.01.863.353 1.33 1.077 1.942 1.119.946 1.973 2.278 2.65 3.586.535 1.035-.364 1.82-1.088 2.606-.82.888-.301 2.44.934 2.85 2.565.85 5.166 1.602 7.748 2.394.57-1.547 1.272-1.834 2.805-1.112 1.785.842 2.945 2.255 3.576 4.035.507 1.43 1.545 2.12 3.022 2.25 6.07.543 12.077.141 18.047-1.052.796-.159 1.801.025 2.539.38 1.06.51 1.97 1.315 2.933 2.007.728.522 1.44 1.063 2.16 1.596l.371-.193-.363-4.092c-.616-.384-1.464-.75-1.425-.915a26.148 26.148 0 0 1 1.288-3.964c.325-.77 1.107-1.378 1.351-2.156.786-2.504.726-5.044.176-7.616-1.298-6.07-1.167-12.227-1.05-18.377.007-.341.135-.681.206-1.023l.67.243c.356-1.745.816-3.512 1.042-5.307.095-.756-.301-1.569-.473-2.355l-.462.095-.518 1.046-.524-.03-.769-7.514 1.636.43c.485-1.975-.716-4.09 1.029-5.745.102-.098-.082-.458-.106-.7a192.754 192.754 0 0 1-.292-3.082c-.026-.297.127-.717-.03-.878-.966-1.004-.53-1.62.81-2.055-1.423-.83-1.854-2.038-.9-2.912 1.714-1.572 2.117 1.028 3.562 1.32l.596-3.888c2.072.7 2.465 1.392 1.83 3.16-1.164 3.238-2.527 6.42-3.472 9.715-.146.507-1.204 3.539-.807 3.729.66.316.811-1.744.893-2.08a49.72 49.72 0 0 1 .94-3.356 49.808 49.808 0 0 1 2.507-6.33c2.217-4.645 4.249-9.324 5.01-14.42.08-.542-.151-1.127-.237-1.692-.636.117-1.301.159-1.894.38-.35.132-.664.506-.86.843-.745 1.285-1.818 1.284-2.93.638-.794-.462-1.402-1.218-2.19-1.692-1.031-.621-2.104-1.361-3.254-1.574-2.095-.387-4.28-.299-6.385-.644-1.604-.262-3.179-.8-4.7-1.377-1.47-.557-2.791-1.558-4.294-1.937-2.05-.518-3.91-1.151-5.667-2.393-1.285-.909-3.003-1.368-4.602-1.706-1.192-.253-1.816-.712-2.208-1.793-.338-.933-.955-1.768-1.404-2.667-.483-.965-.911-1.955-1.367-2.933-.04-.086-.105-.16-.163-.248l-.74.427-1.705-4.76c-.341-.95-.83-1.877-1-2.855-.534-3.108-.973-6.232-1.408-9.354-.29-2.068-2.207-3.21-4.113-2.294-1.251.602-2.398 1.406-3.57 2.107 1.054 1.352 2.14 2.41 2.812 3.673" fill="#DBDBDB"/><path d="M532.178 368.72c-1.83-.681-3.248-1.647-4.055-3.508-.853-1.965-2.448-3.351-4.541-4.18-1.608-.639-3.363-1.13-4.725-2.108-3.225-2.314-6.256-4.878-9.36-7.345-.2-.158-.44-.326-.541-.542-.67-1.44-2.035-1.935-3.43-2.412a7.842 7.842 0 0 1-1.281-.568c-1.084-.609-1.796-1.278-1.086-2.681.528-1.044-.017-1.93-1.105-2.486-1.06-.543-2.19-1.02-3.11-1.742-1.851-1.46-3.668-2.05-5.755-.48-.234.176-.58.28-.88.299-1.597.097-2.742.955-3.69 2.072-1.023 1.207-1.944 2.495-2.943 3.722a116.969 116.969 0 0 1-3.166 3.742c-.944 1.065-1.93.931-2.999.073-.708-.569-1.505-1.293-2.342-1.407-2.182-.3-2.976-1.651-3.391-3.439-.228-.983-.285-2.018-.635-2.955-.415-1.112-.863-2.316-1.656-3.17-1.303-1.406-2.623-1.227-3.523.428-.588 1.08-1.118 2.38-1.056 3.552.084 1.542-.51 2.557-1.436 3.656-.664.79-1.31 1.773-1.465 2.744-.37 2.347-1.413 4.144-3.449 5.508-.776.52-1.543 1.305-1.883 2.134-1.421 3.469-2.603 7.028-4.02 10.498-1.151 2.817-1.438 5.53.081 8.304.384.7.44 1.56.773 2.296.214.472.58 1.107 1.01 1.224 1.458.397 2.197.937.906 2.375l8.605 5.697.083-1.655c.892.651 2.158 1.2 2.111 1.612-.151 1.35.882 1.682 1.572 2.339 1.002.955 2.059 1.865 3.004 2.872 2.272 2.422 4.63 4.637 8.173 5.297 1.072.2 2.035.952 3.035 1.475.09.048.083.268.14.479l-1.19.534c1.317 1.255 2.51 2.45 3.768 3.576 2.532 2.264 5.067 4.526 7.666 6.717 1.498 1.264 2.575.873 2.938-1.015.161-.834.06-1.712.14-2.564.149-1.6-.011-3.339.602-4.762.875-2.033.62-3.541-.885-5.084-1.342-1.378-1.441-2.952-.49-4.6 2.442-4.23 4.997-8.406 7.269-12.72.902-1.714 2.108-2.272 3.909-2.36 7.73-.374 15.455-.827 23.187-1.164 1.409-.06 1.951-.415 1.875-1.838-.07-1.285-.058-2.669.364-3.862.66-1.861.837-1.85-1.123-2.578M28.501 72.146c.414.366.998.55 1.462.87 1.3.899 2.864 1.613 3.806 2.785 1.753 2.182 3.134 4.64 4.68 6.975.39.592.687 1.372 1.255 1.7 1.785 1.031 2.603 2.69 3.552 4.329.787 1.359 1.564 2.865 2.76 3.834 2.326 1.887 2.18 4.055.682 6.848-.676 1.259-.707 1.903.988 2.143-.33.887-.607 1.64-.888 2.39-.58 1.544-.482 1.748 1.168 1.967 2.129.284 4.26.561 6.4.756 5.323.484 10.652.914 15.977 1.38 1.28.112 1.978-.398 1.736-1.637-.404-2.058-.984-4.085-1.396-6.142-.27-1.346-.956-2.106-2.38-2.456-2.178-.535-2.976-1.6-3.183-3.795-.072-.753-.075-1.527-.28-2.247-.12-.419-.526-1.003-.892-1.071-1.206-.228-1.434-1.04-1.602-1.971-.197-1.088-.596-1.504-1.623-.569-.263.24-1.207.259-1.222.208-.279-.93-.865-2.009-.595-2.813.879-2.635.355-5.062-1.26-7.06-2.958-3.658-6.221-7.089-9.393-10.584-.357-.394-.909-.708-1.433-.862-1.232-.359-2.042-.883-1.965-2.317.028-.524-.46-1.083-.745-1.61-.856-1.579-2.337-3.103-2.472-4.733-.327-3.962-.007-7.97.004-11.96.004-1.862.023-3.74-.219-5.579-.115-.878-1.084-1.646-1.222-2.527-.668-4.275-.26-8.47 1.668-12.426.866-1.777.8-2.777-.566-4.255-.817-.884-1.588-1.808-2.453-2.8 2.275-.606 2.602-.99 2.637-3.144.016-1.004.178-2.145-.238-2.99-1.31-2.66-.175-4.514 1.762-6.256.727-.655 1.4-1.369 2.054-2.093.392-.433.7-.938 1.184-1.6-.758-.178-1.244-.361-1.74-.396-7.636-.53-15.27-1.074-22.91-1.547A719.123 719.123 0 0 0 5.416.07C3.726.002 2.024.221 0 .326c.46 1.09.78 1.813 1.073 2.547.805 2.025 1.775 4.008 2.355 6.092.752 2.704 1.914 5.047 4.227 6.85.391.306.25 1.245.356 1.891-.542-.034-1.084-.056-1.625-.109-.268-.025-.53-.109-.856-.179.299 1.152.52 2.175.833 3.17.34 1.08.583 2.245 1.19 3.18 2.073 3.193 4.116 6.336 3.928 10.348-.037.797.62 1.636.999 2.438.366.775.972 1.492 1.141 2.299.413 1.968.662 3.97.923 5.965.174 1.326.254 2.664.41 4.36l1.233-2.026c.54 1.163 1.011 2.026 1.349 2.935.428 1.154.964 2.33 1.052 3.525.091 1.23-.378 2.488-.454 3.742-.042.703.138 1.446.359 2.13.297.92.744 1.796 1.099 2.7.38.968.46 2.2 1.14 2.878 2.48 2.464 5.145 4.756 7.77 7.083" fill="#DBDBDB"/><path d="M126.623 212.816c-1.556-.988-2.406-2.343-2.74-4.06-.317-1.64-.64-3.279-.921-4.924-.153-.887-.492-1.413-1.536-1.604-.648-.119-1.285-.697-1.765-1.213-1.673-1.794-3.255-3.67-4.929-5.466-.266-.286-.996-.555-1.204-.411-.339.231-.553.803-.583 1.246-.05.749.187 1.52.103 2.261-.046.403-.448 1.018-.784 1.083-.472.091-1.474-.221-1.482-.391-.053-1.308-1.09-1.2-1.92-1.505-.61-.223-1.319-.578-1.645-1.08-2.27-3.503-2.806-7.29-1.843-11.321.223-.934.356-2.008.097-2.899-.362-1.245-1.037-2.433-1.743-3.55-1.819-2.877-2.705-5.994-2.94-9.338-.049-.711-.386-1.453-.762-2.085-1.475-2.477-3.166-4.845-4.464-7.403-.514-1.014-.27-2.417-.261-3.642.006-.937.393-1.906.245-2.804-.336-2.03-.937-4.018-1.36-6.036-.337-1.615.117-3.472-1.71-4.596-.285-.174-.27-.757-.487-1.093a258.839 258.839 0 0 0-3.788-5.708c-.196-.286-.614-.429-.975-.668-.592 1.973-.238 3.297 1.297 6.151.26.485-.005 1.235-.028 1.863-.595-.245-1.201-.468-1.777-.749-.16-.078-.286-.317-.328-.504-.718-3.176-1.576-6.334-2.044-9.545-.169-1.16-.284-2.068-1.362-2.625-1.808-.933-2.656-2.427-3.083-4.324-.608-2.706-1.667-5.304-3.884-7.138-2.598-2.149-4.194-4.842-5.465-7.827-.226-.53-.947-1.131-1.514-1.213-2.938-.425-5.9-.703-8.856-1.011-4.46-.464-8.922-.905-13.382-1.368-1.443-.15-2.781-.496-3.303-2.342l-1.416 1.813 1.093 1.924 2.198.202c.003.156.005.313.009.469-.402.287-1.04.501-1.159.873-.314.98-.894 1.426-1.833 1.033-.726-.305-1.398-.829-1.951-1.387-.358-.361-.457-.96-.692-1.498-.385.12-.67.142-.859.282-2.327 1.718-4.771 1.4-7.283.468-1.266-.469-2.548-.922-3.86-1.241-.685-.167-1.448-.03-2.175-.03l-.324.569c.876.939 1.745 1.883 2.627 2.817.683.722 1.356 1.454 2.079 2.137.788.744 1.514 1.682 2.47 2.1 1.95.852 2.886 2.18 3.074 4.19.093.99.188 2.113.72 2.895.569.836 1.719 1.948 2.501 1.87 2.02-.202 3.043.808 3.965 2.136.901 1.299 1.839 2.427 3.6 2.657.512.066 1.078.458 1.429.858 1.333 1.52 2.605 3.093 3.866 4.671.526.659 1.436.656 1.924-.122.237-.38.26-.883.494-1.266.246-.403.626-.73.948-1.089.313.322.584.702.95.952.722.494 1.452 1.096 2.27 1.288.39.091 1.105-.577 1.463-1.05.518-.686.79-1.543 1.28-2.254.216-.313.713-.444 1.083-.658.144.406.484.857.395 1.208-.261 1.04-.692 2.038-1.057 3.053.441-.026.883-.052 1.875-.108-1.781 1.639-.636 2.906-.124 4.236.092.237.243.481.237.72-.061 2.456 1.476 3.474 3.674 4.006.378.091.977.797.906.924-.583 1.05.214 1.3.877 1.713.876.546 1.673 1.22 2.572 1.725.649.362 1.427.781 2.118.738 1.147-.072 1.59.483 2.004 1.314.384.765.83 1.503 1.277 2.237.565.925 1.419 1.77 1.685 2.766.568 2.123.838 4.32 1.24 6.545l.478-1.193.402.061c.43 5.837-2.084 11.122-3.574 16.567l1.227.715-1.757 1.458 1.876 3.003c.212-.119.522-.292.893-.502l.272.986.783-1.514 2.596 6.042c2.476-.441 2.424-.411 3.759 1.81.487.811 1.29 1.444 1.943 2.163.273.3.533.611 1.02 1.171l-3.18-.514-.112.409c1.053.362 2.137.658 3.15 1.105 1.36.6 2.885 1.084 3.95 2.03 2.798 2.492 5.615 5.027 7.992 7.884 2.208 2.657 4.236 5.338 7.46 6.962.867.436 1.563 1.345 2.124 2.172 2.075 3.054 2.96 6.535 3.83 10.047.348 1.405 1.286 2.695 2.074 3.97.543.877 1.35.868 2.307.406 1.911-.921 3.878-1.733 5.832-2.569 3.935-1.682 6.06-8.688 1.611-11.516m164.616 42.671c.887.929 1.557.683 2.265-.236 2.324-3.016 2.735-6.255 1.201-9.675-.48-1.072-.694-1.812.387-2.759 1.499-1.312.818-3.893-1.151-4.917-.87 2.43-2.482 4.031-5.275 4.282-.198.018-.398.122-.577.218-1.487.803-1.93.572-2.823-.926-.63-1.055-1.467-2.037-2.382-2.884-.82-.756-1.9-1.246-2.815-1.916-2.348-1.719-3.703-3.868-3.495-6.858.062-.89-.412-1.915-.919-2.717-.856-1.355-.923-2.175.58-2.833 2.212-.97 4.587-1.594 6.875-2.411 1.546-.55 3.377-.842 4.53-1.839 3.023-2.615 5.762-5.535 8.577-8.367 1.099-1.106 1.541-2.37 1.222-3.997-.398-2.023.418-2.809 2.517-3.116.501-.072 1.246-.39 1.37-.755.604-1.776 1.726-3.06 3.371-4.011.258-.15.28-.675.41-1.027-.326-.103-.657-.19-.975-.31-.979-.371-2.13-.555-2.885-1.178-1.136-.935-1.93-2.242-2.995-3.272-.525-.506-1.292-.9-2.018-1.063-.794-.178-1.694.098-2.497-.06-.773-.15-1.626-.453-2.19-.952-1.282-1.135-2.4-2.44-3.61-3.656a1.754 1.754 0 0 0-.796-.457c-4.06-.934-7.859-2.779-12.136-2.98-3.345-.156-3.87.304-2.53 3.3 1.67 3.73 2.086 7.538 1.508 11.52-.126.87-.496 1.315-1.336 1.35-2.347.098-4.709.323-7.042.175-3.232-.206-6.447-.686-9.663-1.095-1.13-.143-1.735.304-2.469 1.136-1.944 2.205-3.969 4.384-6.23 6.277-1.346 1.127-2.187 2.278-2.217 3.925-.024 1.303.102 2.609.194 3.912.083 1.193-.124 2.105-1.675 2.17-.42.016-1 .258-1.207.576-1.02 1.556-2.308 3.07-2.822 4.786-1.522 5.07-1.645 10.322-1.378 15.561.028.56.89 1.232 1.528 1.56.428.223 1.143-.068 1.73-.13-.092-.687-.236-1.372-.265-2.06-.046-1.108-.264-2.303.1-3.286.148-.397 1.633-.417 2.516-.456.608-.026 1.242.17 1.842.34 1.633.468 1.695.978.856 2.381-1.305 2.186-2.412 4.479-3.604 6.726l.614.275c.578-1.438 1.152-2.879 1.737-4.314.74-1.82 1.767-2.061 3.071-.556.45.52.634 1.485.516 2.18-.276 1.632-.87 3.212-1.213 4.835-.192.908-.432 1.99 1.098 2.192 1.375.182 2.188-.367 2.448-1.72.134-.693.165-1.41.374-2.079.524-1.674 2.098-2.457 4.14-2.13 2.663.426 3.314 1.011 3.176 3.216-.227 3.66-1.694 6.829-4.475 9.368-.63.575-1.474 1.36-2.197 1.338-2.54-.078-3.168 1.528-3.737 3.34-.103.332-.31.637-.483.947-1.567 2.822-3.137 5.64-4.786 8.602 1.76.487 2.42 2.26 4.412 2.082 3.793-.336 7.607-.439 11.413-.63 2.716-.139 5.092-1.017 7.082-2.846 2.37-2.178 2.22-4.427-.476-6.26-.255-.173-.603-.24-.815-.443-.505-.488-1.296-.989-1.366-1.554-.273-2.164-.45-4.363-.348-6.536.036-.746.884-1.574 1.559-2.152 1.587-1.359 3.278-2.608 4.961-3.859.399-.296.94-.41 1.407-.629 1.817-.847 3.614-1.737 5.455-2.535.496-.215 1.354-.422 1.646-.182 2.158 1.764 4.265 3.634 4.983 6.41.396 1.537 1.296 2.746 2.832 2.869 2.304.183 3.92 1.257 5.37 2.775m88.567 5.141c-2.58-1.603-4.32-3.913-5.968-6.326-.584-.854-1.21-1.682-1.924-2.668 1.043 2.35 1.994 4.505 2.966 6.651.069.153.273.265.44.355 4.113 2.218 6.228 7.695 4.699 12.642-.357-.69-.63-1.207-.893-1.729-.8-1.585-1.586-3.176-2.394-4.757-1.356-2.66-2.77-5.293-4.073-7.977-.863-1.78-1.545-3.641-2.368-5.44-.248-.54-.602-1.116-1.074-1.46a171.97 171.97 0 0 0-6.22-4.323c-.393-.262-.997-.479-1.43-.388-1.48.309-2.925.764-4.41 1.17.842.642 1.884 1.302 2.733 2.144.37.366.599 1.536.46 1.614-1.63.907-1.601 2.668-2.271 4.025-.492.994-.759 2.216-.695 3.311.082 1.418-.182 2.612-1.155 3.63-.838.879-.757 1.676-.253 2.736.666 1.398 1.242 2.902 1.467 4.414.285 1.92 1.078 2.738 3.128 2.685.46-.011.948.332 1.391.57.335.18.585.524.928.671 1.261.542 1.657 1.398 1.292 2.69-.381 1.356-.67 2.736-.975 4.113-.234 1.065-.86 1.546-1.906 1.044-1.18-.566-1.938-.245-2.635.742-.332.471-.88.8-1.46 1.304 1.846.383 1.514 1.254.766 2.308-.44.618-.971 1.328-1.012 2.021-.053.925.33 1.875.525 2.814.798-.17 1.668-.207 2.374-.554.614-.303 1.038-.965 1.556-1.456 1.117-1.056 2.197-2.153 3.374-3.142 1.011-.847 2.152-1.487 3.585-.524.621-1.816 1.664-3.138 3.478-3.744 1.606-.537 2.316-.229 2.517 1.394.2 1.617 1.017 2.653 2.386 3.498 2.271 1.404 2.346 2.684-.04 3.868-2.052 1.018-2.228 2.57-2.23 4.366 0 1.049 1.692 2.894 2.744 2.89.398-.002.974-.364 1.163-.716 1.008-1.868 1.873-2.11 3.777-1.012.933.538 1.897 1.056 2.907 1.433 1.85.69 1.974 1.167.753 2.698-2.474 3.1-4 6.62-4.447 10.511-.232 2.02.55 2.967 2.563 3.598 1.14.357 2.338.556 3.449.977 1.572.594 1.718 1.8.304 2.698-.858.544-1.955.735-2.816 1.276-.63.396-1.233 1.026-1.529 1.687-.654 1.458-.985 3.055-1.672 4.495-.898 1.886-.764 2.438 1.309 3.125 1.08.358 1.934.8 2.296 2.01.715 2.392.976 2.463 3.435 1.62.246-.085.5-.15.736-.252 1.07-.469 1.913-.206 2.593.699.267.355.591.67.95 1.068 1.32-1.69 2.34-3.337 2.062-5.476-.09-.695-.11-1.703.95-1.497 2.479.482 4.877 1.295 6.296 3.544 1.075 1.702 1.993 3.495 3 5.238.118.205.336.417.557.498 1.67.606 3.19 1.531 5.199 1.076 2.087-.473 3.186.347 3.91 2.346.69 1.904 1.005 3.709-.28 5.627-1.177 1.758-.747 3.67.667 4.977 1.38 1.276 3.097 1.518 4.735.583 2.049-1.17 4.031-2.452 6.112-3.561.538-.286 1.619-.384 1.947-.073.406.388.587 1.427.334 1.939-.434.88-.28 1.486.372 2.004 1.682 1.34 3.418 2.617 5.126 3.923.564.432 1.434.792 1.604 1.344.478 1.559 1.636 1.654 2.93 1.655 5.478.006 10.963.132 16.433-.071 1.726-.065 3.468-.915 5.095-1.635.488-.215.962-1.284.836-1.83-.515-2.231-1.404-4.331-3.232-5.933-1.585-1.389-3.234-2.73-4.654-4.264-.832-.899-1.4-2.09-1.855-3.235-.465-1.164-.696-2.426-.938-3.663-.232-1.179-.896-1.377-2.03-1.224a54.749 54.749 0 0 1-5.602.462c-1.996.059-3.75-1.627-4.437-3.4-.679-1.75-1.574-3.435-3.634-4.308-1.874-.794-3.632-1.907-5.309-3.06-1.252-.863-2.43-1.263-4.022-1.216-2.469.073-4.953-.279-7.43-.465-.359-.026-.713-.129-1.07-.196.863.587 2.03.749 2.185 1.954-1.496-.215-2.897-.19-4.088-.663-.879-.349-1.481-1.347-2.206-2.056l1.234-.557c-.915-.946-1.99-2.067-3.082-3.174-.426-.433-.891-.828-1.336-1.244-.741-.694-1.506-1.366-2.214-2.09-1.073-1.095-2.005-2.34-3.183-3.31-1.227-1.01-2.152-2.149-2.191-3.683-.087-3.493-1.693-6.337-3.563-9.201-2.543-3.893-5.078-7.743-8.381-11.105-2.63-2.675-5.443-5.155-6.68-8.966-1.46-4.496-3.337-8.813-1.971-13.667.388-1.385-.125-2.658-1.39-3.444M321.1 129.844c-1.827-1.308-3.255-.864-3.927 1.237a5.826 5.826 0 0 0-.257 1.185c-.284 2.852-1.848 4.43-4.815 4.952-2.244.395-4.059 1.657-5.232 3.583-.295.485-.196 1.193-.278 1.8.584-.044 1.268.088 1.73-.163 1.469-.8 2.594-.356 3.36.85.498.785.774 1.768.898 2.693.363 2.701-.863 4.938-2.553 6.945-.278.33-1.048.295-1.599.386-.729.12-1.618-.017-2.167.342-1.513.988-2.897 2.163-4.31 3.29-2.455 1.958-2.483 1.997-.308 4.2 2.692 2.723 4.445 5.779 4.363 9.684-.015.697.552 1.495 1.047 2.098 1.543 1.883 3.178 3.695 4.787 5.528.13.148.315.266.498.351 1.8.83 3.625 1.61 5.394 2.493.546.273 1.377.885 1.319 1.221-.111.655-.649 1.365-1.22 1.787-.433.32-1.192.305-1.807.312-2.098.026-4.199-.066-6.294.007-1.861.065-3.733 2.21-2.913 3.486 1.41 2.193.886 4.344.545 6.59-.325 2.152-.27 4.31 1.442 5.983 2.034 1.986 2.568 4.353 2.127 6.981-.315 1.87.14 3.51 1.267 5.004 1.257 1.665 1.736 3.52 1.691 5.565-.059 2.73-.045 5.463-.02 8.194.013 1.264.7 1.767 1.75 1.369 1.387-.528 2.77-1.065 4.333-1.666.259-2.065.308-2.073 2.736-2.673.365-.09.749-.65.858-1.059.3-1.121.387-2.295.687-3.416.676-2.511 1.67-3.278 4.367-3.62 1.139-.145 2.308-.244 3.392-.575 1.594-.488 1.924-1.4 1.137-2.814a18.951 18.951 0 0 0-1.528-2.296c-.987-1.292-1.405-2.633-.987-4.265.532-2.076.883-4.095-1.18-5.841-1.076-.912-.561-1.819.756-2.424 1.404-.645 2.723-1.462 4.051-2.247 1.023-.603 1.923-1.507 3.022-1.861 1.71-.553 2.417-1.59 2.62-3.203.269-2.165 1.59-3.396 3.817-3.839.905-.179 1.89-.389 2.626-.881 2.492-1.672 4.9-3.463 7.313-5.244.472-.348.82-.852 1.238-1.297-2.707-1.894-2.707-1.894-2.762-5.28-.021-1.367.02-2.736-.078-4.097-.207-2.888-1.281-3.482-4.11-2.352a1.218 1.218 0 0 0-.277.144c-1 .736-1.626.284-2.389-.479-.513-.514-1.394-.94-2.12-.954-2.496-.048-2.589-.127-3.151-2.537-.181-.777-.76-1.89-1.395-2.068-2.131-.6-2.938-1.927-3.085-3.882a12.084 12.084 0 0 0-.27-1.798c-.463-2.014-.968-2.509-3.122-2.793-1.053-.14-1.544-.666-1.475-1.593.076-1.019.327-2.025.512-3.106-1.3-.295-2.372-.886-1.865-2.48.96-3.022-.168-5.675-1.547-8.264-.344-.645-.901-1.3-1.536-1.664-1.383-.793-1.51-1.884-.714-2.937.899-1.189 2.109-2.16 3.317-3.356-.929-1.48-1.213-1.483-2.685.145-2.125 2.351-2.536 2.402-5.023.62" fill="#DBDBDB"/><path d="M367.76 315.248c-.49-.098-1.228.024-1.57.337-1.467 1.338-3.047 1.01-4.465.208-1.198-.679-2.156-1.754-3.22-2.654l.468-.603c.457.229.959.402 1.362.7.576.427 1.05.984 1.624 1.413 1.022.763 2.068.895 3.086-.053.846-.787 1.764-1.216 2.962-.66.266.124.738.049 1.017-.105 1.273-.7 2.51-1.462 3.898-2.283-.37-.952-1.466-1.319-2.534-1.817-.747-.347-1.372-.98-1.967-1.567-.148-.145-.082-.709.095-.886.18-.18.73-.272.92-.138 1.357.958 2.74 1.905 3.953 3.023.564.518.763 1.409 1.128 2.132-.747.349-1.497.696-2.243 1.05-.53.251-1.238.382-1.55.794-.782 1.037-1.677 1.369-2.964 1.11m-2.312-10.314c.852.413 1.672.894 2.478 1.39.03.018-.247.586-.257.582-.966-.356-1.92-.743-3.13-1.232.502-.418.811-.786.909-.74m7.108 28.314c1.587-.577 2.142-.16 2.147 1.518.005 1.944 1.243 2.877 3.243 2.485.506-.1 1.036-.1 1.556-.102 1.928-.01 3.857-.004 5.785.003 2.5.009 4.627-.848 6.079-2.832.367-.503.392-1.583.075-2.12-.324-.546-1.234-.962-1.938-1.047-.786-.096-1.622.303-2.447.38-1.155.11-2.123-.319-2.453-1.444-.493-1.678-1.583-2.614-3.263-3.139-1.35-.421-1.803-1.478-1.41-2.794.23-.773.595-1.506.873-2.267.363-.997.903-1.986 1.007-3.011.245-2.426.39-2.689 2.846-3.267.819-.192 1.622-.452 2.433-.681l.015-.546c-1.293-.442-2.588-.882-3.88-1.327-3.095-1.065-4.12-2.527-3.179-5.542 1.052-3.362 2.546-6.593 3.83-9.888.152-.39.386-1.106.26-1.185-1.134-.708-2.292-1.445-3.553-1.846-.358-.114-1.106.822-1.629 1.323-.776.744-1.42 1.655-2.775 1.061-2.962-1.298-4.561-6.074-2.805-8.707.293-.44 1-.62 1.518-.918.554-.317 1.11-.63 1.666-.943-.413-.492-.834-.977-1.235-1.478-.707-.882-1.435-1.75-2.087-2.67-.327-.462-.458-1.42-.76-1.452-.559-.062-1.363.241-1.727.665-.532.617-1.06 1.471-1.07 2.231-.03 1.922-.89 3.382-2.126 4.747-1.189 1.314-2.351 2.654-3.541 4.002 1.767 1.927 1.83 2.16.822 5.1-.31.908-.814 1.76-1.079 2.678-.218.759-.442 1.626-.27 2.358.602 2.567.667 2.559-2.136 2.692-.277.013-.563-.112-.844-.174.102-.302.176-.618.313-.906.423-.88.914-1.733 1.299-2.628.435-1.014.665-2.122 1.193-3.082 1.325-2.41 1.198-3.618-.8-5.552-1.09-1.053-.844-1.58.393-2.42 1.64-1.112 3.142-2.45 4.523-3.86.35-.355.013-1.344-.009-2.042-.694.049-1.548-.132-2.05.195-1.024.668-1.836 1.632-2.775 2.43-1.093.93-2.149 1.934-3.365 2.687-1.851 1.15-3.229.621-3.491-1.454-.175-1.385.18-2.858.466-4.26.144-.705.544-1.183-.38-1.756-.834-.516-.625-1.274.258-1.793.57-.334 1.278-.633 1.603-1.14.949-1.474 2.1-1.837 3.675-1.032.094.049.278-.07.184-.042.428-1.344.832-2.524 1.168-3.72.113-.397.231-1.096.043-1.22-.845-.55-1.753-1.164-2.722-1.353-2.847-.552-3.754-1.541-3.797-4.468-.003-.31-.361-.617-.555-.925-.25.268-.684.519-.714.809-.088.848.084 1.727-.048 2.565-.06.37-.66.992-.92.95-2.35-.38-4.73-.731-6.998-1.414-1.165-.352-1.692-.328-2.36.701-1.75 2.693-3.049 3.219-5.742 2.65-1.174 2.486-2.747 4.863-3.416 7.46-.983 3.824-4.49 4.185-7.14 5.768-.029.018-.151-.11-.297-.22.082-.206.106-.526.275-.637 1.027-.674 2.05-1.368 3.147-1.923 1.268-.642 1.917-1.515 2.444-2.883 1.069-2.772 2.545-5.41 4.04-8.005.314-.544 1.691-1.115 2.133-.88 1.85.978 2.214-.791 3.15-1.394.921-.594.257-1.325-.074-1.995-.808-1.634-1.667-3.25-2.362-4.93-.465-1.124-1.136-1.225-1.825-.437-.651.745-1.226 1.669-1.472 2.605-.342 1.295-1.017 1.575-2.15 1.12-1.152-.464-2.297-.962-3.393-1.54-2.056-1.082-2.95-.7-3.014 1.557-.018.615.579 1.35 1.084 1.85.836.827.835 1.452.042 2.319-1.155 1.263-2.423 1.614-4.054 1.02-.468-.17-1.397-.246-1.516-.04-.779 1.343-1.513 2.736-2.016 4.192-.345 1-.863 1.253-1.832 1.15-.602-.067-1.24-.102-1.825.02-1.206.251-2.372.702-3.583.918-1.732.31-2.377.782-2.161 2.503.196 1.571.897 3.077 1.267 4.635.482 2.023 1.766 3.472 3.226 4.896 1.6 1.56 3.001 3.307 4.54 4.926.28.295 1.093.604 1.18.507.868-.98 1.784-1.968 2.393-3.102.886-1.647 1.529-3.417 2.288-5.13.022-.05.184-.043.656-.139-.07.979.053 1.938-.242 2.757-.425 1.175-.089 1.905.984 2.308 1.632.615 3.276 1.263 4.976 1.62 1.505.317 2.44 1 2.894 2.397.327 1.009.6 2.056 1.092 2.99.788 1.492 1.806 1.534 2.808.161.964-1.323 2.237-2.097 3.872-2.303 1.12-.141 2.198.261 2.241 1.366.078 2.013 1.31 2.088 2.827 2.035 2.567-.091 4.47.696 4.947 3.475.227 1.32 1.338 1.358 2.435 1.323.659-.02 1.32-.004 1.98-.004l.089.443c-.39.171-.768.45-1.173.493-.98.103-1.993-.003-2.956.17-.562.102-1.055.576-1.579.883.458.443.87.947 1.389 1.306.36.25.914.226 1.289.464.24.153.308.559.453.852-.3.133-.68.452-.892.37-1.24-.483-1.471.244-1.567 1.144a34.237 34.237 0 0 0-.174 2.414c-.112 3.027-.147 6.057-.34 9.08-.074 1.133-.585 2.23.155 3.343.15.224 0 .679-.09 1.007-.33 1.2-.611 2.422-1.085 3.569-.2.482-.944 1.201-1.256 1.122-2.4-.606-3.871.968-5.765 1.932 1.93 1.609 3.675 3.105 5.472 4.539a9.828 9.828 0 0 0 2.085 1.243c1.222.548 2.533.92 3.728 1.515.962.48 1.668.344 2.599-.142 1.103-.576 2.39-1.113 3.604-1.13 1.566-.023 3.138.506 4.715.76.469.076.96.023 1.441.029-.089-.423-.157-.85-.269-1.268-.189-.708-.716-1.486-.552-2.098.519-1.949 1.791-3.412 3.79-4.139" fill="#DBDBDB"/><path d="M358.61 374.973c.808-1.682 2.328-2.521 3.713-3.566.987-.744 2.01-1.479 2.836-2.372.596-.644 1.258-1.542 1.257-2.327 0-2.34-.412-4.674-2.53-6.234-1.915-1.41-3.739-2.832-4.204-5.298-.258-1.362-.714-2.705-.816-4.075-.103-1.393.158-2.807.191-4.214.071-3.091-1.252-4.655-4.38-5.486-.935-.248-1.917-.654-2.643-1.253-3.24-2.67-6.825-4.993-9.323-8.433-.199-.276-.784-.513-1.115-.443-2.575.549-2.976.258-4.353-1.908-.69-1.085-1.817-2.07-2.984-2.679-1.78-.927-2.682-.4-3.819 1.215-.465.66-1.451 1.427-2.167 1.398-2.556-.105-4.407.84-5.943 2.715-.9 1.096-2.255 1.318-3.358.508-.674-.495-1.047-1.531-1.276-2.394-.462-1.74-.794-3.502-2.515-5.129-.35.89-.703 1.482-.802 2.11-.122.787-.01 1.607-.048 2.41-.117 2.508-.807 3.029-3.297 2.516-.51-.105-1.016-.23-1.525-.343-4.616-1.019-9.288-1.445-14.002-.97-2.124.214-4.065.4-5.897-1.102-1.323-1.084-3.27-.88-4.55-.018-1.498 1.007-1.153 2.264-.7 3.635.555 1.672.148 2.607-1.394 3.605-.563.364-1.156.686-1.735 1.028-1.244.737-1.528 1.882-1.296 3.148.062.333.539.824.858.848 3.337.26 5.486 2.282 7.434 4.58 1.252 1.476 2.667 2.6 4.621 3.196 1.198.366 2.649.985 3.25 1.926 1.17 1.836 2.963 2.773 4.626 3.954.5.355 1.12.728 1.344 1.232.513 1.162 1.502 1.583 2.586 1.98.73.27 1.427.626 2.156.902 2.283.863 4.517 2.157 6.876 2.43 2.324.268 4.322 2.502 6.896 1.103.12-.064.404.078.574.181 2.963 1.783 5.916 3.583 8.883 5.36.541.324 1.137.564 1.707.843l.3-.394-1.74-.855.455-.71c.658.117 1.318.225 1.973.354.948.186 1.897.558 2.838.54 1.34-.023 2.435.226 3.396 1.182.787.785 1.687 1.302 2.938.63.337-.183 1.137.083 1.517.386 1.372 1.096 2.93 1.484 4.66 1.454 1.719-.03 3.11.594 4.292 1.828.912.953 1.97 1.785 3.02 2.6.25.193.845.274 1.088.12.777-.49 1.772-.977 2.126-1.714" fill="#DBDBDB"/><path d="M281.193 336.106c1.444-.779 2.048-1.9 1.428-3.56-.45-1.202-.288-2.413.715-3.39 1.436-1.4 5.028-1.708 6.791-.696.685.392 1.525.682 2.314.733 4.028.257 8.072.319 12.09.654 2.536.212 5.04.783 7.727 1.22.135-1.459.15-2.977.46-4.436.173-.81.662-1.905 1.325-2.196 1.465-.642 2.3-1.72 2.67-3.017 1.065-3.747 2.093-7.517 2.843-11.332.622-3.167.87-6.347 2.56-9.294.575-1.006.246-2.833-.305-4.006-.534-1.137-2.06-.963-3.268-.585-.595.188-1.25.349-1.724.71-2.957 2.243-6.297 1.892-9.645 1.37-.636-.098-1.316-.437-1.797-.856-1.437-1.253-3.07-1.465-4.845-1.039-.862.207-1.686.555-2.535.816-2.243.69-3.857-.201-4.35-2.398-.089-.396-.116-.804-.188-1.203-.3-1.675-1.375-2.556-3.09-2.27-.829.138-1.64.62-2.355 1.09-1.911 1.261-2.968 1.417-4.373-.303-1.777-2.176-3.803-2.782-6.439-2.066-.296.08-.638-.01-.94.059-2.028.46-4.219.618-6.037 1.494-2.631 1.268-5.278 2.146-8.181 2.524-1.068.139-2.22.688-3.034 1.38-1.125.96-.795 1.625.646 2.09 1.985.642 3.971 1.3 5.885 2.111.527.223 1.242 1.19 1.105 1.525-.773 1.908-.622 3.66.124 5.547.347.878.558 1.386 1.616 1.431 1.943.082 2.596 1.1 1.863 2.822-.277.649-.586 1.39-1.117 1.81-1.223.97-2.58 1.787-3.9 2.638-2.09 1.345-4.227 2.623-6.28 4.017-1.303.886-2.606 1.169-4.236 1.176-2.04.01-4.082.639-6.11 1.061-.3.063-.564.433-.782.707-.64.805-1.21 1.661-1.874 2.445-.94 1.112-.92 2.24-.105 3.352.818 1.116 1.964 2.064 2.54 3.276 1.235 2.598 3.674 3.471 6.083 4.446.965.391 2.009.598 2.981.974 2.621 1.012 5.219 2.08 7.834 3.104 1.114.437 2.227.904 3.383 1.213 1.863.5 3.759.89 5.645 1.305.714.157 1.44.267 2.165.373 1.3.19 2.007-.244 1.914-1.635-.152-2.263.669-4.038 2.803-5.19m25.212-136.219c-1.352 1.34-3.004 2.423-3.815 3.925-.946 1.754-1.44 3.546-4.182 2.878 0 .652-.093 1.11.016 1.518.512 1.912-.161 3.468-1.5 4.828-2.231 2.268-4.423 4.576-6.74 6.76-2.637 2.484-5.62 4.211-9.54 4.386-1.639.073-3.229 1.158-4.39 1.607.616 2.309 1.202 4.149 1.58 6.026.449 2.232 1.298 4.21 3.503 5.256 2.097.994 3.782 2.322 4.702 4.117 1.036 0 1.727.026 2.413-.008.49-.025 1.158.04 1.432-.23.888-.876 1.79-1.805 2.387-2.868.67-1.191 1.11-1.433 2.228-.61 2.117 1.555 2.69 3.94 1.625 6.337-.314.705-.734 1.635-.503 2.252 1.332 3.548.528 6.82-1.093 10.029-.447.885-.337 1.473.785 1.243 1.24-.252 2.087.164 2.984.896.48.395 1.217.67 1.85.69 2.99.097 5.494 1.093 7.435 3.33.328.378.801.648 1.227.94 1.835 1.256 2.831 1.204 4.368-.377.954-.981 2.02-1.52 3.44-1.523 1.62-.002 2.865.21 4.3 1.398 1.601 1.325 4.075 1.698 6.2 2.4.259.085.867-.272 1.041-.57 1.013-1.736 1.636-1.927 3.443-.915.858.481 1.692 1.012 2.586 1.425 1.05.484 1.746.33 2.319-.886.513-1.09 1.488-2.02 2.398-2.888.663-.63 1.464-.508 1.956.345.71 1.23 1.353 2.499 2.091 3.713.47.774.904 1.874 1.628 2.141 2.447.903 4.71 2.444 7.575 2.142 1.264-.133 1.799-.367 1.54-1.725-.113-.59.22-1.624.689-1.876 1.087-.582.918-1.072.422-1.905-1.15-1.93-.932-2.702.644-4.417.432-.47.616-1.31.587-1.967-.033-.724-.372-1.465-.705-2.14-.407-.82-.439-1.332.584-1.776.54-.235.998-.861 1.262-1.413.489-1.02.808-2.117 1.305-3.474-2.093-2.322-5.07-3.016-8.596-2.755-2.69.2-5.424-.066-8.133-.22-1.686-.097-2.7-1.05-3.313-2.588-.381-.957-1.042-1.857-1.76-2.624-.327-.348-1.302-.61-1.63-.402-1.183.752-2.322.484-3.473.159-2.111-.597-4.218-1.212-6.296-1.906-2.997-1-3.437-2.35-1.626-4.85.71-.982 1.022-2.135 0-2.849-1.606-1.12-3.438-1.949-5.215-2.825-.294-.145-.838.017-1.195.18-3.151 1.432-4.534.68-4.624-2.63-.069-2.566.056-5.138-.07-7.699-.063-1.282-.147-2.756-.821-3.778-1.611-2.443-1.975-5.079-1.893-7.804.081-2.709-1.473-4.479-3.432-6.423m-100.31 38.555c.725 1.757 1.288 2.04 2.989 1.394-.101-2.059-.534-4.093-.202-6.001.364-2.085 1.369-4.082 2.23-6.063.502-1.155.154-1.714-.887-2.306-.978-.558-2.129-1.209-2.623-2.114-1.43-2.623-3.846-4.835-3.86-8.097-.002-.278-.256-.548-.34-.836-.655-2.265-1.72-4.513-1.84-6.806-.162-3.12-1.702-5.411-3.505-7.705-.816-1.04-1.908-1.337-3.196-1.046-.557.126-1.114.259-1.67.394-1.448.354-2.581-.07-3.321-1.325-.593-1.005-1.065-2.078-1.692-3.061-1.416-2.223-2.535-4.77-4.431-6.525-2.765-2.56-3.665-5.736-4.143-9.023-.337-2.326.177-4.786.449-7.172.306-2.69.224-5.173-1.93-7.298-.918-.905-1.785-2.13-2.032-3.334-.402-1.967-1.583-2.426-3.347-2.664-4.948-.666-5.18-1.083-6.1-5.87-.721-3.753-1.78-7.445-2.712-11.159-.21-.839-.611-1.64-1.722-1.14-1.674.756-3.223.506-4.78-.277-.853-.428-1.357-.151-1.87.68-.819 1.328-1.667 2.75-2.859 3.73-3.162 2.602-6.463 5.055-9.814 7.428-1.293.916-2.016 1.801-1.538 3.382.116.388-.072.86-.12 1.293l-.495.092-1.26-2.41-.552-.435-1.242 2.112-.258-.24v-1.34l-.425-.146c-.928 1.715-1.984 3.38-2.715 5.17-.263.643.281 1.58.41 2.39.045.281.063.669-.095.864-.91 1.118-.245 1.827.605 2.533.351.291.657.633 1.249 1.212l-1.76-.155-.156.284 3.222 2.637-.15-1.308c1.067.118 2.053.25 3.043.33.518.041 1.046-.008 1.57-.017-.27.507-.405 1.214-.835 1.483-1.146.72-.926 1.33-.04 1.976.365.266.903.641 1.24.548.88-.243 1.79-.595 2.512-1.129.927-.686 1.427-.684 1.807.443 1.16 3.436 4.106 5.4 6.842 7.469 1.862 1.408 4.008 2.46 5.948 3.779.557.377.842 1.129 1.452 1.993l-3.365-.145 2.072 3.688.827-2.456.685.053c.03.763.147 1.534.068 2.287-.078.74-.445 1.453-.523 2.195-.139 1.309.901 2.462 2.215 2.657 1.827.27 3.652.564 5.472.88.348.06.708.21.996.41.713.495 1.337 1.104.746 2.012-.576.887-1.348.512-2.049.122-.688-.385-1.352-.808-2.027-1.213 1.875 3.67 4.841 6.133 8.654 7.493 1.404.501 2.32 1.282 3.048 2.388.198.3.03.824.03 1.245l-.6.278c3.216 1.655 5.191 4.324 6.844 7.28 1.205 2.155 2.37 4.347 3.79 6.366 1.898 2.7 4.022 5.251 6.06 7.859.433.554.913 1.074 1.371 1.61l.18-.164-1.467-2.893c.132-.08.265-.164.399-.245 3.93 2.401 4.578 7.478 8.607 10.03l-.562-1.705c2.05.395 2.853 1.837 3.478 3.354m393.642 17.112c-.268-1.38-.6-2.476-2.188-2.943-.971-.285-1.88-.88-2.714-1.472-1.23-.873-2.542-1.051-3.992-.84-3.533.516-7.07 1.004-10.605 1.503l-.001.308c2.363 0 4.727.009 7.09-.007.569-.004 1.166-.21 1.695-.094.483.108.891.53 1.334.813-.326.415-.564 1.01-.995 1.21a7.795 7.795 0 0 1-2.537.688c-1.285.114-1.66.557-1.407 1.852.853 4.368.043 8.592-1.672 12.626-.531 1.252-1.493 2.456-2.556 3.341-2.488 2.072-5.132 3.968-7.756 5.88a5056.589 5056.589 0 0 1-23.168 16.777c-1.059.762-1.493 1.506-1.328 2.901 1.047 8.9 1.958 17.814 2.91 26.724.387 3.623.784 7.246 1.136 10.873.136 1.399 1.051 1.531 2.197 1.527 1.133-.004 1.853-.315 2.07-1.548.473-2.7 1.66-3.168 3.93-1.646 1.578 1.06 2.537.9 3.403-.734 1.596-3.012 3.216-6.019 4.615-9.118.74-1.644 1.7-2.845 3.437-3.467 2.16-.775 3.482-2.487 3.74-4.524.241-1.904.282-3.638 2.156-4.767.518-.312.913-.818 1.364-1.235.204.632.61 1.277.57 1.895-.073 1.1-.408 2.185-.646 3.274-.172.79-.41 1.572-.537 2.369-.151.948.105 1.568 1.226 1.923.743.237 1.473.955 1.887 1.64.787 1.303 1.343 2.735 2.12 4.376.249-.863.472-1.43.573-2.017.734-4.243 1.429-8.492 2.163-12.735.55-3.177-.155-6.68 2.514-9.32.038-.037-.036-.182-.16-.723l-3.576 1.791c-1.055-1.452-.754-3.33.764-3.757 2.523-.708 2.995-2.721 3.492-4.75.085-.345-.157-.767-.245-1.142-1.433.787-2.606 1.56-3.892 2.06-.412.162-1.296-.262-1.642-.675-.315-.376-.193-1.1-.264-1.67h1.541c.986-1.185.34-3.665 2.688-3.928.101-2.14-.027-4.343.383-6.447.302-1.559 1.492-2.935 1.948-4.488.67-2.278 1.895-4.189 3.554-5.812 4.715-4.616 6.643-10.03 5.381-16.492m-50.319 58.418c-.577-5.507-1.292-11.001-2.022-16.492-.092-.7-.499-1.46-.991-1.997-3.92-4.273-7.892-8.503-11.859-12.739-1.092-1.165-2.23-1.962-4.101-1.376-1.095.343-2.397.12-3.603.086-1.65-.047-1.51-1.421-1.856-2.474a6.478 6.478 0 0 0-.295 1.813c-.033 2.822.049 5.649-.1 8.465-.067 1.265-.167 2.892-.97 3.685-1.746 1.723-2.316 3.734-2.389 5.893-.18 5.339-3.202 8.878-7.588 11.638-2.149 1.353-4.33 2.657-6.475 4.016-.565.36-1.045.841-1.565 1.265l.274.249 1.914-1.187c.597.827.945 1.441 1.422 1.942 1.228 1.287 1.415 2.922.168 4.195-.725.741-1.792 1.166-2.664 1.786-.511.364-1.349.846-1.336 1.254.051 1.535-.728 1.412-1.786 1.085-.498-.155-1.022-.232-1.52-.387-1.082-.333-1.862-.223-2.43.918-.36.722-1.123 1.26-1.705 1.88a52.212 52.212 0 0 0-.371-.177c-.011-.191-.078-.398-.023-.569.516-1.602-.121-2.55-1.795-2.84-1.944-.339-3.904-.596-5.85-.93-.345-.06-.652-.326-.978-.497.31-.207.616-.585.929-.59 1.151-.02 2.303.099 3.456.134.835.025 1.677.052 2.503-.031.295-.03.792-.394.779-.581-.023-.337-.28-.81-.58-.948-.602-.277-1.292-.488-1.955-.512a177.49 177.49 0 0 0-7.08-.096c-1.064.004-2.32.055-2.266 1.476.065 1.77.57 2.825 2.17 2.73.672-.039 1.355.141 2.033.207 1.45.14 2.31.91 2.547 2.268.112.643.008 1.325.157 1.953.299 1.246.307 2.885 1.143 3.616 2.479 2.17 5.48 3.52 8.996 3.419.944-.028 1.36-.327 1.092-1.299-.31-1.132.283-2.003 1.351-2.205 1.11-.21 2.365-.226 3.448.058 2.52.66 4.941 1.674 7.466 2.32 2.507.64 2.712.644 2.922 3.137.087 1.025.458 1.192 1.49 1.106 4.968-.413 9.942-.735 14.917-1.06 5.08-.33 10.16-.632 15.242-.93.988-.058 1.415-.531 1.381-1.454-.052-1.46-.032-2.925-.152-4.38-.469-5.617-.909-11.238-1.495-16.843" fill="#DBDBDB"/><path d="M526.346 275.497c.076 1.265.059 2.538.032 3.806-.02.913.412 1.372 1.32 1.257 1.328-.169 2.638-.495 3.969-.629.65-.064 1.43-.013 1.971.288.704.393 1.268 1.053 1.825 1.656 3.698 4.011 7.433 7.991 11.026 12.09.979 1.115 1.607 1.02 2.665.257 10.62-7.675 21.268-15.317 31.9-22.978.327-.236.723-.53.835-.875 1.058-3.23 2.06-6.474 3.079-9.714l-.283-.104c-.187-1.1-.393-2.197-.558-3.3-.317-2.105-1.562-3.382-3.663-3.881-1.879-.445-3.75-.956-5.655-1.25-5.985-.925-11.767-.671-17.072 2.72-2.689 1.72-5.73 2.607-8.953 3.07-5.31.764-10.474 2.178-15.157 4.763-2.424 1.338-4.695 3.043-6.741 4.889-1.542 1.39-2.573 3.213-1.004 5.422.456.64.412 1.66.464 2.513m-245.013 11.919c-.101.45.07 1.082.364 1.46.577.743 1.408 1.305 1.981 2.05.956 1.246 2.145 1.56 3.542.77.225-.127.42-.304.643-.437 2.968-1.788 5.855-.663 6.64 2.57.118.488.287.974.509 1.426.58 1.186 1.338 1.401 2.784 1.027 2.136-.555 4.416-.626 6.644-.794.428-.032 1.061.326 1.315.688.785 1.12 1.946 1.189 3.158 1.385 4.034.657 7.212-1.684 11.31-2.782-1.554-1.508-2.817-2.76-4.11-3.983-2.977-2.813-3.903-6.499-4.542-10.228-.342-1.997.85-3.234 2.817-3.53 2.01-.302 4.026-.555 6.035-.854.23-.033.53-.18.633-.36.697-1.224 1.443-2.435 1.992-3.72.636-1.49 1.132-1.815 2.725-1.364.502.143.995.382 1.504.42 1.108.08 1.954-.878 1.513-1.698-.973-1.815-2.129-3.348-4.443-3.91-1.643-.399-3.32-1.1-4.662-2.073-1.124-.815-2.103-1.13-3.294-.634a11.42 11.42 0 0 0-2.662 1.544c-1.701 1.346-2.5 1.6-4.409.568-1.498-.812-2.789-1.966-4.238-2.87-.95-.593-1.977-1.13-3.044-1.485-1.763-.587-3.607-.953-5.383-1.51-1.859-.584-2.823-.153-3.462 1.668-.234.666-.438 1.379-.844 1.945-1.095 1.523-1.573 3.141-1.353 4.993.186 1.557-.546 2.7-1.945 3.521-.707.414-1.46.89-1.928 1.518-1.739 2.33-3.378 4.729-5.034 7.113-.816 1.177-.902 2.37.152 3.465.89.923.736 1.798.017 2.715-.347.442-.811.882-.925 1.386m-46.645-41.583c.14-.604.242-1.217.394-1.997-.839.12-1.402.218-1.97.279-2.524.269-4.596-1.002-5.214-3.186-.537-1.897-1.643-2.435-3.531-1.679-.68.273-1.304.672-1.986.938-1.014.395-2.143.663-2.87-.367-.743-1.049.243-1.739.842-2.498.521-.663 1.301-1.414 1.298-2.123-.006-1.5-.364-3.018-.76-4.483-.133-.499-.754-1.14-1.253-1.237a51.227 51.227 0 0 0-6.033-.826c-.939-.07-1.403.564-1.51 1.578-.103.967-.377 2.039-.945 2.815-1.122 1.534-1.237 3.064-.674 4.762.224.676.513 1.375.516 2.063.001.5-.28 1.253-.676 1.457-2.339 1.208-4.23.35-4.849-2.076-.013-.053-.166-.072-.62-.252l3.578 15.688c1.354-1.209 1.845-.308 2.33.418.774 1.161-.072 1.744-1.45 2.362 1.323 1.559 2.347 3.11 3.718 4.284 1.55 1.327 2.517 2.593 1.976 4.721-.345 1.361-.176 2.837-.432 4.227-.194 1.052-.473 2.209-1.109 3.037-1.12 1.46-2.576 2.677-3.807 4.066-.283.319-.392 1.294-.295 1.335 1.246.521 2.519 1.11 3.84 1.276.525.066 1.31-.772 1.766-1.353 2.25-2.86 5.942-3.284 8.906-4.927.691-.383 1.96-.27 2.743.076 1.502.666 2.874 1.625 4.246 2.54.664.442 1.205 1.056 1.977 1.749.29-1.089.297-2.05.766-2.703 1.485-2.069 1.93-3.991.284-6.24-.441-.605-.01-1.805.021-2.73.785.162 1.571.324 2.356.49.102.022.213.117.295.094.85-.241 1.919-.277 2.489-.806.805-.75.352-1.817-.432-2.412-1.874-1.42-1.923-3.232-1.512-5.23.383-1.863.065-3.49-1.594-4.778-1.689-1.311-2.107-3.089-1.615-5.09.266-1.087.543-2.172.796-3.262m104.099 75.499c2.445-2.383 1.147-4.809.823-7.243-.103-.776.402-1.716.857-2.451.822-1.324 1.875-2.516 2.718-3.83.61-.953 1.2-.556 1.563.006 1.698 2.64 3.66 5.194 3.742 8.484.025.993.165 1.8 1.167 2.447.524.339.65 1.242.997 1.98-.522.069-.691.126-.717.09-1.588-2.238-4.221-1.81-6.479-2.317-1.03-.232-1.753.058-2.214 1.119-.337.775-.65 1.853-2.457 1.715m-1.223 5.76c.594.525 1.137 1.216 1.412 1.934.357.942.854 1.084 1.79.885 1.18-.25 2.508-.482 3.277.732 1.257 1.984 1.913 1.98 4.221.43 1.229-.825 2.22-2.128 3.922-1.04.404-1.552.916-2.838 1.028-4.154.104-1.215-.22-2.464-.386-3.965l-.932-.654c2.196-1.22 1.796-3.175 1.83-4.984.028-1.506.05-3.02-.07-4.52-.106-1.293-.156-2.688-.713-3.82-.543-1.1-.422-1.622.44-2.42.498-.463.925-1.494.718-2.038-.268-.703-1.11-1.446-1.87-1.679-1.009-.31-2.176-.167-3.276-.18-2.254-.026-2.254-.016-2.22-2.134.02-1.357-.58-1.883-1.811-1.297a7.363 7.363 0 0 0-2.564 2.042c-.941 1.208-2.143 1.12-3.393 1.022-1.151-.09-1.513-.922-1.722-1.87-.195-.883-.43-1.76-.681-2.63-.384-1.328-1.366-1.841-2.746-2.112-1.562-.307-3.066-.904-4.58-1.414-.516-.176-.986-.475-1.206-.584-.795.71-1.375 1.21-1.931 1.734a4.194 4.194 0 0 0-.67.786c-1.062 1.666-1.636 3.456-1.555 5.433.021.482-.04 1.128-.35 1.43-1.725 1.69-1.88 3.887-2.169 6-.696 5.08-1.166 10.185-3.81 14.822-.358.627-.097 1.662.083 2.466.326 1.468.769 2.917 1.244 4.349.218.661.507 1.656.983 1.791.529.15 1.599-.336 1.928-.844 1.308-2.021 3.264-2.565 5.515-2.54 1.42.015 2.254-.614 2.723-1.838.47-1.23 1.343-1.705 2.72-1.368 1.453.355 2.683-.046 3.668-1.157.441-.496.901-1.001 1.446-1.38.289-.202.778-.141 1.177-.198-.473 1.092-.985 1.795-1.59 2.412-.907.922-.868 1.679.12 2.552m119.946 17.407c1.316.95 2.27 2.401 3.271 3.707.509.664.758 1.514 1.117 2.264.668-1.267 1.073-2.523 1.883-3.45 1.185-1.358 1.698-2.737 1.639-4.524-.034-1.036.393-2.238 1.015-3.094.514-.708 1.578-1.336 2.468-1.44 2.39-.281 4.119.905 4.92 3.3.51 1.519.757 3.128 1.003 4.714.198 1.266.751 1.982 2.147 2.148.737.087 1.508.415 2.13.824 1.488.981 1.987 1.019 3.106-.352 1.482-1.817 2.835-3.731 4.305-5.558 1.33-1.653 2.529-3.536 5.162-3.375.277.016.592-.188.853-.345 2.287-1.386 4.364-.846 6.364.603.873.632 1.693 1.44 2.68 1.793 1.747.622 2.507 1.879 2.577 3.437.073 1.608.907 2.294 2.302 2.817 1.34.5 2.728 1.004 3.07 2.705.073.36.928.78 1.448.815 1.817.12 3.646.06 5.469.112 1.071.032 1.523-.388 1.439-1.437-.336-4.21-.646-8.42-.967-12.63-.08-1.071-.743-1.527-1.782-1.78-2.255-.543-4.48-1.207-6.724-1.793-.75-.195-1.52-.344-2.291-.432-1.166-.132-1.917.219-1.858 1.556.066 1.49-.85 2.201-2.292 2.332-1.94.175-3.838.24-5.428-1.226-.585-.54-1.386-.919-2.155-1.201-2.585-.947-3.599-2.748-3.664-5.362-.082-3.347-.682-3.887-4.079-4.27-1.553-.177-2.542-.76-2.575-2.425-.01-.51-.247-1.015-.381-1.529-.352.074-.513.081-.648.144-.328.153-.694.277-.957.507-3.132 2.74-6.907 4.422-10.673 6.136-1.414.644-1.866.532-2.214-1.069l-8.8 1.475.907.799c-.25.233-.464.535-.76.688-1.4.73-2.804 1.463-4.253 2.1-.447.197-1.249.32-1.521.084-.846-.735-1.533-.335-2.042.197-.544.57-1.255 1.397-1.188 2.043.436 4.159 2.46 7.451 5.977 9.992m-174.286-91.262c-.609-.565-1.326-1.285-1.459-2.024-.443-2.474-1.972-4.226-3.748-5.814-.335-.3-1.254-.251-1.768-.044-1.445.58-2.81 1.346-4.223 2.003-.745.347-1.61.504-2.272.953-1.438.978-2.719 2.179-4.18 3.12-1.553 1-2.316 2.286-2.302 4.095.174.895.278 1.811.536 2.684.466 1.577 1.377 2.084 2.782 1.258 2.13-1.253 4.114-1.204 6.192-.035.403.227.864.364 1.31.503 2.164.676 4.07.434 5.735-1.267.924-.945 2.032-1.747 3.151-2.477 1.538-1.005 1.6-1.7.246-2.955" fill="#DBDBDB"/><path d="M246.921 322.267c2.092-3.267 2-6.803 1.863-10.363-.067-1.722-.908-2.173-2.744-1.954-2.077.248-4.175.347-6.258.554-.542.053-1.34.115-1.55.44-.906 1.416-2.366 1.677-3.87 2.013-2.637.588-5.252 1.259-7.876 1.894l.01.501c1.676.511 3.357 1.007 5.024 1.542.425.136 1.117.356 1.154.608.345 2.319 2.52 2.183 4.093 3l.832-1.26c.863.549 1.704.96 2.375 1.546.716.624 1.245 1.435 1.902 2.126 1.965 2.061 3.515 1.743 5.045-.647" fill="#D9DC58"/><path d="M81.388 94.023c.948.376 1.753.128 2.108-.785.61-1.572 1.085-3.193 1.616-4.793l-.316-.112c-.046-.62.005-1.265-.157-1.853-.282-1.02-.401-2.324-1.875-2.354-1.38-.027-2.206.896-2.716 2.06-.163.372-.149.815-.276 1.205-.272.835-.396 1.795-.913 2.458-1.88 2.408-.717 2.52 1.079 3.535.457.259.959.444 1.45.639M61.639 74.447c-.313-.26-.922-.478-1.237-.35-.296.122-.583.755-.528 1.114.201 1.335.227 2.837.904 3.932 1.162 1.88 2.718 3.54 4.2 5.216.846.957 1.871 1.762 2.823 2.643-.208-1.94-.434-3.663-.564-5.392-.067-.906-.515-1.281-1.377-1.268-1.446.022-2.1-.692-2.049-2.062.065-1.707-.969-2.834-2.172-3.833m-41.443 27.062l.14.626 2.947 1.404c.398-1.084.984-2.136 1.147-3.259.216-1.48.11-3.018-.865-4.65-1.039 2.276-.08 5.397-3.369 5.879m578.329 176.034c2.398-1.876 3.153-4.595 4.475-7.19-3.99.77-6.157 4.223-4.475 7.19M185.52 254.905c-.676 1.073 1.092 3.91 2.758 3.943.118-.135.764-.667.695-.822-.516-1.179-1.09-2.36-1.845-3.361-.194-.26-1.388-.11-1.608.24M77.9 174.057l-.618-.054-3.71 7.671c2.16-.329 2.385.604 2.58 1.811.153.943.756 1.83 1.158 2.742l.48-.253c-1.99-3.928-2.91-7.88.11-11.917M46.629 30.023c1-.527 2.107-1.193 1.546-2.968-.248.505-.39.793-.59 1.196-.431-.346-.74-.645-1.097-.871-.818-.517-1.658-.998-2.49-1.495.195 1.022.283 2.08.615 3.054.297.874 1.017 1.61 2.016 1.084m63.007 152.609c-.599-3.173-1.731-4.52-3.606-4.29.767 2.471 2.036 3.98 3.606 4.29m81.274 78.49c-.507.417-.868 1.022.224 1.272 1.214.278 3.013-.651 3.615-1.91-1.52-.388-2.791-.22-3.838.638m-90.736-105.813c-1.747.775-2.825 2.485-2.8 4.314 2.096-1.033 3.211-2.682 2.8-4.314m404.008 163.218l-5.049 2.47.212.406c2.02-.179 3.62-1.16 4.837-2.876M124.062 199.616l-2.164-3.323c.037 1.404.15 2.773 1.541 3.595l.623-.272zm31.016-15.304l2.42 4.791.465-.247-2.561-4.786c-.109.08-.216.162-.324.242m-41.114 8.718l-1.726-3.208-.438.283 1.574 3.312.59-.387zm-34.622-5.641l2.557 1.714.328-.553-2.622-1.604-.263.443m3.607 3.491l1.755 1.818.408-.319-1.73-1.838-.433.34M341.6 317.374c.345.311.866.282 1.33.282 1.027 0 2.054.234 2.979.682.163.078.328.165.507.185.18.021.383-.042.471-.2.068-.12.058-.267.045-.405l-.18-1.963c0-2.146-1.046-4.074-1.928-5.96-.149-.319-.332-.668-.664-.78-.354-.122-.751.09-.967.394-.182.258-.198.552-.326.827-.086.183-.232.32-.35.485-.361.502-.715 1.054-.952 1.628-.465 1.123-.415 2.384-.357 3.599.02.44.064.931.391 1.226" fill="#DBDBDB"/><path d="M241.279 281.857c-6.948 0-12.63 5.687-12.63 12.634 0 2.734.842 5.479 2.528 7.576l9.257 12.428c.421.421 1.05.627 1.47.206l.216-.206 9.257-12.428c1.676-2.097 2.518-4.842 2.518-7.576 0-6.947-5.682-12.634-12.616-12.634" fill="#07778C"/><path d="M241.64 299.113c-2.39 0-4.335-1.95-4.335-4.32 0-2.371 1.945-4.308 4.335-4.308 2.375 0 4.32 1.937 4.32 4.308 0 2.37-1.945 4.32-4.32 4.32" fill="#D9DC58"/></g></svg>