<?xml version="1.0" encoding="UTF-8" standalone="no"?>
<svg width="185px" height="143px" viewBox="0 0 185 143" version="1.1" xmlns="http://www.w3.org/2000/svg" xmlns:xlink="http://www.w3.org/1999/xlink">
    <!-- Generator: Sketch 46 (44423) - http://www.bohemiancoding.com/sketch -->
    <title>Soluciones informaticas</title>
    <desc>Created with Sketch.</desc>
    <defs>
        <polygon id="path-1" points="70.9999513 0 0 0 0 141 70.9999513 141 141.999903 141 141.999903 0"></polygon>
    </defs>
    <g id="Empress" stroke="none" stroke-width="1" fill="none" fill-rule="evenodd">
        <g id="SolucionesInformaticas_Mobile" transform="translate(-68.000000, -112.000000)">
            <g id="Soluciones-informaticas" transform="translate(68.000000, 112.000000)">
                <g id="Page-1" opacity="0.35" transform="translate(20.000000, 2.000000)">
                    <mask id="mask-2" fill="white">
                        <use xlink:href="#path-1"></use>
                    </mask>
                    <g id="Clip-2"></g>
                    <path d="M136.805367,141 L5.19476293,141 C2.32584302,141 -9.74828375e-05,138.690762 -9.74828375e-05,135.842046 L-9.74828375e-05,5.15795423 C-9.74828375e-05,2.30923799 2.32584302,0 5.19476293,0 L136.805367,0 C139.674287,0 141.999903,2.30923799 141.999903,5.15795423 L141.999903,135.842046 C141.999903,138.690762 139.674287,141 136.805367,141" id="Fill-1" fill="#07778C" mask="url(#mask-2)"></path>
                </g>
                <path d="M160.546788,72.3033708 L147.696539,72.3033708 L147.696539,46.4348315 C147.696539,45.724973 147.113886,45.1494382 146.395248,45.1494382 L132.894353,45.1494382 C132.175715,45.1494382 131.593062,45.724973 131.593062,46.4348315 C131.593062,47.1446899 132.175715,47.7202247 132.894353,47.7202247 L145.093957,47.7202247 L145.093957,73.588764 C145.093957,74.2986225 145.67661,74.8741573 146.395248,74.8741573 L160.546788,74.8741573 L160.546788,113.114607 L107.844499,113.114607 L107.844499,100.326872 C107.844499,99.6170135 107.261846,99.0414787 106.543208,99.0414787 C105.82457,99.0414787 105.241917,99.6170135 105.241917,100.326872 L105.241917,128.7 C105.241917,129.409858 105.82457,129.985393 106.543208,129.985393 C107.261846,129.985393 107.844499,129.409858 107.844499,128.7 L107.844499,115.685393 L160.546788,115.685393 L160.546788,136.577533 C160.546788,138.701324 158.797528,140.429213 156.64747,140.429213 L82.1440002,140.429213 L82.1440002,100.326872 C82.1440002,99.6170135 81.5613471,99.0414787 80.8427091,99.0414787 C80.1240711,99.0414787 79.541418,99.6170135 79.541418,100.326872 L79.541418,126.129213 L33.1422575,126.129213 C32.4236195,126.129213 31.8409664,126.704748 31.8409664,127.414607 C31.8409664,128.124465 32.4236195,128.7 33.1422575,128.7 L79.541418,128.7 L79.541418,140.429213 L24.8826376,140.429213 C22.7325794,140.429213 20.9833189,138.701324 20.9833189,136.577533 L20.9833189,112.632584 L56.6601661,112.632584 C57.8280748,112.632584 58.7747641,111.697461 58.7747641,110.54382 L58.7747641,93.9381461 C61.7127541,93.1832989 64.0303535,90.8940135 64.794862,87.9919169 L124.471746,87.9919169 C125.732047,91.0084135 128.739981,93.1376674 132.243707,93.1376674 C136.877605,93.1376674 140.64777,89.4135618 140.64777,84.8362764 C140.64777,81.2551708 138.340256,78.1968989 135.117283,77.0349034 L135.117283,60.8421618 C135.117283,60.2881573 134.894437,59.7569685 134.497869,59.3649236 C134.1013,58.9735213 133.563542,58.7533978 133.00236,58.7533978 L81.7643485,58.7588607 L81.7643485,34.6522742 L111.359286,34.6522742 C112.415935,38.0441056 115.617436,40.5168809 119.393458,40.5168809 C123.169154,40.5168809 126.370655,38.0441056 127.427304,34.6522742 L160.546788,34.6522742 L160.546788,72.3033708 Z M56.6601661,90.0270157 C54.3581821,90.0270157 52.4852989,88.1770135 52.4852989,85.9031528 C52.4852989,83.6292921 54.3581821,81.7792899 56.6601661,81.7792899 C58.9624753,81.7792899 60.8353585,83.6292921 60.8353585,85.9031528 C60.8353585,88.1770135 58.9624753,90.0270157 56.6601661,90.0270157 L56.6601661,90.0270157 Z M132.243707,80.7120921 C134.545691,80.7120921 136.418574,82.5620944 136.418574,84.8362764 C136.418574,87.1101371 134.545691,88.9601393 132.243707,88.9601393 C129.941398,88.9601393 128.068515,87.1101371 128.068515,84.8362764 C128.068515,82.5620944 129.941398,80.7120921 132.243707,80.7120921 L132.243707,80.7120921 Z M123.525057,32.7768854 C123.24593,34.7856337 121.5022,36.3393528 119.393458,36.3393528 C117.091148,36.3393528 115.218265,34.4893506 115.218265,32.2151685 C115.218265,29.9413079 117.091148,28.0913056 119.393458,28.0913056 C121.662259,28.0913056 123.510417,29.8892494 123.563445,32.1181213 C123.531563,32.261764 123.513996,32.4105483 123.513996,32.5635101 C123.513996,32.6354921 123.517574,32.7068315 123.525057,32.7768854 L123.525057,32.7768854 Z M20.9833189,72.7172674 L46.6024872,72.7172674 C47.3211252,72.7172674 47.9037783,72.1417326 47.9037783,71.4318742 C47.9037783,70.7220157 47.3211252,70.1464809 46.6024872,70.1464809 L20.9833189,70.1464809 L20.9833189,17.352809 L46.3584951,17.352809 L46.3584951,46.4348315 C46.3584951,47.1446899 46.9411482,47.7202247 47.6597862,47.7202247 L67.9381306,47.7202247 C68.6567686,47.7202247 69.2394217,47.1446899 69.2394217,46.4348315 C69.2394217,45.724973 68.6567686,45.1494382 67.9381306,45.1494382 L48.9610773,45.1494382 L48.9610773,16.0674157 C48.9610773,15.3575573 48.3784242,14.7820225 47.6597862,14.7820225 L20.9833189,14.7820225 L20.9833189,6.42246742 C20.9833189,4.2986764 22.7325794,2.57078652 24.8826376,2.57078652 L118.580151,2.57078652 L118.580151,11.7288921 L106.543208,11.7288921 C105.82457,11.7288921 105.241917,12.304427 105.241917,13.0142854 C105.241917,13.7241438 105.82457,14.2996787 106.543208,14.2996787 L132.243707,14.2996787 C132.962345,14.2996787 133.544998,13.7241438 133.544998,13.0142854 C133.544998,12.304427 132.962345,11.7288921 132.243707,11.7288921 L121.182733,11.7288921 L121.182733,2.57078652 L156.64747,2.57078652 C158.797528,2.57078652 160.546788,4.2986764 160.546788,6.42246742 L160.546788,30.4747461 L127.610135,30.4747461 C126.798129,26.7303955 123.422906,23.9137775 119.393458,23.9137775 C115.363684,23.9137775 111.988461,26.7303955 111.176455,30.4747461 L79.6497505,30.4747461 C78.4818417,30.4747461 77.5351524,31.4098697 77.5351524,32.5635101 L77.5351524,60.8479461 C77.5351524,61.4016292 77.7579985,61.9331393 78.154567,62.3248629 C78.5511355,62.7165865 79.088894,62.9367101 79.6500758,62.9367101 L130.888087,62.9312472 L130.888087,76.6441438 C127.231459,77.2325326 124.361787,80.1590517 123.905359,83.8143888 L64.794862,83.8143888 C63.8546792,80.2448517 60.5643647,77.6017618 56.6601661,77.6017618 C52.0262685,77.6017618 48.2561029,81.3258674 48.2561029,85.9031528 C48.2561029,89.7593326 50.9318827,93.0094494 54.545568,93.9381461 L54.545568,108.455056 L20.9833189,108.455056 L20.9833189,72.7172674 Z M185,32.389018 C185,31.8202315 184.765117,31.2758674 184.34968,30.8822157 L173.234702,20.3448831 C172.391791,19.5456899 171.053738,19.5726831 170.244986,20.4052966 C169.435908,21.2375888 169.46356,22.5599371 170.306146,23.3584876 L177.812319,30.4747461 L163.149371,30.4747461 L163.149371,6.42246742 C163.149371,2.88120899 160.232527,0 156.64747,0 L24.8826376,0 C21.2975807,0 18.3807367,2.88120899 18.3807367,6.42246742 L18.3807367,108.455056 L2.11459802,108.455056 C0.946689269,108.455056 0,109.39018 0,110.54382 C0,111.697461 0.946689269,112.632584 2.11459802,112.632584 L18.3807367,112.632584 L18.3807367,136.577533 C18.3807367,140.118791 21.2975807,143 24.8826376,143 L156.64747,143 C160.232527,143 163.149371,140.118791 163.149371,136.577533 L163.149371,34.6522742 L177.444053,34.6522742 L170.67246,41.0718494 C169.829874,41.8704 169.802221,43.1927483 170.611299,44.0250404 C171.026411,44.4524337 171.581086,44.6674157 172.137063,44.6674157 C172.663435,44.6674157 173.190783,44.4742854 173.601015,44.0854539 L183.741652,34.4723191 C184.482411,34.147436 185,33.4157258 185,32.5635101 C185,32.5339461 184.996747,32.5053461 184.995445,32.4761034 C184.996747,32.4468607 185,32.4182607 185,32.389018 L185,32.389018 Z" id="Page-1" fill="#07778C"></path>
            </g>
        </g>
    </g>
</svg>