<?xml version="1.0" encoding="UTF-8" standalone="no"?>
<svg width="93px" height="83px" viewBox="0 0 93 83" version="1.1" xmlns="http://www.w3.org/2000/svg" xmlns:xlink="http://www.w3.org/1999/xlink">
    <!-- Generator: Sketch 46 (44423) - http://www.bohemiancoding.com/sketch -->
    <title>devices</title>
    <desc>Created with Sketch.</desc>
    <defs></defs>
    <g id="Empress" stroke="none" stroke-width="1" fill="none" fill-rule="evenodd">
        <g id="Home_Desktop" transform="translate(-606.000000, -273.000000)" fill="#D9DC58">
            <path d="M695.302047,302.017304 L695.302047,279.529146 C695.302047,275.929525 692.357197,273 688.73773,273 L612.563301,273 C608.943834,273 606,275.929525 606,279.529146 L606,325.340555 C606,328.940177 608.94485,331.869449 612.563301,331.869449 L634.152093,331.869449 L631.680441,334.515724 L627.977662,334.515724 C627.136421,334.515724 626.453675,335.193906 626.453675,336.031779 C626.453675,336.868895 627.136421,337.547835 627.977662,337.547835 L649.183679,337.547835 L649.183679,352.169433 C649.183679,354.281804 650.910863,356 653.034284,356 L669.418154,356 C671.541321,356 673.26876,354.281804 673.26876,352.169433 L673.26876,349.090071 L693.780093,349.090071 C696.658395,349.090071 699,346.759641 699,343.894296 L699,306.985923 C699,304.648671 697.4402,302.667692 695.302047,302.017304 Z M696,307.517353 L696,308 L661,308 L661,307.517353 C661,306.129412 661.973962,305 663.170871,305 L693.831158,305 C695.027052,305 696,306.129412 696,307.517353 Z M669.50391,320.356691 L661,320.356691 L661,311 L696,311 L696,341 L673.349032,341 L673.349032,324.185231 C673.349032,322.074231 671.624053,320.356691 669.50391,320.356691 Z M671,326 L653,326 L653,323.858152 C653,323.385082 653.35939,323 653.803163,323 L670.196837,323 C670.639593,323 671,323.385082 671,323.858152 L671,326 Z M692,281 L692,301.953109 L662.894942,301.953109 C660.022721,301.953109 657.685874,304.306808 657.685874,307.199744 L657.685874,320.136033 L652.877893,320.136033 C650.761733,320.136033 649.039566,321.868578 649.037792,324 L609,324 L609,281 L692,281 Z M653,346 L671,346 L671,328 L653,328 L653,346 Z M612.143845,276 L687.856155,276 C689.239871,276 690.435002,276.819133 691,278 L609,278 C609.566008,276.819133 610.760129,276 612.143845,276 Z M609,326 L649,326 L649,329 L612.266325,329 C610.789345,329 609.524345,327.757401 609,326 Z M636,335 L638.408113,332 L649,332 L649,335 L636,335 Z M670.196882,354 L653.803118,354 C653.360386,354 653,353.614918 653,353.141848 L653,351 L671,351 L671,353.141848 C671,353.614918 670.639614,354 670.196882,354 Z M693.796708,347 L673,347 L673,344 L696,344 L696,344.482647 C696,345.870588 695.01206,347 693.796708,347 Z" id="devices"></path>
        </g>
    </g>
</svg>