<svg width="198" height="93" viewBox="0 0 198 93" xmlns="http://www.w3.org/2000/svg" xmlns:xlink="http://www.w3.org/1999/xlink"><title>800AD539-4DB1-4290-8DD7-16027C10BA18</title><defs><path id="a" d="M.01 53V.15H79V53z"/></defs><g fill="none" fill-rule="evenodd"><path d="M193.865 32.513V7.316c0-4.034-3.294-7.316-7.341-7.316H101.34C97.292 0 94 3.282 94 7.316v51.33c0 4.034 3.293 7.316 7.34 7.316h24.142l-2.764 2.965h-4.14c-.942 0-1.705.76-1.705 1.699 0 .938.763 1.699 1.704 1.699h23.714v16.383c0 2.367 1.932 4.292 4.306 4.292h18.322c2.375 0 4.306-1.925 4.306-4.292v-3.45h22.938c3.218 0 5.837-2.612 5.837-5.822V38.08c0-2.62-1.744-4.839-4.135-5.568zm.78 6.163v.54h-39.14v-.54c0-1.555 1.09-2.82 2.428-2.82h34.287c1.337 0 2.425 1.265 2.425 2.82zm-29.63 14.386h-9.51V42.578h39.14v33.615h-25.33v-18.84a4.3 4.3 0 0 0-4.3-4.29zm1.673 6.324H146.56v-2.4c0-.53.402-.962.898-.962h18.333c.495 0 .898.432.898.962v2.4zm23.484-50.422V32.44h-32.548c-3.211 0-5.825 2.638-5.825 5.88v14.494h-5.376c-2.367 0-4.293 1.941-4.295 4.33H97.355V8.964h92.817zm-43.613 72.831h20.13V61.627h-20.13v20.168zM100.871 3.361h84.667c1.547 0 2.884.918 3.516 2.241h-91.7c.634-1.323 1.97-2.24 3.517-2.24zm-3.516 56.025h44.731v3.361h-41.078c-1.652 0-3.067-1.392-3.653-3.361zm30.193 10.084l2.693-3.362h11.845v3.362h-14.538zm38.242 21.289h-18.333c-.495 0-.898-.431-.898-.962v-2.4h20.13v2.4c0 .53-.404.962-.899.962zm26.391-7.843h-23.256v-3.362h25.72v.541c0 1.555-1.105 2.82-2.464 2.82z" fill="#D9DC58"/><g transform="translate(0 39)"><mask id="b" fill="#fff"><use xlink:href="#a"/></mask><path d="M63.544 34.873c0 .937.76 1.697 1.7 1.697.939 0 1.7-.76 1.7-1.697V9.232c0-.938-.761-1.698-1.7-1.698H13.756c-.939 0-1.7.76-1.7 1.698v25.64c0 .938.761 1.698 1.7 1.698.94 0 1.7-.76 1.7-1.697V10.929h48.088v23.944" fill="#D9DC58" mask="url(#b)"/><path d="M75.94 45.462a4.49 4.49 0 0 1-4.489 4.482H7.55a4.49 4.49 0 0 1-4.489-4.482v-1.471h26.756a5.411 5.411 0 0 0 5.181 3.866h9.005a5.411 5.411 0 0 0 5.182-3.866H75.94v1.471zM8.062 5.282c0-.957.78-1.736 1.739-1.736h59.398a1.74 1.74 0 0 1 1.739 1.736v35.653H47.917a1.528 1.528 0 0 0-1.572 1.527c0 1.29-1.051 2.34-2.342 2.34h-9.006a2.343 2.343 0 0 1-2.342-2.34c0-.855-.71-1.545-1.565-1.527H8.062V5.282zM77.47 40.935h-3.132V5.282A5.141 5.141 0 0 0 69.2.151H9.801a5.141 5.141 0 0 0-5.14 5.131v35.653h-3.13A1.53 1.53 0 0 0 0 42.463v3C0 49.618 3.386 53 7.549 53H71.45c4.163 0 7.55-3.381 7.55-7.538v-3c0-.843-.685-1.527-1.53-1.527z" fill="#D9DC58" mask="url(#b)"/></g><path d="M42.47 58.09a1.81 1.81 0 1 0-2.56-2.56L28.53 66.91a1.81 1.81 0 0 0 2.559 2.56L42.47 58.09m4.499 4.43l-4.449 4.449a1.776 1.776 0 0 0 2.511 2.51l4.449-4.448a1.776 1.776 0 0 0-2.511-2.511" fill="#D9DC58"/></g></svg>