<svg width="93" height="83" viewBox="0 0 93 83" xmlns="http://www.w3.org/2000/svg"><title>devices</title><path d="M89.302 29.017V6.53c0-3.6-2.945-6.529-6.564-6.529H6.563C2.943 0 0 2.93 0 6.53v45.81c0 3.6 2.945 6.53 6.563 6.53h21.59l-2.473 2.646h-3.702a1.52 1.52 0 0 0-1.524 1.516 1.52 1.52 0 0 0 1.524 1.516h21.206v14.621c0 2.113 1.727 3.831 3.85 3.831h16.384c2.123 0 3.85-1.718 3.85-3.83v-3.08H87.78c2.878 0 5.22-2.33 5.22-5.196V33.986c0-2.337-1.56-4.318-3.698-4.969zm.698 5.5V35H55v-.483C55 33.13 55.974 32 57.17 32h30.661C89.027 32 90 33.13 90 34.517zm-26.496 12.84H55V38h35v30H67.349V51.185c0-2.11-1.725-3.828-3.845-3.828zM65 53H47v-2.142c0-.473.36-.858.803-.858h16.394c.443 0 .803.385.803.858V53zM86 8v20.953H56.895c-2.872 0-5.21 2.354-5.21 5.247v12.936h-4.807c-2.116 0-3.838 1.733-3.84 3.864H3V8h83zM47 73h18V55H47v18zM6.144 3h75.712c1.384 0 2.579.82 3.144 2H3c.566-1.18 1.76-2 3.144-2zM3 53h40v3H6.266C4.79 56 3.524 54.757 3 53zm27 9l2.408-3H43v3H30zm34.197 19H47.803c-.443 0-.803-.385-.803-.858V78h18v2.142c0 .473-.36.858-.803.858zm23.6-7H67v-3h23v.483C90 72.87 89.012 74 87.797 74z" fill="#D9DC58" fill-rule="evenodd"/></svg>