<?xml version="1.0" encoding="UTF-8" standalone="no"?>
<svg width="256px" height="275px" viewBox="0 0 256 275" version="1.1" xmlns="http://www.w3.org/2000/svg" xmlns:xlink="http://www.w3.org/1999/xlink">
    <!-- Generator: Sketch 46 (44423) - http://www.bohemiancoding.com/sketch -->
    <title>E-Gobierno</title>
    <desc>Created with Sketch.</desc>
    <defs>
        <polygon id="path-1" points="8.0886585e-15 273.766181 8.0886585e-15 0 252.703724 0 252.703724 273.766181"></polygon>
        <polygon id="path-3" points="8.98245614e-05 274 255.700435 274 255.700435 0.233639935 8.98245614e-05 0.233639935"></polygon>
    </defs>
    <g id="Empress" stroke="none" stroke-width="1" fill="none" fill-rule="evenodd">
        <g id="E-Gobierno_Desktop" transform="translate(-198.000000, -80.000000)">
            <g id="E-Gobierno" transform="translate(198.000000, 80.000000)">
                <g id="Page-1" opacity="0.35" transform="translate(1.000000, 1.000000)">
                    <mask id="mask-2" fill="white">
                        <use xlink:href="#path-1"></use>
                    </mask>
                    <g id="Clip-2"></g>
                    <path d="M244.131906,168.669019 L237.020831,168.669019 L237.020831,61.4345669 C237.020831,57.2321872 233.636845,53.8132412 229.477436,53.8132412 L157.496273,53.8132412 C157.370661,53.8132412 157.248599,53.827143 157.130532,53.852256 L128.127411,36.9328681 L128.127411,30.8304262 L160.60329,30.8304262 C161.583332,30.8304262 162.378729,30.0272609 162.378729,29.0366455 L162.378729,1.79360131 C162.378729,0.802985925 161.583332,-0.000179378069 160.60329,-0.000179378069 L126.351973,-0.000179378069 C125.371931,-0.000179378069 124.576534,0.802985925 124.576534,1.79360131 L124.576534,36.9279352 L95.390543,53.8132412 L23.2269535,53.8132412 C19.0671009,53.8132412 15.6831149,57.2321872 15.6831149,61.4345669 L15.6831149,168.669019 L8.57203947,168.669019 C3.84537807,168.669019 -0.000221929825,172.689778 -0.000221929825,177.631644 L-0.000221929825,218.442845 L-0.000221929825,223.992354 L-0.000221929825,264.803555 C-0.000221929825,269.74587 3.64741667,273.766181 8.13039912,273.766181 L244.573546,273.766181 C249.056973,273.766181 252.703724,269.74587 252.703724,264.803555 L252.703724,223.992354 L252.703724,218.442845 L252.703724,177.631644 C252.703724,172.689778 248.858568,168.669019 244.131906,168.669019" id="Fill-1" fill="#07778C" mask="url(#mask-2)"></path>
                </g>
                <g id="Page-1">
                    <path d="M127.999777,67.8659313 C133.749205,67.8659313 138.426848,72.5404053 138.426848,78.2859368 C138.426848,84.0314683 133.749205,88.7054973 127.999777,88.7054973 C122.25035,88.7054973 117.573152,84.0314683 117.573152,78.2859368 C117.573152,72.5404053 122.25035,67.8659313 127.999777,67.8659313 M127.999777,92.2653061 C135.713325,92.2653061 141.989071,85.9942579 141.989071,78.2859368 C141.989071,70.5776157 135.713325,64.3061224 127.999777,64.3061224 C120.286229,64.3061224 114.010929,70.5776157 114.010929,78.2859368 C114.010929,85.9942579 120.286229,92.2653061 127.999777,92.2653061" id="Fill-1" fill="#07778C"></path>
                    <path d="M162.687171,102.05102 L176.547801,102.05102 C177.54895,102.05102 178.360656,101.2686 178.360656,100.303571 C178.360656,99.3385427 177.54895,98.5561224 176.547801,98.5561224 L162.687171,98.5561224 C161.686022,98.5561224 160.874317,99.3385427 160.874317,100.303571 C160.874317,101.2686 161.686022,102.05102 162.687171,102.05102" id="Fill-3" fill="#07778C"></path>
                    <path d="M137.391458,114.632653 L117.909088,114.632653 C116.915149,114.632653 116.10929,115.415073 116.10929,116.380102 C116.10929,117.345131 116.915149,118.127551 117.909088,118.127551 L137.391458,118.127551 C138.385397,118.127551 139.191257,117.345131 139.191257,116.380102 C139.191257,115.415073 138.385397,114.632653 137.391458,114.632653" id="Fill-5" fill="#07778C"></path>
                    <path d="M95.1256831,89.8188776 C95.1256831,88.8538489 94.3130465,88.0714286 93.3107493,88.0714286 L76.6564638,88.0714286 C75.6541666,88.0714286 74.8415301,88.8538489 74.8415301,89.8188776 C74.8415301,90.7839062 75.6541666,91.5663265 76.6564638,91.5663265 L93.3107493,91.5663265 C94.3130465,91.5663265 95.1256831,90.7839062 95.1256831,89.8188776" id="Fill-7" fill="#07778C"></path>
                    <path d="M50.7260384,114.632653 L46.4980053,114.632653 C45.5409682,114.632653 44.7650273,115.415073 44.7650273,116.380102 C44.7650273,117.345131 45.5409682,118.127551 46.4980053,118.127551 L50.7260384,118.127551 C51.6830755,118.127551 52.4590164,117.345131 52.4590164,116.380102 C52.4590164,115.415073 51.6830755,114.632653 50.7260384,114.632653" id="Fill-9" fill="#07778C"></path>
                    <path d="M204.57441,118.127551 L208.802639,118.127551 C209.759622,118.127551 210.535519,117.345131 210.535519,116.380102 C210.535519,115.415073 209.759622,114.632653 208.802639,114.632653 L204.57441,114.632653 C203.617427,114.632653 202.84153,115.415073 202.84153,116.380102 C202.84153,117.345131 203.617427,118.127551 204.57441,118.127551" id="Fill-11" fill="#07778C"></path>
                    <g id="Group-15">
                        <mask id="mask-4" fill="white">
                            <use xlink:href="#path-3"></use>
                        </mask>
                        <g id="Clip-14"></g>
                        <path d="M228.974125,253.343943 C228.974125,254.280745 228.211065,255.043101 227.272848,255.043101 C226.33463,255.043101 225.571571,254.280745 225.571571,253.343943 C225.571571,252.407141 226.33463,251.645232 227.272848,251.645232 C228.211065,251.645232 228.974125,252.407141 228.974125,253.343943 L228.974125,253.343943 Z M117.889437,243.341373 C116.95122,243.341373 116.18816,242.579016 116.18816,241.642214 C116.18816,240.705412 116.95122,239.943504 117.889437,239.943504 C118.827655,239.943504 119.590714,240.705412 119.590714,241.642214 C119.590714,242.579016 118.827655,243.341373 117.889437,243.341373 L117.889437,243.341373 Z M13.9242442,261.004283 C13.9242442,261.941085 13.1611846,262.702993 12.222967,262.702993 C11.2847495,262.702993 10.5216898,261.941085 10.5216898,261.004283 C10.5216898,260.067481 11.2847495,259.305124 12.222967,259.305124 C13.1611846,259.305124 13.9242442,260.067481 13.9242442,261.004283 L13.9242442,261.004283 Z M108.694995,261.004283 C108.694995,261.941085 107.931935,262.702993 106.993718,262.702993 C106.0555,262.702993 105.292441,261.941085 105.292441,261.004283 C105.292441,260.067481 106.0555,259.305124 106.993718,259.305124 C107.931935,259.305124 108.694995,260.067481 108.694995,261.004283 L108.694995,261.004283 Z M182.097381,261.004283 C182.097381,260.067481 182.860441,259.305124 183.798658,259.305124 C184.736876,259.305124 185.499935,260.067481 185.499935,261.004283 C185.499935,261.941085 184.736876,262.702993 183.798658,262.702993 C182.860441,262.702993 182.097381,261.941085 182.097381,261.004283 L182.097381,261.004283 Z M247.473493,270.412663 L196.0395,270.412663 L204.345578,262.118669 L223.214125,262.118669 C223.709956,262.118669 224.112371,261.717311 224.112371,261.221779 C224.112371,260.726696 223.709956,260.324889 223.214125,260.324889 L215.651346,260.324889 L207.983472,252.668584 C207.815051,252.500417 207.586448,252.405795 207.348413,252.405795 L145.365872,252.405795 C144.869592,252.405795 144.467627,252.807602 144.467627,253.302686 C144.467627,253.798218 144.869592,254.199576 145.365872,254.199576 L206.976539,254.199576 L213.111107,260.324889 L203.973704,260.324889 C203.735669,260.324889 203.507065,260.419511 203.338644,260.587678 L193.499262,270.412663 L146.495416,270.412663 L149.595262,267.317494 L160.037367,267.317494 C160.533199,267.317494 160.935613,266.916136 160.935613,266.420604 C160.935613,265.92552 160.533199,265.523714 160.037367,265.523714 L151.391753,265.523714 L155.019767,261.901173 L180.322897,261.901173 C180.356132,261.901173 180.387571,261.894895 180.419458,261.891308 C180.814237,263.388218 182.177774,264.496774 183.798658,264.496774 C185.727192,264.496774 187.296427,262.929907 187.296427,261.004283 C187.296427,259.078211 185.727192,257.511344 183.798658,257.511344 C182.177774,257.511344 180.814237,258.620349 180.419458,260.117259 C180.387571,260.113671 180.356132,260.107393 180.322897,260.107393 L110.370672,260.107393 C109.9723,258.615416 108.611458,257.511344 106.993718,257.511344 C105.065185,257.511344 103.495949,259.078211 103.495949,261.004283 C103.495949,262.929907 105.065185,264.496774 106.993718,264.496774 C108.611458,264.496774 109.9723,263.393151 110.370223,261.901173 L152.479528,261.901173 L148.851514,265.523714 L122.909732,265.523714 C122.413451,265.523714 122.011486,265.92552 122.011486,266.420604 C122.011486,266.916136 122.413451,267.317494 122.909732,267.317494 L147.055023,267.317494 L143.955178,270.412663 L74.617353,270.412663 L64.560146,260.370182 C64.3917249,260.202015 64.1631214,260.107393 63.9250863,260.107393 L42.8163144,260.107393 C42.3200337,260.107393 41.9180688,260.5092 41.9180688,261.004283 C41.9180688,261.499815 42.3200337,261.901173 42.8163144,261.901173 L53.7538021,261.901173 L62.2777039,270.412663 L45.5743775,270.412663 L35.5167214,260.370182 C35.3483004,260.202015 35.120146,260.107393 34.8816618,260.107393 L15.5994723,260.107393 C15.2015495,258.615416 13.8407074,257.511344 12.222967,257.511344 C10.2939846,257.511344 8.7251986,259.078211 8.7251986,261.004283 C8.7251986,262.929907 10.2939846,264.496774 12.222967,264.496774 C13.8407074,264.496774 15.2015495,263.393151 15.5994723,261.901173 L34.5097881,261.901173 L43.0341389,270.412663 L8.22667228,270.412663 C6.37493895,270.412663 4.77830737,269.143115 4.03680561,267.317494 L30.2768056,267.317494 C30.7726372,267.317494 31.1750512,266.916136 31.1750512,266.420604 C31.1750512,265.92552 30.7726372,265.523714 30.2768056,265.523714 L3.61418105,265.523714 C3.60160561,265.36317 3.59307228,265.201282 3.59307228,265.037151 L3.59307228,242.539105 L14.344174,242.539105 C14.3832477,242.606372 14.4277109,242.671396 14.4851986,242.728797 L25.8075846,254.033651 C25.9760056,254.201818 26.2046091,254.29644 26.4426442,254.29644 L52.2478933,254.29644 C52.7437249,254.29644 53.1461389,253.895082 53.1461389,253.39955 C53.1461389,252.904466 52.7437249,252.50266 52.2478933,252.50266 L26.8145179,252.50266 L16.8359074,242.539105 L34.8816618,242.539105 C35.3779425,242.539105 35.7799074,242.137746 35.7799074,241.642214 C35.7799074,241.147131 35.3779425,240.745324 34.8816618,240.745324 L29.5177881,240.745324 L32.3760056,237.891867 L59.8951074,237.891867 C60.3909389,237.891867 60.793353,237.490061 60.793353,236.994977 C60.793353,236.499445 60.3909389,236.098087 59.8951074,236.098087 L34.1724968,236.098087 L37.0859565,233.189023 L77.0331846,233.189023 L139.391641,233.189023 L136.478181,236.098087 L127.850083,236.098087 C127.353802,236.098087 126.951837,236.499445 126.951837,236.994977 C126.951837,237.490061 127.353802,237.891867 127.850083,237.891867 L134.68169,237.891867 L132.604497,239.965926 C132.391613,240.178041 132.309872,240.470427 132.355234,240.745324 L121.265942,240.745324 C120.86802,239.253795 119.507178,238.149723 117.889437,238.149723 C116.271697,238.149723 114.910855,239.253795 114.512932,240.745324 L98.5115846,240.745324 C98.1482442,240.745324 97.8208337,240.964165 97.6816056,241.299154 C97.5423775,241.634591 97.6191775,242.019805 97.8765249,242.276316 L107.49943,251.885599 L92.936174,252.406244 C92.4466302,252.423733 92.0617319,252.830025 92.0702653,253.31883 C92.0792477,253.807635 92.4785179,254.199576 92.9685109,254.199576 L129.347458,254.199576 C129.84329,254.199576 130.245704,253.798218 130.245704,253.302686 C130.245704,252.807602 129.84329,252.405795 129.347458,252.405795 L110.439388,252.405795 C110.395374,252.28337 110.324413,252.169465 110.2283,252.073946 L100.679949,242.539105 L114.512483,242.539105 C114.910855,244.031082 116.271697,245.135154 117.889437,245.135154 C118.158462,245.135154 118.418953,245.101969 118.670911,245.044119 L122.012834,248.381448 C122.181255,248.549615 122.409858,248.644237 122.647893,248.644237 L145.986111,248.644237 C146.481942,248.644237 146.884356,248.24243 146.884356,247.747347 C146.884356,247.251815 146.481942,246.850457 145.986111,246.850457 L123.019767,246.850457 L120.316946,244.151714 C120.767865,243.716273 121.099767,243.161995 121.265942,242.539105 L154.27602,242.539105 L159.701872,247.956771 C159.870293,248.124938 160.098897,248.21956 160.336932,248.21956 L187.882981,248.21956 C188.378813,248.21956 188.781227,247.818201 188.781227,247.322669 C188.781227,246.827586 188.378813,246.425779 187.882981,246.425779 L160.708806,246.425779 L156.816258,242.539105 L176.804469,242.539105 C177.3003,242.539105 177.702714,242.137746 177.702714,241.642214 C177.702714,241.147131 177.3003,240.745324 176.804469,240.745324 L134.36416,240.745324 L137.221928,237.891867 L154.647893,237.891867 C155.143725,237.891867 155.546139,237.490061 155.546139,236.994977 C155.546139,236.499445 155.143725,236.098087 154.647893,236.098087 L139.01842,236.098087 L141.931879,233.189023 L178.245255,233.189023 L204.278209,233.189023 L212.299093,241.197805 L199.111051,241.197805 C198.614771,241.197805 198.212806,241.599612 198.212806,242.094696 C198.212806,242.590227 198.614771,242.991586 199.111051,242.991586 L214.106813,242.991586 C214.272988,243.130604 214.475992,243.204597 214.680792,243.204597 C214.885592,243.204597 215.088146,243.130604 215.254771,242.991586 L235.382209,242.991586 L228.342658,250.020067 C228.005367,249.911543 227.646069,249.851452 227.272848,249.851452 C225.344314,249.851452 223.775079,251.418319 223.775079,253.343943 C223.775079,255.270015 225.344314,256.836882 227.272848,256.836882 C229.201381,256.836882 230.770616,255.270015 230.770616,253.343943 C230.770616,252.452434 230.431528,251.640748 229.879107,251.022791 L237.922448,242.991586 L252.107542,242.991586 L252.107542,252.405795 L241.393718,252.405795 C240.897886,252.405795 240.495472,252.807602 240.495472,253.302686 C240.495472,253.798218 240.897886,254.199576 241.393718,254.199576 L252.107542,254.199576 L252.107542,260.324889 L232.046574,260.324889 C231.550293,260.324889 231.148328,260.726696 231.148328,261.221779 C231.148328,261.717311 231.550293,262.118669 232.046574,262.118669 L252.107542,262.118669 L252.107542,265.037151 C252.107542,268.001373 250.029002,270.412663 247.473493,270.412663 L247.473493,270.412663 Z M64.8179425,270.412663 L56.2940407,261.901173 L63.5527635,261.901173 L72.0771144,270.412663 L64.8179425,270.412663 Z M31.5671354,236.098087 C31.0708547,236.098087 30.6688898,236.499445 30.6688898,236.994977 C30.6688898,237.015157 30.6733811,237.033992 30.6747284,237.053723 L26.9775495,240.745324 L3.59307228,240.745324 L3.59307228,231.474617 C5.0230793,232.547746 6.77510737,233.189023 8.6739986,233.189023 L34.5457179,233.189023 L31.6318091,236.098087 L31.5671354,236.098087 Z M3.59307228,177.865239 C3.59307228,174.901016 5.87237053,172.489727 8.6739986,172.489727 L15.868946,172.489727 L15.868946,192.917301 C15.868946,197.119681 19.2930582,200.538627 23.5017881,200.538627 L55.2421951,200.538627 L77.0331846,200.538627 L92.9622232,200.538627 L76.0011004,229.601462 L8.6739986,229.601462 C5.87237053,229.601462 3.59307228,227.190172 3.59307228,224.225949 L3.59307228,218.675992 L3.59307228,177.865239 Z M23.5017881,57.6343977 L90.2468267,57.6343977 L55.5583775,77.4677823 C54.5321319,78.0543486 53.8948267,79.1521424 53.8948267,80.3328985 L53.8948267,98.1236154 L19.4619284,98.1236154 L19.4619284,61.668162 C19.4619284,59.443874 21.2741389,57.6343977 23.5017881,57.6343977 L23.5017881,57.6343977 Z M232.198378,57.6343977 C234.426476,57.6343977 236.238686,59.443874 236.238686,61.668162 L236.238686,98.1236154 L201.207107,98.1236154 L201.207107,80.329311 C201.207107,79.1534877 200.573844,78.0579362 199.553437,77.4695761 L165.148834,57.6343977 L232.198378,57.6343977 Z M157.330504,196.950617 L139.132497,196.945684 L139.132497,144.806309 C139.132497,139.796728 143.214574,135.72081 148.231725,135.72081 C153.248876,135.72081 157.330504,139.796728 157.330504,144.806309 L157.330504,196.950617 Z M97.8944898,196.934473 L97.8944898,144.789717 C97.8944898,139.780136 101.976567,135.704218 106.993718,135.704218 C112.011318,135.704218 116.092946,139.780136 116.092946,144.789717 L116.092946,196.934473 L97.8944898,196.934473 Z M198.239753,196.951065 L180.041746,196.951065 L180.041746,144.806309 C180.041746,139.796728 184.123823,135.72081 189.140974,135.72081 C194.157676,135.72081 198.239753,139.796728 198.239753,144.806309 L198.239753,196.951065 Z M66.1379144,132.133249 C59.1392337,132.133249 53.4457039,137.818637 53.4457039,144.806309 L53.4457039,151.658103 L45.55776,151.658103 C44.5656477,151.658103 43.7612688,152.461268 43.7612688,153.451884 C43.7612688,154.442499 44.5656477,155.245664 45.55776,155.245664 L53.4457039,155.245664 L53.4457039,196.951065 L23.5017881,196.951065 C21.2741389,196.951065 19.4619284,195.141589 19.4619284,192.917301 L19.4619284,181.395399 L27.3494232,181.395399 C28.3415354,181.395399 29.1459144,180.592234 29.1459144,179.601619 C29.1459144,178.611003 28.3415354,177.807838 27.3494232,177.807838 L19.4619284,177.807838 L19.4619284,117.87628 L38.0115986,117.87628 C39.0037109,117.87628 39.8080898,117.073115 39.8080898,116.082499 C39.8080898,115.091884 39.0037109,114.288718 38.0115986,114.288718 L19.4619284,114.288718 L19.4619284,101.711177 L54.1804688,101.711177 C56.0039074,101.711177 57.4878091,100.229514 57.4878091,98.4088265 L57.4878091,80.4983748 L127.84649,40.2710491 L197.614125,80.4943388 L197.614125,98.4088265 C197.614125,100.229514 199.098027,101.711177 200.921465,101.711177 L236.238686,101.711177 L236.238686,114.287822 L216.963683,114.287822 C215.971571,114.287822 215.167192,115.090987 215.167192,116.081602 C215.167192,117.072218 215.971571,117.875383 216.963683,117.875383 L236.238686,117.875383 L236.238686,182.526378 L227.929016,182.526378 C226.936904,182.526378 226.132525,183.329543 226.132525,184.320159 C226.132525,185.310774 226.936904,186.113939 227.929016,186.113939 L236.238686,186.113939 L236.238686,192.917301 C236.238686,195.141589 234.426476,196.951065 232.198378,196.951065 L201.832735,196.951065 L201.832735,167.05502 L209.72023,167.05502 C210.712342,167.05502 211.516721,166.251854 211.516721,165.261239 C211.516721,164.270624 210.712342,163.467458 209.72023,163.467458 L201.832735,163.467458 L201.832735,144.806309 C201.832735,137.818637 196.139206,132.133249 189.140974,132.133249 C182.142742,132.133249 176.448764,137.818637 176.448764,144.806309 L176.448764,196.951065 L160.923486,196.951065 L160.923486,144.806309 C160.923486,137.818637 155.229956,132.133249 148.231725,132.133249 C141.233493,132.133249 135.539514,137.818637 135.539514,144.806309 L135.539514,196.944787 L119.685928,196.940751 L119.685928,144.789717 C119.685928,137.802044 113.992399,132.116656 106.993718,132.116656 C99.9954863,132.116656 94.3015074,137.802044 94.3015074,144.789717 L94.3015074,196.951065 L78.8296758,196.951065 L78.8296758,144.806309 C78.8296758,137.818637 73.136146,132.133249 66.1379144,132.133249 L66.1379144,132.133249 Z M57.0386863,144.806309 C57.0386863,139.796728 61.1203144,135.72081 66.1379144,135.72081 C71.1550653,135.72081 75.2366933,139.796728 75.2366933,144.806309 L75.2366933,196.951065 L57.0386863,196.951065 L57.0386863,144.806309 Z M80.1595284,229.601462 L97.1206512,200.538627 L137.336006,200.538627 L158.096707,200.538627 L175.113971,229.601462 L80.1595284,229.601462 Z M247.026616,172.489727 C249.828244,172.489727 252.107542,174.901016 252.107542,177.865239 L252.107542,218.675992 L252.107542,224.225949 C252.107542,227.190172 249.828244,229.601462 247.026616,229.601462 L179.275992,229.601462 L162.258279,200.538627 L178.245255,200.538627 L200.036244,200.538627 L232.198378,200.538627 C236.407556,200.538627 239.831669,197.119681 239.831669,192.917301 L239.831669,172.489727 L247.026616,172.489727 Z M228.883851,237.891867 L252.107542,237.891867 L252.107542,241.197805 L214.839332,241.197805 L206.818448,233.189023 L247.026616,233.189023 C248.925058,233.189023 250.677535,232.547746 252.107542,231.474617 L252.107542,236.098087 L228.883851,236.098087 C228.387571,236.098087 227.985606,236.499445 227.985606,236.994977 C227.985606,237.490061 228.387571,237.891867 228.883851,237.891867 L228.883851,237.891867 Z M129.646574,27.4764599 L160.711051,27.4764599 L160.711051,3.82097709 L129.646574,3.82097709 L129.646574,27.4764599 Z M247.026616,168.902165 L239.831669,168.902165 L239.831669,61.668162 C239.831669,57.4657823 236.407556,54.0468363 232.198378,54.0468363 L159.363683,54.0468363 C159.236581,54.0468363 159.113072,54.0607381 158.993606,54.0858511 L129.646574,37.1660147 L129.646574,31.0640213 L162.507542,31.0640213 C163.499655,31.0640213 164.304034,30.260856 164.304034,29.2702406 L164.304034,2.0271964 C164.304034,1.03658101 163.499655,0.233415712 162.507542,0.233415712 L127.850083,0.233415712 C126.857971,0.233415712 126.053592,1.03658101 126.053592,2.0271964 L126.053592,37.1619787 L96.5215214,54.0468363 L23.5017881,54.0468363 C19.2930582,54.0468363 15.868946,57.4657823 15.868946,61.668162 L15.868946,168.902165 L8.6739986,168.902165 C3.8908407,168.902165 8.98245614e-05,172.922925 8.98245614e-05,177.865239 L8.98245614e-05,218.675992 L8.98245614e-05,224.225949 L8.98245614e-05,265.037151 C8.98245614e-05,269.979465 3.69053193,274.000224 8.22667228,274.000224 L247.473493,274.000224 C252.010083,274.000224 255.700525,269.979465 255.700525,265.037151 L255.700525,224.225949 L255.700525,218.675992 L255.700525,177.865239 C255.700525,172.922925 251.809325,168.902165 247.026616,168.902165 L247.026616,168.902165 Z" id="Fill-13" fill="#07778C" mask="url(#mask-4)"></path>
                    </g>
                    <path d="M85.3395442,240.130582 C86.2758412,240.130582 87.0377872,240.886017 87.0377872,241.81486 C87.0377872,242.743703 86.2758412,243.499582 85.3395442,243.499582 C84.4032471,243.499582 83.6413012,242.743703 83.6413012,241.81486 C83.6413012,240.886017 84.4032471,240.130582 85.3395442,240.130582 L85.3395442,240.130582 Z M81.9695022,242.70413 C82.3670586,244.183431 83.7251152,245.278123 85.3395442,245.278123 C87.2641299,245.278123 88.8306011,243.724568 88.8306011,241.81486 C88.8306011,239.905596 87.2641299,238.352041 85.3395442,238.352041 C83.7251152,238.352041 82.3670586,239.446733 81.9695022,240.925589 L47.0401082,240.925589 C46.5448434,240.925589 46.1437012,241.323982 46.1437012,241.81486 C46.1437012,242.306182 46.5448434,242.70413 47.0401082,242.70413 L58.3316986,242.70413 C58.3424555,242.716135 58.3505231,242.729474 58.3617282,242.74059 L62.6335556,246.978408 L40.7652594,246.978408 C40.2699946,246.978408 39.8688525,247.376801 39.8688525,247.867678 C39.8688525,248.359 40.2699946,248.756949 40.7652594,248.756949 L64.4268178,248.756949 L77.6317888,261.856791 C77.7998651,262.023529 78.0280007,262.117347 78.2655486,262.117347 L86.2673254,262.117347 C86.762142,262.117347 87.1637323,261.719398 87.1637323,261.228077 C87.1637323,260.737199 86.762142,260.338806 86.2673254,260.338806 L78.636661,260.338806 L66.9618567,248.756949 L87.9341941,248.756949 C88.4290108,248.756949 88.8306011,248.359 88.8306011,247.867678 C88.8306011,247.376801 88.4290108,246.978408 87.9341941,246.978408 L65.1690427,246.978408 L60.8600144,242.70413 L81.9695022,242.70413 Z" id="Fill-16" fill="#07778C"></path>
                </g>
            </g>
        </g>
    </g>
</svg>