<svg width="171" height="184" viewBox="0 0 171 184" xmlns="http://www.w3.org/2000/svg" xmlns:xlink="http://www.w3.org/1999/xlink"><title>E-Gobierno</title><defs><path id="a" d="M0 182.844V0h168.802v182.844z"/><path id="c" d="M0 183.261h170.8V.156H0z"/></defs><g fill="none" fill-rule="evenodd"><g opacity=".35" transform="translate(1 1)"><mask id="b" fill="#fff"><use xlink:href="#a"/></mask><path d="M163.076 112.651h-4.75v-71.62c0-2.807-2.26-5.09-5.039-5.09h-48.082c-.084 0-.165.01-.244.026l-19.374-11.3V20.59h21.693c.655 0 1.186-.536 1.186-1.198V1.198c0-.662-.53-1.198-1.186-1.198H84.401c-.655 0-1.186.536-1.186 1.198v23.466L63.72 35.94H15.515c-2.778 0-5.039 2.283-5.039 5.09v71.62h-4.75c-3.157 0-5.726 2.686-5.726 5.986v58.222c0 3.3 2.436 5.986 5.431 5.986h157.94c2.995 0 5.431-2.685 5.431-5.986v-58.221c0-3.3-2.568-5.986-5.726-5.986" fill="#07778C" mask="url(#b)"/></g><path d="M85.5 45.391c3.84 0 6.965 3.127 6.965 6.97 0 3.842-3.125 6.968-6.965 6.968s-6.965-3.126-6.965-6.969c0-3.842 3.124-6.969 6.965-6.969m0 16.32c5.152 0 9.344-4.195 9.344-9.35 0-5.156-4.192-9.35-9.344-9.35-5.153 0-9.344 4.194-9.344 9.35 0 5.155 4.191 9.35 9.344 9.35m23.17 6.544h9.258c.67 0 1.211-.523 1.211-1.168 0-.646-.542-1.17-1.21-1.17h-9.26c-.668 0-1.21.524-1.21 1.17 0 .645.542 1.168 1.21 1.168M91.773 76.67H78.76c-.664 0-1.203.524-1.203 1.17 0 .645.539 1.168 1.203 1.168h13.013c.664 0 1.202-.523 1.202-1.169 0-.645-.538-1.169-1.202-1.169M63.541 60.074c0-.645-.543-1.169-1.212-1.169H51.204c-.67 0-1.212.524-1.212 1.17 0 .645.543 1.168 1.212 1.168H62.33c.67 0 1.212-.523 1.212-1.169M33.883 76.67H31.06c-.64 0-1.157.524-1.157 1.17 0 .645.518 1.168 1.157 1.168h2.824c.64 0 1.158-.523 1.158-1.169 0-.645-.518-1.169-1.158-1.169m102.766 2.338h2.824c.639 0 1.157-.523 1.157-1.169 0-.645-.518-1.169-1.157-1.169h-2.825c-.639 0-1.157.524-1.157 1.17 0 .645.518 1.168 1.157 1.168" fill="#07778C"/><mask id="d" fill="#fff"><use xlink:href="#c"/></mask><path d="M152.948 169.446a1.138 1.138 0 0 1-2.273 0 1.137 1.137 0 0 1 2.273 0zm-74.202-6.69a1.137 1.137 0 1 1 1.136-1.136c0 .626-.509 1.135-1.136 1.135zM9.301 174.568a1.137 1.137 0 0 1-2.273 0 1.138 1.138 0 0 1 2.273 0zm63.304 0a1.137 1.137 0 0 1-2.273 0 1.137 1.137 0 0 1 2.273 0zm49.03 0a1.138 1.138 0 0 1 2.273 0 1.137 1.137 0 0 1-2.273 0zm43.67 6.293h-34.357l5.548-5.548H149.1a.6.6 0 1 0 0-1.2h-5.052l-5.122-5.12a.6.6 0 0 0-.424-.176H97.1a.6.6 0 1 0 0 1.2h41.154l4.098 4.097h-6.104a.6.6 0 0 0-.424.175l-6.573 6.572H97.854l2.071-2.07h6.975a.6.6 0 1 0 0-1.2h-5.775l2.423-2.423h16.902c.022 0 .043-.004.065-.007a2.339 2.339 0 0 0 2.257 1.743 2.339 2.339 0 0 0 2.336-2.336 2.339 2.339 0 0 0-2.336-2.336 2.339 2.339 0 0 0-2.257 1.743c-.022-.003-.043-.007-.065-.007H73.724a2.339 2.339 0 0 0-2.256-1.736 2.339 2.339 0 0 0-2.336 2.336 2.339 2.339 0 0 0 2.336 2.336c1.081 0 1.99-.738 2.256-1.736h28.128l-2.424 2.423H82.1a.6.6 0 1 0 0 1.2h16.128l-2.07 2.07H49.842l-6.718-6.717a.6.6 0 0 0-.424-.176H28.6a.6.6 0 1 0 0 1.2h7.306l5.694 5.693H30.442l-6.718-6.717a.6.6 0 0 0-.424-.176H10.42a2.338 2.338 0 0 0-2.255-1.736 2.339 2.339 0 0 0-2.337 2.336 2.339 2.339 0 0 0 2.337 2.336c1.08 0 1.99-.738 2.255-1.736h12.631l5.694 5.693H5.495c-1.237 0-2.303-.85-2.799-2.07h17.528a.6.6 0 1 0 0-1.2H2.414a4.164 4.164 0 0 1-.014-.326V162.22h7.181a.605.605 0 0 0 .095.127l7.563 7.56a.6.6 0 0 0 .424.177H34.9a.6.6 0 1 0 0-1.2H17.911l-6.665-6.664H23.3a.6.6 0 1 0 0-1.2h-3.583l1.91-1.908h18.381a.6.6 0 0 0 0-1.2H22.826l1.946-1.946H93.11l-1.946 1.946H85.4a.6.6 0 1 0 0 1.2h4.563l-1.387 1.387a.597.597 0 0 0-.167.521h-7.407a2.338 2.338 0 0 0-2.256-1.736c-1.08 0-1.99.739-2.255 1.736H65.803a.6.6 0 0 0-.425 1.024l6.428 6.427-9.728.348a.6.6 0 0 0 .022 1.2h24.3a.6.6 0 1 0 0-1.2H73.77a.598.598 0 0 0-.14-.222l-6.379-6.377h9.24a2.339 2.339 0 0 0 2.255 1.736c.18 0 .354-.022.522-.06l2.233 2.231a.6.6 0 0 0 .424.176h15.59a.6.6 0 0 0 0-1.2H82.172l-1.805-1.805c.301-.29.523-.662.634-1.078h22.05l3.624 3.623a.6.6 0 0 0 .424.176h18.4a.6.6 0 1 0 0-1.2h-18.152l-2.6-2.6H118.1a.6.6 0 1 0 0-1.199H89.75l1.909-1.908h11.64a.6.6 0 0 0 0-1.2H92.86l1.946-1.946h41.646l5.357 5.357H133a.6.6 0 1 0 0 1.2h10.017a.598.598 0 0 0 .383.142c.137 0 .272-.05.383-.142h13.445l-4.702 4.7a2.339 2.339 0 0 0-3.051 2.223 2.339 2.339 0 0 0 2.336 2.337 2.339 2.339 0 0 0 2.337-2.336c0-.597-.227-1.14-.596-1.553l5.373-5.371h9.475v6.296h-7.157a.6.6 0 0 0 0 1.2h7.157v4.097H155a.6.6 0 1 0 0 1.2h13.4v1.951c0 1.983-1.388 3.596-3.095 3.596zm-122.009 0l-5.693-5.693h4.848l5.694 5.693h-4.849zm-22.21-22.951a.6.6 0 0 0-.6.6c0 .013.003.026.004.039l-2.47 2.47H2.4v-6.201a5.628 5.628 0 0 0 3.394 1.146h17.281l-1.946 1.946h-.043zM2.4 118.963c0-1.983 1.523-3.596 3.394-3.596H10.6v13.663a5.104 5.104 0 0 0 5.098 5.097h46.398l-11.33 19.439H5.794c-1.871 0-3.394-1.613-3.394-3.596v-31.007zm13.298-80.415h44.584l-23.17 13.265A2.213 2.213 0 0 0 36 53.73v11.899H13V41.246a2.701 2.701 0 0 1 2.698-2.698zm139.403 0a2.701 2.701 0 0 1 2.7 2.698v24.383h-23.4V53.727c0-.786-.424-1.519-1.106-1.913l-22.98-13.266H155.1zm-50.01 93.18l-12.155-.004V96.852a6.084 6.084 0 0 1 6.078-6.077 6.084 6.084 0 0 1 6.078 6.077v34.876zm-39.7-.011V96.84a6.084 6.084 0 0 1 6.077-6.077 6.084 6.084 0 0 1 6.078 6.077v34.876H65.39zm67.027.01h-12.156V96.853a6.084 6.084 0 0 1 6.078-6.077 6.084 6.084 0 0 1 6.078 6.077v34.876zm-88.24-43.352c-4.675 0-8.478 3.803-8.478 8.477v4.582h-5.269a1.2 1.2 0 1 0 0 2.4h5.27v27.894H15.697A2.701 2.701 0 0 1 13 129.03v-7.706h5.269a1.2 1.2 0 1 0 0-2.4H13V78.84h12.39a1.2 1.2 0 1 0 0-2.4H13v-8.412h23.19c1.219 0 2.21-.99 2.21-2.209V53.84l46.997-26.905L132 53.838v11.981c0 1.218.991 2.21 2.21 2.21h23.59v8.41h-12.875a1.2 1.2 0 1 0 0 2.4H157.8v43.241h-5.55a1.2 1.2 0 1 0 0 2.4h5.55v4.55a2.701 2.701 0 0 1-2.699 2.698h-20.283v-19.996h5.269a1.2 1.2 0 1 0 0-2.4h-5.269v-12.48c0-4.674-3.803-8.477-8.478-8.477-4.674 0-8.478 3.803-8.478 8.477v34.876h-10.37V96.852c0-4.674-3.803-8.477-8.478-8.477-4.674 0-8.478 3.803-8.478 8.477v34.872l-10.59-.003v-34.88c0-4.674-3.803-8.477-8.478-8.477-4.674 0-8.478 3.803-8.478 8.477v34.887H52.656V96.852c0-4.674-3.803-8.477-8.478-8.477zM38.1 96.852a6.084 6.084 0 0 1 6.078-6.077 6.084 6.084 0 0 1 6.078 6.077v34.876H38.1V96.852zm15.444 56.714l11.33-19.439h40.73l11.367 19.439H53.544zm111.462-38.199c1.871 0 3.394 1.613 3.394 3.596v31.007c0 1.983-1.523 3.596-3.394 3.596h-45.255l-11.368-19.439h46.718a5.104 5.104 0 0 0 5.1-5.097v-13.663h4.805zm-12.119 43.744H168.4v2.21h-24.894l-5.358-5.356h26.858a5.629 5.629 0 0 0 3.394-1.146v3.092h-15.513a.6.6 0 1 0 0 1.2zM86.6 18.377h20.75V2.556H86.6v15.821zm78.406 94.59H160.2v-71.72a5.104 5.104 0 0 0-5.099-5.098H106.45c-.085 0-.167.01-.247.027L86.6 24.858v-4.081h21.95a1.2 1.2 0 0 0 1.2-1.2V1.356a1.2 1.2 0 0 0-1.2-1.2H85.4a1.2 1.2 0 0 0-1.2 1.2v23.5L64.473 36.147H15.698a5.104 5.104 0 0 0-5.098 5.098v71.722H5.794c-3.195 0-5.794 2.69-5.794 5.995v58.303c0 3.306 2.465 5.995 5.495 5.995h159.81c3.03 0 5.495-2.689 5.495-5.995v-58.303c0-3.306-2.6-5.995-5.794-5.995z" fill="#07778C" mask="url(#d)"/><path d="M57.004 160.608c.626 0 1.135.505 1.135 1.126 0 .622-.51 1.127-1.135 1.127a1.132 1.132 0 0 1-1.134-1.127c0-.62.509-1.126 1.134-1.126zm-2.25 1.721a2.332 2.332 0 0 0 2.25 1.722 2.327 2.327 0 0 0 2.332-2.317 2.327 2.327 0 0 0-2.332-2.316 2.332 2.332 0 0 0-2.25 1.722H31.42a.597.597 0 0 0-.598.594c0 .33.268.595.598.595h7.543c.007.008.012.017.02.025l2.853 2.834H27.23a.597.597 0 0 0-.599.595c0 .328.268.595.599.595h15.805l8.82 8.761a.601.601 0 0 0 .424.174h5.345c.33 0 .599-.266.599-.594a.597.597 0 0 0-.6-.595h-5.096l-7.799-7.746h14.01c.33 0 .598-.267.598-.595a.597.597 0 0 0-.599-.595H43.531l-2.878-2.859h14.1z" fill="#07778C"/></g></svg>