<?xml version="1.0" encoding="UTF-8" standalone="no"?>
<svg width="171px" height="184px" viewBox="0 0 171 184" version="1.1" xmlns="http://www.w3.org/2000/svg" xmlns:xlink="http://www.w3.org/1999/xlink">
    <!-- Generator: Sketch 46 (44423) - http://www.bohemiancoding.com/sketch -->
    <title>E-Gobierno</title>
    <desc>Created with Sketch.</desc>
    <defs>
        <polygon id="path-1" points="5.40309599e-15 182.843836 5.40309599e-15 0 168.802092 0 168.802092 182.843836"></polygon>
        <polygon id="path-3" points="6e-05 183.261044 170.7999 183.261044 170.7999 0.156266782 6e-05 0.156266782"></polygon>
    </defs>
    <g id="Empress" stroke="none" stroke-width="1" fill="none" fill-rule="evenodd">
        <g id="E-Gobierno_Mobile" transform="translate(-79.000000, -92.000000)">
            <g id="E-Gobierno" transform="translate(79.000000, 92.000000)">
                <g id="Page-1-Copy" opacity="0.35" transform="translate(1.000000, 1.000000)">
                    <mask id="mask-2" fill="white">
                        <use xlink:href="#path-1"></use>
                    </mask>
                    <g id="Clip-2"></g>
                    <path d="M163.076254,112.651206 L158.326168,112.651206 L158.326168,41.0311159 C158.326168,38.224417 156.065718,35.9409604 153.287299,35.9409604 L105.20502,35.9409604 C105.121113,35.9409604 105.039578,35.9502452 104.960711,35.9670177 L85.5870851,24.6668426 L85.5870851,20.5911241 L107.280459,20.5911241 C107.935111,20.5911241 108.466424,20.0547034 108.466424,19.3930881 L108.466424,1.1979162 C108.466424,0.536300818 107.935111,-0.000119803601 107.280459,-0.000119803601 L84.4011202,-0.000119803601 C83.7464675,-0.000119803601 83.2151553,0.536300818 83.2151553,1.1979162 L83.2151553,24.663548 L63.7193746,35.9409604 L15.5152377,35.9409604 C12.7365219,35.9409604 10.4760728,38.224417 10.4760728,41.0311159 L10.4760728,112.651206 L5.72598684,112.651206 C2.56865175,112.651206 -0.000148245614,115.336604 -0.000148245614,118.637193 L-0.000148245614,145.894309 L-0.000148245614,149.600733 L-0.000148245614,176.857849 C-0.000148245614,180.158738 2.43641667,182.843836 5.43097807,182.843836 L163.371262,182.843836 C166.36612,182.843836 168.802092,180.158738 168.802092,176.857849 L168.802092,149.600733 L168.802092,145.894309 L168.802092,118.637193 C168.802092,115.336604 166.233589,112.651206 163.076254,112.651206" id="Fill-1" fill="#07778C" mask="url(#mask-2)"></path>
                </g>
                <g id="Page-1-Copy-2">
                    <path d="M85.4998513,45.3911731 C89.3402891,45.3911731 92.4648089,48.5176293 92.4648089,52.3604471 C92.4648089,56.203265 89.3402891,59.3294236 85.4998513,59.3294236 C81.6594135,59.3294236 78.5351911,56.203265 78.5351911,52.3604471 C78.5351911,48.5176293 81.6594135,45.3911731 85.4998513,45.3911731 M85.4998513,61.7103516 C90.6522602,61.7103516 94.8442623,57.5160492 94.8442623,52.3604471 C94.8442623,47.2048451 90.6522602,43.0102451 85.4998513,43.0102451 C80.3474423,43.0102451 76.1557377,47.2048451 76.1557377,52.3604471 C76.1557377,57.5160492 80.3474423,61.7103516 85.4998513,61.7103516" id="Fill-1" fill="#07778C"></path>
                    <path d="M108.669946,68.2553889 L117.928414,68.2553889 C118.59715,68.2553889 119.139344,67.7320781 119.139344,67.0866322 C119.139344,66.4411864 118.59715,65.9178756 117.928414,65.9178756 L108.669946,65.9178756 C108.00121,65.9178756 107.459016,66.4411864 107.459016,67.0866322 C107.459016,67.7320781 108.00121,68.2553889 108.669946,68.2553889" id="Fill-3" fill="#07778C"></path>
                    <path d="M91.7732006,76.6704368 L78.7595863,76.6704368 C78.0956662,76.6704368 77.557377,77.1937476 77.557377,77.8391935 C77.557377,78.4846394 78.0956662,79.0079502 78.7595863,79.0079502 L91.7732006,79.0079502 C92.4371207,79.0079502 92.9754098,78.4846394 92.9754098,77.8391935 C92.9754098,77.1937476 92.4371207,76.6704368 91.7732006,76.6704368" id="Fill-5" fill="#07778C"></path>
                    <path d="M63.5409836,60.0740923 C63.5409836,59.4286464 62.9981678,58.9053356 62.3286646,58.9053356 L51.2041223,58.9053356 C50.5346191,58.9053356 49.9918033,59.4286464 49.9918033,60.0740923 C49.9918033,60.7195382 50.5346191,61.2428489 51.2041223,61.2428489 L62.3286646,61.2428489 C62.9981678,61.2428489 63.5409836,60.7195382 63.5409836,60.0740923" id="Fill-7" fill="#07778C"></path>
                    <path d="M33.8834085,76.6704368 L31.0592145,76.6704368 C30.4199436,76.6704368 29.9016393,77.1937476 29.9016393,77.8391935 C29.9016393,78.4846394 30.4199436,79.0079502 31.0592145,79.0079502 L33.8834085,79.0079502 C34.5226793,79.0079502 35.0409836,78.4846394 35.0409836,77.8391935 C35.0409836,77.1937476 34.5226793,76.6704368 33.8834085,76.6704368" id="Fill-9" fill="#07778C"></path>
                    <path d="M136.649313,79.0079502 L139.473638,79.0079502 C140.112872,79.0079502 140.631148,78.4846394 140.631148,77.8391935 C140.631148,77.1937476 140.112872,76.6704368 139.473638,76.6704368 L136.649313,76.6704368 C136.010078,76.6704368 135.491803,77.1937476 135.491803,77.8391935 C135.491803,78.4846394 136.010078,79.0079502 136.649313,79.0079502" id="Fill-11" fill="#07778C"></path>
                    <g id="Group-15">
                        <mask id="mask-4" fill="white">
                            <use xlink:href="#path-3"></use>
                        </mask>
                        <g id="Clip-14"></g>
                        <path d="M152.94756,169.445531 C152.94756,170.072098 152.43786,170.581989 151.81116,170.581989 C151.18446,170.581989 150.67476,170.072098 150.67476,169.445531 C150.67476,168.818964 151.18446,168.309372 151.81116,168.309372 C152.43786,168.309372 152.94756,168.818964 152.94756,169.445531 L152.94756,169.445531 Z M78.74646,162.755453 C78.11976,162.755453 77.61006,162.245561 77.61006,161.618995 C77.61006,160.992428 78.11976,160.482836 78.74646,160.482836 C79.37316,160.482836 79.88286,160.992428 79.88286,161.618995 C79.88286,162.245561 79.37316,162.755453 78.74646,162.755453 L78.74646,162.755453 Z M9.30096,174.569042 C9.30096,175.195609 8.79126,175.7052 8.16456,175.7052 C7.53786,175.7052 7.02816,175.195609 7.02816,174.569042 C7.02816,173.942475 7.53786,173.432583 8.16456,173.432583 C8.79126,173.432583 9.30096,173.942475 9.30096,174.569042 L9.30096,174.569042 Z M72.60486,174.569042 C72.60486,175.195609 72.09516,175.7052 71.46846,175.7052 C70.84176,175.7052 70.33206,175.195609 70.33206,174.569042 C70.33206,173.942475 70.84176,173.432583 71.46846,173.432583 C72.09516,173.432583 72.60486,173.942475 72.60486,174.569042 L72.60486,174.569042 Z M121.63536,174.569042 C121.63536,173.942475 122.14506,173.432583 122.77176,173.432583 C123.39846,173.432583 123.90816,173.942475 123.90816,174.569042 C123.90816,175.195609 123.39846,175.7052 122.77176,175.7052 C122.14506,175.7052 121.63536,175.195609 121.63536,174.569042 L121.63536,174.569042 Z M165.30456,180.861704 L130.94826,180.861704 L136.49646,175.314383 L149.10006,175.314383 C149.43126,175.314383 149.70006,175.04594 149.70006,174.714511 C149.70006,174.383381 149.43126,174.114638 149.10006,174.114638 L144.04836,174.114638 L138.92646,168.993827 C138.81396,168.881351 138.66126,168.818064 138.50226,168.818064 L97.09986,168.818064 C96.76836,168.818064 96.49986,169.086807 96.49986,169.417937 C96.49986,169.749366 96.76836,170.017809 97.09986,170.017809 L138.25386,170.017809 L142.35156,174.114638 L136.24806,174.114638 C136.08906,174.114638 135.93636,174.177925 135.82386,174.290401 L129.25146,180.861704 L97.85436,180.861704 L99.92496,178.791544 L106.89996,178.791544 C107.23116,178.791544 107.49996,178.523101 107.49996,178.191672 C107.49996,177.860542 107.23116,177.591799 106.89996,177.591799 L101.12496,177.591799 L103.54836,175.168914 L120.45006,175.168914 C120.47226,175.168914 120.49326,175.164715 120.51456,175.162316 C120.77826,176.163503 121.68906,176.904945 122.77176,176.904945 C124.05996,176.904945 125.10816,175.856968 125.10816,174.569042 C125.10816,173.280816 124.05996,172.232838 122.77176,172.232838 C121.68906,172.232838 120.77826,172.974581 120.51456,173.975768 C120.49326,173.973368 120.47226,173.969169 120.45006,173.969169 L73.72416,173.969169 C73.45806,172.971281 72.54906,172.232838 71.46846,172.232838 C70.18026,172.232838 69.13206,173.280816 69.13206,174.569042 C69.13206,175.856968 70.18026,176.904945 71.46846,176.904945 C72.54906,176.904945 73.45806,176.166802 73.72386,175.168914 L101.85156,175.168914 L99.42816,177.591799 L82.09986,177.591799 C81.76836,177.591799 81.49986,177.860542 81.49986,178.191672 C81.49986,178.523101 81.76836,178.791544 82.09986,178.791544 L98.22816,178.791544 L96.15756,180.861704 L49.84206,180.861704 L43.12416,174.144932 C43.01166,174.032456 42.85896,173.969169 42.69996,173.969169 L28.59996,173.969169 C28.26846,173.969169 27.99996,174.237912 27.99996,174.569042 C27.99996,174.900471 28.26846,175.168914 28.59996,175.168914 L35.90586,175.168914 L41.59956,180.861704 L30.44226,180.861704 L23.72406,174.144932 C23.61156,174.032456 23.45916,173.969169 23.29986,173.969169 L10.41996,173.969169 C10.15416,172.971281 9.24516,172.232838 8.16456,172.232838 C6.87606,172.232838 5.82816,173.280816 5.82816,174.569042 C5.82816,175.856968 6.87606,176.904945 8.16456,176.904945 C9.24516,176.904945 10.15416,176.166802 10.41996,175.168914 L23.05146,175.168914 L28.74546,180.861704 L5.49516,180.861704 C4.25826,180.861704 3.19176,180.012585 2.69646,178.791544 L20.22396,178.791544 C20.55516,178.791544 20.82396,178.523101 20.82396,178.191672 C20.82396,177.860542 20.55516,177.591799 20.22396,177.591799 L2.41416,177.591799 C2.40576,177.484422 2.40006,177.376145 2.40006,177.266368 L2.40006,162.218867 L9.58146,162.218867 C9.60756,162.263858 9.63726,162.307348 9.67566,162.34574 L17.23866,169.906833 C17.35116,170.019309 17.50386,170.082596 17.66286,170.082596 L34.89996,170.082596 C35.23116,170.082596 35.49996,169.814153 35.49996,169.482723 C35.49996,169.151593 35.23116,168.882851 34.89996,168.882851 L17.91126,168.882851 L11.24586,162.218867 L23.29986,162.218867 C23.63136,162.218867 23.89986,161.950424 23.89986,161.618995 C23.89986,161.287865 23.63136,161.019122 23.29986,161.019122 L19.71696,161.019122 L21.62616,159.110628 L40.00806,159.110628 C40.33926,159.110628 40.60806,158.841885 40.60806,158.510755 C40.60806,158.179326 40.33926,157.910883 40.00806,157.910883 L22.82616,157.910883 L24.77226,155.965196 L51.45576,155.965196 L93.10926,155.965196 L91.16316,157.910883 L85.39986,157.910883 C85.06836,157.910883 84.79986,158.179326 84.79986,158.510755 C84.79986,158.841885 85.06836,159.110628 85.39986,159.110628 L89.96316,159.110628 L88.57566,160.497833 C88.43346,160.639703 88.37886,160.835261 88.40916,161.019122 L81.00186,161.019122 C80.73606,160.021534 79.82706,159.283091 78.74646,159.283091 C77.66586,159.283091 76.75686,160.021534 76.49106,161.019122 L65.80266,161.019122 C65.55996,161.019122 65.34126,161.165491 65.24826,161.389543 C65.15526,161.613896 65.20656,161.871541 65.37846,162.043104 L71.80626,168.470138 L62.07846,168.818364 C61.75146,168.830062 61.49436,169.101804 61.50006,169.428735 C61.50606,169.755665 61.77276,170.017809 62.10006,170.017809 L86.40006,170.017809 C86.73126,170.017809 87.00006,169.749366 87.00006,169.417937 C87.00006,169.086807 86.73126,168.818064 86.40006,168.818064 L73.77006,168.818064 C73.74066,168.736182 73.69326,168.659998 73.62906,168.596112 L67.25106,162.218867 L76.49076,162.218867 C76.75686,163.216755 77.66586,163.955198 78.74646,163.955198 C78.92616,163.955198 79.10016,163.933003 79.26846,163.894311 L81.50076,166.126436 C81.61326,166.238913 81.76596,166.302199 81.92496,166.302199 L97.51416,166.302199 C97.84536,166.302199 98.11416,166.033456 98.11416,165.702327 C98.11416,165.370897 97.84536,165.102454 97.51416,165.102454 L82.17336,165.102454 L80.36796,163.297438 C80.66916,163.0062 80.89086,162.635479 81.00186,162.218867 L103.05156,162.218867 L106.67586,165.842397 C106.78836,165.954873 106.94106,166.018159 107.10006,166.018159 L125.49996,166.018159 C125.83116,166.018159 126.09996,165.749717 126.09996,165.418287 C126.09996,165.087157 125.83116,164.818415 125.49996,164.818415 L107.34846,164.818415 L104.74836,162.218867 L118.09986,162.218867 C118.43106,162.218867 118.69986,161.950424 118.69986,161.618995 C118.69986,161.287865 118.43106,161.019122 118.09986,161.019122 L89.75106,161.019122 L91.65996,159.110628 L103.29996,159.110628 C103.63116,159.110628 103.89996,158.841885 103.89996,158.510755 C103.89996,158.179326 103.63116,157.910883 103.29996,157.910883 L92.85996,157.910883 L94.80606,155.965196 L119.06226,155.965196 L136.45146,155.965196 L141.80916,161.321758 L132.99996,161.321758 C132.66846,161.321758 132.39996,161.590501 132.39996,161.92163 C132.39996,162.25306 132.66846,162.521503 132.99996,162.521503 L143.01666,162.521503 C143.12766,162.614483 143.26326,162.663972 143.40006,162.663972 C143.53686,162.663972 143.67216,162.614483 143.78346,162.521503 L157.22796,162.521503 L152.52576,167.222404 C152.30046,167.149819 152.06046,167.109627 151.81116,167.109627 C150.52296,167.109627 149.47476,168.157605 149.47476,169.445531 C149.47476,170.733757 150.52296,171.781734 151.81116,171.781734 C153.09936,171.781734 154.14756,170.733757 154.14756,169.445531 C154.14756,168.849258 153.92106,168.306373 153.55206,167.893061 L158.92476,162.521503 L168.39996,162.521503 L168.39996,168.818064 L161.24346,168.818064 C160.91226,168.818064 160.64346,169.086807 160.64346,169.417937 C160.64346,169.749366 160.91226,170.017809 161.24346,170.017809 L168.39996,170.017809 L168.39996,174.114638 L154.99986,174.114638 C154.66836,174.114638 154.39986,174.383381 154.39986,174.714511 C154.39986,175.04594 154.66836,175.314383 154.99986,175.314383 L168.39996,175.314383 L168.39996,177.266368 C168.39996,179.248947 167.01156,180.861704 165.30456,180.861704 L165.30456,180.861704 Z M43.29636,180.861704 L37.60266,175.168914 L42.45126,175.168914 L48.14526,180.861704 L43.29636,180.861704 Z M21.08586,157.910883 C20.75436,157.910883 20.48586,158.179326 20.48586,158.510755 C20.48586,158.524252 20.48886,158.53685 20.48976,158.550047 L18.02016,161.019122 L2.40006,161.019122 L2.40006,154.81854 C3.35526,155.536288 4.52556,155.965196 5.79396,155.965196 L23.07546,155.965196 L21.12906,157.910883 L21.08586,157.910883 Z M2.40006,118.962662 C2.40006,116.980084 3.92256,115.367326 5.79396,115.367326 L10.59996,115.367326 L10.59996,129.030022 C10.59996,131.840725 12.88716,134.127439 15.69846,134.127439 L36.90006,134.127439 L51.45576,134.127439 L62.09586,134.127439 L50.76636,153.565707 L5.79396,153.565707 C3.92256,153.565707 2.40006,151.952949 2.40006,149.970371 L2.40006,146.25836 L2.40006,118.962662 Z M15.69846,38.5479559 L60.28206,38.5479559 L37.11126,51.8132361 C36.42576,52.2055527 36.00006,52.9397966 36.00006,53.7295287 L36.00006,65.6285993 L12.99996,65.6285993 L12.99996,41.2458824 C12.99996,39.7581986 14.21046,38.5479559 15.69846,38.5479559 L15.69846,38.5479559 Z M155.10126,38.5479559 C156.58956,38.5479559 157.80006,39.7581986 157.80006,41.2458824 L157.80006,65.6285993 L134.40006,65.6285993 L134.40006,53.7271292 C134.40006,52.9406964 133.97706,52.2079521 133.29546,51.8144358 L110.31426,38.5479559 L155.10126,38.5479559 Z M105.09186,131.727649 L92.93616,131.724349 L92.93616,96.8516622 C92.93616,93.5010745 95.66286,90.774954 99.01416,90.774954 C102.36546,90.774954 105.09186,93.5010745 105.09186,96.8516622 L105.09186,131.727649 Z M65.39046,131.716851 L65.39046,96.8405646 C65.39046,93.4899768 68.11716,90.7638563 71.46846,90.7638563 C74.82006,90.7638563 77.54646,93.4899768 77.54646,96.8405646 L77.54646,131.716851 L65.39046,131.716851 Z M132.41796,131.727949 L120.26226,131.727949 L120.26226,96.8516622 C120.26226,93.5010745 122.98896,90.774954 126.34026,90.774954 C129.69126,90.774954 132.41796,93.5010745 132.41796,96.8516622 L132.41796,131.727949 Z M44.17806,88.375464 C39.50316,88.375464 35.70006,92.1780557 35.70006,96.8516622 L35.70006,101.434388 L30.43116,101.434388 C29.76846,101.434388 29.23116,101.971574 29.23116,102.634133 C29.23116,103.296692 29.76846,103.833878 30.43116,103.833878 L35.70006,103.833878 L35.70006,131.727949 L15.69846,131.727949 C14.21046,131.727949 12.99996,130.517706 12.99996,129.030022 L12.99996,121.32376 L18.26856,121.32376 C18.93126,121.32376 19.46856,120.786574 19.46856,120.124015 C19.46856,119.461456 18.93126,118.92427 18.26856,118.92427 L12.99996,118.92427 L12.99996,78.839891 L25.39056,78.839891 C26.05326,78.839891 26.59056,78.3027052 26.59056,77.640146 C26.59056,76.9775869 26.05326,76.4404011 25.39056,76.4404011 L12.99996,76.4404011 L12.99996,68.0280893 L36.19086,68.0280893 C37.40886,68.0280893 38.40006,67.0370999 38.40006,65.8193588 L38.40006,53.8402052 L85.39746,26.9347245 L132.00006,53.8375058 L132.00006,65.8193588 C132.00006,67.0370999 132.99126,68.0280893 134.20926,68.0280893 L157.80006,68.0280893 L157.80006,76.4398012 L144.92496,76.4398012 C144.26226,76.4398012 143.72496,76.976987 143.72496,77.6395462 C143.72496,78.3021053 144.26226,78.8392911 144.92496,78.8392911 L157.80006,78.8392911 L157.80006,122.080199 L152.24946,122.080199 C151.58676,122.080199 151.04946,122.617385 151.04946,123.279944 C151.04946,123.942504 151.58676,124.479689 152.24946,124.479689 L157.80006,124.479689 L157.80006,129.030022 C157.80006,130.517706 156.58956,131.727949 155.10126,131.727949 L134.81796,131.727949 L134.81796,111.732399 L140.08656,111.732399 C140.74926,111.732399 141.28656,111.195213 141.28656,110.532654 C141.28656,109.870095 140.74926,109.332909 140.08656,109.332909 L134.81796,109.332909 L134.81796,96.8516622 C134.81796,92.1780557 131.01486,88.375464 126.34026,88.375464 C121.66566,88.375464 117.86226,92.1780557 117.86226,96.8516622 L117.86226,131.727949 L107.49186,131.727949 L107.49186,96.8516622 C107.49186,92.1780557 103.68876,88.375464 99.01416,88.375464 C94.33956,88.375464 90.53616,92.1780557 90.53616,96.8516622 L90.53616,131.723749 L79.94646,131.72105 L79.94646,96.8405646 C79.94646,92.1669581 76.14336,88.3643664 71.46846,88.3643664 C66.79386,88.3643664 62.99046,92.1669581 62.99046,96.8405646 L62.99046,131.727949 L52.65576,131.727949 L52.65576,96.8516622 C52.65576,92.1780557 48.85266,88.375464 44.17806,88.375464 L44.17806,88.375464 Z M38.10006,96.8516622 C38.10006,93.5010745 40.82646,90.774954 44.17806,90.774954 C47.52936,90.774954 50.25576,93.5010745 50.25576,96.8516622 L50.25576,131.727949 L38.10006,131.727949 L38.10006,96.8516622 Z M53.54406,153.565707 L64.87356,134.127439 L91.73616,134.127439 L105.60366,134.127439 L116.97066,153.565707 L53.54406,153.565707 Z M165.00606,115.367326 C166.87746,115.367326 168.39996,116.980084 168.39996,118.962662 L168.39996,146.25836 L168.39996,149.970371 C168.39996,151.952949 166.87746,153.565707 165.00606,153.565707 L119.75076,153.565707 L108.38346,134.127439 L119.06226,134.127439 L133.61796,134.127439 L155.10126,134.127439 C157.91286,134.127439 160.20006,131.840725 160.20006,129.030022 L160.20006,115.367326 L165.00606,115.367326 Z M152.88726,159.110628 L168.39996,159.110628 L168.39996,161.321758 L143.50596,161.321758 L138.14826,155.965196 L165.00606,155.965196 C166.27416,155.965196 167.44476,155.536288 168.39996,154.81854 L168.39996,157.910883 L152.88726,157.910883 C152.55576,157.910883 152.28726,158.179326 152.28726,158.510755 C152.28726,158.841885 152.55576,159.110628 152.88726,159.110628 L152.88726,159.110628 Z M86.59986,18.3772435 L107.34996,18.3772435 L107.34996,2.55560675 L86.59986,2.55560675 L86.59986,18.3772435 Z M165.00606,112.967836 L160.20006,112.967836 L160.20006,41.2458824 C160.20006,38.4351798 157.91286,36.1484659 155.10126,36.1484659 L106.44996,36.1484659 C106.36506,36.1484659 106.28256,36.1577639 106.20276,36.1745604 L86.59986,24.8579659 L86.59986,20.7767335 L108.54996,20.7767335 C109.21266,20.7767335 109.74996,20.2395477 109.74996,19.5769885 L109.74996,1.35586178 C109.74996,0.693302625 109.21266,0.156116814 108.54996,0.156116814 L85.39986,0.156116814 C84.73716,0.156116814 84.19986,0.693302625 84.19986,1.35586178 L84.19986,24.8552665 L64.47336,36.1484659 L15.69846,36.1484659 C12.88716,36.1484659 10.59996,38.4351798 10.59996,41.2458824 L10.59996,112.967836 L5.79396,112.967836 C2.59896,112.967836 6e-05,115.657065 6e-05,118.962662 L6e-05,146.25836 L6e-05,149.970371 L6e-05,177.266368 C6e-05,180.571966 2.46516,183.261194 5.49516,183.261194 L165.30456,183.261194 C168.33486,183.261194 170.79996,180.571966 170.79996,177.266368 L170.79996,149.970371 L170.79996,146.25836 L170.79996,118.962662 C170.79996,115.657065 168.20076,112.967836 165.00606,112.967836 L165.00606,112.967836 Z" id="Fill-13" fill="#07778C" mask="url(#mask-4)"></path>
                    </g>
                    <path d="M57.0041486,160.60796 C57.6295658,160.60796 58.1385219,161.113222 58.1385219,161.734466 C58.1385219,162.355709 57.6295658,162.861269 57.0041486,162.861269 C56.3787314,162.861269 55.8697754,162.355709 55.8697754,161.734466 C55.8697754,161.113222 56.3787314,160.60796 57.0041486,160.60796 L57.0041486,160.60796 Z M54.7530659,162.329242 C55.0186212,163.318652 55.9257605,164.050821 57.0041486,164.050821 C58.2897118,164.050821 59.3360656,163.011747 59.3360656,161.734466 C59.3360656,160.457482 58.2897118,159.418408 57.0041486,159.418408 C55.9257605,159.418408 55.0186212,160.150578 54.7530659,161.13969 L31.4213223,161.13969 C31.0905008,161.13969 30.8225504,161.40615 30.8225504,161.734466 C30.8225504,162.06308 31.0905008,162.329242 31.4213223,162.329242 L38.9637518,162.329242 C38.9709371,162.337271 38.976326,162.346193 38.9838107,162.353628 L41.8372579,165.188033 L27.2299194,165.188033 C26.8990979,165.188033 26.6311475,165.454492 26.6311475,165.782809 C26.6311475,166.111422 26.8990979,166.377585 27.2299194,166.377585 L43.0351009,166.377585 L51.8556089,175.13923 C51.9678787,175.25075 52.1202661,175.313499 52.2789406,175.313499 L57.6238775,175.313499 C57.9543995,175.313499 58.2226493,175.047337 58.2226493,174.718723 C58.2226493,174.390407 57.9543995,174.123947 57.6238775,174.123947 L52.5268322,174.123947 L44.7284277,166.377585 L58.7372937,166.377585 C59.0678158,166.377585 59.3360656,166.111422 59.3360656,165.782809 C59.3360656,165.454492 59.0678158,165.188033 58.7372937,165.188033 L43.530884,165.188033 L40.6525878,162.329242 L54.7530659,162.329242 Z" id="Fill-16" fill="#07778C"></path>
                </g>
            </g>
        </g>
    </g>
</svg>