<?xml version="1.0" encoding="UTF-8" standalone="no"?>
<svg width="829px" height="304px" viewBox="0 0 829 304" version="1.1" xmlns="http://www.w3.org/2000/svg" xmlns:xlink="http://www.w3.org/1999/xlink">
    <!-- Generator: Sketch 46 (44423) - http://www.bohemiancoding.com/sketch -->
    <title>Elementos portada empress</title>
    <desc>Created with Sketch.</desc>
    <defs>
        <polygon id="path-1" points="0.0069140625 39 0.0069140625 0.110877907 58.9998848 0.110877907 58.9998848 39"></polygon>
    </defs>
    <g id="Empress" stroke="none" stroke-width="1" fill="none" fill-rule="evenodd">
        <g id="Home_Desktop" transform="translate(-296.000000, -52.000000)">
            <g id="Elementos-portada-empress" transform="translate(296.000000, 52.000000)">
                <path d="M5.416,44.64 L7.368,44.64 L11.688,56 L9.416,56 L8.36,53.168 L4.392,53.168 L3.352,56 L1.08,56 L5.416,44.64 Z M7.96,51.616 L6.392,47.152 L4.76,51.616 L7.96,51.616 Z M17.752,56.16 C17.0906634,56.16 16.5146691,56.0133348 16.024,55.72 C15.5333309,55.4266652 15.1493347,55.0293358 14.872,54.528 L14.872,59.408 L12.728,59.408 L12.728,47.616 L14.6,47.616 L14.6,49.056 C14.9093349,48.5653309 15.3093309,48.1786681 15.8,47.896 C16.2906691,47.6133319 16.8559968,47.472 17.496,47.472 C18.0613362,47.472 18.5839976,47.5866655 19.064,47.816 C19.5440024,48.0453345 19.9573316,48.3546647 20.304,48.744 C20.6506684,49.1333353 20.9226657,49.5919974 21.12,50.12 C21.3173343,50.6480026 21.416,51.2053304 21.416,51.792 C21.416,52.400003 21.3253342,52.970664 21.144,53.504 C20.9626658,54.037336 20.709335,54.5013314 20.384,54.896 C20.058665,55.2906686 19.6720022,55.5999989 19.224,55.824 C18.7759978,56.0480011 18.285336,56.16 17.752,56.16 Z M17.032,54.336 C17.3520016,54.336 17.6479986,54.2666674 17.92,54.128 C18.1920014,53.9893326 18.423999,53.8026678 18.616,53.568 C18.808001,53.3333322 18.9573328,53.0613349 19.064,52.752 C19.1706672,52.4426651 19.224,52.1226683 19.224,51.792 C19.224,51.4399982 19.1653339,51.1120015 19.048,50.808 C18.9306661,50.5039985 18.768001,50.2400011 18.56,50.016 C18.351999,49.7919989 18.1066681,49.6160006 17.824,49.488 C17.5413319,49.3599994 17.2346683,49.296 16.904,49.296 C16.7013323,49.296 16.4933344,49.3306663 16.28,49.4 C16.0666656,49.4693337 15.8693342,49.5679994 15.688,49.696 C15.5066658,49.8240006 15.3440007,49.9733325 15.2,50.144 C15.0559993,50.3146675 14.946667,50.5013323 14.872,50.704 L14.872,52.672 C15.064001,53.1520024 15.3573314,53.5493318 15.752,53.864 C16.1466686,54.1786682 16.573331,54.336 17.032,54.336 Z M22.856,44.32 L25,44.32 L25,53.312 C25,53.6213349 25.0746659,53.8613325 25.224,54.032 C25.3733341,54.2026675 25.5866653,54.288 25.864,54.288 C25.9920006,54.288 26.1333326,54.2666669 26.288,54.224 C26.4426674,54.1813331 26.5893326,54.1280003 26.728,54.064 L27.016,55.696 C26.7279986,55.8346674 26.3920019,55.941333 26.008,56.016 C25.6239981,56.090667 25.2773349,56.128 24.968,56.128 C24.2959966,56.128 23.7760018,55.9493351 23.408,55.592 C23.0399982,55.2346649 22.856,54.7253366 22.856,54.064 L22.856,44.32 Z M27.944,56 L27.944,47.616 L30.088,47.616 L30.088,56 L27.944,56 Z M27.944,46.448 L27.944,44.32 L30.088,44.32 L30.088,46.448 L27.944,46.448 Z M31.496,51.808 C31.496,51.2213304 31.5973323,50.6666693 31.8,50.144 C32.0026677,49.6213307 32.2959981,49.1626686 32.68,48.768 C33.0640019,48.3733314 33.5279973,48.0586678 34.072,47.824 C34.6160027,47.5893322 35.2293299,47.472 35.912,47.472 C36.8293379,47.472 37.6106634,47.6693314 38.256,48.064 C38.9013366,48.4586686 39.3839984,48.9759968 39.704,49.616 L37.608,50.256 C37.4266658,49.9466651 37.1866682,49.7093342 36.888,49.544 C36.5893318,49.3786658 36.2586685,49.296 35.896,49.296 C35.5866651,49.296 35.298668,49.3573327 35.032,49.48 C34.765332,49.6026673 34.5333343,49.7733322 34.336,49.992 C34.1386657,50.2106678 33.9840006,50.4746651 33.872,50.784 C33.7599994,51.0933349 33.704,51.4346648 33.704,51.808 C33.704,52.1813352 33.7626661,52.5226651 33.88,52.832 C33.9973339,53.1413349 34.1546657,53.4079989 34.352,53.632 C34.5493343,53.8560011 34.781332,54.0293327 35.048,54.152 C35.314668,54.2746673 35.5973318,54.336 35.896,54.336 C36.2800019,54.336 36.634665,54.240001 36.96,54.048 C37.285335,53.855999 37.5119994,53.6213347 37.64,53.344 L39.736,53.984 C39.4479986,54.6240032 38.9733366,55.1466646 38.312,55.552 C37.6506634,55.9573354 36.8560046,56.16 35.928,56.16 C35.2453299,56.16 34.6320027,56.0426678 34.088,55.808 C33.5439973,55.5733322 33.0800019,55.256002 32.696,54.856 C32.3119981,54.455998 32.016001,53.9920026 31.808,53.464 C31.599999,52.9359974 31.496,52.3840029 31.496,51.808 Z M43.336,56.16 C42.9306646,56.16 42.5520018,56.093334 42.2,55.96 C41.8479982,55.826666 41.5440013,55.6400012 41.288,55.4 C41.0319987,55.1599988 40.8320007,54.8800016 40.688,54.56 C40.5439993,54.2399984 40.472,53.8880019 40.472,53.504 C40.472,53.1093314 40.5599991,52.7440017 40.736,52.408 C40.9120009,52.0719983 41.1573318,51.7866678 41.472,51.552 C41.7866682,51.3173322 42.1626645,51.133334 42.6,51 C43.0373355,50.866666 43.5173307,50.8 44.04,50.8 C44.4133352,50.8 44.7786649,50.8319997 45.136,50.896 C45.4933351,50.9600003 45.8106653,51.0506661 46.088,51.168 L46.088,50.688 C46.088,50.1333306 45.9306682,49.7066682 45.616,49.408 C45.3013318,49.1093318 44.8346698,48.96 44.216,48.96 C43.7679978,48.96 43.3306688,49.0399992 42.904,49.2 C42.4773312,49.3600008 42.0400022,49.5946651 41.592,49.904 L40.936,48.544 C42.0133387,47.8293298 43.1759938,47.472 44.424,47.472 C45.6293394,47.472 46.56533,47.767997 47.232,48.36 C47.89867,48.952003 48.232,49.8079944 48.232,50.928 L48.232,53.536 C48.232,53.7600011 48.2719996,53.9199995 48.352,54.016 C48.4320004,54.1120005 48.5626658,54.1653333 48.744,54.176 L48.744,56 C48.3813315,56.074667 48.066668,56.112 47.8,56.112 C47.3946646,56.112 47.0826678,56.0213342 46.864,55.84 C46.6453322,55.6586658 46.5093336,55.4186682 46.456,55.12 L46.408,54.656 C46.0346648,55.1466691 45.581336,55.5199987 45.048,55.776 C44.514664,56.0320013 43.944003,56.16 43.336,56.16 Z M43.944,54.592 C44.3066685,54.592 44.650665,54.5280006 44.976,54.4 C45.301335,54.2719994 45.5546658,54.1013344 45.736,53.888 C45.9706678,53.7066658 46.088,53.5040011 46.088,53.28 L46.088,52.32 C45.8319987,52.2239995 45.5546682,52.146667 45.256,52.088 C44.9573318,52.029333 44.6693347,52 44.392,52 C43.8373306,52 43.3840018,52.1253321 43.032,52.376 C42.6799982,52.6266679 42.504,52.9439981 42.504,53.328 C42.504,53.6906685 42.6426653,53.9919988 42.92,54.232 C43.1973347,54.4720012 43.5386646,54.592 43.944,54.592 Z M49.704,51.808 C49.704,51.2213304 49.8053323,50.6666693 50.008,50.144 C50.2106677,49.6213307 50.5039981,49.1626686 50.888,48.768 C51.2720019,48.3733314 51.7359973,48.0586678 52.28,47.824 C52.8240027,47.5893322 53.4373299,47.472 54.12,47.472 C55.0373379,47.472 55.8186634,47.6693314 56.464,48.064 C57.1093366,48.4586686 57.5919984,48.9759968 57.912,49.616 L55.816,50.256 C55.6346658,49.9466651 55.3946682,49.7093342 55.096,49.544 C54.7973318,49.3786658 54.4666685,49.296 54.104,49.296 C53.7946651,49.296 53.506668,49.3573327 53.24,49.48 C52.973332,49.6026673 52.7413343,49.7733322 52.544,49.992 C52.3466657,50.2106678 52.1920006,50.4746651 52.08,50.784 C51.9679994,51.0933349 51.912,51.4346648 51.912,51.808 C51.912,52.1813352 51.9706661,52.5226651 52.088,52.832 C52.2053339,53.1413349 52.3626657,53.4079989 52.56,53.632 C52.7573343,53.8560011 52.989332,54.0293327 53.256,54.152 C53.522668,54.2746673 53.8053318,54.336 54.104,54.336 C54.4880019,54.336 54.842665,54.240001 55.168,54.048 C55.493335,53.855999 55.7199994,53.6213347 55.848,53.344 L57.944,53.984 C57.6559986,54.6240032 57.1813366,55.1466646 56.52,55.552 C55.8586634,55.9573354 55.0640046,56.16 54.136,56.16 C53.4533299,56.16 52.8400027,56.0426678 52.296,55.808 C51.7519973,55.5733322 51.2880019,55.256002 50.904,54.856 C50.5199981,54.455998 50.224001,53.9920026 50.016,53.464 C49.807999,52.9359974 49.704,52.3840029 49.704,51.808 Z M59.256,56 L59.256,47.616 L61.4,47.616 L61.4,56 L59.256,56 Z M59.256,46.448 L59.256,44.32 L61.4,44.32 L61.4,46.448 L59.256,46.448 Z M67.208,56.16 C66.5253299,56.16 65.9120027,56.0426678 65.368,55.808 C64.8239973,55.5733322 64.3626686,55.256002 63.984,54.856 C63.6053314,54.455998 63.3146677,53.9946693 63.112,53.472 C62.9093323,52.9493307 62.808,52.4000029 62.808,51.824 C62.808,51.2373304 62.9093323,50.6826693 63.112,50.16 C63.3146677,49.6373307 63.6053314,49.176002 63.984,48.776 C64.3626686,48.375998 64.8239973,48.0586678 65.368,47.824 C65.9120027,47.5893322 66.5253299,47.472 67.208,47.472 C67.8906701,47.472 68.5013306,47.5893322 69.04,47.824 C69.5786694,48.0586678 70.0373314,48.375998 70.416,48.776 C70.7946686,49.176002 71.0853323,49.6373307 71.288,50.16 C71.4906677,50.6826693 71.592,51.2373304 71.592,51.824 C71.592,52.4000029 71.4906677,52.9493307 71.288,53.472 C71.0853323,53.9946693 70.7973352,54.455998 70.424,54.856 C70.0506648,55.256002 69.5920027,55.5733322 69.048,55.808 C68.5039973,56.0426678 67.8906701,56.16 67.208,56.16 Z M65.016,51.824 C65.016,52.1973352 65.0719994,52.5359985 65.184,52.84 C65.2960006,53.1440015 65.4506657,53.4079989 65.648,53.632 C65.8453343,53.8560011 66.077332,54.0293327 66.344,54.152 C66.610668,54.2746673 66.8986651,54.336 67.208,54.336 C67.5173349,54.336 67.805332,54.2746673 68.072,54.152 C68.338668,54.0293327 68.5706657,53.8560011 68.768,53.632 C68.9653343,53.4079989 69.1199994,53.1413349 69.232,52.832 C69.3440006,52.5226651 69.4,52.1813352 69.4,51.808 C69.4,51.4453315 69.3440006,51.1093349 69.232,50.8 C69.1199994,50.4906651 68.9653343,50.2240011 68.768,50 C68.5706657,49.7759989 68.338668,49.6026673 68.072,49.48 C67.805332,49.3573327 67.5173349,49.296 67.208,49.296 C66.8986651,49.296 66.610668,49.3599994 66.344,49.488 C66.077332,49.6160006 65.8453343,49.7919989 65.648,50.016 C65.4506657,50.2400011 65.2960006,50.5066651 65.184,50.816 C65.0719994,51.1253349 65.016,51.4613315 65.016,51.824 Z M80.824,56 L78.68,56 L78.68,51.296 C78.68,50.6239966 78.5626678,50.1333349 78.328,49.824 C78.0933322,49.5146651 77.7680021,49.36 77.352,49.36 C77.1386656,49.36 76.9200011,49.4026662 76.696,49.488 C76.4719989,49.5733338 76.2613343,49.6933326 76.064,49.848 C75.8666657,50.0026674 75.6880008,50.1866656 75.528,50.4 C75.3679992,50.6133344 75.250667,50.8479987 75.176,51.104 L75.176,56 L73.032,56 L73.032,47.616 L74.968,47.616 L74.968,49.168 C75.2773349,48.634664 75.7253304,48.2186682 76.312,47.92 C76.8986696,47.6213318 77.5599963,47.472 78.296,47.472 C78.8186693,47.472 79.2453317,47.567999 79.576,47.76 C79.9066683,47.952001 80.1626658,48.2026651 80.344,48.512 C80.5253342,48.8213349 80.6506663,49.1733314 80.72,49.568 C80.7893337,49.9626686 80.824,50.3626646 80.824,50.768 L80.824,56 Z M86.584,56.16 C85.9119966,56.16 85.3040027,56.0453345 84.76,55.816 C84.2159973,55.5866655 83.7520019,55.2746686 83.368,54.88 C82.9839981,54.4853314 82.688001,54.0266693 82.48,53.504 C82.271999,52.9813307 82.168,52.4320029 82.168,51.856 C82.168,51.2586637 82.2693323,50.6960026 82.472,50.168 C82.6746677,49.6399974 82.9679981,49.176002 83.352,48.776 C83.7360019,48.375998 84.2026639,48.0586678 84.752,47.824 C85.3013361,47.5893322 85.9173299,47.472 86.6,47.472 C87.2826701,47.472 87.8933306,47.5893322 88.432,47.824 C88.9706694,48.0586678 89.4293314,48.3733314 89.808,48.768 C90.1866686,49.1626686 90.4746657,49.6213307 90.672,50.144 C90.8693343,50.6666693 90.968,51.2106638 90.968,51.776 C90.968,51.9146674 90.9653334,52.0479994 90.96,52.176 C90.9546666,52.3040006 90.9413334,52.4106662 90.92,52.496 L84.44,52.496 C84.4720002,52.8266683 84.5519994,53.1199987 84.68,53.376 C84.8080006,53.6320013 84.9733323,53.8506658 85.176,54.032 C85.3786677,54.2133342 85.6079987,54.3519995 85.864,54.448 C86.1200013,54.5440005 86.3866653,54.592 86.664,54.592 C87.0906688,54.592 87.4933314,54.488001 87.872,54.28 C88.2506686,54.071999 88.5093326,53.797335 88.648,53.456 L90.488,53.968 C90.1786651,54.6080032 89.6853367,55.1333313 89.008,55.544 C88.3306633,55.9546687 87.5226714,56.16 86.584,56.16 Z M88.76,51.104 C88.7066664,50.4746635 88.4746687,49.9706686 88.064,49.592 C87.6533313,49.2133314 87.1546696,49.024 86.568,49.024 C86.2799986,49.024 86.0106679,49.0746662 85.76,49.176 C85.5093321,49.2773338 85.288001,49.4186658 85.096,49.6 C84.903999,49.7813342 84.7466673,49.9999987 84.624,50.256 C84.5013327,50.5120013 84.4293334,50.7946651 84.408,51.104 L88.76,51.104 Z M95.448,56.16 C94.7439965,56.16 94.0560034,56.0480011 93.384,55.824 C92.7119966,55.5999989 92.1360024,55.2800021 91.656,54.864 L92.456,53.52 C92.9680026,53.8826685 93.4666642,54.1573324 93.952,54.344 C94.4373358,54.5306676 94.9199976,54.624 95.4,54.624 C95.8266688,54.624 96.1626654,54.5440008 96.408,54.384 C96.6533346,54.2239992 96.776,53.9946682 96.776,53.696 C96.776,53.3973318 96.6320014,53.1786674 96.344,53.04 C96.0559986,52.9013326 95.5866699,52.7413342 94.936,52.56 C94.3919973,52.4106659 93.9280019,52.2666674 93.544,52.128 C93.1599981,51.9893326 92.8506678,51.8320009 92.616,51.656 C92.3813322,51.4799991 92.2106672,51.2773345 92.104,51.048 C91.9973328,50.8186655 91.944,50.5440016 91.944,50.224 C91.944,49.7973312 92.0266658,49.413335 92.192,49.072 C92.3573342,48.730665 92.5893318,48.4400012 92.888,48.2 C93.1866682,47.9599988 93.535998,47.7760006 93.936,47.648 C94.336002,47.5199994 94.7706643,47.456 95.24,47.456 C95.8693365,47.456 96.4586639,47.5466658 97.008,47.728 C97.5573361,47.9093342 98.061331,48.2026646 98.52,48.608 L97.656,49.904 C97.2293312,49.5839984 96.816002,49.3493341 96.416,49.2 C96.015998,49.0506659 95.6186686,48.976 95.224,48.976 C94.8613315,48.976 94.5573346,49.0506659 94.312,49.2 C94.0666654,49.3493341 93.944,49.5893317 93.944,49.92 C93.944,50.0693341 93.973333,50.1919995 94.032,50.288 C94.090667,50.3840005 94.1839994,50.469333 94.312,50.544 C94.4400006,50.618667 94.607999,50.6906663 94.816,50.76 C95.024001,50.8293337 95.2826651,50.901333 95.592,50.976 C96.1680029,51.1253341 96.6613313,51.2746659 97.072,51.424 C97.4826687,51.5733341 97.8186654,51.743999 98.08,51.936 C98.3413346,52.128001 98.5333327,52.3493321 98.656,52.6 C98.7786673,52.8506679 98.84,53.1519982 98.84,53.504 C98.84,54.3253374 98.536003,54.973331 97.928,55.448 C97.319997,55.922669 96.4933386,56.16 95.448,56.16 Z M103.8,57.632 C103.981334,57.6853336 104.157332,57.7253332 104.328,57.752 C104.498668,57.7786668 104.642666,57.792 104.76,57.792 C104.898667,57.792 105.026666,57.7653336 105.144,57.712 C105.261334,57.6586664 105.368,57.565334 105.464,57.432 C105.56,57.298666 105.656,57.1146678 105.752,56.88 C105.848,56.6453322 105.949333,56.3520018 106.056,56 L102.744,47.616 L104.952,47.616 L107.224,54.144 L109.24,47.616 L111.256,47.616 L107.736,57.664 C107.533332,58.2506696 107.186669,58.7306648 106.696,59.104 C106.205331,59.4773352 105.597337,59.664 104.872,59.664 C104.701332,59.664 104.528001,59.6506668 104.352,59.624 C104.175999,59.5973332 103.992001,59.5520003 103.8,59.488 L103.8,57.632 Z M119,56.16 C118.295996,56.16 117.608003,56.0480011 116.936,55.824 C116.263997,55.5999989 115.688002,55.2800021 115.208,54.864 L116.008,53.52 C116.520003,53.8826685 117.018664,54.1573324 117.504,54.344 C117.989336,54.5306676 118.471998,54.624 118.952,54.624 C119.378669,54.624 119.714665,54.5440008 119.96,54.384 C120.205335,54.2239992 120.328,53.9946682 120.328,53.696 C120.328,53.3973318 120.184001,53.1786674 119.896,53.04 C119.607999,52.9013326 119.13867,52.7413342 118.488,52.56 C117.943997,52.4106659 117.480002,52.2666674 117.096,52.128 C116.711998,51.9893326 116.402668,51.8320009 116.168,51.656 C115.933332,51.4799991 115.762667,51.2773345 115.656,51.048 C115.549333,50.8186655 115.496,50.5440016 115.496,50.224 C115.496,49.7973312 115.578666,49.413335 115.744,49.072 C115.909334,48.730665 116.141332,48.4400012 116.44,48.2 C116.738668,47.9599988 117.087998,47.7760006 117.488,47.648 C117.888002,47.5199994 118.322664,47.456 118.792,47.456 C119.421336,47.456 120.010664,47.5466658 120.56,47.728 C121.109336,47.9093342 121.613331,48.2026646 122.072,48.608 L121.208,49.904 C120.781331,49.5839984 120.368002,49.3493341 119.968,49.2 C119.567998,49.0506659 119.170669,48.976 118.776,48.976 C118.413332,48.976 118.109335,49.0506659 117.864,49.2 C117.618665,49.3493341 117.496,49.5893317 117.496,49.92 C117.496,50.0693341 117.525333,50.1919995 117.584,50.288 C117.642667,50.3840005 117.735999,50.469333 117.864,50.544 C117.992001,50.618667 118.159999,50.6906663 118.368,50.76 C118.576001,50.8293337 118.834665,50.901333 119.144,50.976 C119.720003,51.1253341 120.213331,51.2746659 120.624,51.424 C121.034669,51.5733341 121.370665,51.743999 121.632,51.936 C121.893335,52.128001 122.085333,52.3493321 122.208,52.6 C122.330667,52.8506679 122.392,53.1519982 122.392,53.504 C122.392,54.3253374 122.088003,54.973331 121.48,55.448 C120.871997,55.922669 120.045339,56.16 119,56.16 Z M127.672,56.16 C126.999997,56.16 126.392003,56.0453345 125.848,55.816 C125.303997,55.5866655 124.840002,55.2746686 124.456,54.88 C124.071998,54.4853314 123.776001,54.0266693 123.568,53.504 C123.359999,52.9813307 123.256,52.4320029 123.256,51.856 C123.256,51.2586637 123.357332,50.6960026 123.56,50.168 C123.762668,49.6399974 124.055998,49.176002 124.44,48.776 C124.824002,48.375998 125.290664,48.0586678 125.84,47.824 C126.389336,47.5893322 127.00533,47.472 127.688,47.472 C128.37067,47.472 128.981331,47.5893322 129.52,47.824 C130.058669,48.0586678 130.517331,48.3733314 130.896,48.768 C131.274669,49.1626686 131.562666,49.6213307 131.76,50.144 C131.957334,50.6666693 132.056,51.2106638 132.056,51.776 C132.056,51.9146674 132.053333,52.0479994 132.048,52.176 C132.042667,52.3040006 132.029333,52.4106662 132.008,52.496 L125.528,52.496 C125.56,52.8266683 125.639999,53.1199987 125.768,53.376 C125.896001,53.6320013 126.061332,53.8506658 126.264,54.032 C126.466668,54.2133342 126.695999,54.3519995 126.952,54.448 C127.208001,54.5440005 127.474665,54.592 127.752,54.592 C128.178669,54.592 128.581331,54.488001 128.96,54.28 C129.338669,54.071999 129.597333,53.797335 129.736,53.456 L131.576,53.968 C131.266665,54.6080032 130.773337,55.1333313 130.096,55.544 C129.418663,55.9546687 128.610671,56.16 127.672,56.16 Z M129.848,51.104 C129.794666,50.4746635 129.562669,49.9706686 129.152,49.592 C128.741331,49.2133314 128.24267,49.024 127.656,49.024 C127.367999,49.024 127.098668,49.0746662 126.848,49.176 C126.597332,49.2773338 126.376001,49.4186658 126.184,49.6 C125.991999,49.7813342 125.834667,49.9999987 125.712,50.256 C125.589333,50.5120013 125.517333,50.7946651 125.496,51.104 L129.848,51.104 Z M138.36,49.472 C137.70933,49.4826667 137.128003,49.6079988 136.616,49.848 C136.103997,50.0880012 135.736001,50.4479976 135.512,50.928 L135.512,56 L133.368,56 L133.368,47.616 L135.336,47.616 L135.336,49.408 C135.485334,49.1199986 135.661332,48.8613345 135.864,48.632 C136.066668,48.4026655 136.285332,48.2026675 136.52,48.032 C136.754668,47.8613325 136.991999,47.7306671 137.232,47.64 C137.472001,47.5493329 137.703999,47.504 137.928,47.504 L138.192,47.504 C138.250667,47.504 138.306666,47.5093333 138.36,47.52 L138.36,49.472 Z M141.816,56 L138.728,47.616 L140.936,47.616 L143.064,54.256 L145.208,47.616 L147.224,47.616 L144.136,56 L141.816,56 Z M148.344,56 L148.344,47.616 L150.488,47.616 L150.488,56 L148.344,56 Z M148.344,46.448 L148.344,44.32 L150.488,44.32 L150.488,46.448 L148.344,46.448 Z M151.896,51.808 C151.896,51.2213304 151.997332,50.6666693 152.2,50.144 C152.402668,49.6213307 152.695998,49.1626686 153.08,48.768 C153.464002,48.3733314 153.927997,48.0586678 154.472,47.824 C155.016003,47.5893322 155.62933,47.472 156.312,47.472 C157.229338,47.472 158.010663,47.6693314 158.656,48.064 C159.301337,48.4586686 159.783998,48.9759968 160.104,49.616 L158.008,50.256 C157.826666,49.9466651 157.586668,49.7093342 157.288,49.544 C156.989332,49.3786658 156.658668,49.296 156.296,49.296 C155.986665,49.296 155.698668,49.3573327 155.432,49.48 C155.165332,49.6026673 154.933334,49.7733322 154.736,49.992 C154.538666,50.2106678 154.384001,50.4746651 154.272,50.784 C154.159999,51.0933349 154.104,51.4346648 154.104,51.808 C154.104,52.1813352 154.162666,52.5226651 154.28,52.832 C154.397334,53.1413349 154.554666,53.4079989 154.752,53.632 C154.949334,53.8560011 155.181332,54.0293327 155.448,54.152 C155.714668,54.2746673 155.997332,54.336 156.296,54.336 C156.680002,54.336 157.034665,54.240001 157.36,54.048 C157.685335,53.855999 157.911999,53.6213347 158.04,53.344 L160.136,53.984 C159.847999,54.6240032 159.373337,55.1466646 158.712,55.552 C158.050663,55.9573354 157.256005,56.16 156.328,56.16 C155.64533,56.16 155.032003,56.0426678 154.488,55.808 C153.943997,55.5733322 153.480002,55.256002 153.096,54.856 C152.711998,54.455998 152.416001,53.9920026 152.208,53.464 C151.999999,52.9359974 151.896,52.3840029 151.896,51.808 Z M161.448,56 L161.448,47.616 L163.592,47.616 L163.592,56 L161.448,56 Z M161.448,46.448 L161.448,44.32 L163.592,44.32 L163.592,46.448 L161.448,46.448 Z M169.4,56.16 C168.71733,56.16 168.104003,56.0426678 167.56,55.808 C167.015997,55.5733322 166.554669,55.256002 166.176,54.856 C165.797331,54.455998 165.506668,53.9946693 165.304,53.472 C165.101332,52.9493307 165,52.4000029 165,51.824 C165,51.2373304 165.101332,50.6826693 165.304,50.16 C165.506668,49.6373307 165.797331,49.176002 166.176,48.776 C166.554669,48.375998 167.015997,48.0586678 167.56,47.824 C168.104003,47.5893322 168.71733,47.472 169.4,47.472 C170.08267,47.472 170.693331,47.5893322 171.232,47.824 C171.770669,48.0586678 172.229331,48.375998 172.608,48.776 C172.986669,49.176002 173.277332,49.6373307 173.48,50.16 C173.682668,50.6826693 173.784,51.2373304 173.784,51.824 C173.784,52.4000029 173.682668,52.9493307 173.48,53.472 C173.277332,53.9946693 172.989335,54.455998 172.616,54.856 C172.242665,55.256002 171.784003,55.5733322 171.24,55.808 C170.695997,56.0426678 170.08267,56.16 169.4,56.16 Z M167.208,51.824 C167.208,52.1973352 167.263999,52.5359985 167.376,52.84 C167.488001,53.1440015 167.642666,53.4079989 167.84,53.632 C168.037334,53.8560011 168.269332,54.0293327 168.536,54.152 C168.802668,54.2746673 169.090665,54.336 169.4,54.336 C169.709335,54.336 169.997332,54.2746673 170.264,54.152 C170.530668,54.0293327 170.762666,53.8560011 170.96,53.632 C171.157334,53.4079989 171.311999,53.1413349 171.424,52.832 C171.536001,52.5226651 171.592,52.1813352 171.592,51.808 C171.592,51.4453315 171.536001,51.1093349 171.424,50.8 C171.311999,50.4906651 171.157334,50.2240011 170.96,50 C170.762666,49.7759989 170.530668,49.6026673 170.264,49.48 C169.997332,49.3573327 169.709335,49.296 169.4,49.296 C169.090665,49.296 168.802668,49.3599994 168.536,49.488 C168.269332,49.6160006 168.037334,49.7919989 167.84,50.016 C167.642666,50.2400011 167.488001,50.5066651 167.376,50.816 C167.263999,51.1253349 167.208,51.4613315 167.208,51.824 Z M178.392,56.16 C177.687996,56.16 177.000003,56.0480011 176.328,55.824 C175.655997,55.5999989 175.080002,55.2800021 174.6,54.864 L175.4,53.52 C175.912003,53.8826685 176.410664,54.1573324 176.896,54.344 C177.381336,54.5306676 177.863998,54.624 178.344,54.624 C178.770669,54.624 179.106665,54.5440008 179.352,54.384 C179.597335,54.2239992 179.72,53.9946682 179.72,53.696 C179.72,53.3973318 179.576001,53.1786674 179.288,53.04 C178.999999,52.9013326 178.53067,52.7413342 177.88,52.56 C177.335997,52.4106659 176.872002,52.2666674 176.488,52.128 C176.103998,51.9893326 175.794668,51.8320009 175.56,51.656 C175.325332,51.4799991 175.154667,51.2773345 175.048,51.048 C174.941333,50.8186655 174.888,50.5440016 174.888,50.224 C174.888,49.7973312 174.970666,49.413335 175.136,49.072 C175.301334,48.730665 175.533332,48.4400012 175.832,48.2 C176.130668,47.9599988 176.479998,47.7760006 176.88,47.648 C177.280002,47.5199994 177.714664,47.456 178.184,47.456 C178.813336,47.456 179.402664,47.5466658 179.952,47.728 C180.501336,47.9093342 181.005331,48.2026646 181.464,48.608 L180.6,49.904 C180.173331,49.5839984 179.760002,49.3493341 179.36,49.2 C178.959998,49.0506659 178.562669,48.976 178.168,48.976 C177.805332,48.976 177.501335,49.0506659 177.256,49.2 C177.010665,49.3493341 176.888,49.5893317 176.888,49.92 C176.888,50.0693341 176.917333,50.1919995 176.976,50.288 C177.034667,50.3840005 177.127999,50.469333 177.256,50.544 C177.384001,50.618667 177.551999,50.6906663 177.76,50.76 C177.968001,50.8293337 178.226665,50.901333 178.536,50.976 C179.112003,51.1253341 179.605331,51.2746659 180.016,51.424 C180.426669,51.5733341 180.762665,51.743999 181.024,51.936 C181.285335,52.128001 181.477333,52.3493321 181.6,52.6 C181.722667,52.8506679 181.784,53.1519982 181.784,53.504 C181.784,54.3253374 181.480003,54.973331 180.872,55.448 C180.263997,55.922669 179.437339,56.16 178.392,56.16 Z M190.488,56.16 C189.911997,56.16 189.378669,56.0480011 188.888,55.824 C188.397331,55.5999989 187.976002,55.2906686 187.624,54.896 C187.271998,54.5013314 186.997334,54.0400026 186.8,53.512 C186.602666,52.9839974 186.504,52.416003 186.504,51.808 C186.504,51.199997 186.597332,50.6346693 186.784,50.112 C186.970668,49.5893307 187.229332,49.1306686 187.56,48.736 C187.890668,48.3413314 188.285331,48.0320011 188.744,47.808 C189.202669,47.5839989 189.703997,47.472 190.248,47.472 C190.86667,47.472 191.423998,47.6213318 191.92,47.92 C192.416002,48.2186682 192.802665,48.6079976 193.08,49.088 L193.08,44.32 L195.224,44.32 L195.224,53.536 C195.224,53.7600011 195.261333,53.9199995 195.336,54.016 C195.410667,54.1120005 195.538666,54.1653333 195.72,54.176 L195.72,56 C195.346665,56.074667 195.042668,56.112 194.808,56.112 C194.423998,56.112 194.109335,56.016001 193.864,55.824 C193.618665,55.631999 193.48,55.3813349 193.448,55.072 L193.4,54.544 C193.090665,55.077336 192.672003,55.4799986 192.144,55.752 C191.615997,56.0240014 191.064003,56.16 190.488,56.16 Z M191.048,54.336 C191.250668,54.336 191.458666,54.3013337 191.672,54.232 C191.885334,54.1626663 192.082666,54.0640006 192.264,53.936 C192.445334,53.8079994 192.607999,53.6586675 192.752,53.488 C192.896001,53.3173325 193.005333,53.1306677 193.08,52.928 L193.08,50.928 C192.994666,50.6933322 192.874667,50.4773343 192.72,50.28 C192.565333,50.0826657 192.389334,49.9120007 192.192,49.768 C191.994666,49.6239993 191.786668,49.5093338 191.568,49.424 C191.349332,49.3386662 191.133334,49.296 190.92,49.296 C190.599998,49.296 190.304001,49.3653326 190.032,49.504 C189.759999,49.6426674 189.528001,49.8319988 189.336,50.072 C189.143999,50.3120012 188.994667,50.5866651 188.888,50.896 C188.781333,51.2053349 188.728,51.5253317 188.728,51.856 C188.728,52.2080018 188.786666,52.5333318 188.904,52.832 C189.021334,53.1306682 189.181332,53.3919989 189.384,53.616 C189.586668,53.8400011 189.829332,54.0159994 190.112,54.144 C190.394668,54.2720006 190.706665,54.336 191.048,54.336 Z M201.224,56.16 C200.551997,56.16 199.944003,56.0453345 199.4,55.816 C198.855997,55.5866655 198.392002,55.2746686 198.008,54.88 C197.623998,54.4853314 197.328001,54.0266693 197.12,53.504 C196.911999,52.9813307 196.808,52.4320029 196.808,51.856 C196.808,51.2586637 196.909332,50.6960026 197.112,50.168 C197.314668,49.6399974 197.607998,49.176002 197.992,48.776 C198.376002,48.375998 198.842664,48.0586678 199.392,47.824 C199.941336,47.5893322 200.55733,47.472 201.24,47.472 C201.92267,47.472 202.533331,47.5893322 203.072,47.824 C203.610669,48.0586678 204.069331,48.3733314 204.448,48.768 C204.826669,49.1626686 205.114666,49.6213307 205.312,50.144 C205.509334,50.6666693 205.608,51.2106638 205.608,51.776 C205.608,51.9146674 205.605333,52.0479994 205.6,52.176 C205.594667,52.3040006 205.581333,52.4106662 205.56,52.496 L199.08,52.496 C199.112,52.8266683 199.191999,53.1199987 199.32,53.376 C199.448001,53.6320013 199.613332,53.8506658 199.816,54.032 C200.018668,54.2133342 200.247999,54.3519995 200.504,54.448 C200.760001,54.5440005 201.026665,54.592 201.304,54.592 C201.730669,54.592 202.133331,54.488001 202.512,54.28 C202.890669,54.071999 203.149333,53.797335 203.288,53.456 L205.128,53.968 C204.818665,54.6080032 204.325337,55.1333313 203.648,55.544 C202.970663,55.9546687 202.162671,56.16 201.224,56.16 Z M203.4,51.104 C203.346666,50.4746635 203.114669,49.9706686 202.704,49.592 C202.293331,49.2133314 201.79467,49.024 201.208,49.024 C200.919999,49.024 200.650668,49.0746662 200.4,49.176 C200.149332,49.2773338 199.928001,49.4186658 199.736,49.6 C199.543999,49.7813342 199.386667,49.9999987 199.264,50.256 C199.141333,50.5120013 199.069333,50.7946651 199.048,51.104 L203.4,51.104 Z M210.76,56 L210.76,47.616 L212.904,47.616 L212.904,56 L210.76,56 Z M210.76,46.448 L210.76,44.32 L212.904,44.32 L212.904,46.448 L210.76,46.448 Z M222.632,56 L220.488,56 L220.488,51.296 C220.488,50.6239966 220.370668,50.1333349 220.136,49.824 C219.901332,49.5146651 219.576002,49.36 219.16,49.36 C218.946666,49.36 218.728001,49.4026662 218.504,49.488 C218.279999,49.5733338 218.069334,49.6933326 217.872,49.848 C217.674666,50.0026674 217.496001,50.1866656 217.336,50.4 C217.175999,50.6133344 217.058667,50.8479987 216.984,51.104 L216.984,56 L214.84,56 L214.84,47.616 L216.776,47.616 L216.776,49.168 C217.085335,48.634664 217.53333,48.2186682 218.12,47.92 C218.70667,47.6213318 219.367996,47.472 220.104,47.472 C220.626669,47.472 221.053332,47.567999 221.384,47.76 C221.714668,47.952001 221.970666,48.2026651 222.152,48.512 C222.333334,48.8213349 222.458666,49.1733314 222.528,49.568 C222.597334,49.9626686 222.632,50.3626646 222.632,50.768 L222.632,56 Z M224.936,56 L224.936,49.696 L223.832,49.696 L223.832,48.064 L224.936,48.064 L224.936,47.552 C224.936,46.5066614 225.186664,45.680003 225.688,45.072 C226.189336,44.463997 226.871996,44.16 227.736,44.16 C228.41867,44.16 229.106663,44.3253317 229.8,44.656 L229.368,46.272 C229.207999,46.1866662 229.018668,46.114667 228.8,46.056 C228.581332,45.997333 228.381334,45.968 228.2,45.968 C227.45333,45.968 227.08,46.4693283 227.08,47.472 L227.08,48.064 L229.128,48.064 L229.128,49.696 L227.08,49.696 L227.08,56 L224.936,56 Z M233.8,56.16 C233.11733,56.16 232.504003,56.0426678 231.96,55.808 C231.415997,55.5733322 230.954669,55.256002 230.576,54.856 C230.197331,54.455998 229.906668,53.9946693 229.704,53.472 C229.501332,52.9493307 229.4,52.4000029 229.4,51.824 C229.4,51.2373304 229.501332,50.6826693 229.704,50.16 C229.906668,49.6373307 230.197331,49.176002 230.576,48.776 C230.954669,48.375998 231.415997,48.0586678 231.96,47.824 C232.504003,47.5893322 233.11733,47.472 233.8,47.472 C234.48267,47.472 235.093331,47.5893322 235.632,47.824 C236.170669,48.0586678 236.629331,48.375998 237.008,48.776 C237.386669,49.176002 237.677332,49.6373307 237.88,50.16 C238.082668,50.6826693 238.184,51.2373304 238.184,51.824 C238.184,52.4000029 238.082668,52.9493307 237.88,53.472 C237.677332,53.9946693 237.389335,54.455998 237.016,54.856 C236.642665,55.256002 236.184003,55.5733322 235.64,55.808 C235.095997,56.0426678 234.48267,56.16 233.8,56.16 Z M231.608,51.824 C231.608,52.1973352 231.663999,52.5359985 231.776,52.84 C231.888001,53.1440015 232.042666,53.4079989 232.24,53.632 C232.437334,53.8560011 232.669332,54.0293327 232.936,54.152 C233.202668,54.2746673 233.490665,54.336 233.8,54.336 C234.109335,54.336 234.397332,54.2746673 234.664,54.152 C234.930668,54.0293327 235.162666,53.8560011 235.36,53.632 C235.557334,53.4079989 235.711999,53.1413349 235.824,52.832 C235.936001,52.5226651 235.992,52.1813352 235.992,51.808 C235.992,51.4453315 235.936001,51.1093349 235.824,50.8 C235.711999,50.4906651 235.557334,50.2240011 235.36,50 C235.162666,49.7759989 234.930668,49.6026673 234.664,49.48 C234.397332,49.3573327 234.109335,49.296 233.8,49.296 C233.490665,49.296 233.202668,49.3599994 232.936,49.488 C232.669332,49.6160006 232.437334,49.7919989 232.24,50.016 C232.042666,50.2400011 231.888001,50.5066651 231.776,50.816 C231.663999,51.1253349 231.608,51.4613315 231.608,51.824 Z M244.616,49.472 C243.96533,49.4826667 243.384003,49.6079988 242.872,49.848 C242.359997,50.0880012 241.992001,50.4479976 241.768,50.928 L241.768,56 L239.624,56 L239.624,47.616 L241.592,47.616 L241.592,49.408 C241.741334,49.1199986 241.917332,48.8613345 242.12,48.632 C242.322668,48.4026655 242.541332,48.2026675 242.776,48.032 C243.010668,47.8613325 243.247999,47.7306671 243.488,47.64 C243.728001,47.5493329 243.959999,47.504 244.184,47.504 L244.448,47.504 C244.506667,47.504 244.562666,47.5093333 244.616,47.52 L244.616,49.472 Z M258.84,56 L256.696,56 L256.696,51.296 C256.696,50.6239966 256.581334,50.1333349 256.352,49.824 C256.122666,49.5146651 255.805335,49.36 255.4,49.36 C254.973331,49.36 254.573335,49.522665 254.2,49.848 C253.826665,50.173335 253.560001,50.5973307 253.4,51.12 L253.4,56 L251.256,56 L251.256,51.296 C251.256,50.6239966 251.141334,50.1333349 250.912,49.824 C250.682666,49.5146651 250.365335,49.36 249.96,49.36 C249.543998,49.36 249.146669,49.5199984 248.768,49.84 C248.389331,50.1600016 248.120001,50.5813307 247.96,51.104 L247.96,56 L245.816,56 L245.816,47.616 L247.752,47.616 L247.752,49.168 C248.061335,48.6239973 248.485331,48.2053348 249.024,47.912 C249.562669,47.6186652 250.178663,47.472 250.872,47.472 C251.576004,47.472 252.119998,47.642665 252.504,47.984 C252.888002,48.325335 253.133333,48.7466642 253.24,49.248 C253.581335,48.6719971 254.013331,48.2320015 254.536,47.928 C255.058669,47.6239985 255.655997,47.472 256.328,47.472 C256.840003,47.472 257.261332,47.567999 257.592,47.76 C257.922668,47.952001 258.178666,48.2026651 258.36,48.512 C258.541334,48.8213349 258.666666,49.1733314 258.736,49.568 C258.805334,49.9626686 258.84,50.3626646 258.84,50.768 L258.84,56 Z M263,56.16 C262.594665,56.16 262.216002,56.093334 261.864,55.96 C261.511998,55.826666 261.208001,55.6400012 260.952,55.4 C260.695999,55.1599988 260.496001,54.8800016 260.352,54.56 C260.207999,54.2399984 260.136,53.8880019 260.136,53.504 C260.136,53.1093314 260.223999,52.7440017 260.4,52.408 C260.576001,52.0719983 260.821332,51.7866678 261.136,51.552 C261.450668,51.3173322 261.826664,51.133334 262.264,51 C262.701336,50.866666 263.181331,50.8 263.704,50.8 C264.077335,50.8 264.442665,50.8319997 264.8,50.896 C265.157335,50.9600003 265.474665,51.0506661 265.752,51.168 L265.752,50.688 C265.752,50.1333306 265.594668,49.7066682 265.28,49.408 C264.965332,49.1093318 264.49867,48.96 263.88,48.96 C263.431998,48.96 262.994669,49.0399992 262.568,49.2 C262.141331,49.3600008 261.704002,49.5946651 261.256,49.904 L260.6,48.544 C261.677339,47.8293298 262.839994,47.472 264.088,47.472 C265.293339,47.472 266.22933,47.767997 266.896,48.36 C267.56267,48.952003 267.896,49.8079944 267.896,50.928 L267.896,53.536 C267.896,53.7600011 267.936,53.9199995 268.016,54.016 C268.096,54.1120005 268.226666,54.1653333 268.408,54.176 L268.408,56 C268.045332,56.074667 267.730668,56.112 267.464,56.112 C267.058665,56.112 266.746668,56.0213342 266.528,55.84 C266.309332,55.6586658 266.173334,55.4186682 266.12,55.12 L266.072,54.656 C265.698665,55.1466691 265.245336,55.5199987 264.712,55.776 C264.178664,56.0320013 263.608003,56.16 263,56.16 Z M263.608,54.592 C263.970668,54.592 264.314665,54.5280006 264.64,54.4 C264.965335,54.2719994 265.218666,54.1013344 265.4,53.888 C265.634668,53.7066658 265.752,53.5040011 265.752,53.28 L265.752,52.32 C265.495999,52.2239995 265.218668,52.146667 264.92,52.088 C264.621332,52.029333 264.333335,52 264.056,52 C263.501331,52 263.048002,52.1253321 262.696,52.376 C262.343998,52.6266679 262.168,52.9439981 262.168,53.328 C262.168,53.6906685 262.306665,53.9919988 262.584,54.232 C262.861335,54.4720012 263.202665,54.592 263.608,54.592 Z M269.368,51.808 C269.368,51.2213304 269.469332,50.6666693 269.672,50.144 C269.874668,49.6213307 270.167998,49.1626686 270.552,48.768 C270.936002,48.3733314 271.399997,48.0586678 271.944,47.824 C272.488003,47.5893322 273.10133,47.472 273.784,47.472 C274.701338,47.472 275.482663,47.6693314 276.128,48.064 C276.773337,48.4586686 277.255998,48.9759968 277.576,49.616 L275.48,50.256 C275.298666,49.9466651 275.058668,49.7093342 274.76,49.544 C274.461332,49.3786658 274.130668,49.296 273.768,49.296 C273.458665,49.296 273.170668,49.3573327 272.904,49.48 C272.637332,49.6026673 272.405334,49.7733322 272.208,49.992 C272.010666,50.2106678 271.856001,50.4746651 271.744,50.784 C271.631999,51.0933349 271.576,51.4346648 271.576,51.808 C271.576,52.1813352 271.634666,52.5226651 271.752,52.832 C271.869334,53.1413349 272.026666,53.4079989 272.224,53.632 C272.421334,53.8560011 272.653332,54.0293327 272.92,54.152 C273.186668,54.2746673 273.469332,54.336 273.768,54.336 C274.152002,54.336 274.506665,54.240001 274.832,54.048 C275.157335,53.855999 275.383999,53.6213347 275.512,53.344 L277.608,53.984 C277.319999,54.6240032 276.845337,55.1466646 276.184,55.552 C275.522663,55.9573354 274.728005,56.16 273.8,56.16 C273.11733,56.16 272.504003,56.0426678 271.96,55.808 C271.415997,55.5733322 270.952002,55.256002 270.568,54.856 C270.183998,54.455998 269.888001,53.9920026 269.68,53.464 C269.471999,52.9359974 269.368,52.3840029 269.368,51.808 Z M278.92,56 L278.92,47.616 L281.064,47.616 L281.064,56 L278.92,56 Z M278.92,46.448 L278.92,44.32 L281.064,44.32 L281.064,46.448 L278.92,46.448 Z M287.416,46.64 L286.04,46.224 L286.904,44.32 L288.904,44.32 L287.416,46.64 Z M286.872,56.16 C286.18933,56.16 285.576003,56.0426678 285.032,55.808 C284.487997,55.5733322 284.026669,55.256002 283.648,54.856 C283.269331,54.455998 282.978668,53.9946693 282.776,53.472 C282.573332,52.9493307 282.472,52.4000029 282.472,51.824 C282.472,51.2373304 282.573332,50.6826693 282.776,50.16 C282.978668,49.6373307 283.269331,49.176002 283.648,48.776 C284.026669,48.375998 284.487997,48.0586678 285.032,47.824 C285.576003,47.5893322 286.18933,47.472 286.872,47.472 C287.55467,47.472 288.165331,47.5893322 288.704,47.824 C289.242669,48.0586678 289.701331,48.375998 290.08,48.776 C290.458669,49.176002 290.749332,49.6373307 290.952,50.16 C291.154668,50.6826693 291.256,51.2373304 291.256,51.824 C291.256,52.4000029 291.154668,52.9493307 290.952,53.472 C290.749332,53.9946693 290.461335,54.455998 290.088,54.856 C289.714665,55.256002 289.256003,55.5733322 288.712,55.808 C288.167997,56.0426678 287.55467,56.16 286.872,56.16 Z M284.68,51.824 C284.68,52.1973352 284.735999,52.5359985 284.848,52.84 C284.960001,53.1440015 285.114666,53.4079989 285.312,53.632 C285.509334,53.8560011 285.741332,54.0293327 286.008,54.152 C286.274668,54.2746673 286.562665,54.336 286.872,54.336 C287.181335,54.336 287.469332,54.2746673 287.736,54.152 C288.002668,54.0293327 288.234666,53.8560011 288.432,53.632 C288.629334,53.4079989 288.783999,53.1413349 288.896,52.832 C289.008001,52.5226651 289.064,52.1813352 289.064,51.808 C289.064,51.4453315 289.008001,51.1093349 288.896,50.8 C288.783999,50.4906651 288.629334,50.2240011 288.432,50 C288.234666,49.7759989 288.002668,49.6026673 287.736,49.48 C287.469332,49.3573327 287.181335,49.296 286.872,49.296 C286.562665,49.296 286.274668,49.3599994 286.008,49.488 C285.741332,49.6160006 285.509334,49.7919989 285.312,50.016 C285.114666,50.2400011 284.960001,50.5066651 284.848,50.816 C284.735999,51.1253349 284.68,51.4613315 284.68,51.824 Z M300.488,56 L298.344,56 L298.344,51.296 C298.344,50.6239966 298.226668,50.1333349 297.992,49.824 C297.757332,49.5146651 297.432002,49.36 297.016,49.36 C296.802666,49.36 296.584001,49.4026662 296.36,49.488 C296.135999,49.5733338 295.925334,49.6933326 295.728,49.848 C295.530666,50.0026674 295.352001,50.1866656 295.192,50.4 C295.031999,50.6133344 294.914667,50.8479987 294.84,51.104 L294.84,56 L292.696,56 L292.696,47.616 L294.632,47.616 L294.632,49.168 C294.941335,48.634664 295.38933,48.2186682 295.976,47.92 C296.56267,47.6213318 297.223996,47.472 297.96,47.472 C298.482669,47.472 298.909332,47.567999 299.24,47.76 C299.570668,47.952001 299.826666,48.2026651 300.008,48.512 C300.189334,48.8213349 300.314666,49.1733314 300.384,49.568 C300.453334,49.9626686 300.488,50.3626646 300.488,50.768 L300.488,56 Z" id="Título-superior-Copy-4" fill="#D9DC58"></path>
                <rect id="Rectangle-Copy" fill="#FFFFFF" x="319" y="50" width="60" height="2"></rect>
                <g id="laptop" transform="translate(768.000000, 0.000000)">
                    <g id="Group-4">
                        <mask id="mask-2" fill="white">
                            <use xlink:href="#path-1"></use>
                        </mask>
                        <g id="Clip-2"></g>
                        <path d="M47.456627,25.6609797 C47.456627,26.3508488 48.0251934,26.9101134 48.7263945,26.9101134 C49.4274805,26.9101134 49.9960469,26.3508488 49.9960469,25.6609797 L49.9960469,6.79314244 C49.9960469,6.10315988 49.4274805,5.54389535 48.7263945,5.54389535 L10.2736055,5.54389535 C9.57251953,5.54389535 9.00395312,6.10315988 9.00395312,6.79314244 L9.00395312,25.6609797 C9.00395312,26.3508488 9.57251953,26.9101134 10.2736055,26.9101134 C10.9748066,26.9101134 11.543373,26.3508488 11.543373,25.6609797 L11.543373,8.04238953 L47.456627,8.04238953 L47.456627,25.6609797" id="Fill-1" fill="#D9DC58" mask="url(#mask-2)"></path>
                        <path d="M56.7144414,33.4533837 C56.7144414,35.2719855 55.2106328,36.7514913 53.3622734,36.7514913 L5.63772656,36.7514913 C3.78936719,36.7514913 2.28555859,35.2719855 2.28555859,33.4533837 L2.28555859,32.3705669 L22.2675449,32.3705669 C22.7615547,34.0134419 24.309498,35.2155262 26.1372305,35.2155262 L32.8625391,35.2155262 C34.6903867,35.2155262 36.2383301,34.0133285 36.7323398,32.3705669 L56.7144414,32.3705669 L56.7144414,33.4533837 Z M6.02088086,3.88707558 C6.02088086,3.1825814 6.60362109,2.60925872 7.3196875,2.60925872 L51.680082,2.60925872 C52.3963789,2.60925872 52.9788887,3.1825814 52.9788887,3.88707558 L52.9788887,30.1220581 L35.7859199,30.1220581 C35.7049102,30.1193372 35.6213652,30.1262529 35.5383965,30.1420116 C35.0005977,30.2438198 34.6117969,30.7070581 34.6117969,31.2459157 C34.6117969,32.1949535 33.827166,32.9669041 32.8626543,32.9669041 L26.1373457,32.9669041 C25.1727187,32.9669041 24.3882031,32.1949535 24.3882031,31.2459157 C24.3882031,30.6163605 23.8580098,30.1084535 23.2189199,30.1218314 L6.02088086,30.1218314 L6.02088086,3.88707558 Z M57.8572207,30.1220581 L55.5185391,30.1220581 L55.5185391,3.88707558 C55.5185391,1.80488372 53.7965918,0.110877907 51.6803125,0.110877907 L7.3196875,0.110877907 C5.20317773,0.110877907 3.48146094,1.80488372 3.48146094,3.88707558 L3.48146094,30.1220581 L1.1427793,30.1220581 C0.511525391,30.1220581 0,30.6253169 0,31.2462558 L0,33.4533837 C0,36.5118227 2.52904883,39 5.63772656,39 L53.3621582,39 C56.4708359,39 58.9998848,36.5118227 58.9998848,33.4533837 L58.9998848,31.2462558 C59,30.6253169 58.4884746,30.1220581 57.8572207,30.1220581 L57.8572207,30.1220581 Z" id="Fill-3" fill="#D9DC58" mask="url(#mask-2)"></path>
                    </g>
                    <path d="M31.6113258,14.2653957 C32.1295581,13.7472882 32.1295581,12.906899 31.6113258,12.388671 C31.0929732,11.870443 30.2529383,11.870443 29.7344652,12.388671 L21.3886742,20.7346344 C20.8704419,21.2528624 20.8704419,22.0931312 21.3886742,22.6113591 C21.6478505,22.8705333 21.9873571,23 22.326984,23 C22.666611,23 23.0061176,22.8704129 23.2652939,22.6113591 L31.6113258,14.2653957" id="Fill-5" fill="#D9DC58"></path>
                    <path d="M34.726526,17.3899526 L31.3899663,20.7265155 C30.8700112,21.2464523 30.8700112,22.0896877 31.3899663,22.6098661 C31.6500647,22.8699554 31.9909,23 32.3317352,23 C32.6725705,23 33.0132849,22.8699554 33.2733833,22.6098661 L36.609943,19.273424 C37.130019,18.7533664 37.130019,17.910131 36.609943,17.3899526 C36.0897462,16.8700158 35.2467228,16.8700158 34.726526,17.3899526" id="Fill-6" fill="#D9DC58"></path>
                </g>
                <path d="M399.302047,250.017304 L399.302047,227.529146 C399.302047,223.929525 396.357197,221 392.73773,221 L316.563301,221 C312.943834,221 310,223.929525 310,227.529146 L310,273.340555 C310,276.940177 312.94485,279.869449 316.563301,279.869449 L338.152093,279.869449 L335.680441,282.515724 L331.977662,282.515724 C331.136421,282.515724 330.453675,283.193906 330.453675,284.031779 C330.453675,284.868895 331.136421,285.547835 331.977662,285.547835 L353.183679,285.547835 L353.183679,300.169433 C353.183679,302.281804 354.910863,304 357.034284,304 L373.418154,304 C375.541321,304 377.26876,302.281804 377.26876,300.169433 L377.26876,297.090071 L397.780093,297.090071 C400.658395,297.090071 403,294.759641 403,291.894296 L403,254.985923 C403,252.648671 401.4402,250.667692 399.302047,250.017304 Z M400,255.517353 L400,256 L365,256 L365,255.517353 C365,254.129412 365.973962,253 367.170871,253 L397.831158,253 C399.027052,253 400,254.129412 400,255.517353 Z M373.50391,268.356691 L365,268.356691 L365,259 L400,259 L400,289 L377.349032,289 L377.349032,272.185231 C377.349032,270.074231 375.624053,268.356691 373.50391,268.356691 Z M375,274 L357,274 L357,271.858152 C357,271.385082 357.35939,271 357.803163,271 L374.196837,271 C374.639593,271 375,271.385082 375,271.858152 L375,274 Z M396,229 L396,249.953109 L366.894942,249.953109 C364.022721,249.953109 361.685874,252.306808 361.685874,255.199744 L361.685874,268.136033 L356.877893,268.136033 C354.761733,268.136033 353.039566,269.868578 353.037792,272 L313,272 L313,229 L396,229 Z M357,294 L375,294 L375,276 L357,276 L357,294 Z M316.143845,224 L391.856155,224 C393.239871,224 394.435002,224.819133 395,226 L313,226 C313.566008,224.819133 314.760129,224 316.143845,224 Z M313,274 L353,274 L353,277 L316.266325,277 C314.789345,277 313.524345,275.757401 313,274 Z M340,283 L342.408113,280 L353,280 L353,283 L340,283 Z M374.196882,302 L357.803118,302 C357.360386,302 357,301.614918 357,301.141848 L357,299 L375,299 L375,301.141848 C375,301.614918 374.639614,302 374.196882,302 Z M397.796708,295 L377,295 L377,292 L400,292 L400,292.482647 C400,293.870588 399.01206,295 397.796708,295 Z" id="devices" fill="#D9DC58"></path>
                <g id="Empress-logo" transform="translate(0.000000, 50.000000)" fill-rule="nonzero">
                    <g id="Group" transform="translate(0.000000, 34.582837)" fill="#FFFFFF">
                        <polygon id="Shape" points="166.195232 51.9730632 160.56317 72.525149 160.266746 72.525149 154.733492 51.775447 139.418236 2.0749702 103.155662 2.0749702 103.155662 99.7961859 125.782718 99.7961859 125.782718 54.9373063 124.992253 24.8008343 125.288677 24.8008343 149.496663 99.7961859 170.048749 99.7961859 194.157926 24.8008343 194.45435 24.8008343 193.762694 54.9373063 193.762694 99.7961859 216.192133 99.7961859 216.192133 2.0749702 181.411681 2.0749702"></polygon>
                        <path d="M316.581168,10.374851 C310.059833,4.84159714 300.771871,1.9761621 288.618474,1.9761621 L243.759595,1.9761621 L243.759595,99.7961859 L269.252086,99.7961859 L269.252086,65.905006 L288.618474,65.905006 C300.771871,65.905006 310.059833,63.138379 316.581168,57.7039333 C323.102503,52.2694875 326.36317,44.4636472 326.36317,34.5828367 C326.36317,24.0103695 323.102503,16.006913 316.581168,10.374851 Z M296.819547,43.9696067 C294.250536,46.0445769 290.100596,47.131466 284.567342,47.131466 L269.153278,47.131466 L269.153278,21.2437426 L284.567342,21.2437426 C290.100596,21.2437426 294.151728,22.3306317 296.819547,24.4056019 C299.388558,26.4805721 300.771871,29.7412396 300.771871,34.0887962 C300.771871,38.633969 299.487366,41.8946365 296.819547,43.9696067 Z" id="Shape"></path>
                        <path d="M425.764124,50.886174 C429.024791,46.143385 430.605721,40.2148987 430.605721,33.1007151 C430.605721,23.0222884 427.443862,15.3152563 421.021335,9.97961859 C414.697616,4.64398093 405.508462,1.9761621 393.750298,1.9761621 L347.112872,1.9761621 L347.112872,99.7961859 L372.111323,99.7961859 L372.111323,64.027652 L387.327771,64.027652 L408.176281,99.6973778 L436.336591,99.6973778 L411.436949,61.3598331 C417.760667,59.1860548 422.503456,55.6289631 425.764124,50.886174 Z M401.358522,43.0803337 C398.888319,45.0564958 394.935995,46.0445769 389.501549,46.0445769 L372.210131,46.0445769 L372.210131,21.3425507 L389.501549,21.3425507 C394.935995,21.3425507 398.888319,22.3306317 401.358522,24.3067938 C403.828725,26.2829559 405.014422,29.3460072 405.014422,33.5947557 C405.014422,37.9423123 403.828725,41.1041716 401.358522,43.0803337 Z" id="Shape"></path>
                        <polygon id="Shape" points="25.4924911 60.0753278 65.7073897 60.0753278 65.7073897 41.5982122 25.4924911 41.5982122 25.4924911 21.7377831 76.0822408 21.7377831 76.0822408 2.0749702 0 2.0749702 0 99.7961859 78.0584029 99.7961859 78.0584029 80.034565 25.4924911 80.034565"></polygon>
                        <path d="M819.61323,51.1825983 C813.88236,46.4398093 804.199166,42.8827175 790.662455,40.4125149 C783.64708,39.1280095 778.706675,37.7446961 775.742431,36.1637664 C772.876996,34.6816448 771.394875,32.6066746 771.394875,30.136472 C771.394875,27.1722288 772.778188,24.8008343 775.544815,23.0222884 C778.311442,21.2437426 782.263766,20.3544696 787.401788,20.3544696 C793.52789,20.3544696 798.76472,21.5401669 803.211085,23.8127533 C807.262217,25.9865316 810.819309,29.247199 813.88236,33.6935638 L826.134565,21.4413588 L829,18.0818832 C823.367938,11.8569726 817.241836,7.41060787 810.720501,4.64398093 C804.199166,1.87735399 796.195709,0.494040524 787.006555,0.494040524 C778.311442,0.494040524 770.802026,1.87735399 764.478308,4.54517282 C758.154589,7.21299166 753.312992,11.0665077 749.953516,15.9081049 C746.692849,20.749702 745.013111,26.1841478 745.013111,32.3102503 C745.013111,38.4363528 746.495232,43.4755662 749.558284,47.4278903 C752.522527,51.3802145 756.771275,54.5420739 762.304529,56.8146603 C767.738975,59.0872467 774.75435,61.1622169 783.153039,62.8419547 C789.970799,64.1264601 794.812396,65.5097735 797.776639,66.893087 C800.642074,68.2764005 802.124195,70.1537545 802.124195,72.4263409 C802.124195,75.2917759 800.740882,77.4655542 798.073063,79.0464839 C795.405244,80.5286055 791.255304,81.3190703 785.820858,81.3190703 C779.003099,81.3190703 773.173421,80.2321812 768.331824,78.0584029 C764.478308,76.279857 760.921216,73.51323 757.759356,69.8573302 L742.4441,84.9749702 C747.384505,90.409416 753.214184,94.4605483 760.031943,97.1283671 C766.94851,99.7961859 775.940048,101.179499 787.006555,101.179499 C794.911204,101.179499 802.025387,99.9938021 808.250298,97.6224076 C814.475209,95.2510131 819.415614,91.7927294 822.972706,87.2475566 C826.529797,82.7023838 828.308343,77.3667461 828.308343,71.1418355 C828.308343,62.5455304 825.3441,55.9253874 819.61323,51.1825983 Z" id="Shape"></path>
                        <path d="M674.266508,23.0222884 C677.033135,21.2437426 680.985459,20.3544696 686.12348,20.3544696 C692.249583,20.3544696 697.486412,21.5401669 701.932777,23.8127533 C705.983909,25.9865316 709.541001,29.247199 712.604052,33.5947557 L725.74553,20.4532777 L727.820501,18.0818832 C722.188439,11.8569726 716.062336,7.41060787 709.541001,4.64398093 C703.019666,1.87735399 695.01621,0.494040524 685.827056,0.494040524 C677.131943,0.494040524 669.622527,1.87735399 663.2,4.54517282 C656.876281,7.21299166 652.034684,11.0665077 648.675209,15.9081049 C645.414541,20.749702 643.734803,26.1841478 643.734803,32.3102503 C643.734803,38.4363528 645.216925,43.4755662 648.279976,47.4278903 C651.244219,51.3802145 655.492968,54.5420739 661.026222,56.8146603 C666.460667,59.0872467 673.476043,61.1622169 681.775924,62.8419547 C688.593683,64.1264601 693.43528,65.5097735 696.399523,66.893087 C699.264958,68.2764005 700.74708,70.1537545 700.74708,72.4263409 C700.74708,75.2917759 699.363766,77.4655542 696.695948,79.0464839 C694.028129,80.5286055 689.878188,81.3190703 684.443743,81.3190703 C677.625983,81.3190703 671.796305,80.2321812 666.954708,78.0584029 C663.101192,76.279857 659.5441,73.51323 656.283433,69.7585221 L641.066985,84.9749702 C646.00739,90.409416 651.935876,94.5593564 658.654827,97.2271752 C665.571395,99.894994 674.562932,101.278308 685.62944,101.278308 C693.534088,101.278308 700.648272,100.09261 706.873182,97.7212157 C713.098093,95.3498212 718.038498,91.8915375 721.59559,87.3463647 C725.152682,82.8011919 726.931228,77.4655542 726.931228,71.2406436 C726.931228,62.6443385 724.065793,56.0241955 718.236114,51.2814064 C712.505244,46.5386174 702.82205,42.9815256 689.28534,40.511323 C682.269964,39.2268176 677.329559,37.8435042 674.365316,36.2625745 C671.499881,34.7804529 670.017759,32.7054827 670.017759,30.2352801 C670.116567,27.1722288 671.499881,24.8008343 674.266508,23.0222884 Z" id="Shape"></path>
                    </g>
                    <g id="Group" transform="translate(451.553039, 0.000000)">
                        <rect id="Rectangle-path" fill="#DCE442" x="0.790464839" y="0" width="170.542789" height="170.938021"></rect>
                        <g transform="translate(16.797378, 15.809297)" id="Rectangle-path" fill="#00758D">
                            <rect transform="translate(42.112721, 42.510987) rotate(-45.000000) translate(-42.112721, -42.510987) " x="-6.74741851" y="32.0374279" width="97.7202786" height="20.9471174"></rect>
                            <rect transform="translate(55.479382, 83.490561) rotate(-45.000000) translate(-55.479382, -83.490561) " x="26.1830603" y="73.0170025" width="58.5926443" height="20.9471174"></rect>
                            <rect transform="translate(96.482770, 96.791911) rotate(-45.000000) translate(-96.482770, -96.791911) " x="47.6226305" y="86.318352" width="97.7202786" height="20.9471174"></rect>
                        </g>
                    </g>
                </g>
            </g>
        </g>
    </g>
</svg>