<svg width="829" height="304" viewBox="0 0 829 304" xmlns="http://www.w3.org/2000/svg" xmlns:xlink="http://www.w3.org/1999/xlink"><title>Elementos portada empress</title><defs><path id="a" d="M.007 39V.11H59V39z"/></defs><g fill="none" fill-rule="evenodd"><path d="M5.416 44.64h1.952L11.688 56H9.416L8.36 53.168H4.392L3.352 56H1.08l4.336-11.36zm2.544 6.976l-1.568-4.464-1.632 4.464h3.2zm9.792 4.544c-.661 0-1.237-.147-1.728-.44a3.13 3.13 0 0 1-1.152-1.192v4.88h-2.144V47.616H14.6v1.44c.31-.49.71-.877 1.2-1.16.49-.283 1.056-.424 1.696-.424a3.59 3.59 0 0 1 1.568.344c.48.23.893.539 1.24.928.347.39.619.848.816 1.376.197.528.296 1.085.296 1.672 0 .608-.09 1.179-.272 1.712a4.381 4.381 0 0 1-.76 1.392 3.544 3.544 0 0 1-1.16.928 3.245 3.245 0 0 1-1.472.336zm-.72-1.824c.32 0 .616-.07.888-.208.272-.139.504-.325.696-.56.192-.235.341-.507.448-.816.107-.31.16-.63.16-.96 0-.352-.059-.68-.176-.984a2.443 2.443 0 0 0-.488-.792 2.273 2.273 0 0 0-.736-.528 2.204 2.204 0 0 0-.92-.192 2.2 2.2 0 0 0-1.216.4 2.592 2.592 0 0 0-.488.448c-.144.17-.253.357-.328.56v1.968c.192.48.485.877.88 1.192.395.315.821.472 1.28.472zm5.824-10.016H25v8.992c0 .31.075.55.224.72.15.17.363.256.64.256.128 0 .27-.021.424-.064.155-.043.301-.096.44-.16l.288 1.632a4.146 4.146 0 0 1-1.008.32 5.5 5.5 0 0 1-1.04.112c-.672 0-1.192-.179-1.56-.536-.368-.357-.552-.867-.552-1.528V44.32zM27.944 56v-8.384h2.144V56h-2.144zm0-9.552V44.32h2.144v2.128h-2.144zm3.552 5.36c0-.587.101-1.141.304-1.664.203-.523.496-.981.88-1.376.384-.395.848-.71 1.392-.944.544-.235 1.157-.352 1.84-.352.917 0 1.699.197 2.344.592a3.781 3.781 0 0 1 1.448 1.552l-2.096.64a1.883 1.883 0 0 0-.72-.712 2.014 2.014 0 0 0-.992-.248c-.31 0-.597.061-.864.184a2.124 2.124 0 0 0-.696.512 2.372 2.372 0 0 0-.464.792c-.112.31-.168.65-.168 1.024 0 .373.059.715.176 1.024.117.31.275.576.472.8.197.224.43.397.696.52.267.123.55.184.848.184.384 0 .739-.096 1.064-.288.325-.192.552-.427.68-.704l2.096.64c-.288.64-.763 1.163-1.424 1.568-.661.405-1.456.608-2.384.608-.683 0-1.296-.117-1.84-.352a4.221 4.221 0 0 1-1.392-.952c-.384-.4-.68-.864-.888-1.392a4.478 4.478 0 0 1-.312-1.656zm11.84 4.352a3.18 3.18 0 0 1-1.136-.2 2.73 2.73 0 0 1-.912-.56 2.544 2.544 0 0 1-.816-1.896c0-.395.088-.76.264-1.096.176-.336.421-.621.736-.856s.69-.419 1.128-.552a4.92 4.92 0 0 1 1.44-.2c.373 0 .739.032 1.096.096.357.064.675.155.952.272v-.48c0-.555-.157-.981-.472-1.28-.315-.299-.781-.448-1.4-.448-.448 0-.885.08-1.312.24a6.1 6.1 0 0 0-1.312.704l-.656-1.36c1.077-.715 2.24-1.072 3.488-1.072 1.205 0 2.141.296 2.808.888.667.592 1 1.448 1 2.568v2.608c0 .224.04.384.12.48.08.096.21.15.392.16V56a4.773 4.773 0 0 1-.944.112c-.405 0-.717-.09-.936-.272a1.17 1.17 0 0 1-.408-.72l-.048-.464a3.71 3.71 0 0 1-1.36 1.12 3.905 3.905 0 0 1-1.712.384zm.608-1.568a2.79 2.79 0 0 0 1.032-.192c.325-.128.579-.299.76-.512.235-.181.352-.384.352-.608v-.96a5.25 5.25 0 0 0-.832-.232 4.481 4.481 0 0 0-.864-.088c-.555 0-1.008.125-1.36.376-.352.25-.528.568-.528.952 0 .363.139.664.416.904.277.24.619.36 1.024.36zm5.76-2.784c0-.587.101-1.141.304-1.664.203-.523.496-.981.88-1.376.384-.395.848-.71 1.392-.944.544-.235 1.157-.352 1.84-.352.917 0 1.699.197 2.344.592a3.781 3.781 0 0 1 1.448 1.552l-2.096.64a1.883 1.883 0 0 0-.72-.712 2.014 2.014 0 0 0-.992-.248c-.31 0-.597.061-.864.184a2.124 2.124 0 0 0-.696.512 2.372 2.372 0 0 0-.464.792c-.112.31-.168.65-.168 1.024 0 .373.059.715.176 1.024.117.31.275.576.472.8.197.224.43.397.696.52.267.123.55.184.848.184.384 0 .739-.096 1.064-.288.325-.192.552-.427.68-.704l2.096.64c-.288.64-.763 1.163-1.424 1.568-.661.405-1.456.608-2.384.608-.683 0-1.296-.117-1.84-.352a4.221 4.221 0 0 1-1.392-.952c-.384-.4-.68-.864-.888-1.392a4.478 4.478 0 0 1-.312-1.656zM59.256 56v-8.384H61.4V56h-2.144zm0-9.552V44.32H61.4v2.128h-2.144zm7.952 9.712c-.683 0-1.296-.117-1.84-.352a4.133 4.133 0 0 1-1.384-.952c-.379-.4-.67-.861-.872-1.384a4.518 4.518 0 0 1-.304-1.648c0-.587.101-1.141.304-1.664.203-.523.493-.984.872-1.384.379-.4.84-.717 1.384-.952.544-.235 1.157-.352 1.84-.352s1.293.117 1.832.352c.539.235.997.552 1.376.952.379.4.67.861.872 1.384.203.523.304 1.077.304 1.664 0 .576-.101 1.125-.304 1.648a4.27 4.27 0 0 1-.864 1.384c-.373.4-.832.717-1.376.952-.544.235-1.157.352-1.84.352zm-2.192-4.336c0 .373.056.712.168 1.016.112.304.267.568.464.792a2.042 2.042 0 0 0 1.56.704 2.042 2.042 0 0 0 1.56-.704c.197-.224.352-.49.464-.8.112-.31.168-.65.168-1.024a2.94 2.94 0 0 0-.168-1.008 2.465 2.465 0 0 0-.464-.8 2.042 2.042 0 0 0-1.56-.704c-.31 0-.597.064-.864.192a2.171 2.171 0 0 0-.696.528c-.197.224-.352.49-.464.8a2.94 2.94 0 0 0-.168 1.008zM80.824 56H78.68v-4.704c0-.672-.117-1.163-.352-1.472-.235-.31-.56-.464-.976-.464-.213 0-.432.043-.656.128a2.414 2.414 0 0 0-.632.36 2.929 2.929 0 0 0-.536.552c-.16.213-.277.448-.352.704V56h-2.144v-8.384h1.936v1.552c.31-.533.757-.95 1.344-1.248.587-.299 1.248-.448 1.984-.448.523 0 .95.096 1.28.288.33.192.587.443.768.752.181.31.307.661.376 1.056.07.395.104.795.104 1.2V56zm5.76.16c-.672 0-1.28-.115-1.824-.344a4.182 4.182 0 0 1-1.392-.936 4.155 4.155 0 0 1-.888-1.376 4.416 4.416 0 0 1-.312-1.648c0-.597.101-1.16.304-1.688a4.12 4.12 0 0 1 .88-1.392 4.2 4.2 0 0 1 1.4-.952c.55-.235 1.165-.352 1.848-.352s1.293.117 1.832.352c.539.235.997.55 1.376.944.379.395.667.853.864 1.376.197.523.296 1.067.296 1.632 0 .139-.003.272-.008.4a1.627 1.627 0 0 1-.04.32h-6.48c.032.33.112.624.24.88a2.165 2.165 0 0 0 1.184 1.072c.256.096.523.144.8.144.427 0 .83-.104 1.208-.312.379-.208.637-.483.776-.824l1.84.512c-.31.64-.803 1.165-1.48 1.576-.677.41-1.485.616-2.424.616zm2.176-5.056c-.053-.63-.285-1.133-.696-1.512-.41-.379-.91-.568-1.496-.568a2.135 2.135 0 0 0-1.472.576c-.192.181-.35.4-.472.656a2.312 2.312 0 0 0-.216.848h4.352zm6.688 5.056a6.486 6.486 0 0 1-2.064-.336 5.034 5.034 0 0 1-1.728-.96l.8-1.344c.512.363 1.01.637 1.496.824.485.187.968.28 1.448.28.427 0 .763-.08 1.008-.24a.773.773 0 0 0 .368-.688c0-.299-.144-.517-.432-.656-.288-.139-.757-.299-1.408-.48a18.9 18.9 0 0 1-1.392-.432 3.572 3.572 0 0 1-.928-.472 1.615 1.615 0 0 1-.512-.608 1.941 1.941 0 0 1-.16-.824c0-.427.083-.81.248-1.152a2.51 2.51 0 0 1 .696-.872c.299-.24.648-.424 1.048-.552.4-.128.835-.192 1.304-.192.63 0 1.219.09 1.768.272.55.181 1.053.475 1.512.88l-.864 1.296a5.02 5.02 0 0 0-1.24-.704 3.39 3.39 0 0 0-1.192-.224c-.363 0-.667.075-.912.224-.245.15-.368.39-.368.72a.7.7 0 0 0 .088.368.775.775 0 0 0 .28.256c.128.075.296.147.504.216.208.07.467.141.776.216.576.15 1.07.299 1.48.448.41.15.747.32 1.008.512s.453.413.576.664c.123.25.184.552.184.904 0 .821-.304 1.47-.912 1.944-.608.475-1.435.712-2.48.712zm8.352 1.472c.181.053.357.093.528.12.17.027.315.04.432.04a.917.917 0 0 0 .384-.08.822.822 0 0 0 .32-.28c.096-.133.192-.317.288-.552.096-.235.197-.528.304-.88l-3.312-8.384h2.208l2.272 6.528 2.016-6.528h2.016l-3.52 10.048a3.002 3.002 0 0 1-1.04 1.44c-.49.373-1.099.56-1.824.56a3.325 3.325 0 0 1-1.072-.176v-1.856zM119 56.16a6.486 6.486 0 0 1-2.064-.336 5.034 5.034 0 0 1-1.728-.96l.8-1.344c.512.363 1.01.637 1.496.824.485.187.968.28 1.448.28.427 0 .763-.08 1.008-.24a.773.773 0 0 0 .368-.688c0-.299-.144-.517-.432-.656-.288-.139-.757-.299-1.408-.48a18.9 18.9 0 0 1-1.392-.432 3.572 3.572 0 0 1-.928-.472 1.615 1.615 0 0 1-.512-.608 1.941 1.941 0 0 1-.16-.824c0-.427.083-.81.248-1.152a2.51 2.51 0 0 1 .696-.872c.299-.24.648-.424 1.048-.552.4-.128.835-.192 1.304-.192.63 0 1.219.09 1.768.272.55.181 1.053.475 1.512.88l-.864 1.296a5.02 5.02 0 0 0-1.24-.704 3.39 3.39 0 0 0-1.192-.224c-.363 0-.667.075-.912.224-.245.15-.368.39-.368.72a.7.7 0 0 0 .088.368.775.775 0 0 0 .28.256c.128.075.296.147.504.216.208.07.467.141.776.216.576.15 1.07.299 1.48.448.41.15.747.32 1.008.512s.453.413.576.664c.123.25.184.552.184.904 0 .821-.304 1.47-.912 1.944-.608.475-1.435.712-2.48.712zm8.672 0c-.672 0-1.28-.115-1.824-.344a4.182 4.182 0 0 1-1.392-.936 4.155 4.155 0 0 1-.888-1.376 4.416 4.416 0 0 1-.312-1.648c0-.597.101-1.16.304-1.688a4.12 4.12 0 0 1 .88-1.392 4.2 4.2 0 0 1 1.4-.952c.55-.235 1.165-.352 1.848-.352s1.293.117 1.832.352c.539.235.997.55 1.376.944.379.395.667.853.864 1.376.197.523.296 1.067.296 1.632 0 .139-.003.272-.008.4a1.627 1.627 0 0 1-.04.32h-6.48c.032.33.112.624.24.88a2.165 2.165 0 0 0 1.184 1.072c.256.096.523.144.8.144.427 0 .83-.104 1.208-.312.379-.208.637-.483.776-.824l1.84.512c-.31.64-.803 1.165-1.48 1.576-.677.41-1.485.616-2.424.616zm2.176-5.056c-.053-.63-.285-1.133-.696-1.512-.41-.379-.91-.568-1.496-.568a2.135 2.135 0 0 0-1.472.576c-.192.181-.35.4-.472.656a2.312 2.312 0 0 0-.216.848h4.352zm8.512-1.632c-.65.01-1.232.136-1.744.376s-.88.6-1.104 1.08V56h-2.144v-8.384h1.968v1.792c.15-.288.325-.547.528-.776.203-.23.421-.43.656-.6.235-.17.472-.301.712-.392.24-.09.472-.136.696-.136h.264c.059 0 .115.005.168.016v1.952zM141.816 56l-3.088-8.384h2.208l2.128 6.64 2.144-6.64h2.016L144.136 56h-2.32zm6.528 0v-8.384h2.144V56h-2.144zm0-9.552V44.32h2.144v2.128h-2.144zm3.552 5.36c0-.587.101-1.141.304-1.664.203-.523.496-.981.88-1.376.384-.395.848-.71 1.392-.944.544-.235 1.157-.352 1.84-.352.917 0 1.699.197 2.344.592a3.781 3.781 0 0 1 1.448 1.552l-2.096.64a1.883 1.883 0 0 0-.72-.712 2.014 2.014 0 0 0-.992-.248c-.31 0-.597.061-.864.184a2.124 2.124 0 0 0-.696.512 2.372 2.372 0 0 0-.464.792c-.112.31-.168.65-.168 1.024 0 .373.059.715.176 1.024.117.31.275.576.472.8.197.224.43.397.696.52.267.123.55.184.848.184.384 0 .739-.096 1.064-.288.325-.192.552-.427.68-.704l2.096.64c-.288.64-.763 1.163-1.424 1.568-.661.405-1.456.608-2.384.608-.683 0-1.296-.117-1.84-.352a4.221 4.221 0 0 1-1.392-.952c-.384-.4-.68-.864-.888-1.392a4.478 4.478 0 0 1-.312-1.656zM161.448 56v-8.384h2.144V56h-2.144zm0-9.552V44.32h2.144v2.128h-2.144zm7.952 9.712c-.683 0-1.296-.117-1.84-.352a4.133 4.133 0 0 1-1.384-.952c-.379-.4-.67-.861-.872-1.384a4.518 4.518 0 0 1-.304-1.648c0-.587.101-1.141.304-1.664.203-.523.493-.984.872-1.384.379-.4.84-.717 1.384-.952.544-.235 1.157-.352 1.84-.352s1.293.117 1.832.352c.539.235.997.552 1.376.952.379.4.67.861.872 1.384.203.523.304 1.077.304 1.664 0 .576-.101 1.125-.304 1.648a4.27 4.27 0 0 1-.864 1.384c-.373.4-.832.717-1.376.952-.544.235-1.157.352-1.84.352zm-2.192-4.336c0 .373.056.712.168 1.016.112.304.267.568.464.792a2.042 2.042 0 0 0 1.56.704 2.042 2.042 0 0 0 1.56-.704c.197-.224.352-.49.464-.8.112-.31.168-.65.168-1.024a2.94 2.94 0 0 0-.168-1.008 2.465 2.465 0 0 0-.464-.8 2.042 2.042 0 0 0-1.56-.704c-.31 0-.597.064-.864.192a2.171 2.171 0 0 0-.696.528c-.197.224-.352.49-.464.8a2.94 2.94 0 0 0-.168 1.008zm11.184 4.336a6.486 6.486 0 0 1-2.064-.336 5.034 5.034 0 0 1-1.728-.96l.8-1.344c.512.363 1.01.637 1.496.824.485.187.968.28 1.448.28.427 0 .763-.08 1.008-.24a.773.773 0 0 0 .368-.688c0-.299-.144-.517-.432-.656-.288-.139-.757-.299-1.408-.48a18.9 18.9 0 0 1-1.392-.432 3.572 3.572 0 0 1-.928-.472 1.615 1.615 0 0 1-.512-.608 1.941 1.941 0 0 1-.16-.824c0-.427.083-.81.248-1.152a2.51 2.51 0 0 1 .696-.872c.299-.24.648-.424 1.048-.552.4-.128.835-.192 1.304-.192.63 0 1.219.09 1.768.272.55.181 1.053.475 1.512.88l-.864 1.296a5.02 5.02 0 0 0-1.24-.704 3.39 3.39 0 0 0-1.192-.224c-.363 0-.667.075-.912.224-.245.15-.368.39-.368.72a.7.7 0 0 0 .088.368.775.775 0 0 0 .28.256c.128.075.296.147.504.216.208.07.467.141.776.216.576.15 1.07.299 1.48.448.41.15.747.32 1.008.512s.453.413.576.664c.123.25.184.552.184.904 0 .821-.304 1.47-.912 1.944-.608.475-1.435.712-2.48.712zm12.096 0a3.773 3.773 0 0 1-2.864-1.264 4.337 4.337 0 0 1-.824-1.384 4.828 4.828 0 0 1-.296-1.704 5 5 0 0 1 .28-1.696c.187-.523.445-.981.776-1.376.33-.395.725-.704 1.184-.928a3.38 3.38 0 0 1 1.504-.336c.619 0 1.176.15 1.672.448.496.299.883.688 1.16 1.168V44.32h2.144v9.216c0 .224.037.384.112.48.075.096.203.15.384.16V56a4.86 4.86 0 0 1-.912.112c-.384 0-.699-.096-.944-.288a1.057 1.057 0 0 1-.416-.752l-.048-.528c-.31.533-.728.936-1.256 1.208a3.57 3.57 0 0 1-1.656.408zm.56-1.824a2.2 2.2 0 0 0 1.216-.4 2.59 2.59 0 0 0 .488-.448c.144-.17.253-.357.328-.56v-2a2.341 2.341 0 0 0-.36-.648 2.755 2.755 0 0 0-1.152-.856 1.773 1.773 0 0 0-.648-.128c-.32 0-.616.07-.888.208a2.108 2.108 0 0 0-.696.568c-.192.24-.341.515-.448.824-.107.31-.16.63-.16.96 0 .352.059.677.176.976.117.299.277.56.48.784a2.185 2.185 0 0 0 1.664.72zm10.176 1.824c-.672 0-1.28-.115-1.824-.344a4.182 4.182 0 0 1-1.392-.936 4.155 4.155 0 0 1-.888-1.376 4.416 4.416 0 0 1-.312-1.648c0-.597.101-1.16.304-1.688a4.12 4.12 0 0 1 .88-1.392 4.2 4.2 0 0 1 1.4-.952c.55-.235 1.165-.352 1.848-.352s1.293.117 1.832.352c.539.235.997.55 1.376.944.379.395.667.853.864 1.376.197.523.296 1.067.296 1.632 0 .139-.003.272-.008.4a1.627 1.627 0 0 1-.04.32h-6.48c.032.33.112.624.24.88a2.165 2.165 0 0 0 1.184 1.072c.256.096.523.144.8.144.427 0 .83-.104 1.208-.312.379-.208.637-.483.776-.824l1.84.512c-.31.64-.803 1.165-1.48 1.576-.677.41-1.485.616-2.424.616zm2.176-5.056c-.053-.63-.285-1.133-.696-1.512-.41-.379-.91-.568-1.496-.568a2.135 2.135 0 0 0-1.472.576c-.192.181-.35.4-.472.656a2.312 2.312 0 0 0-.216.848h4.352zM210.76 56v-8.384h2.144V56h-2.144zm0-9.552V44.32h2.144v2.128h-2.144zM222.632 56h-2.144v-4.704c0-.672-.117-1.163-.352-1.472-.235-.31-.56-.464-.976-.464-.213 0-.432.043-.656.128a2.414 2.414 0 0 0-.632.36 2.929 2.929 0 0 0-.536.552c-.16.213-.277.448-.352.704V56h-2.144v-8.384h1.936v1.552c.31-.533.757-.95 1.344-1.248.587-.299 1.248-.448 1.984-.448.523 0 .95.096 1.28.288.33.192.587.443.768.752.181.31.307.661.376 1.056.07.395.104.795.104 1.2V56zm2.304 0v-6.304h-1.104v-1.632h1.104v-.512c0-1.045.25-1.872.752-2.48.501-.608 1.184-.912 2.048-.912.683 0 1.37.165 2.064.496l-.432 1.616a2.69 2.69 0 0 0-.568-.216 2.332 2.332 0 0 0-.6-.088c-.747 0-1.12.501-1.12 1.504v.592h2.048v1.632h-2.048V56h-2.144zm8.864.16c-.683 0-1.296-.117-1.84-.352a4.133 4.133 0 0 1-1.384-.952c-.379-.4-.67-.861-.872-1.384a4.518 4.518 0 0 1-.304-1.648c0-.587.101-1.141.304-1.664.203-.523.493-.984.872-1.384.379-.4.84-.717 1.384-.952.544-.235 1.157-.352 1.84-.352s1.293.117 1.832.352c.539.235.997.552 1.376.952.379.4.67.861.872 1.384.203.523.304 1.077.304 1.664 0 .576-.101 1.125-.304 1.648a4.27 4.27 0 0 1-.864 1.384c-.373.4-.832.717-1.376.952-.544.235-1.157.352-1.84.352zm-2.192-4.336c0 .373.056.712.168 1.016.112.304.267.568.464.792a2.042 2.042 0 0 0 1.56.704 2.042 2.042 0 0 0 1.56-.704c.197-.224.352-.49.464-.8.112-.31.168-.65.168-1.024a2.94 2.94 0 0 0-.168-1.008 2.465 2.465 0 0 0-.464-.8 2.042 2.042 0 0 0-1.56-.704c-.31 0-.597.064-.864.192a2.171 2.171 0 0 0-.696.528c-.197.224-.352.49-.464.8a2.94 2.94 0 0 0-.168 1.008zm13.008-2.352c-.65.01-1.232.136-1.744.376s-.88.6-1.104 1.08V56h-2.144v-8.384h1.968v1.792c.15-.288.325-.547.528-.776.203-.23.421-.43.656-.6.235-.17.472-.301.712-.392.24-.09.472-.136.696-.136h.264c.059 0 .115.005.168.016v1.952zM258.84 56h-2.144v-4.704c0-.672-.115-1.163-.344-1.472-.23-.31-.547-.464-.952-.464-.427 0-.827.163-1.2.488-.373.325-.64.75-.8 1.272V56h-2.144v-4.704c0-.672-.115-1.163-.344-1.472-.23-.31-.547-.464-.952-.464-.416 0-.813.16-1.192.48-.379.32-.648.741-.808 1.264V56h-2.144v-8.384h1.936v1.552c.31-.544.733-.963 1.272-1.256.539-.293 1.155-.44 1.848-.44.704 0 1.248.17 1.632.512.384.341.63.763.736 1.264.341-.576.773-1.016 1.296-1.32.523-.304 1.12-.456 1.792-.456.512 0 .933.096 1.264.288.33.192.587.443.768.752.181.31.307.661.376 1.056.07.395.104.795.104 1.2V56zm4.16.16a3.18 3.18 0 0 1-1.136-.2 2.73 2.73 0 0 1-.912-.56 2.544 2.544 0 0 1-.816-1.896c0-.395.088-.76.264-1.096.176-.336.421-.621.736-.856s.69-.419 1.128-.552a4.92 4.92 0 0 1 1.44-.2c.373 0 .739.032 1.096.096.357.064.675.155.952.272v-.48c0-.555-.157-.981-.472-1.28-.315-.299-.781-.448-1.4-.448-.448 0-.885.08-1.312.24a6.1 6.1 0 0 0-1.312.704l-.656-1.36c1.077-.715 2.24-1.072 3.488-1.072 1.205 0 2.141.296 2.808.888.667.592 1 1.448 1 2.568v2.608c0 .224.04.384.12.48.08.096.21.15.392.16V56a4.773 4.773 0 0 1-.944.112c-.405 0-.717-.09-.936-.272a1.17 1.17 0 0 1-.408-.72l-.048-.464a3.71 3.71 0 0 1-1.36 1.12 3.905 3.905 0 0 1-1.712.384zm.608-1.568a2.79 2.79 0 0 0 1.032-.192c.325-.128.579-.299.76-.512.235-.181.352-.384.352-.608v-.96a5.25 5.25 0 0 0-.832-.232 4.481 4.481 0 0 0-.864-.088c-.555 0-1.008.125-1.36.376-.352.25-.528.568-.528.952 0 .363.139.664.416.904.277.24.619.36 1.024.36zm5.76-2.784c0-.587.101-1.141.304-1.664.203-.523.496-.981.88-1.376.384-.395.848-.71 1.392-.944.544-.235 1.157-.352 1.84-.352.917 0 1.699.197 2.344.592a3.781 3.781 0 0 1 1.448 1.552l-2.096.64a1.883 1.883 0 0 0-.72-.712 2.014 2.014 0 0 0-.992-.248c-.31 0-.597.061-.864.184a2.124 2.124 0 0 0-.696.512 2.372 2.372 0 0 0-.464.792c-.112.31-.168.65-.168 1.024 0 .373.059.715.176 1.024.117.31.275.576.472.8.197.224.43.397.696.52.267.123.55.184.848.184.384 0 .739-.096 1.064-.288.325-.192.552-.427.68-.704l2.096.64c-.288.64-.763 1.163-1.424 1.568-.661.405-1.456.608-2.384.608-.683 0-1.296-.117-1.84-.352a4.221 4.221 0 0 1-1.392-.952c-.384-.4-.68-.864-.888-1.392a4.478 4.478 0 0 1-.312-1.656zM278.92 56v-8.384h2.144V56h-2.144zm0-9.552V44.32h2.144v2.128h-2.144zm8.496.192l-1.376-.416.864-1.904h2l-1.488 2.32zm-.544 9.52c-.683 0-1.296-.117-1.84-.352a4.133 4.133 0 0 1-1.384-.952c-.379-.4-.67-.861-.872-1.384a4.518 4.518 0 0 1-.304-1.648c0-.587.101-1.141.304-1.664.203-.523.493-.984.872-1.384.379-.4.84-.717 1.384-.952.544-.235 1.157-.352 1.84-.352s1.293.117 1.832.352c.539.235.997.552 1.376.952.379.4.67.861.872 1.384.203.523.304 1.077.304 1.664 0 .576-.101 1.125-.304 1.648a4.27 4.27 0 0 1-.864 1.384c-.373.4-.832.717-1.376.952-.544.235-1.157.352-1.84.352zm-2.192-4.336c0 .373.056.712.168 1.016.112.304.267.568.464.792a2.042 2.042 0 0 0 1.56.704 2.042 2.042 0 0 0 1.56-.704c.197-.224.352-.49.464-.8.112-.31.168-.65.168-1.024a2.94 2.94 0 0 0-.168-1.008 2.465 2.465 0 0 0-.464-.8 2.042 2.042 0 0 0-1.56-.704c-.31 0-.597.064-.864.192a2.171 2.171 0 0 0-.696.528c-.197.224-.352.49-.464.8a2.94 2.94 0 0 0-.168 1.008zM300.488 56h-2.144v-4.704c0-.672-.117-1.163-.352-1.472-.235-.31-.56-.464-.976-.464-.213 0-.432.043-.656.128a2.414 2.414 0 0 0-.632.36 2.929 2.929 0 0 0-.536.552c-.16.213-.277.448-.352.704V56h-2.144v-8.384h1.936v1.552c.31-.533.757-.95 1.344-1.248.587-.299 1.248-.448 1.984-.448.523 0 .95.096 1.28.288.33.192.587.443.768.752.181.31.307.661.376 1.056.07.395.104.795.104 1.2V56z" fill="#D9DC58"/><path fill="#FFF" d="M319 50h60v2h-60z"/><g transform="translate(768)"><mask id="b" fill="#fff"><use xlink:href="#a"/></mask><path d="M47.457 25.661c0 .69.568 1.25 1.27 1.25.7 0 1.269-.56 1.269-1.25V6.793c0-.69-.569-1.25-1.27-1.25H10.274c-.701 0-1.27.56-1.27 1.25v18.868c0 .69.569 1.25 1.27 1.25.7 0 1.27-.56 1.27-1.25V8.042h35.913v17.619" fill="#D9DC58" mask="url(#b)"/><path d="M56.714 33.453c0 1.819-1.503 3.298-3.352 3.298H5.638c-1.849 0-3.352-1.479-3.352-3.298v-1.082h19.982c.494 1.642 2.041 2.845 3.87 2.845h6.725a4.037 4.037 0 0 0 3.87-2.845h19.981v1.082zM6.021 3.887A1.29 1.29 0 0 1 7.32 2.61h44.36a1.29 1.29 0 0 1 1.299 1.278v26.235H35.786a1.129 1.129 0 0 0-.248.02 1.13 1.13 0 0 0-.926 1.104c0 .949-.785 1.72-1.75 1.72h-6.725c-.964 0-1.749-.771-1.749-1.72 0-.63-.53-1.138-1.17-1.124H6.022V3.887zm51.836 26.235H55.52V3.887c0-2.082-1.722-3.776-3.839-3.776H7.32C5.203.11 3.48 1.805 3.48 3.887v26.235H1.143c-.631 0-1.143.503-1.143 1.124v2.207C0 36.512 2.529 39 5.638 39h47.724C56.471 39 59 36.512 59 33.453v-2.207c0-.62-.512-1.124-1.143-1.124z" fill="#D9DC58" mask="url(#b)"/></g><path d="M799.611 14.265a1.327 1.327 0 1 0-1.877-1.876l-8.345 8.346a1.327 1.327 0 0 0 1.876 1.876l8.346-8.346m3.116 3.125l-3.337 3.337a1.332 1.332 0 0 0 1.883 1.883l3.337-3.337a1.332 1.332 0 0 0-1.883-1.883M399.302 250.017V227.53c0-3.6-2.945-6.529-6.564-6.529h-76.175c-3.62 0-6.563 2.93-6.563 6.53v45.81c0 3.6 2.945 6.53 6.563 6.53h21.59l-2.473 2.646h-3.702a1.52 1.52 0 0 0-1.524 1.516 1.52 1.52 0 0 0 1.524 1.516h21.206v14.621c0 2.113 1.727 3.831 3.85 3.831h16.384c2.123 0 3.85-1.718 3.85-3.83v-3.08h20.512c2.878 0 5.22-2.33 5.22-5.196v-36.908c0-2.337-1.56-4.318-3.698-4.969zm.698 5.5V256h-35v-.483c0-1.388.974-2.517 2.17-2.517h30.661c1.196 0 2.169 1.13 2.169 2.517zm-26.496 12.84H365V259h35v30h-22.651v-16.815c0-2.11-1.725-3.828-3.845-3.828zM375 274h-18v-2.142c0-.473.36-.858.803-.858h16.394c.443 0 .803.385.803.858V274zm21-45v20.953h-29.105c-2.872 0-5.21 2.354-5.21 5.247v12.936h-4.807c-2.116 0-3.838 1.733-3.84 3.864H313v-43h83zm-39 65h18v-18h-18v18zm-40.856-70h75.712c1.384 0 2.579.82 3.144 2h-82c.566-1.18 1.76-2 3.144-2zM313 274h40v3h-36.734c-1.477 0-2.742-1.243-3.266-3zm27 9l2.408-3H353v3h-13zm34.197 19h-16.394c-.443 0-.803-.385-.803-.858V299h18v2.142c0 .473-.36.858-.803.858zm23.6-7H377v-3h23v.483c0 1.388-.988 2.517-2.203 2.517z" fill="#D9DC58"/><g fill-rule="nonzero"><path d="M166.195 136.556l-5.632 20.552h-.296l-5.534-20.75-15.315-49.7h-36.262v97.721h22.627V139.52l-.79-30.136h.296l24.208 74.995h20.552l24.109-74.995h.296l-.691 30.136v44.859h22.43V86.658h-34.781zm150.386-41.598c-6.521-5.534-15.81-8.399-27.963-8.399H243.76v97.82h25.492v-33.891h19.366c12.154 0 21.442-2.767 27.963-8.201 6.522-5.435 9.782-13.24 9.782-23.121 0-10.573-3.26-18.576-9.782-24.208zm-19.761 33.594c-2.57 2.075-6.72 3.162-12.253 3.162h-15.414v-25.887h15.414c5.534 0 9.585 1.086 12.253 3.161 2.569 2.075 3.952 5.336 3.952 9.684 0 4.545-1.285 7.805-3.952 9.88zm128.944 6.917c3.26-4.743 4.842-10.671 4.842-17.785 0-10.079-3.162-17.786-9.585-23.122-6.323-5.335-15.513-8.003-27.27-8.003h-46.638v97.82h24.998V148.61h15.217l20.848 35.67h28.16l-24.9-38.337c6.325-2.174 11.067-5.731 14.328-10.474zm-24.405-7.806c-2.47 1.976-6.423 2.964-11.857 2.964H372.21v-24.702h17.292c5.434 0 9.386.988 11.857 2.965 2.47 1.976 3.655 5.039 3.655 9.288 0 4.347-1.185 7.509-3.655 9.485zM25.492 144.658h40.215v-18.477H25.492v-19.86h50.59V86.658H0v97.721h78.058v-19.762H25.492zm794.121-8.893c-5.73-4.742-15.414-8.3-28.95-10.77-7.016-1.284-11.956-2.667-14.92-4.248-2.866-1.483-4.348-3.557-4.348-6.028 0-2.964 1.383-5.335 4.15-7.114 2.766-1.778 6.719-2.668 11.857-2.668 6.126 0 11.363 1.186 15.81 3.459 4.05 2.173 7.607 5.434 10.67 9.88l12.253-12.252 2.865-3.36c-5.632-6.224-11.758-10.67-18.28-13.437-6.52-2.767-14.524-4.15-23.713-4.15-8.696 0-16.205 1.383-22.529 4.051-6.323 2.668-11.165 6.521-14.524 11.363-3.261 4.842-4.94 10.276-4.94 16.402 0 6.126 1.481 11.165 4.544 15.118 2.965 3.952 7.213 7.114 12.747 9.386 5.434 2.273 12.45 4.348 20.848 6.028 6.818 1.284 11.66 2.668 14.624 4.05 2.865 1.384 4.347 3.262 4.347 5.534 0 2.866-1.383 5.04-4.05 6.62-2.669 1.482-6.819 2.273-12.253 2.273-6.818 0-12.648-1.087-17.49-3.26-3.853-1.78-7.41-4.546-10.572-8.202l-15.315 15.118c4.94 5.434 10.77 9.485 17.588 12.153 6.917 2.668 15.908 4.051 26.975 4.051 7.904 0 15.018-1.185 21.243-3.557 6.225-2.371 11.166-5.83 14.723-10.375 3.557-4.545 5.335-9.88 5.335-16.105 0-8.597-2.964-15.217-8.695-19.96zm-145.346-28.16c2.766-1.778 6.718-2.668 11.856-2.668 6.127 0 11.363 1.186 15.81 3.459 4.05 2.173 7.608 5.434 10.671 9.782l13.142-13.142 2.075-2.371c-5.633-6.225-11.759-10.672-18.28-13.438-6.521-2.767-14.525-4.15-23.714-4.15-8.695 0-16.204 1.383-22.627 4.051-6.324 2.668-11.165 6.521-14.525 11.363-3.26 4.842-4.94 10.276-4.94 16.402 0 6.126 1.482 11.165 4.545 15.118 2.964 3.952 7.213 7.114 12.746 9.386 5.435 2.273 12.45 4.348 20.75 6.028 6.818 1.284 11.66 2.668 14.624 4.05 2.865 1.384 4.347 3.262 4.347 5.534 0 2.866-1.383 5.04-4.051 6.62-2.668 1.482-6.818 2.273-12.252 2.273-6.818 0-12.648-1.087-17.49-3.26-3.853-1.78-7.41-4.546-10.67-8.3l-15.217 15.216c4.94 5.434 10.869 9.584 17.588 12.252 6.916 2.668 15.908 4.051 26.974 4.051 7.905 0 15.02-1.186 21.244-3.557 6.225-2.371 11.165-5.83 14.723-10.375 3.557-4.545 5.335-9.88 5.335-16.106 0-8.596-2.865-15.216-8.695-19.959-5.73-4.743-15.414-8.3-28.95-10.77-7.016-1.284-11.956-2.668-14.92-4.249-2.866-1.482-4.348-3.557-4.348-6.027.099-3.063 1.482-5.434 4.249-7.213z" fill="#FFF"/><path fill="#DCE442" d="M452.343 50h170.543v170.938H452.343z"/><path d="M468.508 135.463l69.098-69.098 14.812 14.811-69.098 69.099zm27.2 27.147l41.432-41.432 14.811 14.812-41.431 41.431zm27.17 27.134l69.098-69.098 14.812 14.811-69.098 69.099z" fill="#00758D"/></g></g></svg>