<svg width="290" height="101" viewBox="0 0 290 101" xmlns="http://www.w3.org/2000/svg" xmlns:xlink="http://www.w3.org/1999/xlink"><title>Elementos portada movil</title><defs><path id="a" d="M.004 25V.071h37.96V25z"/></defs><g fill="none" fill-rule="evenodd"><path d="M3.864 1.06h1.708L9.352 11H7.364L6.44 8.522H2.968L2.058 11H.07l3.794-9.94zM6.09 7.164L4.718 3.258 3.29 7.164h2.8zm8.568 3.976c-.579 0-1.083-.128-1.512-.385a2.739 2.739 0 0 1-1.008-1.043v4.27h-1.876V3.664H11.9v1.26c.27-.43.62-.768 1.05-1.015.43-.247.924-.371 1.484-.371.495 0 .952.1 1.372.301.42.2.782.471 1.085.812.303.34.541.742.714 1.204.173.462.259.95.259 1.463 0 .532-.08 1.031-.238 1.498-.159.467-.38.873-.665 1.218a3.1 3.1 0 0 1-1.015.812 2.84 2.84 0 0 1-1.288.294zm-.63-1.596c.28 0 .539-.06.777-.182.238-.121.441-.285.609-.49a2.3 2.3 0 0 0 .392-.714c.093-.27.14-.55.14-.84a2.37 2.37 0 0 0-.154-.861 2.137 2.137 0 0 0-.427-.693 1.99 1.99 0 0 0-.644-.462 1.928 1.928 0 0 0-.805-.168 1.924 1.924 0 0 0-1.064.35 2.268 2.268 0 0 0-.427.392c-.126.15-.222.313-.287.49v1.722c.168.42.425.768.77 1.043.345.275.719.413 1.12.413zM19.124.78H21v7.868c0 .27.065.48.196.63.13.15.317.224.56.224.112 0 .236-.019.371-.056a2.51 2.51 0 0 0 .385-.14l.252 1.428a3.628 3.628 0 0 1-.882.28c-.336.065-.64.098-.91.098-.588 0-1.043-.156-1.365-.469-.322-.313-.483-.758-.483-1.337V.78zM23.576 11V3.664h1.876V11h-1.876zm0-8.358V.78h1.876v1.862h-1.876zm3.108 4.69c0-.513.089-.999.266-1.456.177-.457.434-.859.77-1.204s.742-.62 1.218-.826a4.027 4.027 0 0 1 1.61-.308c.803 0 1.486.173 2.051.518.565.345.987.798 1.267 1.358l-1.834.56a1.648 1.648 0 0 0-.63-.623 1.762 1.762 0 0 0-.868-.217c-.27 0-.523.054-.756.161a1.858 1.858 0 0 0-.609.448 2.075 2.075 0 0 0-.406.693c-.098.27-.147.57-.147.896 0 .327.051.625.154.896.103.27.24.504.413.7.173.196.376.348.609.455.233.107.48.161.742.161a1.8 1.8 0 0 0 .931-.252c.285-.168.483-.373.595-.616l1.834.56c-.252.56-.667 1.017-1.246 1.372-.579.355-1.274.532-2.086.532a4.027 4.027 0 0 1-1.61-.308 3.694 3.694 0 0 1-1.218-.833 3.696 3.696 0 0 1-.777-1.218 3.918 3.918 0 0 1-.273-1.449zm10.36 3.808c-.355 0-.686-.058-.994-.175a2.39 2.39 0 0 1-.798-.49 2.226 2.226 0 0 1-.714-1.659c0-.345.077-.665.231-.959a2.2 2.2 0 0 1 .644-.749 3.2 3.2 0 0 1 .987-.483 4.305 4.305 0 0 1 1.26-.175c.327 0 .646.028.959.084.313.056.59.135.833.238v-.42c0-.485-.138-.859-.413-1.12-.275-.261-.684-.392-1.225-.392-.392 0-.775.07-1.148.21-.373.14-.756.345-1.148.616l-.574-1.19c.943-.625 1.96-.938 3.052-.938 1.055 0 1.874.259 2.457.777.583.518.875 1.267.875 2.247v2.282c0 .196.035.336.105.42.07.084.184.13.343.14V11a4.177 4.177 0 0 1-.826.098c-.355 0-.628-.08-.819-.238a1.023 1.023 0 0 1-.357-.63l-.042-.406a3.24 3.24 0 0 1-1.19.98 3.417 3.417 0 0 1-1.498.336zm.532-1.372c.317 0 .618-.056.903-.168.285-.112.506-.261.665-.448.205-.159.308-.336.308-.532v-.84a4.593 4.593 0 0 0-.728-.203 3.921 3.921 0 0 0-.756-.077c-.485 0-.882.11-1.19.329-.308.22-.462.497-.462.833 0 .317.121.581.364.791.243.21.541.315.896.315zm5.04-2.436c0-.513.089-.999.266-1.456.177-.457.434-.859.77-1.204s.742-.62 1.218-.826a4.027 4.027 0 0 1 1.61-.308c.803 0 1.486.173 2.051.518.565.345.987.798 1.267 1.358l-1.834.56a1.648 1.648 0 0 0-.63-.623 1.762 1.762 0 0 0-.868-.217c-.27 0-.523.054-.756.161a1.858 1.858 0 0 0-.609.448 2.075 2.075 0 0 0-.406.693c-.098.27-.147.57-.147.896 0 .327.051.625.154.896.103.27.24.504.413.7.173.196.376.348.609.455.233.107.48.161.742.161a1.8 1.8 0 0 0 .931-.252c.285-.168.483-.373.595-.616l1.834.56c-.252.56-.667 1.017-1.246 1.372-.579.355-1.274.532-2.086.532a4.027 4.027 0 0 1-1.61-.308 3.694 3.694 0 0 1-1.218-.833 3.696 3.696 0 0 1-.777-1.218 3.918 3.918 0 0 1-.273-1.449zM50.974 11V3.664h1.876V11h-1.876zm0-8.358V.78h1.876v1.862h-1.876zm6.958 8.498a4.027 4.027 0 0 1-1.61-.308 3.616 3.616 0 0 1-1.211-.833 3.677 3.677 0 0 1-.763-1.211 3.954 3.954 0 0 1-.266-1.442c0-.513.089-.999.266-1.456a3.68 3.68 0 0 1 .763-1.211c.331-.35.735-.628 1.211-.833a4.027 4.027 0 0 1 1.61-.308c.597 0 1.132.103 1.603.308.471.205.873.483 1.204.833.331.35.586.754.763 1.211.177.457.266.943.266 1.456 0 .504-.089.985-.266 1.442-.177.457-.43.861-.756 1.211a3.54 3.54 0 0 1-1.204.833 4.027 4.027 0 0 1-1.61.308zm-1.918-3.794c0 .327.049.623.147.889.098.266.233.497.406.693a1.787 1.787 0 0 0 1.365.616 1.787 1.787 0 0 0 1.365-.616c.173-.196.308-.43.406-.7.098-.27.147-.57.147-.896 0-.317-.049-.611-.147-.882a2.157 2.157 0 0 0-.406-.7 1.787 1.787 0 0 0-1.365-.616c-.27 0-.523.056-.756.168a1.9 1.9 0 0 0-.609.462c-.173.196-.308.43-.406.7a2.57 2.57 0 0 0-.147.882zM69.846 11H67.97V6.884c0-.588-.103-1.017-.308-1.288-.205-.27-.49-.406-.854-.406-.187 0-.378.037-.574.112-.196.075-.38.18-.553.315a2.563 2.563 0 0 0-.469.483 1.91 1.91 0 0 0-.308.616V11h-1.876V3.664h1.694v1.358c.27-.467.663-.83 1.176-1.092.513-.261 1.092-.392 1.736-.392.457 0 .83.084 1.12.252.29.168.513.387.672.658.159.27.268.579.329.924.06.345.091.695.091 1.05V11zm5.04.14c-.588 0-1.12-.1-1.596-.301a3.66 3.66 0 0 1-1.218-.819 3.636 3.636 0 0 1-.777-1.204 3.864 3.864 0 0 1-.273-1.442c0-.523.089-1.015.266-1.477.177-.462.434-.868.77-1.218s.744-.628 1.225-.833a4.078 4.078 0 0 1 1.617-.308c.597 0 1.132.103 1.603.308.471.205.873.48 1.204.826.331.345.583.747.756 1.204a4 4 0 0 1 .259 1.428c0 .121-.002.238-.007.35a1.424 1.424 0 0 1-.035.28h-5.67c.028.29.098.546.21.77a1.903 1.903 0 0 0 1.736 1.064c.373 0 .726-.091 1.057-.273.331-.182.558-.422.679-.721l1.61.448c-.27.56-.702 1.02-1.295 1.379-.593.36-1.3.539-2.121.539zm1.904-4.424c-.047-.55-.25-.992-.609-1.323a1.861 1.861 0 0 0-1.309-.497 1.868 1.868 0 0 0-1.288.504c-.168.159-.306.35-.413.574-.107.224-.17.471-.189.742h3.808zm5.852 4.424a5.675 5.675 0 0 1-1.806-.294 4.405 4.405 0 0 1-1.512-.84l.7-1.176c.448.317.884.558 1.309.721a3.51 3.51 0 0 0 1.267.245c.373 0 .667-.07.882-.21a.676.676 0 0 0 .322-.602c0-.261-.126-.453-.378-.574-.252-.121-.663-.261-1.232-.42-.476-.13-.882-.257-1.218-.378a3.126 3.126 0 0 1-.812-.413 1.413 1.413 0 0 1-.448-.532c-.093-.2-.14-.441-.14-.721 0-.373.072-.71.217-1.008a2.2 2.2 0 0 1 .609-.763 2.82 2.82 0 0 1 .917-.483c.35-.112.73-.168 1.141-.168.55 0 1.066.08 1.547.238.48.159.922.415 1.323.77l-.756 1.134a4.393 4.393 0 0 0-1.085-.616 2.966 2.966 0 0 0-1.043-.196c-.317 0-.583.065-.798.196-.215.13-.322.34-.322.63 0 .13.026.238.077.322a.678.678 0 0 0 .245.224c.112.065.259.128.441.189.182.06.408.124.679.189.504.13.936.261 1.295.392.36.13.653.28.882.448.229.168.397.362.504.581.107.22.161.483.161.791 0 .719-.266 1.286-.798 1.701-.532.415-1.255.623-2.17.623zm7.308 1.288c.159.047.313.082.462.105.15.023.275.035.378.035a.802.802 0 0 0 .336-.07.72.72 0 0 0 .28-.245 2.41 2.41 0 0 0 .252-.483c.084-.205.173-.462.266-.77l-2.898-7.336h1.932l1.988 5.712 1.764-5.712h1.764l-3.08 8.792c-.177.513-.48.933-.91 1.26-.43.327-.961.49-1.596.49a2.91 2.91 0 0 1-.938-.154v-1.624zm13.3-1.288a5.675 5.675 0 0 1-1.806-.294 4.405 4.405 0 0 1-1.512-.84l.7-1.176c.448.317.884.558 1.309.721a3.51 3.51 0 0 0 1.267.245c.373 0 .667-.07.882-.21a.676.676 0 0 0 .322-.602c0-.261-.126-.453-.378-.574-.252-.121-.663-.261-1.232-.42-.476-.13-.882-.257-1.218-.378a3.126 3.126 0 0 1-.812-.413 1.413 1.413 0 0 1-.448-.532c-.093-.2-.14-.441-.14-.721 0-.373.072-.71.217-1.008a2.2 2.2 0 0 1 .609-.763 2.82 2.82 0 0 1 .917-.483c.35-.112.73-.168 1.141-.168.55 0 1.066.08 1.547.238.48.159.922.415 1.323.77l-.756 1.134a4.393 4.393 0 0 0-1.085-.616 2.966 2.966 0 0 0-1.043-.196c-.317 0-.583.065-.798.196-.215.13-.322.34-.322.63 0 .13.026.238.077.322a.678.678 0 0 0 .245.224c.112.065.259.128.441.189.182.06.408.124.679.189.504.13.936.261 1.295.392.36.13.653.28.882.448.229.168.397.362.504.581.107.22.161.483.161.791 0 .719-.266 1.286-.798 1.701-.532.415-1.255.623-2.17.623zm7.588 0c-.588 0-1.12-.1-1.596-.301a3.66 3.66 0 0 1-1.218-.819 3.636 3.636 0 0 1-.777-1.204 3.864 3.864 0 0 1-.273-1.442c0-.523.089-1.015.266-1.477.177-.462.434-.868.77-1.218s.744-.628 1.225-.833a4.078 4.078 0 0 1 1.617-.308c.597 0 1.132.103 1.603.308.471.205.873.48 1.204.826.331.345.583.747.756 1.204a4 4 0 0 1 .259 1.428c0 .121-.002.238-.007.35a1.424 1.424 0 0 1-.035.28h-5.67c.028.29.098.546.21.77a1.903 1.903 0 0 0 1.736 1.064c.373 0 .726-.091 1.057-.273.331-.182.558-.422.679-.721l1.61.448c-.27.56-.702 1.02-1.295 1.379-.593.36-1.3.539-2.121.539zm1.904-4.424c-.047-.55-.25-.992-.609-1.323a1.861 1.861 0 0 0-1.309-.497 1.868 1.868 0 0 0-1.288.504c-.168.159-.306.35-.413.574-.107.224-.17.471-.189.742h3.808zm7.448-1.428a3.7 3.7 0 0 0-1.526.329c-.448.21-.77.525-.966.945V11h-1.876V3.664h1.722v1.568a3.34 3.34 0 0 1 .462-.679c.177-.2.369-.376.574-.525.205-.15.413-.264.623-.343.21-.08.413-.119.609-.119h.231c.051 0 .1.005.147.014v1.708zM123.214 11l-2.702-7.336h1.932l1.862 5.81 1.876-5.81h1.764L125.244 11h-2.03zm5.712 0V3.664h1.876V11h-1.876zm0-8.358V.78h1.876v1.862h-1.876zm3.108 4.69c0-.513.089-.999.266-1.456.177-.457.434-.859.77-1.204s.742-.62 1.218-.826a4.027 4.027 0 0 1 1.61-.308c.803 0 1.486.173 2.051.518.565.345.987.798 1.267 1.358l-1.834.56a1.648 1.648 0 0 0-.63-.623 1.762 1.762 0 0 0-.868-.217c-.27 0-.523.054-.756.161a1.858 1.858 0 0 0-.609.448 2.075 2.075 0 0 0-.406.693c-.098.27-.147.57-.147.896 0 .327.051.625.154.896.103.27.24.504.413.7.173.196.376.348.609.455.233.107.48.161.742.161a1.8 1.8 0 0 0 .931-.252c.285-.168.483-.373.595-.616l1.834.56c-.252.56-.667 1.017-1.246 1.372-.579.355-1.274.532-2.086.532a4.027 4.027 0 0 1-1.61-.308 3.694 3.694 0 0 1-1.218-.833 3.696 3.696 0 0 1-.777-1.218 3.918 3.918 0 0 1-.273-1.449zM140.392 11V3.664h1.876V11h-1.876zm0-8.358V.78h1.876v1.862h-1.876zm6.958 8.498a4.027 4.027 0 0 1-1.61-.308 3.616 3.616 0 0 1-1.211-.833 3.677 3.677 0 0 1-.763-1.211 3.954 3.954 0 0 1-.266-1.442c0-.513.089-.999.266-1.456a3.68 3.68 0 0 1 .763-1.211c.331-.35.735-.628 1.211-.833a4.027 4.027 0 0 1 1.61-.308c.597 0 1.132.103 1.603.308.471.205.873.483 1.204.833.331.35.586.754.763 1.211.177.457.266.943.266 1.456 0 .504-.089.985-.266 1.442-.177.457-.43.861-.756 1.211a3.54 3.54 0 0 1-1.204.833 4.027 4.027 0 0 1-1.61.308zm-1.918-3.794c0 .327.049.623.147.889.098.266.233.497.406.693a1.787 1.787 0 0 0 1.365.616 1.787 1.787 0 0 0 1.365-.616c.173-.196.308-.43.406-.7.098-.27.147-.57.147-.896 0-.317-.049-.611-.147-.882a2.157 2.157 0 0 0-.406-.7 1.787 1.787 0 0 0-1.365-.616c-.27 0-.523.056-.756.168a1.9 1.9 0 0 0-.609.462c-.173.196-.308.43-.406.7a2.57 2.57 0 0 0-.147.882zm9.786 3.794a5.675 5.675 0 0 1-1.806-.294 4.405 4.405 0 0 1-1.512-.84l.7-1.176c.448.317.884.558 1.309.721a3.51 3.51 0 0 0 1.267.245c.373 0 .667-.07.882-.21a.676.676 0 0 0 .322-.602c0-.261-.126-.453-.378-.574-.252-.121-.663-.261-1.232-.42-.476-.13-.882-.257-1.218-.378a3.126 3.126 0 0 1-.812-.413 1.413 1.413 0 0 1-.448-.532c-.093-.2-.14-.441-.14-.721 0-.373.072-.71.217-1.008a2.2 2.2 0 0 1 .609-.763 2.82 2.82 0 0 1 .917-.483c.35-.112.73-.168 1.141-.168.55 0 1.066.08 1.547.238.48.159.922.415 1.323.77l-.756 1.134a4.393 4.393 0 0 0-1.085-.616 2.966 2.966 0 0 0-1.043-.196c-.317 0-.583.065-.798.196-.215.13-.322.34-.322.63 0 .13.026.238.077.322a.678.678 0 0 0 .245.224c.112.065.259.128.441.189.182.06.408.124.679.189.504.13.936.261 1.295.392.36.13.653.28.882.448.229.168.397.362.504.581.107.22.161.483.161.791 0 .719-.266 1.286-.798 1.701-.532.415-1.255.623-2.17.623zm-151.326 20a3.301 3.301 0 0 1-2.506-1.106 3.795 3.795 0 0 1-.721-1.211 4.225 4.225 0 0 1-.259-1.491c0-.532.082-1.027.245-1.484.163-.457.39-.859.679-1.204a3.13 3.13 0 0 1 1.036-.812c.401-.196.84-.294 1.316-.294.541 0 1.029.13 1.463.392a2.84 2.84 0 0 1 1.015 1.022V20.78h1.876v8.064c0 .196.033.336.098.42.065.084.177.13.336.14V31a4.252 4.252 0 0 1-.798.098c-.336 0-.611-.084-.826-.252a.925.925 0 0 1-.364-.658l-.042-.462c-.27.467-.637.819-1.099 1.057a3.124 3.124 0 0 1-1.449.357zm.49-1.596a1.924 1.924 0 0 0 1.064-.35c.159-.112.301-.243.427-.392.126-.15.222-.313.287-.49v-1.75a2.048 2.048 0 0 0-.315-.567 2.41 2.41 0 0 0-1.008-.749 1.552 1.552 0 0 0-.567-.112c-.28 0-.539.06-.777.182a1.845 1.845 0 0 0-.609.497 2.39 2.39 0 0 0-.392.721c-.093.27-.14.55-.14.84 0 .308.051.593.154.854.103.261.243.49.42.686a1.912 1.912 0 0 0 1.456.63zm8.904 1.596c-.588 0-1.12-.1-1.596-.301a3.66 3.66 0 0 1-1.218-.819 3.636 3.636 0 0 1-.777-1.204 3.864 3.864 0 0 1-.273-1.442c0-.523.089-1.015.266-1.477.177-.462.434-.868.77-1.218s.744-.628 1.225-.833a4.078 4.078 0 0 1 1.617-.308c.597 0 1.132.103 1.603.308.471.205.873.48 1.204.826.331.345.583.747.756 1.204a4 4 0 0 1 .259 1.428c0 .121-.002.238-.007.35a1.424 1.424 0 0 1-.035.28h-5.67c.028.29.098.546.21.77a1.903 1.903 0 0 0 1.736 1.064c.373 0 .726-.091 1.057-.273.331-.182.558-.422.679-.721l1.61.448c-.27.56-.702 1.02-1.295 1.379-.593.36-1.3.539-2.121.539zm1.904-4.424c-.047-.55-.25-.992-.609-1.323a1.861 1.861 0 0 0-1.309-.497 1.868 1.868 0 0 0-1.288.504c-.168.159-.306.35-.413.574-.107.224-.17.471-.189.742h3.808zM21.63 31v-7.336h1.876V31H21.63zm0-8.358V20.78h1.876v1.862H21.63zM32.018 31h-1.876v-4.116c0-.588-.103-1.017-.308-1.288-.205-.27-.49-.406-.854-.406-.187 0-.378.037-.574.112-.196.075-.38.18-.553.315a2.563 2.563 0 0 0-.469.483 1.91 1.91 0 0 0-.308.616V31H25.2v-7.336h1.694v1.358c.27-.467.663-.83 1.176-1.092.513-.261 1.092-.392 1.736-.392.457 0 .83.084 1.12.252.29.168.513.387.672.658.159.27.268.579.329.924.06.345.091.695.091 1.05V31zm2.016 0v-5.516h-.966v-1.428h.966v-.448c0-.915.22-1.638.658-2.17.439-.532 1.036-.798 1.792-.798.597 0 1.2.145 1.806.434l-.378 1.414a2.353 2.353 0 0 0-.497-.189 2.04 2.04 0 0 0-.525-.077c-.653 0-.98.439-.98 1.316v.518h1.792v1.428H35.91V31h-1.876zm7.756.14a4.027 4.027 0 0 1-1.61-.308 3.616 3.616 0 0 1-1.211-.833 3.677 3.677 0 0 1-.763-1.211 3.954 3.954 0 0 1-.266-1.442c0-.513.089-.999.266-1.456a3.68 3.68 0 0 1 .763-1.211c.331-.35.735-.628 1.211-.833a4.027 4.027 0 0 1 1.61-.308c.597 0 1.132.103 1.603.308.471.205.873.483 1.204.833.331.35.586.754.763 1.211.177.457.266.943.266 1.456 0 .504-.089.985-.266 1.442-.177.457-.43.861-.756 1.211a3.54 3.54 0 0 1-1.204.833 4.027 4.027 0 0 1-1.61.308zm-1.918-3.794c0 .327.049.623.147.889.098.266.233.497.406.693a1.787 1.787 0 0 0 1.365.616 1.787 1.787 0 0 0 1.365-.616c.173-.196.308-.43.406-.7.098-.27.147-.57.147-.896 0-.317-.049-.611-.147-.882a2.157 2.157 0 0 0-.406-.7 1.787 1.787 0 0 0-1.365-.616c-.27 0-.523.056-.756.168a1.9 1.9 0 0 0-.609.462c-.173.196-.308.43-.406.7a2.57 2.57 0 0 0-.147.882zm11.382-2.058a3.7 3.7 0 0 0-1.526.329c-.448.21-.77.525-.966.945V31h-1.876v-7.336h1.722v1.568a3.34 3.34 0 0 1 .462-.679c.177-.2.369-.376.574-.525.205-.15.413-.264.623-.343.21-.08.413-.119.609-.119h.231c.051 0 .1.005.147.014v1.708zM63.7 31h-1.876v-4.116c0-.588-.1-1.017-.301-1.288-.2-.27-.478-.406-.833-.406-.373 0-.723.142-1.05.427a2.35 2.35 0 0 0-.7 1.113V31h-1.876v-4.116c0-.588-.1-1.017-.301-1.288-.2-.27-.478-.406-.833-.406-.364 0-.712.14-1.043.42-.331.28-.567.649-.707 1.106V31h-1.876v-7.336h1.694v1.358a2.8 2.8 0 0 1 1.113-1.099c.471-.257 1.01-.385 1.617-.385.616 0 1.092.15 1.428.448.336.299.55.667.644 1.106a3.17 3.17 0 0 1 1.134-1.155c.457-.266.98-.399 1.568-.399.448 0 .817.084 1.106.252.29.168.513.387.672.658.159.27.268.579.329.924.06.345.091.695.091 1.05V31zm3.64.14c-.355 0-.686-.058-.994-.175a2.39 2.39 0 0 1-.798-.49 2.226 2.226 0 0 1-.714-1.659c0-.345.077-.665.231-.959a2.2 2.2 0 0 1 .644-.749 3.2 3.2 0 0 1 .987-.483 4.305 4.305 0 0 1 1.26-.175c.327 0 .646.028.959.084.313.056.59.135.833.238v-.42c0-.485-.138-.859-.413-1.12-.275-.261-.684-.392-1.225-.392-.392 0-.775.07-1.148.21-.373.14-.756.345-1.148.616l-.574-1.19c.943-.625 1.96-.938 3.052-.938 1.055 0 1.874.259 2.457.777.583.518.875 1.267.875 2.247v2.282c0 .196.035.336.105.42.07.084.184.13.343.14V31a4.177 4.177 0 0 1-.826.098c-.355 0-.628-.08-.819-.238a1.023 1.023 0 0 1-.357-.63l-.042-.406a3.24 3.24 0 0 1-1.19.98 3.417 3.417 0 0 1-1.498.336zm.532-1.372c.317 0 .618-.056.903-.168.285-.112.506-.261.665-.448.205-.159.308-.336.308-.532v-.84a4.593 4.593 0 0 0-.728-.203 3.921 3.921 0 0 0-.756-.077c-.485 0-.882.11-1.19.329-.308.22-.462.497-.462.833 0 .317.121.581.364.791.243.21.541.315.896.315zm5.04-2.436c0-.513.089-.999.266-1.456.177-.457.434-.859.77-1.204s.742-.62 1.218-.826a4.027 4.027 0 0 1 1.61-.308c.803 0 1.486.173 2.051.518.565.345.987.798 1.267 1.358l-1.834.56a1.648 1.648 0 0 0-.63-.623 1.762 1.762 0 0 0-.868-.217c-.27 0-.523.054-.756.161a1.858 1.858 0 0 0-.609.448 2.075 2.075 0 0 0-.406.693c-.098.27-.147.57-.147.896 0 .327.051.625.154.896.103.27.24.504.413.7.173.196.376.348.609.455.233.107.48.161.742.161a1.8 1.8 0 0 0 .931-.252c.285-.168.483-.373.595-.616l1.834.56c-.252.56-.667 1.017-1.246 1.372-.579.355-1.274.532-2.086.532a4.027 4.027 0 0 1-1.61-.308 3.694 3.694 0 0 1-1.218-.833 3.696 3.696 0 0 1-.777-1.218 3.918 3.918 0 0 1-.273-1.449zM81.27 31v-7.336h1.876V31H81.27zm0-8.358V20.78h1.876v1.862H81.27zm7.434.168l-1.204-.364.756-1.666h1.75l-1.302 2.03zm-.476 8.33a4.027 4.027 0 0 1-1.61-.308 3.616 3.616 0 0 1-1.211-.833 3.677 3.677 0 0 1-.763-1.211 3.954 3.954 0 0 1-.266-1.442c0-.513.089-.999.266-1.456a3.68 3.68 0 0 1 .763-1.211c.331-.35.735-.628 1.211-.833a4.027 4.027 0 0 1 1.61-.308c.597 0 1.132.103 1.603.308.471.205.873.483 1.204.833.331.35.586.754.763 1.211.177.457.266.943.266 1.456 0 .504-.089.985-.266 1.442-.177.457-.43.861-.756 1.211a3.54 3.54 0 0 1-1.204.833 4.027 4.027 0 0 1-1.61.308zm-1.918-3.794c0 .327.049.623.147.889.098.266.233.497.406.693a1.787 1.787 0 0 0 1.365.616 1.787 1.787 0 0 0 1.365-.616c.173-.196.308-.43.406-.7.098-.27.147-.57.147-.896 0-.317-.049-.611-.147-.882a2.157 2.157 0 0 0-.406-.7 1.787 1.787 0 0 0-1.365-.616c-.27 0-.523.056-.756.168a1.9 1.9 0 0 0-.609.462c-.173.196-.308.43-.406.7a2.57 2.57 0 0 0-.147.882zM100.142 31h-1.876v-4.116c0-.588-.103-1.017-.308-1.288-.205-.27-.49-.406-.854-.406-.187 0-.378.037-.574.112-.196.075-.38.18-.553.315a2.563 2.563 0 0 0-.469.483 1.91 1.91 0 0 0-.308.616V31h-1.876v-7.336h1.694v1.358c.27-.467.663-.83 1.176-1.092.513-.261 1.092-.392 1.736-.392.457 0 .83.084 1.12.252.29.168.513.387.672.658.159.27.268.579.329.924.06.345.091.695.091 1.05V31z" fill="#D9DC58"/><g transform="translate(252 1)"><mask id="b" fill="#fff"><use xlink:href="#a"/></mask><path d="M30.536 16.45c0 .442.366.8.817.8a.809.809 0 0 0 .817-.8V4.354a.809.809 0 0 0-.817-.801H6.61a.809.809 0 0 0-.816.8V16.45c0 .443.365.801.816.801a.809.809 0 0 0 .818-.8V5.154h23.108V16.45" fill="#D9DC58" mask="url(#b)"/><path d="M36.493 21.444c0 1.166-.968 2.115-2.157 2.115H3.628c-1.19 0-2.157-.949-2.157-2.115v-.694h12.857a2.594 2.594 0 0 0 2.49 1.824h4.327c1.176 0 2.172-.77 2.49-1.824h12.858v.694zM3.874 2.492a.83.83 0 0 1 .836-.82h28.543a.83.83 0 0 1 .836.82v16.817H23.026a.725.725 0 0 0-.755.72c0 .609-.505 1.104-1.126 1.104h-4.327c-.62 0-1.126-.495-1.126-1.104a.73.73 0 0 0-.752-.72H3.874V2.492zm33.354 16.817h-1.505V2.492c0-1.335-1.108-2.42-2.47-2.42H4.71c-1.362 0-2.47 1.085-2.47 2.42v16.817H.735a.728.728 0 0 0-.735.72v1.415C0 23.405 1.627 25 3.628 25h30.708c2 0 3.627-1.595 3.627-3.556V20.03a.728.728 0 0 0-.735-.721z" fill="#D9DC58" mask="url(#b)"/></g><path d="M272.753 10.442a.844.844 0 1 0-1.195-1.195l-5.31 5.311a.844.844 0 0 0 1.194 1.195l5.31-5.311m1.732 1.818l-2.224 2.224a.888.888 0 0 0 1.256 1.256l2.224-2.224a.888.888 0 0 0-1.256-1.256" fill="#D9DC58"/><g fill-rule="nonzero"><path d="M58.138 71.46l-1.97 7.19h-.104l-1.935-7.26-5.358-17.385H36.086v34.184H44V72.497l-.276-10.543h.103l8.469 26.235h7.19l8.433-26.235h.104l-.242 10.543v15.692h7.846V54.005H63.461zm52.608-14.552c-2.281-1.936-5.53-2.938-9.782-2.938H85.272v34.22h8.918V76.333h6.774c4.252 0 7.5-.968 9.782-2.87 2.281-1.9 3.422-4.631 3.422-8.088 0-3.698-1.14-6.498-3.422-8.468zm-6.913 11.752c-.899.726-2.35 1.106-4.286 1.106h-5.392V60.71h5.392c1.936 0 3.353.38 4.286 1.106.899.726 1.383 1.867 1.383 3.388 0 1.59-.45 2.73-1.383 3.456zm45.107 2.42c1.141-1.66 1.694-3.733 1.694-6.222 0-3.526-1.106-6.222-3.353-8.088-2.212-1.867-5.426-2.8-9.54-2.8h-16.314v34.22h8.745V75.676h5.323l7.293 12.478h9.85l-8.71-13.411c2.213-.76 3.872-2.005 5.012-3.664zm-8.537-2.731c-.864.691-2.247 1.037-4.148 1.037h-6.049v-8.641h6.05c1.9 0 3.283.345 4.147 1.037.864.691 1.279 1.762 1.279 3.249 0 1.52-.415 2.627-1.28 3.318zM8.918 74.294h14.068v-6.463H8.918v-6.948h17.697v-6.878H0v34.184h27.306v-6.913H8.918zm277.798-3.111c-2.004-1.659-5.392-2.903-10.127-3.767-2.454-.45-4.183-.934-5.22-1.487-1.002-.518-1.52-1.244-1.52-2.108 0-1.037.484-1.867 1.451-2.489.968-.622 2.35-.933 4.148-.933 2.143 0 3.975.415 5.53 1.21 1.418.76 2.662 1.9 3.734 3.456l4.286-4.286L290 59.604c-1.97-2.178-4.113-3.733-6.395-4.7-2.28-.969-5.08-1.452-8.295-1.452-3.042 0-5.669.483-7.88 1.417-2.213.933-3.907 2.281-5.082 3.975-1.14 1.693-1.728 3.594-1.728 5.737 0 2.143.518 3.906 1.59 5.289 1.037 1.382 2.523 2.489 4.459 3.284 1.9.795 4.355 1.52 7.293 2.108 2.385.45 4.079.933 5.115 1.417 1.003.484 1.521 1.14 1.521 1.936 0 1.002-.484 1.763-1.417 2.316-.933.518-2.385.795-4.286.795-2.385 0-4.424-.38-6.118-1.141-1.348-.622-2.592-1.59-3.698-2.869l-5.358 5.289c1.728 1.9 3.768 3.318 6.153 4.251 2.42.933 5.565 1.417 9.436 1.417 2.765 0 5.254-.415 7.431-1.244 2.178-.83 3.906-2.04 5.15-3.63 1.245-1.59 1.867-3.456 1.867-5.634 0-3.007-1.037-5.323-3.042-6.982zm-50.845-9.851c.968-.622 2.35-.933 4.148-.933 2.143 0 3.975.415 5.53 1.21 1.418.76 2.662 1.9 3.733 3.422l4.598-4.597.725-.83c-1.97-2.178-4.113-3.733-6.394-4.7-2.281-.969-5.081-1.452-8.296-1.452-3.041 0-5.668.483-7.915 1.417-2.212.933-3.906 2.281-5.081 3.975-1.14 1.693-1.728 3.594-1.728 5.737 0 2.143.518 3.906 1.59 5.289 1.037 1.382 2.523 2.489 4.459 3.284 1.9.795 4.355 1.52 7.258 2.108 2.385.45 4.079.933 5.116 1.417 1.002.484 1.52 1.14 1.52 1.936 0 1.002-.483 1.763-1.416 2.316-.934.518-2.385.795-4.287.795-2.385 0-4.424-.38-6.118-1.141-1.348-.622-2.592-1.59-3.733-2.903l-5.323 5.323c1.729 1.9 3.803 3.352 6.153 4.286 2.42.933 5.565 1.417 9.436 1.417 2.765 0 5.254-.415 7.432-1.245 2.177-.83 3.906-2.039 5.15-3.629 1.244-1.59 1.866-3.456 1.866-5.634 0-3.007-1.002-5.323-3.041-6.982-2.005-1.66-5.392-2.904-10.128-3.768-2.454-.449-4.182-.933-5.22-1.486-1.002-.518-1.52-1.244-1.52-2.108.035-1.072.518-1.902 1.486-2.524z" fill="#FFF"/><path fill="#DCE442" d="M158.239 41.18h59.659v59.798h-59.66z"/><path d="M163.893 71.077l24.172-24.171 5.181 5.181-24.171 24.172zm9.515 9.497l14.494-14.493 5.181 5.181-14.493 14.494zm9.505 9.493l24.171-24.172 5.182 5.182-24.172 24.171z" fill="#00758D"/></g></g></svg>