<?xml version="1.0" encoding="UTF-8" standalone="no"?>
<svg width="290px" height="101px" viewBox="0 0 290 101" version="1.1" xmlns="http://www.w3.org/2000/svg" xmlns:xlink="http://www.w3.org/1999/xlink">
    <!-- Generator: Sketch 46 (44423) - http://www.bohemiancoding.com/sketch -->
    <title>Elementos portada movil</title>
    <desc>Created with Sketch.</desc>
    <defs>
        <polygon id="path-1" points="0.00444881622 25 0.00444881622 0.0710755814 37.9631576 0.0710755814 37.9631576 25"></polygon>
    </defs>
    <g id="Empress" stroke="none" stroke-width="1" fill="none" fill-rule="evenodd">
        <g id="Home_Mobile" transform="translate(-15.000000, -84.000000)">
            <g id="Elementos-portada-movil" transform="translate(15.000000, 84.000000)">
                <path d="M3.864,1.06 L5.572,1.06 L9.352,11 L7.364,11 L6.44,8.522 L2.968,8.522 L2.058,11 L0.07,11 L3.864,1.06 Z M6.09,7.164 L4.718,3.258 L3.29,7.164 L6.09,7.164 Z M14.658,11.14 C14.0793304,11.14 13.5753355,11.011668 13.146,10.755 C12.7166645,10.4983321 12.3806679,10.1506689 12.138,9.712 L12.138,13.982 L10.262,13.982 L10.262,3.664 L11.9,3.664 L11.9,4.924 C12.170668,4.49466452 12.5206645,4.15633457 12.95,3.909 C13.3793355,3.66166543 13.8739972,3.538 14.434,3.538 C14.9286691,3.538 15.3859979,3.63833233 15.806,3.839 C16.2260021,4.03966767 16.5876651,4.31033163 16.891,4.651 C17.1943348,4.99166837 17.4323325,5.39299769 17.605,5.855 C17.7776675,6.31700231 17.864,6.8046641 17.864,7.318 C17.864,7.85000266 17.7846675,8.349331 17.626,8.816 C17.4673325,9.282669 17.2456681,9.68866494 16.961,10.034 C16.6763319,10.3793351 16.338002,10.649999 15.946,10.846 C15.553998,11.042001 15.124669,11.14 14.658,11.14 Z M14.028,9.544 C14.3080014,9.544 14.5669988,9.48333394 14.805,9.362 C15.0430012,9.24066606 15.2459992,9.07733436 15.414,8.872 C15.5820008,8.66666564 15.7126662,8.42866802 15.806,8.158 C15.8993338,7.88733198 15.946,7.60733478 15.946,7.318 C15.946,7.00999846 15.8946672,6.72300133 15.792,6.457 C15.6893328,6.19099867 15.5470009,5.96000098 15.365,5.764 C15.1829991,5.56799902 14.9683346,5.41400056 14.721,5.302 C14.4736654,5.18999944 14.2053348,5.134 13.916,5.134 C13.7386658,5.134 13.5566676,5.16433303 13.37,5.225 C13.1833324,5.28566697 13.0106675,5.37199944 12.852,5.484 C12.6933325,5.59600056 12.5510006,5.72666592 12.425,5.876 C12.2989994,6.02533408 12.2033337,6.18866578 12.138,6.366 L12.138,8.088 C12.3060008,8.5080021 12.5626649,8.85566529 12.908,9.131 C13.2533351,9.40633471 13.6266647,9.544 14.028,9.544 Z M19.124,0.78 L21,0.78 L21,8.648 C21,8.91866802 21.0653327,9.12866592 21.196,9.278 C21.3266673,9.42733408 21.5133321,9.502 21.756,9.502 C21.8680006,9.502 21.991666,9.48333352 22.127,9.446 C22.262334,9.40866648 22.3906661,9.36200028 22.512,9.306 L22.764,10.734 C22.5119987,10.8553339 22.2180017,10.9486663 21.882,11.014 C21.5459983,11.0793337 21.242668,11.112 20.972,11.112 C20.3839971,11.112 19.9290016,10.9556682 19.607,10.643 C19.2849984,10.3303318 19.124,9.88466956 19.124,9.306 L19.124,0.78 Z M23.576,11 L23.576,3.664 L25.452,3.664 L25.452,11 L23.576,11 Z M23.576,2.642 L23.576,0.78 L25.452,0.78 L25.452,2.642 L23.576,2.642 Z M26.684,7.332 C26.684,6.8186641 26.7726658,6.33333562 26.95,5.876 C27.1273342,5.41866438 27.3839983,5.01733506 27.72,4.672 C28.0560017,4.32666494 28.4619976,4.05133436 28.938,3.846 C29.4140024,3.64066564 29.9506637,3.538 30.548,3.538 C31.3506707,3.538 32.0343305,3.71066494 32.599,4.056 C33.1636695,4.40133506 33.5859986,4.8539972 33.866,5.414 L32.032,5.974 C31.8733325,5.70333198 31.6633346,5.49566739 31.402,5.351 C31.1406654,5.20633261 30.8513349,5.134 30.534,5.134 C30.263332,5.134 30.0113345,5.18766613 29.778,5.295 C29.5446655,5.40233387 29.3416675,5.55166571 29.169,5.743 C28.9963325,5.93433429 28.8610005,6.16533198 28.763,6.436 C28.6649995,6.70666802 28.616,7.0053317 28.616,7.332 C28.616,7.6586683 28.6673328,7.95733198 28.77,8.228 C28.8726672,8.49866802 29.0103325,8.73199902 29.183,8.928 C29.3556675,9.12400098 29.5586655,9.27566613 29.792,9.383 C30.0253345,9.49033387 30.2726654,9.544 30.534,9.544 C30.8700017,9.544 31.1803319,9.46000084 31.465,9.292 C31.7496681,9.12399916 31.9479994,8.91866788 32.06,8.676 L33.894,9.236 C33.6419987,9.7960028 33.2266696,10.2533316 32.648,10.608 C32.0693304,10.9626684 31.3740041,11.14 30.562,11.14 C29.9646637,11.14 29.4280024,11.0373344 28.952,10.832 C28.4759976,10.6266656 28.0700017,10.3490018 27.734,9.999 C27.3979983,9.64899825 27.1390009,9.24300231 26.957,8.781 C26.7749991,8.31899769 26.684,7.83600252 26.684,7.332 Z M37.044,11.14 C36.6893316,11.14 36.3580015,11.0816673 36.05,10.965 C35.7419985,10.8483328 35.4760011,10.6850011 35.252,10.475 C35.0279989,10.264999 34.8530006,10.0200014 34.727,9.74 C34.6009994,9.4599986 34.538,9.15200168 34.538,8.816 C34.538,8.47066494 34.6149992,8.15100147 34.769,7.857 C34.9230008,7.56299853 35.1376653,7.31333436 35.413,7.108 C35.6883347,6.90266564 36.0173314,6.74166725 36.4,6.625 C36.7826686,6.50833275 37.2026644,6.45 37.66,6.45 C37.9866683,6.45 38.3063318,6.47799972 38.619,6.534 C38.9316682,6.59000028 39.2093321,6.66933282 39.452,6.772 L39.452,6.352 C39.452,5.86666424 39.3143347,5.49333464 39.039,5.232 C38.7636653,4.97066536 38.355336,4.84 37.814,4.84 C37.421998,4.84 37.0393352,4.9099993 36.666,5.05 C36.2926648,5.1900007 35.910002,5.39533198 35.518,5.666 L34.944,4.476 C35.8866714,3.85066354 36.9039945,3.538 37.996,3.538 C39.0506719,3.538 39.8696637,3.79699741 40.453,4.315 C41.0363362,4.83300259 41.328,5.5819951 41.328,6.562 L41.328,8.844 C41.328,9.04000098 41.3629996,9.17999958 41.433,9.264 C41.5030003,9.34800042 41.6173325,9.39466662 41.776,9.404 L41.776,11 C41.4586651,11.0653337 41.1833345,11.098 40.95,11.098 C40.5953316,11.098 40.3223343,11.0186675 40.131,10.86 C39.9396657,10.7013325 39.8206669,10.4913346 39.774,10.23 L39.732,9.824 C39.4053317,10.2533355 39.008669,10.5799989 38.542,10.804 C38.075331,11.0280011 37.5760027,11.14 37.044,11.14 Z M37.576,9.768 C37.8933349,9.768 38.1943319,9.71200056 38.479,9.6 C38.7636681,9.48799944 38.9853325,9.3386676 39.144,9.152 C39.3493344,8.99333254 39.452,8.81600098 39.452,8.62 L39.452,7.78 C39.2279989,7.69599958 38.9853346,7.62833359 38.724,7.577 C38.4626654,7.52566641 38.2106679,7.5 37.968,7.5 C37.4826642,7.5 37.0860015,7.60966557 36.778,7.829 C36.4699985,8.04833443 36.316,8.32599832 36.316,8.662 C36.316,8.97933492 36.4373321,9.24299895 36.68,9.453 C36.9226679,9.66300105 37.2213316,9.768 37.576,9.768 Z M42.616,7.332 C42.616,6.8186641 42.7046658,6.33333562 42.882,5.876 C43.0593342,5.41866438 43.3159983,5.01733506 43.652,4.672 C43.9880017,4.32666494 44.3939976,4.05133436 44.87,3.846 C45.3460024,3.64066564 45.8826637,3.538 46.48,3.538 C47.2826707,3.538 47.9663305,3.71066494 48.531,4.056 C49.0956695,4.40133506 49.5179986,4.8539972 49.798,5.414 L47.964,5.974 C47.8053325,5.70333198 47.5953346,5.49566739 47.334,5.351 C47.0726654,5.20633261 46.7833349,5.134 46.466,5.134 C46.195332,5.134 45.9433345,5.18766613 45.71,5.295 C45.4766655,5.40233387 45.2736675,5.55166571 45.101,5.743 C44.9283325,5.93433429 44.7930005,6.16533198 44.695,6.436 C44.5969995,6.70666802 44.548,7.0053317 44.548,7.332 C44.548,7.6586683 44.5993328,7.95733198 44.702,8.228 C44.8046672,8.49866802 44.9423325,8.73199902 45.115,8.928 C45.2876675,9.12400098 45.4906655,9.27566613 45.724,9.383 C45.9573345,9.49033387 46.2046654,9.544 46.466,9.544 C46.8020017,9.544 47.1123319,9.46000084 47.397,9.292 C47.6816681,9.12399916 47.8799994,8.91866788 47.992,8.676 L49.826,9.236 C49.5739987,9.7960028 49.1586696,10.2533316 48.58,10.608 C48.0013304,10.9626684 47.3060041,11.14 46.494,11.14 C45.8966637,11.14 45.3600024,11.0373344 44.884,10.832 C44.4079976,10.6266656 44.0020017,10.3490018 43.666,9.999 C43.3299983,9.64899825 43.0710009,9.24300231 42.889,8.781 C42.7069991,8.31899769 42.616,7.83600252 42.616,7.332 Z M50.974,11 L50.974,3.664 L52.85,3.664 L52.85,11 L50.974,11 Z M50.974,2.642 L50.974,0.78 L52.85,0.78 L52.85,2.642 L50.974,2.642 Z M57.932,11.14 C57.3346637,11.14 56.7980024,11.0373344 56.322,10.832 C55.8459976,10.6266656 55.442335,10.3490018 55.111,9.999 C54.779665,9.64899825 54.5253342,9.24533562 54.348,8.788 C54.1706658,8.33066438 54.082,7.85000252 54.082,7.346 C54.082,6.8326641 54.1706658,6.34733562 54.348,5.89 C54.5253342,5.43266438 54.779665,5.02900175 55.111,4.679 C55.442335,4.32899825 55.8459976,4.05133436 56.322,3.846 C56.7980024,3.64066564 57.3346637,3.538 57.932,3.538 C58.5293363,3.538 59.0636643,3.64066564 59.535,3.846 C60.0063357,4.05133436 60.407665,4.32899825 60.739,4.679 C61.070335,5.02900175 61.3246658,5.43266438 61.502,5.89 C61.6793342,6.34733562 61.768,6.8326641 61.768,7.346 C61.768,7.85000252 61.6793342,8.33066438 61.502,8.788 C61.3246658,9.24533562 61.0726683,9.64899825 60.746,9.999 C60.4193317,10.3490018 60.0180024,10.6266656 59.542,10.832 C59.0659976,11.0373344 58.5293363,11.14 57.932,11.14 Z M56.014,7.346 C56.014,7.6726683 56.0629995,7.96899867 56.161,8.235 C56.2590005,8.50100133 56.3943325,8.73199902 56.567,8.928 C56.7396675,9.12400098 56.9426655,9.27566613 57.176,9.383 C57.4093345,9.49033387 57.661332,9.544 57.932,9.544 C58.202668,9.544 58.4546655,9.49033387 58.688,9.383 C58.9213345,9.27566613 59.1243325,9.12400098 59.297,8.928 C59.4696675,8.73199902 59.6049995,8.49866802 59.703,8.228 C59.8010005,7.95733198 59.85,7.6586683 59.85,7.332 C59.85,7.01466508 59.8010005,6.72066802 59.703,6.45 C59.6049995,6.17933198 59.4696675,5.94600098 59.297,5.75 C59.1243325,5.55399902 58.9213345,5.40233387 58.688,5.295 C58.4546655,5.18766613 58.202668,5.134 57.932,5.134 C57.661332,5.134 57.4093345,5.18999944 57.176,5.302 C56.9426655,5.41400056 56.7396675,5.56799902 56.567,5.764 C56.3943325,5.96000098 56.2590005,6.19333198 56.161,6.464 C56.0629995,6.73466802 56.014,7.02866508 56.014,7.346 Z M69.846,11 L67.97,11 L67.97,6.884 C67.97,6.29599706 67.8673344,5.86666802 67.662,5.596 C67.4566656,5.32533198 67.1720018,5.19 66.808,5.19 C66.6213324,5.19 66.430001,5.22733296 66.234,5.302 C66.037999,5.37666704 65.8536675,5.48166599 65.681,5.617 C65.5083325,5.75233401 65.3520007,5.9133324 65.212,6.1 C65.0719993,6.2866676 64.9693337,6.49199888 64.904,6.716 L64.904,11 L63.028,11 L63.028,3.664 L64.722,3.664 L64.722,5.022 C64.992668,4.555331 65.3846641,4.19133464 65.898,3.93 C66.4113359,3.66866536 66.9899968,3.538 67.634,3.538 C68.0913356,3.538 68.4646652,3.62199916 68.754,3.79 C69.0433348,3.95800084 69.2673325,4.17733198 69.426,4.448 C69.5846675,4.71866802 69.694333,5.02666494 69.755,5.372 C69.815667,5.71733506 69.846,6.06733156 69.846,6.422 L69.846,11 Z M74.886,11.14 C74.2979971,11.14 73.7660024,11.0396677 73.29,10.839 C72.8139976,10.6383323 72.4080017,10.3653351 72.072,10.02 C71.7359983,9.67466494 71.4770009,9.27333562 71.295,8.816 C71.1129991,8.35866438 71.022,7.87800252 71.022,7.374 C71.022,6.85133072 71.1106658,6.35900231 71.288,5.897 C71.4653342,5.43499769 71.7219983,5.02900175 72.058,4.679 C72.3940017,4.32899825 72.8023309,4.05133436 73.283,3.846 C73.7636691,3.64066564 74.3026637,3.538 74.9,3.538 C75.4973363,3.538 76.0316643,3.64066564 76.503,3.846 C76.9743357,4.05133436 77.375665,4.32666494 77.707,4.672 C78.038335,5.01733506 78.2903325,5.41866438 78.463,5.876 C78.6356675,6.33333562 78.722,6.80933086 78.722,7.304 C78.722,7.42533394 78.7196667,7.54199944 78.715,7.654 C78.7103333,7.76600056 78.6986668,7.85933296 78.68,7.934 L73.01,7.934 C73.0380001,8.22333478 73.1079994,8.47999888 73.22,8.704 C73.3320006,8.92800112 73.4766658,9.11933254 73.654,9.278 C73.8313342,9.43666746 74.0319989,9.55799958 74.256,9.642 C74.4800011,9.72600042 74.7133321,9.768 74.956,9.768 C75.3293352,9.768 75.681665,9.67700091 76.013,9.495 C76.344335,9.31299909 76.5706661,9.07266816 76.692,8.774 L78.302,9.222 C78.031332,9.7820028 77.5996696,10.2416649 77.007,10.601 C76.4143304,10.9603351 75.7073374,11.14 74.886,11.14 Z M76.79,6.716 C76.7433331,6.16533058 76.5403351,5.72433499 76.181,5.393 C75.8216649,5.06166501 75.3853359,4.896 74.872,4.896 C74.6199987,4.896 74.3843344,4.94033289 74.165,5.029 C73.9456656,5.11766711 73.7520008,5.24133254 73.584,5.4 C73.4159992,5.55866746 73.2783339,5.74999888 73.171,5.974 C73.0636661,6.19800112 73.0006668,6.44533198 72.982,6.716 L76.79,6.716 Z M82.642,11.14 C82.0259969,11.14 81.4240029,11.042001 80.836,10.846 C80.2479971,10.649999 79.7440021,10.3700018 79.324,10.006 L80.024,8.83 C80.4720022,9.14733492 80.9083312,9.38766585 81.333,9.551 C81.7576688,9.71433415 82.1799979,9.796 82.6,9.796 C82.9733352,9.796 83.2673323,9.7260007 83.482,9.586 C83.6966677,9.4459993 83.804,9.24533464 83.804,8.984 C83.804,8.72266536 83.6780013,8.53133394 83.426,8.41 C83.1739987,8.28866606 82.7633362,8.14866746 82.194,7.99 C81.7179976,7.85933268 81.3120017,7.73333394 80.976,7.612 C80.6399983,7.49066606 80.3693344,7.35300077 80.164,7.199 C79.9586656,7.04499923 79.8093338,6.86766767 79.716,6.667 C79.6226662,6.46633233 79.576,6.2260014 79.576,5.946 C79.576,5.5726648 79.6483326,5.23666816 79.793,4.938 C79.9376674,4.63933184 80.1406654,4.38500105 80.402,4.175 C80.6633346,3.96499895 80.9689982,3.80400056 81.319,3.692 C81.6690017,3.57999944 82.0493313,3.524 82.46,3.524 C83.0106694,3.524 83.5263309,3.60333254 84.007,3.762 C84.4876691,3.92066746 84.9286647,4.17733156 85.33,4.532 L84.574,5.666 C84.2006648,5.3859986 83.8390017,5.18066732 83.489,5.05 C83.1389982,4.91933268 82.7913351,4.854 82.446,4.854 C82.1286651,4.854 81.8626677,4.91933268 81.648,5.05 C81.4333323,5.18066732 81.326,5.39066522 81.326,5.68 C81.326,5.81066732 81.3516664,5.91799958 81.403,6.002 C81.4543336,6.08600042 81.5359994,6.16066634 81.648,6.226 C81.7600006,6.29133366 81.9069991,6.35433303 82.089,6.415 C82.2710009,6.47566697 82.497332,6.53866634 82.768,6.604 C83.2720025,6.73466732 83.7036649,6.86533268 84.063,6.996 C84.4223351,7.12666732 84.7163322,7.27599916 84.945,7.444 C85.1736678,7.61200084 85.3416661,7.80566557 85.449,8.025 C85.5563339,8.24433443 85.61,8.50799846 85.61,8.816 C85.61,9.53467026 85.3440027,10.1016646 84.812,10.517 C84.2799973,10.9323354 83.5566712,11.14 82.642,11.14 Z M89.95,12.428 C90.1086675,12.4746669 90.2626659,12.5096666 90.412,12.533 C90.5613341,12.5563335 90.6873328,12.568 90.79,12.568 C90.9113339,12.568 91.0233328,12.5446669 91.126,12.498 C91.2286672,12.4513331 91.3219996,12.3696673 91.406,12.253 C91.4900004,12.1363328 91.5739996,11.9753344 91.658,11.77 C91.7420004,11.5646656 91.8306662,11.3080015 91.924,11 L89.026,3.664 L90.958,3.664 L92.946,9.376 L94.71,3.664 L96.474,3.664 L93.394,12.456 C93.2166658,12.9693359 92.9133355,13.3893317 92.484,13.716 C92.0546645,14.0426683 91.5226698,14.206 90.888,14.206 C90.7386659,14.206 90.5870008,14.1943335 90.433,14.171 C90.2789992,14.1476666 90.1180008,14.1080003 89.95,14.052 L89.95,12.428 Z M103.25,11.14 C102.633997,11.14 102.032003,11.042001 101.444,10.846 C100.855997,10.649999 100.352002,10.3700018 99.932,10.006 L100.632,8.83 C101.080002,9.14733492 101.516331,9.38766585 101.941,9.551 C102.365669,9.71433415 102.787998,9.796 103.208,9.796 C103.581335,9.796 103.875332,9.7260007 104.09,9.586 C104.304668,9.4459993 104.412,9.24533464 104.412,8.984 C104.412,8.72266536 104.286001,8.53133394 104.034,8.41 C103.781999,8.28866606 103.371336,8.14866746 102.802,7.99 C102.325998,7.85933268 101.920002,7.73333394 101.584,7.612 C101.247998,7.49066606 100.977334,7.35300077 100.772,7.199 C100.566666,7.04499923 100.417334,6.86766767 100.324,6.667 C100.230666,6.46633233 100.184,6.2260014 100.184,5.946 C100.184,5.5726648 100.256333,5.23666816 100.401,4.938 C100.545667,4.63933184 100.748665,4.38500105 101.01,4.175 C101.271335,3.96499895 101.576998,3.80400056 101.927,3.692 C102.277002,3.57999944 102.657331,3.524 103.068,3.524 C103.618669,3.524 104.134331,3.60333254 104.615,3.762 C105.095669,3.92066746 105.536665,4.17733156 105.938,4.532 L105.182,5.666 C104.808665,5.3859986 104.447002,5.18066732 104.097,5.05 C103.746998,4.91933268 103.399335,4.854 103.054,4.854 C102.736665,4.854 102.470668,4.91933268 102.256,5.05 C102.041332,5.18066732 101.934,5.39066522 101.934,5.68 C101.934,5.81066732 101.959666,5.91799958 102.011,6.002 C102.062334,6.08600042 102.143999,6.16066634 102.256,6.226 C102.368001,6.29133366 102.514999,6.35433303 102.697,6.415 C102.879001,6.47566697 103.105332,6.53866634 103.376,6.604 C103.880003,6.73466732 104.311665,6.86533268 104.671,6.996 C105.030335,7.12666732 105.324332,7.27599916 105.553,7.444 C105.781668,7.61200084 105.949666,7.80566557 106.057,8.025 C106.164334,8.24433443 106.218,8.50799846 106.218,8.816 C106.218,9.53467026 105.952003,10.1016646 105.42,10.517 C104.887997,10.9323354 104.164671,11.14 103.25,11.14 Z M110.838,11.14 C110.249997,11.14 109.718002,11.0396677 109.242,10.839 C108.765998,10.6383323 108.360002,10.3653351 108.024,10.02 C107.687998,9.67466494 107.429001,9.27333562 107.247,8.816 C107.064999,8.35866438 106.974,7.87800252 106.974,7.374 C106.974,6.85133072 107.062666,6.35900231 107.24,5.897 C107.417334,5.43499769 107.673998,5.02900175 108.01,4.679 C108.346002,4.32899825 108.754331,4.05133436 109.235,3.846 C109.715669,3.64066564 110.254664,3.538 110.852,3.538 C111.449336,3.538 111.983664,3.64066564 112.455,3.846 C112.926336,4.05133436 113.327665,4.32666494 113.659,4.672 C113.990335,5.01733506 114.242332,5.41866438 114.415,5.876 C114.587668,6.33333562 114.674,6.80933086 114.674,7.304 C114.674,7.42533394 114.671667,7.54199944 114.667,7.654 C114.662333,7.76600056 114.650667,7.85933296 114.632,7.934 L108.962,7.934 C108.99,8.22333478 109.059999,8.47999888 109.172,8.704 C109.284001,8.92800112 109.428666,9.11933254 109.606,9.278 C109.783334,9.43666746 109.983999,9.55799958 110.208,9.642 C110.432001,9.72600042 110.665332,9.768 110.908,9.768 C111.281335,9.768 111.633665,9.67700091 111.965,9.495 C112.296335,9.31299909 112.522666,9.07266816 112.644,8.774 L114.254,9.222 C113.983332,9.7820028 113.55167,10.2416649 112.959,10.601 C112.36633,10.9603351 111.659337,11.14 110.838,11.14 Z M112.742,6.716 C112.695333,6.16533058 112.492335,5.72433499 112.133,5.393 C111.773665,5.06166501 111.337336,4.896 110.824,4.896 C110.571999,4.896 110.336334,4.94033289 110.117,5.029 C109.897666,5.11766711 109.704001,5.24133254 109.536,5.4 C109.367999,5.55866746 109.230334,5.74999888 109.123,5.974 C109.015666,6.19800112 108.952667,6.44533198 108.934,6.716 L112.742,6.716 Z M120.19,5.288 C119.620664,5.29733338 119.112002,5.40699895 118.664,5.617 C118.215998,5.82700105 117.894001,6.1419979 117.698,6.562 L117.698,11 L115.822,11 L115.822,3.664 L117.544,3.664 L117.544,5.232 C117.674667,4.97999874 117.828666,4.75366767 118.006,4.553 C118.183334,4.35233233 118.374666,4.17733408 118.58,4.028 C118.785334,3.87866592 118.992999,3.76433373 119.203,3.685 C119.413001,3.60566627 119.615999,3.566 119.812,3.566 L120.043,3.566 C120.094334,3.566 120.143333,3.57066662 120.19,3.58 L120.19,5.288 Z M123.214,11 L120.512,3.664 L122.444,3.664 L124.306,9.474 L126.182,3.664 L127.946,3.664 L125.244,11 L123.214,11 Z M128.926,11 L128.926,3.664 L130.802,3.664 L130.802,11 L128.926,11 Z M128.926,2.642 L128.926,0.78 L130.802,0.78 L130.802,2.642 L128.926,2.642 Z M132.034,7.332 C132.034,6.8186641 132.122666,6.33333562 132.3,5.876 C132.477334,5.41866438 132.733998,5.01733506 133.07,4.672 C133.406002,4.32666494 133.811998,4.05133436 134.288,3.846 C134.764002,3.64066564 135.300664,3.538 135.898,3.538 C136.700671,3.538 137.384331,3.71066494 137.949,4.056 C138.513669,4.40133506 138.935999,4.8539972 139.216,5.414 L137.382,5.974 C137.223333,5.70333198 137.013335,5.49566739 136.752,5.351 C136.490665,5.20633261 136.201335,5.134 135.884,5.134 C135.613332,5.134 135.361334,5.18766613 135.128,5.295 C134.894665,5.40233387 134.691668,5.55166571 134.519,5.743 C134.346332,5.93433429 134.211,6.16533198 134.113,6.436 C134.015,6.70666802 133.966,7.0053317 133.966,7.332 C133.966,7.6586683 134.017333,7.95733198 134.12,8.228 C134.222667,8.49866802 134.360332,8.73199902 134.533,8.928 C134.705668,9.12400098 134.908666,9.27566613 135.142,9.383 C135.375335,9.49033387 135.622665,9.544 135.884,9.544 C136.220002,9.544 136.530332,9.46000084 136.815,9.292 C137.099668,9.12399916 137.297999,8.91866788 137.41,8.676 L139.244,9.236 C138.991999,9.7960028 138.57667,10.2533316 137.998,10.608 C137.41933,10.9626684 136.724004,11.14 135.912,11.14 C135.314664,11.14 134.778002,11.0373344 134.302,10.832 C133.825998,10.6266656 133.420002,10.3490018 133.084,9.999 C132.747998,9.64899825 132.489001,9.24300231 132.307,8.781 C132.124999,8.31899769 132.034,7.83600252 132.034,7.332 Z M140.392,11 L140.392,3.664 L142.268,3.664 L142.268,11 L140.392,11 Z M140.392,2.642 L140.392,0.78 L142.268,0.78 L142.268,2.642 L140.392,2.642 Z M147.35,11.14 C146.752664,11.14 146.216002,11.0373344 145.74,10.832 C145.263998,10.6266656 144.860335,10.3490018 144.529,9.999 C144.197665,9.64899825 143.943334,9.24533562 143.766,8.788 C143.588666,8.33066438 143.5,7.85000252 143.5,7.346 C143.5,6.8326641 143.588666,6.34733562 143.766,5.89 C143.943334,5.43266438 144.197665,5.02900175 144.529,4.679 C144.860335,4.32899825 145.263998,4.05133436 145.74,3.846 C146.216002,3.64066564 146.752664,3.538 147.35,3.538 C147.947336,3.538 148.481664,3.64066564 148.953,3.846 C149.424336,4.05133436 149.825665,4.32899825 150.157,4.679 C150.488335,5.02900175 150.742666,5.43266438 150.92,5.89 C151.097334,6.34733562 151.186,6.8326641 151.186,7.346 C151.186,7.85000252 151.097334,8.33066438 150.92,8.788 C150.742666,9.24533562 150.490668,9.64899825 150.164,9.999 C149.837332,10.3490018 149.436002,10.6266656 148.96,10.832 C148.483998,11.0373344 147.947336,11.14 147.35,11.14 Z M145.432,7.346 C145.432,7.6726683 145.481,7.96899867 145.579,8.235 C145.677,8.50100133 145.812332,8.73199902 145.985,8.928 C146.157668,9.12400098 146.360665,9.27566613 146.594,9.383 C146.827334,9.49033387 147.079332,9.544 147.35,9.544 C147.620668,9.544 147.872665,9.49033387 148.106,9.383 C148.339334,9.27566613 148.542332,9.12400098 148.715,8.928 C148.887668,8.73199902 149.023,8.49866802 149.121,8.228 C149.219,7.95733198 149.268,7.6586683 149.268,7.332 C149.268,7.01466508 149.219,6.72066802 149.121,6.45 C149.023,6.17933198 148.887668,5.94600098 148.715,5.75 C148.542332,5.55399902 148.339334,5.40233387 148.106,5.295 C147.872665,5.18766613 147.620668,5.134 147.35,5.134 C147.079332,5.134 146.827334,5.18999944 146.594,5.302 C146.360665,5.41400056 146.157668,5.56799902 145.985,5.764 C145.812332,5.96000098 145.677,6.19333198 145.579,6.464 C145.481,6.73466802 145.432,7.02866508 145.432,7.346 Z M155.218,11.14 C154.601997,11.14 154.000003,11.042001 153.412,10.846 C152.823997,10.649999 152.320002,10.3700018 151.9,10.006 L152.6,8.83 C153.048002,9.14733492 153.484331,9.38766585 153.909,9.551 C154.333669,9.71433415 154.755998,9.796 155.176,9.796 C155.549335,9.796 155.843332,9.7260007 156.058,9.586 C156.272668,9.4459993 156.38,9.24533464 156.38,8.984 C156.38,8.72266536 156.254001,8.53133394 156.002,8.41 C155.749999,8.28866606 155.339336,8.14866746 154.77,7.99 C154.293998,7.85933268 153.888002,7.73333394 153.552,7.612 C153.215998,7.49066606 152.945334,7.35300077 152.74,7.199 C152.534666,7.04499923 152.385334,6.86766767 152.292,6.667 C152.198666,6.46633233 152.152,6.2260014 152.152,5.946 C152.152,5.5726648 152.224333,5.23666816 152.369,4.938 C152.513667,4.63933184 152.716665,4.38500105 152.978,4.175 C153.239335,3.96499895 153.544998,3.80400056 153.895,3.692 C154.245002,3.57999944 154.625331,3.524 155.036,3.524 C155.586669,3.524 156.102331,3.60333254 156.583,3.762 C157.063669,3.92066746 157.504665,4.17733156 157.906,4.532 L157.15,5.666 C156.776665,5.3859986 156.415002,5.18066732 156.065,5.05 C155.714998,4.91933268 155.367335,4.854 155.022,4.854 C154.704665,4.854 154.438668,4.91933268 154.224,5.05 C154.009332,5.18066732 153.902,5.39066522 153.902,5.68 C153.902,5.81066732 153.927666,5.91799958 153.979,6.002 C154.030334,6.08600042 154.111999,6.16066634 154.224,6.226 C154.336001,6.29133366 154.482999,6.35433303 154.665,6.415 C154.847001,6.47566697 155.073332,6.53866634 155.344,6.604 C155.848003,6.73466732 156.279665,6.86533268 156.639,6.996 C156.998335,7.12666732 157.292332,7.27599916 157.521,7.444 C157.749668,7.61200084 157.917666,7.80566557 158.025,8.025 C158.132334,8.24433443 158.186,8.50799846 158.186,8.816 C158.186,9.53467026 157.920003,10.1016646 157.388,10.517 C156.855997,10.9323354 156.132671,11.14 155.218,11.14 Z M3.892,31.14 C3.38799748,31.14 2.92133548,31.042001 2.492,30.846 C2.06266452,30.649999 1.69400154,30.3793351 1.386,30.034 C1.07799846,29.6886649 0.83766753,29.2850023 0.665,28.823 C0.49233247,28.3609977 0.406,27.8640027 0.406,27.332 C0.406,26.7999973 0.48766585,26.3053356 0.651,25.848 C0.81433415,25.3906644 1.04066522,24.9893351 1.33,24.644 C1.61933478,24.2986649 1.96466466,24.028001 2.366,23.832 C2.76733534,23.635999 3.20599762,23.538 3.682,23.538 C4.22333604,23.538 4.71099783,23.6686654 5.145,23.93 C5.57900217,24.1913346 5.91733212,24.5319979 6.16,24.952 L6.16,20.78 L8.036,20.78 L8.036,28.844 C8.036,29.040001 8.06866634,29.1799996 8.134,29.264 C8.19933366,29.3480004 8.31133254,29.3946666 8.47,29.404 L8.47,31 C8.1433317,31.0653337 7.87733436,31.098 7.672,31.098 C7.33599832,31.098 7.06066774,31.0140008 6.846,30.846 C6.63133226,30.6779992 6.51000014,30.458668 6.482,30.188 L6.44,29.726 C6.16933198,30.192669 5.80300231,30.5449988 5.341,30.783 C4.87899769,31.0210012 4.39600252,31.14 3.892,31.14 Z M4.382,29.544 C4.55933422,29.544 4.7413324,29.513667 4.928,29.453 C5.1146676,29.392333 5.28733254,29.3060006 5.446,29.194 C5.60466746,29.0819994 5.74699937,28.9513341 5.873,28.802 C5.99900063,28.6526659 6.09466634,28.4893342 6.16,28.312 L6.16,26.562 C6.08533296,26.3566656 5.98033401,26.1676675 5.845,25.995 C5.70966599,25.8223325 5.55566753,25.6730006 5.383,25.547 C5.21033247,25.4209994 5.02833429,25.320667 4.837,25.246 C4.64566571,25.171333 4.4566676,25.134 4.27,25.134 C3.9899986,25.134 3.73100119,25.1946661 3.493,25.316 C3.25499881,25.4373339 3.05200084,25.602999 2.884,25.813 C2.71599916,26.0230011 2.5853338,26.263332 2.492,26.534 C2.3986662,26.804668 2.352,27.0846652 2.352,27.374 C2.352,27.6820015 2.40333282,27.9666654 2.506,28.228 C2.60866718,28.4893346 2.74866578,28.717999 2.926,28.914 C3.10333422,29.110001 3.31566543,29.2639994 3.563,29.376 C3.81033457,29.4880006 4.08333184,29.544 4.382,29.544 Z M13.286,31.14 C12.6979971,31.14 12.1660024,31.0396677 11.69,30.839 C11.2139976,30.6383323 10.8080017,30.3653351 10.472,30.02 C10.1359983,29.6746649 9.87700091,29.2733356 9.695,28.816 C9.51299909,28.3586644 9.422,27.8780025 9.422,27.374 C9.422,26.8513307 9.51066578,26.3590023 9.688,25.897 C9.86533422,25.4349977 10.1219983,25.0290018 10.458,24.679 C10.7940017,24.3289983 11.2023309,24.0513344 11.683,23.846 C12.1636691,23.6406656 12.7026637,23.538 13.3,23.538 C13.8973363,23.538 14.4316643,23.6406656 14.903,23.846 C15.3743357,24.0513344 15.775665,24.3266649 16.107,24.672 C16.438335,25.0173351 16.6903325,25.4186644 16.863,25.876 C17.0356675,26.3333356 17.122,26.8093309 17.122,27.304 C17.122,27.4253339 17.1196667,27.5419994 17.115,27.654 C17.1103333,27.7660006 17.0986668,27.859333 17.08,27.934 L11.41,27.934 C11.4380001,28.2233348 11.5079994,28.4799989 11.62,28.704 C11.7320006,28.9280011 11.8766658,29.1193325 12.054,29.278 C12.2313342,29.4366675 12.4319989,29.5579996 12.656,29.642 C12.8800011,29.7260004 13.1133321,29.768 13.356,29.768 C13.7293352,29.768 14.081665,29.6770009 14.413,29.495 C14.744335,29.3129991 14.9706661,29.0726682 15.092,28.774 L16.702,29.222 C16.431332,29.7820028 15.9996696,30.2416649 15.407,30.601 C14.8143304,30.9603351 14.1073374,31.14 13.286,31.14 Z M15.19,26.716 C15.1433331,26.1653306 14.9403351,25.724335 14.581,25.393 C14.2216649,25.061665 13.7853359,24.896 13.272,24.896 C13.0199987,24.896 12.7843344,24.9403329 12.565,25.029 C12.3456656,25.1176671 12.1520008,25.2413325 11.984,25.4 C11.8159992,25.5586675 11.6783339,25.7499989 11.571,25.974 C11.4636661,26.1980011 11.4006668,26.445332 11.382,26.716 L15.19,26.716 Z M21.63,31 L21.63,23.664 L23.506,23.664 L23.506,31 L21.63,31 Z M21.63,22.642 L21.63,20.78 L23.506,20.78 L23.506,22.642 L21.63,22.642 Z M32.018,31 L30.142,31 L30.142,26.884 C30.142,26.2959971 30.0393344,25.866668 29.834,25.596 C29.6286656,25.325332 29.3440018,25.19 28.98,25.19 C28.7933324,25.19 28.602001,25.227333 28.406,25.302 C28.209999,25.376667 28.0256675,25.481666 27.853,25.617 C27.6803325,25.752334 27.5240007,25.9133324 27.384,26.1 C27.2439993,26.2866676 27.1413337,26.4919989 27.076,26.716 L27.076,31 L25.2,31 L25.2,23.664 L26.894,23.664 L26.894,25.022 C27.164668,24.555331 27.5566641,24.1913346 28.07,23.93 C28.5833359,23.6686654 29.1619968,23.538 29.806,23.538 C30.2633356,23.538 30.6366652,23.6219992 30.926,23.79 C31.2153348,23.9580008 31.4393325,24.177332 31.598,24.448 C31.7566675,24.718668 31.866333,25.0266649 31.927,25.372 C31.987667,25.7173351 32.018,26.0673316 32.018,26.422 L32.018,31 Z M34.034,31 L34.034,25.484 L33.068,25.484 L33.068,24.056 L34.034,24.056 L34.034,23.608 C34.034,22.6933288 34.2533311,21.9700027 34.692,21.438 C35.1306689,20.9059973 35.7279962,20.64 36.484,20.64 C37.0813363,20.64 37.6833303,20.7846652 38.29,21.074 L37.912,22.488 C37.7719993,22.413333 37.6063343,22.3503336 37.415,22.299 C37.2236657,22.2476664 37.0486675,22.222 36.89,22.222 C36.2366634,22.222 35.91,22.6606623 35.91,23.538 L35.91,24.056 L37.702,24.056 L37.702,25.484 L35.91,25.484 L35.91,31 L34.034,31 Z M41.79,31.14 C41.1926637,31.14 40.6560024,31.0373344 40.18,30.832 C39.7039976,30.6266656 39.300335,30.3490018 38.969,29.999 C38.637665,29.6489983 38.3833342,29.2453356 38.206,28.788 C38.0286658,28.3306644 37.94,27.8500025 37.94,27.346 C37.94,26.8326641 38.0286658,26.3473356 38.206,25.89 C38.3833342,25.4326644 38.637665,25.0290018 38.969,24.679 C39.300335,24.3289983 39.7039976,24.0513344 40.18,23.846 C40.6560024,23.6406656 41.1926637,23.538 41.79,23.538 C42.3873363,23.538 42.9216643,23.6406656 43.393,23.846 C43.8643357,24.0513344 44.265665,24.3289983 44.597,24.679 C44.928335,25.0290018 45.1826658,25.4326644 45.36,25.89 C45.5373342,26.3473356 45.626,26.8326641 45.626,27.346 C45.626,27.8500025 45.5373342,28.3306644 45.36,28.788 C45.1826658,29.2453356 44.9306683,29.6489983 44.604,29.999 C44.2773317,30.3490018 43.8760024,30.6266656 43.4,30.832 C42.9239976,31.0373344 42.3873363,31.14 41.79,31.14 Z M39.872,27.346 C39.872,27.6726683 39.9209995,27.9689987 40.019,28.235 C40.1170005,28.5010013 40.2523325,28.731999 40.425,28.928 C40.5976675,29.124001 40.8006655,29.2756661 41.034,29.383 C41.2673345,29.4903339 41.519332,29.544 41.79,29.544 C42.060668,29.544 42.3126655,29.4903339 42.546,29.383 C42.7793345,29.2756661 42.9823325,29.124001 43.155,28.928 C43.3276675,28.731999 43.4629995,28.498668 43.561,28.228 C43.6590005,27.957332 43.708,27.6586683 43.708,27.332 C43.708,27.0146651 43.6590005,26.720668 43.561,26.45 C43.4629995,26.179332 43.3276675,25.946001 43.155,25.75 C42.9823325,25.553999 42.7793345,25.4023339 42.546,25.295 C42.3126655,25.1876661 42.060668,25.134 41.79,25.134 C41.519332,25.134 41.2673345,25.1899994 41.034,25.302 C40.8006655,25.4140006 40.5976675,25.567999 40.425,25.764 C40.2523325,25.960001 40.1170005,26.193332 40.019,26.464 C39.9209995,26.734668 39.872,27.0286651 39.872,27.346 Z M51.254,25.288 C50.6846638,25.2973334 50.1760022,25.406999 49.728,25.617 C49.2799978,25.8270011 48.958001,26.1419979 48.762,26.562 L48.762,31 L46.886,31 L46.886,23.664 L48.608,23.664 L48.608,25.232 C48.7386673,24.9799987 48.8926658,24.7536677 49.07,24.553 C49.2473342,24.3523323 49.4386656,24.1773341 49.644,24.028 C49.8493344,23.8786659 50.056999,23.7643337 50.267,23.685 C50.4770011,23.6056663 50.679999,23.566 50.876,23.566 L51.107,23.566 C51.1583336,23.566 51.2073331,23.5706666 51.254,23.58 L51.254,25.288 Z M63.7,31 L61.824,31 L61.824,26.884 C61.824,26.2959971 61.7236677,25.866668 61.523,25.596 C61.3223323,25.325332 61.0446684,25.19 60.69,25.19 C60.3166648,25.19 59.9666683,25.3323319 59.64,25.617 C59.3133317,25.9016681 59.0800007,26.2726644 58.94,26.73 L58.94,31 L57.064,31 L57.064,26.884 C57.064,26.2959971 56.9636677,25.866668 56.763,25.596 C56.5623323,25.325332 56.2846684,25.19 55.93,25.19 C55.5659982,25.19 55.218335,25.3299986 54.887,25.61 C54.555665,25.8900014 54.3200007,26.2586644 54.18,26.716 L54.18,31 L52.304,31 L52.304,23.664 L53.998,23.664 L53.998,25.022 C54.268668,24.5459976 54.6396643,24.179668 55.111,23.923 C55.5823357,23.6663321 56.1213303,23.538 56.728,23.538 C57.3440031,23.538 57.8199983,23.6873318 58.156,23.986 C58.4920017,24.2846682 58.7066662,24.6533311 58.8,25.092 C59.0986682,24.5879975 59.4766644,24.2030013 59.934,23.937 C60.3913356,23.6709987 60.9139971,23.538 61.502,23.538 C61.9500022,23.538 62.3186652,23.6219992 62.608,23.79 C62.8973348,23.9580008 63.1213325,24.177332 63.28,24.448 C63.4386675,24.718668 63.548333,25.0266649 63.609,25.372 C63.669667,25.7173351 63.7,26.0673316 63.7,26.422 L63.7,31 Z M67.34,31.14 C66.9853316,31.14 66.6540015,31.0816673 66.346,30.965 C66.0379985,30.8483328 65.7720011,30.6850011 65.548,30.475 C65.3239989,30.264999 65.1490006,30.0200014 65.023,29.74 C64.8969994,29.4599986 64.834,29.1520017 64.834,28.816 C64.834,28.4706649 64.9109992,28.1510015 65.065,27.857 C65.2190008,27.5629985 65.4336653,27.3133344 65.709,27.108 C65.9843347,26.9026656 66.3133314,26.7416673 66.696,26.625 C67.0786686,26.5083328 67.4986644,26.45 67.956,26.45 C68.2826683,26.45 68.6023318,26.4779997 68.915,26.534 C69.2276682,26.5900003 69.5053321,26.6693328 69.748,26.772 L69.748,26.352 C69.748,25.8666642 69.6103347,25.4933346 69.335,25.232 C69.0596653,24.9706654 68.651336,24.84 68.11,24.84 C67.717998,24.84 67.3353352,24.9099993 66.962,25.05 C66.5886648,25.1900007 66.206002,25.395332 65.814,25.666 L65.24,24.476 C66.1826714,23.8506635 67.1999945,23.538 68.292,23.538 C69.3466719,23.538 70.1656637,23.7969974 70.749,24.315 C71.3323362,24.8330026 71.624,25.5819951 71.624,26.562 L71.624,28.844 C71.624,29.040001 71.6589996,29.1799996 71.729,29.264 C71.7990004,29.3480004 71.9133325,29.3946666 72.072,29.404 L72.072,31 C71.7546651,31.0653337 71.4793345,31.098 71.246,31.098 C70.8913316,31.098 70.6183343,31.0186675 70.427,30.86 C70.2356657,30.7013325 70.1166669,30.4913346 70.07,30.23 L70.028,29.824 C69.7013317,30.2533355 69.304669,30.5799989 68.838,30.804 C68.371331,31.0280011 67.8720027,31.14 67.34,31.14 Z M67.872,29.768 C68.1893349,29.768 68.4903319,29.7120006 68.775,29.6 C69.0596681,29.4879994 69.2813325,29.3386676 69.44,29.152 C69.6453344,28.9933325 69.748,28.816001 69.748,28.62 L69.748,27.78 C69.5239989,27.6959996 69.2813346,27.6283336 69.02,27.577 C68.7586654,27.5256664 68.5066679,27.5 68.264,27.5 C67.7786642,27.5 67.3820015,27.6096656 67.074,27.829 C66.7659985,28.0483344 66.612,28.3259983 66.612,28.662 C66.612,28.9793349 66.7333321,29.242999 66.976,29.453 C67.2186679,29.6630011 67.5173316,29.768 67.872,29.768 Z M72.912,27.332 C72.912,26.8186641 73.0006658,26.3333356 73.178,25.876 C73.3553342,25.4186644 73.6119983,25.0173351 73.948,24.672 C74.2840017,24.3266649 74.6899976,24.0513344 75.166,23.846 C75.6420024,23.6406656 76.1786637,23.538 76.776,23.538 C77.5786707,23.538 78.2623305,23.7106649 78.827,24.056 C79.3916695,24.4013351 79.8139986,24.8539972 80.094,25.414 L78.26,25.974 C78.1013325,25.703332 77.8913346,25.4956674 77.63,25.351 C77.3686654,25.2063326 77.0793349,25.134 76.762,25.134 C76.491332,25.134 76.2393345,25.1876661 76.006,25.295 C75.7726655,25.4023339 75.5696675,25.5516657 75.397,25.743 C75.2243325,25.9343343 75.0890005,26.165332 74.991,26.436 C74.8929995,26.706668 74.844,27.0053317 74.844,27.332 C74.844,27.6586683 74.8953328,27.957332 74.998,28.228 C75.1006672,28.498668 75.2383325,28.731999 75.411,28.928 C75.5836675,29.124001 75.7866655,29.2756661 76.02,29.383 C76.2533345,29.4903339 76.5006654,29.544 76.762,29.544 C77.0980017,29.544 77.4083319,29.4600008 77.693,29.292 C77.9776681,29.1239992 78.1759994,28.9186679 78.288,28.676 L80.122,29.236 C79.8699987,29.7960028 79.4546696,30.2533316 78.876,30.608 C78.2973304,30.9626684 77.6020041,31.14 76.79,31.14 C76.1926637,31.14 75.6560024,31.0373344 75.18,30.832 C74.7039976,30.6266656 74.2980017,30.3490018 73.962,29.999 C73.6259983,29.6489983 73.3670009,29.2430023 73.185,28.781 C73.0029991,28.3189977 72.912,27.8360025 72.912,27.332 Z M81.27,31 L81.27,23.664 L83.146,23.664 L83.146,31 L81.27,31 Z M81.27,22.642 L81.27,20.78 L83.146,20.78 L83.146,22.642 L81.27,22.642 Z M88.704,22.81 L87.5,22.446 L88.256,20.78 L90.006,20.78 L88.704,22.81 Z M88.228,31.14 C87.6306637,31.14 87.0940024,31.0373344 86.618,30.832 C86.1419976,30.6266656 85.738335,30.3490018 85.407,29.999 C85.075665,29.6489983 84.8213342,29.2453356 84.644,28.788 C84.4666658,28.3306644 84.378,27.8500025 84.378,27.346 C84.378,26.8326641 84.4666658,26.3473356 84.644,25.89 C84.8213342,25.4326644 85.075665,25.0290018 85.407,24.679 C85.738335,24.3289983 86.1419976,24.0513344 86.618,23.846 C87.0940024,23.6406656 87.6306637,23.538 88.228,23.538 C88.8253363,23.538 89.3596643,23.6406656 89.831,23.846 C90.3023357,24.0513344 90.703665,24.3289983 91.035,24.679 C91.366335,25.0290018 91.6206658,25.4326644 91.798,25.89 C91.9753342,26.3473356 92.064,26.8326641 92.064,27.346 C92.064,27.8500025 91.9753342,28.3306644 91.798,28.788 C91.6206658,29.2453356 91.3686683,29.6489983 91.042,29.999 C90.7153317,30.3490018 90.3140024,30.6266656 89.838,30.832 C89.3619976,31.0373344 88.8253363,31.14 88.228,31.14 Z M86.31,27.346 C86.31,27.6726683 86.3589995,27.9689987 86.457,28.235 C86.5550005,28.5010013 86.6903325,28.731999 86.863,28.928 C87.0356675,29.124001 87.2386655,29.2756661 87.472,29.383 C87.7053345,29.4903339 87.957332,29.544 88.228,29.544 C88.498668,29.544 88.7506655,29.4903339 88.984,29.383 C89.2173345,29.2756661 89.4203325,29.124001 89.593,28.928 C89.7656675,28.731999 89.9009995,28.498668 89.999,28.228 C90.0970005,27.957332 90.146,27.6586683 90.146,27.332 C90.146,27.0146651 90.0970005,26.720668 89.999,26.45 C89.9009995,26.179332 89.7656675,25.946001 89.593,25.75 C89.4203325,25.553999 89.2173345,25.4023339 88.984,25.295 C88.7506655,25.1876661 88.498668,25.134 88.228,25.134 C87.957332,25.134 87.7053345,25.1899994 87.472,25.302 C87.2386655,25.4140006 87.0356675,25.567999 86.863,25.764 C86.6903325,25.960001 86.5550005,26.193332 86.457,26.464 C86.3589995,26.734668 86.31,27.0286651 86.31,27.346 Z M100.142,31 L98.266,31 L98.266,26.884 C98.266,26.2959971 98.1633344,25.866668 97.958,25.596 C97.7526656,25.325332 97.4680018,25.19 97.104,25.19 C96.9173324,25.19 96.726001,25.227333 96.53,25.302 C96.333999,25.376667 96.1496675,25.481666 95.977,25.617 C95.8043325,25.752334 95.6480007,25.9133324 95.508,26.1 C95.3679993,26.2866676 95.2653337,26.4919989 95.2,26.716 L95.2,31 L93.324,31 L93.324,23.664 L95.018,23.664 L95.018,25.022 C95.288668,24.555331 95.6806641,24.1913346 96.194,23.93 C96.7073359,23.6686654 97.2859968,23.538 97.93,23.538 C98.3873356,23.538 98.7606652,23.6219992 99.05,23.79 C99.3393348,23.9580008 99.5633325,24.177332 99.722,24.448 C99.8806675,24.718668 99.990333,25.0266649 100.051,25.372 C100.111667,25.7173351 100.142,26.0673316 100.142,26.422 L100.142,31 Z" id="Título-superior-Copy-6" fill="#D9DC58"></path>
                <g id="laptop-icon-movil" transform="translate(252.000000, 1.000000)">
                    <g id="Group-4">
                        <mask id="mask-2" fill="white">
                            <use xlink:href="#path-1"></use>
                        </mask>
                        <g id="Clip-2"></g>
                        <path d="M30.5357106,16.4493459 C30.5357106,16.8915698 30.9015516,17.2500727 31.3527357,17.2500727 C31.8038457,17.2500727 32.1696867,16.8915698 32.1696867,16.4493459 L32.1696867,4.35457849 C32.1696867,3.91228198 31.8038457,3.55377907 31.3527357,3.55377907 L6.61049602,3.55377907 C6.15938606,3.55377907 5.79354507,3.91228198 5.79354507,4.35457849 L5.79354507,16.4493459 C5.79354507,16.8915698 6.15938606,17.2500727 6.61049602,17.2500727 C7.06168013,17.2500727 7.42752112,16.8915698 7.42752112,16.4493459 L7.42752112,5.15537791 L30.5357106,5.15537791 L30.5357106,16.4493459" id="Fill-1" fill="#D9DC58" mask="url(#mask-2)"></path>
                        <path d="M36.4926014,21.4444767 C36.4926014,22.6102471 35.5249839,23.5586483 34.335667,23.5586483 L3.62756475,23.5586483 C2.43824788,23.5586483 1.47063035,22.6102471 1.47063035,21.4444767 L1.47063035,20.7503634 L14.3279317,20.7503634 C14.6457996,21.8034884 15.6418154,22.5740552 16.81786,22.5740552 L21.1452235,22.5740552 C22.3213422,22.5740552 23.317358,21.8034157 23.6352259,20.7503634 L36.4926014,20.7503634 L36.4926014,21.4444767 Z M3.87410331,2.49171512 C3.87410331,2.04011628 4.24906437,1.67260174 4.70981344,1.67260174 L33.25327,1.67260174 C33.7141674,1.67260174 34.0889801,2.04011628 34.0889801,2.49171512 L34.0889801,19.3090116 L23.0262571,19.3090116 C22.9741318,19.3072674 22.9203753,19.3117006 22.8669895,19.3218023 C22.5209458,19.387064 22.270774,19.6840116 22.270774,20.0294331 C22.270774,20.6377907 21.7659075,21.1326308 21.1452976,21.1326308 L16.8179341,21.1326308 C16.1972501,21.1326308 15.6924577,20.6377907 15.6924577,20.0294331 C15.6924577,19.6258721 15.3513077,19.3002907 14.9400888,19.3088663 L3.87410331,19.3088663 L3.87410331,2.49171512 Z M37.2279166,19.3090116 L35.7231045,19.3090116 L35.7231045,2.49171512 C35.7231045,1.15697674 34.6151268,0.0710755814 33.2534183,0.0710755814 L4.70981344,0.0710755814 C3.34795665,0.0710755814 2.24012726,1.15697674 2.24012726,2.49171512 L2.24012726,19.3090116 L0.735315174,19.3090116 C0.329138253,19.3090116 0,19.6316134 0,20.0296512 L0,21.4444767 C0,23.4050145 1.62730283,25 3.62756475,25 L34.3355928,25 C36.3358548,25 37.9631576,23.4050145 37.9631576,21.4444767 L37.9631576,20.0296512 C37.9632317,19.6316134 37.6340935,19.3090116 37.2279166,19.3090116 L37.2279166,19.3090116 Z" id="Fill-3" fill="#D9DC58" mask="url(#mask-2)"></path>
                    </g>
                    <path d="M20.7526619,9.44161546 C21.082446,9.11191066 21.082446,8.57711752 20.7526619,8.24733608 C20.4228011,7.91755464 19.8882335,7.91755464 19.5582961,8.24733608 L14.2473381,13.5584037 C13.917554,13.8881851 13.917554,14.4229016 14.2473381,14.7526831 C14.4122685,14.9176121 14.6283181,15 14.8444444,15 C15.0605706,15 15.2766203,14.9175355 15.4415507,14.7526831 L20.7526619,9.44161546" id="Fill-5" fill="#D9DC58"></path>
                    <path d="M22.4843507,11.2599684 L20.2599775,13.4843437 C19.9133408,13.8309682 19.9133408,14.3931251 20.2599775,14.7399108 C20.4333765,14.9133036 20.6606,15 20.8878235,15 C21.115047,15 21.3421899,14.9133036 21.5155889,14.7399108 L23.739962,12.515616 C24.0866793,12.168911 24.0866793,11.606754 23.739962,11.2599684 C23.3931642,10.9133439 22.8311486,10.9133439 22.4843507,11.2599684" id="Fill-6" fill="#D9DC58"></path>
                </g>
                <g id="Empress-logo" transform="translate(0.000000, 41.180941)" fill-rule="nonzero">
                    <g id="Group" transform="translate(0.000000, 12.097735)" fill="#FFFFFF">
                        <polygon id="Shape" points="58.1382598 18.1811681 56.1680572 25.3706794 56.0643623 25.3706794 54.1287247 18.1120381 48.7711561 0.725864124 36.0858164 0.725864124 36.0858164 34.9106079 44.0011919 34.9106079 44.0011919 19.2181168 43.7246722 8.67580453 43.8283671 8.67580453 52.2967819 34.9106079 59.4862932 34.9106079 67.920143 8.67580453 68.0238379 8.67580453 67.7818832 19.2181168 67.7818832 34.9106079 75.6281287 34.9106079 75.6281287 0.725864124 63.4612634 0.725864124"></polygon>
                        <path d="M110.746126,3.62932062 C108.464839,1.69368296 105.215733,0.691299166 100.964243,0.691299166 L85.2717521,0.691299166 L85.2717521,34.9106079 L94.1895113,34.9106079 L94.1895113,23.0548272 L100.964243,23.0548272 C105.215733,23.0548272 108.464839,22.0870083 110.746126,20.1859356 C113.027414,18.2848629 114.168057,15.5542312 114.168057,12.0977354 C114.168057,8.39928486 113.027414,5.59952324 110.746126,3.62932062 Z M103.833135,15.3814064 C102.934446,16.1072706 101.482718,16.4874851 99.5470799,16.4874851 L94.1549464,16.4874851 L94.1549464,7.43146603 L99.5470799,7.43146603 C101.482718,7.43146603 102.899881,7.81168057 103.833135,8.5375447 C104.731824,9.26340882 105.215733,10.4040524 105.215733,11.9249106 C105.215733,13.5148987 104.766389,14.6555423 103.833135,15.3814064 Z" id="Shape"></path>
                        <path d="M148.940405,17.8009535 C150.081049,16.1418355 150.634088,14.067938 150.634088,11.579261 C150.634088,8.05363528 149.52801,5.35756853 147.281287,3.49106079 C145.06913,1.62455304 141.854589,0.691299166 137.741359,0.691299166 L121.426698,0.691299166 L121.426698,34.9106079 L130.171633,34.9106079 L130.171633,22.398093 L135.494636,22.398093 L142.787843,34.8760429 L152.638856,34.8760429 L143.928486,21.4648391 C146.140644,20.70441 147.799762,19.4600715 148.940405,17.8009535 Z M140.402861,15.0703218 C139.538737,15.761621 138.156138,16.1072706 136.255066,16.1072706 L130.206198,16.1072706 L130.206198,7.46603099 L136.255066,7.46603099 C138.156138,7.46603099 139.538737,7.81168057 140.402861,8.50297974 C141.266985,9.1942789 141.681764,10.2657926 141.681764,11.7520858 C141.681764,13.272944 141.266985,14.3790226 140.402861,15.0703218 Z" id="Shape"></path>
                        <polygon id="Shape" points="8.91775924 21.0154946 22.9856973 21.0154946 22.9856973 14.5518474 8.91775924 14.5518474 8.91775924 7.60429082 26.6150179 7.60429082 26.6150179 0.725864124 0 0.725864124 0 34.9106079 27.306317 34.9106079 27.306317 27.9976162 8.91775924 27.9976162"></polygon>
                        <path d="M286.716329,17.9046484 C284.711561,16.2455304 281.324195,15.0011919 276.588796,14.1370679 C274.134684,13.6877235 272.406436,13.2038141 271.369487,12.6507747 C270.367104,12.1323004 269.848629,11.4064362 269.848629,10.5423123 C269.848629,9.50536353 270.332539,8.67580453 271.300358,8.05363528 C272.268176,7.43146603 273.650775,7.12038141 275.448153,7.12038141 C277.59118,7.12038141 279.423123,7.53516091 280.978546,8.33015495 C282.395709,9.09058403 283.640048,10.2312277 284.711561,11.7866508 L288.997616,7.50059595 L290,6.32538737 C288.029797,4.14779499 285.88677,2.59237187 283.605483,1.62455304 C281.324195,0.656734207 278.524434,0.172824791 275.309893,0.172824791 C272.268176,0.172824791 269.64124,0.656734207 267.429082,1.58998808 C265.216925,2.52324195 263.523242,3.87127533 262.348033,5.56495828 C261.20739,7.25864124 260.619785,9.15971395 260.619785,11.3027414 C260.619785,13.4457688 261.13826,15.2085816 262.209774,16.59118 C263.246722,17.9737783 264.733015,19.079857 266.668653,19.874851 C268.569726,20.6698451 271.023838,21.3957092 273.961859,21.9833135 C276.346841,22.4326579 278.040524,22.9165673 279.077473,23.4004768 C280.079857,23.8843862 280.598331,24.5411204 280.598331,25.3361144 C280.598331,26.3384982 280.114422,27.0989273 279.181168,27.6519666 C278.247914,28.170441 276.796186,28.4469607 274.895113,28.4469607 C272.510131,28.4469607 270.470799,28.0667461 268.777116,27.306317 C267.429082,26.6841478 266.184744,25.716329 265.078665,24.4374255 L259.721097,29.7258641 C261.449344,31.6269368 263.488677,33.0441001 265.873659,33.977354 C268.293206,34.9106079 271.438617,35.3945173 275.309893,35.3945173 C278.075089,35.3945173 280.563766,34.9797378 282.741359,34.1501788 C284.918951,33.3206198 286.647199,32.1108462 287.891538,30.5208582 C289.135876,28.9308701 289.758045,27.0643623 289.758045,24.88677 C289.758045,21.8796186 288.721097,19.5637664 286.716329,17.9046484 Z" id="Shape"></path>
                        <path d="M235.871275,8.05363528 C236.839094,7.43146603 238.221692,7.12038141 240.01907,7.12038141 C242.162098,7.12038141 243.994041,7.53516091 245.549464,8.33015495 C246.966627,9.09058403 248.210965,10.2312277 249.282479,11.7520858 L253.879619,7.15494636 L254.605483,6.32538737 C252.63528,4.14779499 250.492253,2.59237187 248.210965,1.62455304 C245.929678,0.656734207 243.129917,0.172824791 239.915375,0.172824791 C236.873659,0.172824791 234.246722,0.656734207 232,1.58998808 C229.787843,2.52324195 228.09416,3.87127533 226.918951,5.56495828 C225.778308,7.25864124 225.190703,9.15971395 225.190703,11.3027414 C225.190703,13.4457688 225.709178,15.2085816 226.780691,16.59118 C227.81764,17.9737783 229.303933,19.079857 231.239571,19.874851 C233.140644,20.6698451 235.594756,21.3957092 238.498212,21.9833135 C240.883194,22.4326579 242.576877,22.9165673 243.613826,23.4004768 C244.61621,23.8843862 245.134684,24.5411204 245.134684,25.3361144 C245.134684,26.3384982 244.650775,27.0989273 243.717521,27.6519666 C242.784267,28.170441 241.332539,28.4469607 239.431466,28.4469607 C237.046484,28.4469607 235.007151,28.0667461 233.313468,27.306317 C231.965435,26.6841478 230.721097,25.716329 229.580453,24.4028605 L224.257449,29.7258641 C225.985697,31.6269368 228.059595,33.0786651 230.410012,34.011919 C232.829559,34.9451728 235.97497,35.4290822 239.846246,35.4290822 C242.611442,35.4290822 245.100119,35.0143027 247.277712,34.1847437 C249.455304,33.3551847 251.183552,32.1454112 252.42789,30.5554231 C253.672229,28.965435 254.294398,27.0989273 254.294398,24.9213349 C254.294398,21.9141836 253.292014,19.5983313 251.252682,17.9392133 C249.247914,16.2800954 245.860548,15.0357569 241.125149,14.1716329 C238.671037,13.7222884 236.942789,13.238379 235.90584,12.6853397 C234.903456,12.1668653 234.384982,11.4410012 234.384982,10.5768772 C234.419547,9.50536353 234.903456,8.67580453 235.871275,8.05363528 Z" id="Shape"></path>
                    </g>
                    <g id="Group" transform="translate(157.961859, 0.000000)">
                        <rect id="Rectangle-path" fill="#DCE442" x="0.276519666" y="0" width="59.659118" height="59.7973778"></rect>
                        <g transform="translate(5.876043, 5.530393)" id="Rectangle-path" fill="#00758D">
                            <rect transform="translate(14.731832, 14.871153) rotate(-45.000000) translate(-14.731832, -14.871153) " x="-2.36037559" y="11.2073029" width="34.1844159" height="7.32770088"></rect>
                            <rect transform="translate(19.407745, 29.206590) rotate(-45.000000) translate(-19.407745, -29.206590) " x="9.1593335" y="25.5427391" width="20.4968237" height="7.32770088"></rect>
                            <rect transform="translate(33.751512, 33.859655) rotate(-45.000000) translate(-33.751512, -33.859655) " x="16.6593038" y="30.1958047" width="34.1844159" height="7.32770088"></rect>
                        </g>
                    </g>
                </g>
            </g>
        </g>
    </g>
</svg>