<svg width="59" height="39" viewBox="0 0 59 39" xmlns="http://www.w3.org/2000/svg" xmlns:xlink="http://www.w3.org/1999/xlink"><title>laptop</title><defs><path id="a" d="M.007 39V.11H59V39z"/></defs><g fill="none" fill-rule="evenodd"><mask id="b" fill="#fff"><use xlink:href="#a"/></mask><path d="M47.457 25.661c0 .69.568 1.25 1.27 1.25.7 0 1.269-.56 1.269-1.25V6.793c0-.69-.569-1.25-1.27-1.25H10.274c-.701 0-1.27.56-1.27 1.25v18.868c0 .69.569 1.25 1.27 1.25.7 0 1.27-.56 1.27-1.25V8.042h35.913v17.619" fill="#D9DC58" mask="url(#b)"/><path d="M56.714 33.453c0 1.819-1.503 3.298-3.352 3.298H5.638c-1.849 0-3.352-1.479-3.352-3.298v-1.082h19.982c.494 1.642 2.041 2.845 3.87 2.845h6.725a4.037 4.037 0 0 0 3.87-2.845h19.981v1.082zM6.021 3.887A1.29 1.29 0 0 1 7.32 2.61h44.36a1.29 1.29 0 0 1 1.299 1.278v26.235H35.786a1.129 1.129 0 0 0-.248.02 1.13 1.13 0 0 0-.926 1.104c0 .949-.785 1.72-1.75 1.72h-6.725c-.964 0-1.749-.771-1.749-1.72 0-.63-.53-1.138-1.17-1.124H6.022V3.887zm51.836 26.235H55.52V3.887c0-2.082-1.722-3.776-3.839-3.776H7.32C5.203.11 3.48 1.805 3.48 3.887v26.235H1.143c-.631 0-1.143.503-1.143 1.124v2.207C0 36.512 2.529 39 5.638 39h47.724C56.471 39 59 36.512 59 33.453v-2.207c0-.62-.512-1.124-1.143-1.124z" fill="#D9DC58" mask="url(#b)"/><path d="M31.611 14.265a1.327 1.327 0 1 0-1.877-1.876l-8.345 8.346a1.327 1.327 0 0 0 1.876 1.876l8.346-8.346m3.116 3.125l-3.337 3.337a1.332 1.332 0 0 0 1.883 1.883l3.337-3.337a1.332 1.332 0 0 0-1.883-1.883" fill="#D9DC58"/></g></svg>