<?xml version="1.0" encoding="UTF-8" standalone="no"?>
<svg width="40px" height="40px" viewBox="0 0 40 40" version="1.1" xmlns="http://www.w3.org/2000/svg" xmlns:xlink="http://www.w3.org/1999/xlink">
    <!-- Generator: Sketch 46 (44423) - http://www.bohemiancoding.com/sketch -->
    <title>Email</title>
    <desc>Created with Sketch.</desc>
    <defs></defs>
    <g id="Empress" stroke="none" stroke-width="1" fill="none" fill-rule="evenodd">
        <g id="Home_Tablet" transform="translate(-637.000000, -4017.000000)" fill="#D9DC58">
            <g id="Group" transform="translate(-2.000000, 3902.000000)">
                <path d="M669.199877,131.599932 L669.039992,131.599932 L663.599981,134.839788 C663.546713,134.839788 663.519916,134.879984 663.519916,134.959804 C663.493446,134.986601 663.506844,135.02647 663.559785,135.079738 L668.999796,140.959861 C669.053145,141.013129 669.093341,141.039926 669.119812,141.039926 L669.199877,141.039926 C669.280023,140.959861 669.319892,140.906594 669.319892,140.880041 L669.319892,131.760144 C669.319892,131.706468 669.280023,131.6532 669.199877,131.599932 L669.199877,131.599932 Z M661.999906,135.920013 C661.973354,135.839621 661.906361,135.826549 661.799743,135.879817 L659.599671,137.159877 C659.333169,137.319762 659.053268,137.319762 658.759642,137.159877 L656.839715,136.079979 C656.75965,136.02663 656.693228,136.02663 656.639634,136.079979 L649.319892,142.880115 C649.293095,142.906585 649.279697,142.959853 649.279697,143.04 C649.279697,143.06647 649.306494,143.106666 649.359843,143.160016 C649.519728,143.213283 649.626591,143.240081 649.67994,143.240081 L668.439749,143.240081 C668.493017,143.240081 668.546611,143.213283 668.599634,143.160016 C668.599634,143.053072 668.586562,142.986732 668.559683,142.959853 L661.999906,135.920013 Z M655.039804,135.279901 C655.066601,135.253349 655.08,135.213153 655.08,135.159885 C655.08,135.079738 655.053202,135.039869 654.999935,135.039869 L649.280023,131.759817 C649.199958,131.733265 649.13321,131.733265 649.079942,131.759817 C649.026675,131.759817 648.999796,131.800013 648.999796,131.879751 L648.999796,140.47988 C648.999796,140.559945 649.040073,140.613294 649.119812,140.639765 L649.199958,140.639765 C649.253226,140.639765 649.280023,140.626366 649.280023,140.599895 L655.039804,135.279901 Z M668.63983,126.759838 L649.67994,126.759838 C649.493258,126.759838 649.333291,126.819886 649.199958,126.939902 C649.066544,127.059836 648.999796,127.226747 648.999796,127.439982 L648.999796,129.55999 C648.999796,129.666607 649.040073,129.719875 649.119812,129.719875 L659.079738,135.399835 L659.160212,135.440031 C659.213153,135.440031 659.253349,135.426632 659.280146,135.399835 L668.920058,129.719875 C668.973325,129.693404 669.013194,129.680005 669.039992,129.680005 C669.066544,129.680005 669.10674,129.666607 669.160008,129.640055 C669.266625,129.640055 669.319892,129.58646 669.319892,129.479843 L669.319892,127.439982 C669.319892,127.226747 669.253226,127.059836 669.119812,126.939902 C668.986397,126.819886 668.826512,126.759838 668.63983,126.759838 L668.63983,126.759838 Z M659,155 C657.159811,155 655.386698,154.759968 653.680005,154.279987 C651.973231,153.799678 650.380101,153.126642 648.89996,152.259815 C647.420064,151.39307 646.073337,150.353369 644.860025,149.139975 C643.646631,147.926581 642.606603,146.579855 641.740103,145.10004 C640.873358,143.619899 640.199995,142.026442 639.719932,140.319995 C639.240032,138.613221 639,136.83978 639,135 C639,133.159811 639.240032,131.386698 639.719932,129.680005 C640.199995,127.973231 640.873358,126.380101 641.740103,124.89996 C642.606603,123.420064 643.646631,122.073337 644.860025,120.860025 C646.073337,119.646631 647.420064,118.606603 648.89996,117.740103 C650.380101,116.873358 651.973231,116.199913 653.680005,115.719932 C655.386698,115.23995 657.159811,115 659,115 C661.746476,115 664.339766,115.52655 666.77987,116.580059 C669.220056,117.633159 671.339737,119.060032 673.139975,120.860025 C674.939886,122.659936 676.366432,124.779944 677.419941,127.220048 C678.473041,129.659826 679,132.253197 679,135 C679,136.83978 678.759968,138.613221 678.279987,140.319995 C677.799678,142.026442 677.126642,143.619899 676.259815,145.10004 C675.39307,146.579855 674.353369,147.926581 673.139975,149.139975 C671.926581,150.353369 670.579855,151.393397 669.10004,152.259815 C667.619899,153.126642 666.026442,153.799678 664.319668,154.279987 C662.613221,154.759968 660.83978,155 659,155 L659,155 Z" id="Email"></path>
            </g>
        </g>
    </g>
</svg>