<svg width="40" height="40" viewBox="0 0 40 40" xmlns="http://www.w3.org/2000/svg"><title>Email</title><path d="M30.2 16.6h-.16l-5.44 3.24c-.053 0-.08.04-.08.12-.027.027-.013.066.04.12L30 25.96c.053.053.093.08.12.08h.08c.08-.08.12-.133.12-.16v-9.12c0-.054-.04-.107-.12-.16zM23 20.92c-.027-.08-.094-.093-.2-.04l-2.2 1.28c-.267.16-.547.16-.84 0l-1.92-1.08c-.08-.053-.147-.053-.2 0l-7.32 6.8c-.027.027-.04.08-.04.16 0 .026.026.067.08.12.16.053.267.08.32.08h18.76c.053 0 .107-.027.16-.08 0-.107-.013-.173-.04-.2L23 20.92zm-6.96-.64c.027-.027.04-.067.04-.12 0-.08-.027-.12-.08-.12l-5.72-3.28c-.08-.027-.147-.027-.2 0-.053 0-.08.04-.08.12v8.6c0 .08.04.133.12.16h.08c.053 0 .08-.014.08-.04l5.76-5.32zm13.6-8.52H10.68a.693.693 0 0 0-.48.18c-.133.12-.2.287-.2.5v2.12c0 .107.04.16.12.16l9.96 5.68.08.04c.053 0 .093-.013.12-.04l9.64-5.68a.308.308 0 0 1 .12-.04.309.309 0 0 0 .12-.04c.107 0 .16-.054.16-.16v-2.04c0-.213-.067-.38-.2-.5a.693.693 0 0 0-.48-.18zM20 40c-1.84 0-3.613-.24-5.32-.72a20.288 20.288 0 0 1-4.78-2.02 19.942 19.942 0 0 1-4.04-3.12 19.938 19.938 0 0 1-3.12-4.04 20.287 20.287 0 0 1-2.02-4.78C.24 23.613 0 21.84 0 20c0-1.84.24-3.613.72-5.32A20.26 20.26 0 0 1 2.74 9.9a19.934 19.934 0 0 1 3.12-4.04A19.934 19.934 0 0 1 9.9 2.74 20.278 20.278 0 0 1 14.68.72C16.387.24 18.16 0 20 0c2.746 0 5.34.527 7.78 1.58 2.44 1.053 4.56 2.48 6.36 4.28 1.8 1.8 3.226 3.92 4.28 6.36C39.473 14.66 40 17.253 40 20c0 1.84-.24 3.613-.72 5.32a20.294 20.294 0 0 1-2.02 4.78 19.947 19.947 0 0 1-3.12 4.04 19.935 19.935 0 0 1-4.04 3.12 20.29 20.29 0 0 1-4.78 2.02c-1.707.48-3.48.72-5.32.72z" fill="#D9DC58" fill-rule="evenodd"/></svg>