<?xml version="1.0" encoding="UTF-8" standalone="no"?>
<svg width="40px" height="40px" viewBox="0 0 40 40" version="1.1" xmlns="http://www.w3.org/2000/svg" xmlns:xlink="http://www.w3.org/1999/xlink">
  <!-- Generator: Sketch 46 (44423) - http://www.bohemiancoding.com/sketch -->
  <title>Facebook</title>
  <desc>Created with Sketch.</desc>
  <defs></defs>
  <g id="Empress" stroke="none" stroke-width="1" fill="none" fill-rule="evenodd">
    <g id="Home_Desktop" transform="translate(-983.000000, -4913.000000)" fill="#D9DC58">
      <g id="Group-3" transform="translate(-1.000000, 4857.000000)">
        <path d="M1008.97394,76.7023639 L1005.72041,76.7023639 L1005.72041,88.3026962 L1000.89802,88.3026962 L1000.89802,76.7023639 L998.605141,76.7023639 L998.605141,72.6039826 L1000.89802,72.6039826 L1000.89802,69.9526219 C1000.89802,68.0564912 1001.79926,65.086927 1005.76371,65.086927 L1009.33545,65.1020316 L1009.33545,69.0795761 L1006.7435,69.0795761 C1006.31856,69.0795761 1005.72041,69.2920474 1005.72041,70.1963094 L1005.72041,72.6080105 L1009.39486,72.6080105 L1008.97394,76.7023639 Z M1003.99748,56 C992.972132,56 984,64.973139 984,75.9984895 C984,87.027868 992.972132,96 1003.99748,96 C1015.02686,96 1024,87.027868 1024,75.9984895 C1024,64.973139 1015.02686,56 1003.99748,56 L1003.99748,56 Z" id="Facebook"></path>
      </g>
    </g>
  </g>
</svg> 
