<svg width="40" height="40" viewBox="0 0 40 40" xmlns="http://www.w3.org/2000/svg"><title>Locate</title><g fill="#D9DC58" fill-rule="evenodd"><path d="M19.558 18.668c-.981 0-1.78-.804-1.78-1.78a1.78 1.78 0 0 1 1.78-1.775 1.78 1.78 0 0 1 1.774 1.775c0 .976-.799 1.78-1.774 1.78m0-7.115c-2.935 0-5.335 2.401-5.335 5.335 0 1.154.356 2.313 1.068 3.199l3.91 5.247c.178.178.443.265.621.087l.091-.087 3.91-5.247c.708-.886 1.064-2.045 1.064-3.2 0-2.933-2.4-5.334-5.33-5.334"/><path d="M26.667 22.222l-6.403 8.534c-.177.177-.442.355-.706.355-.27 0-.535-.178-.712-.355l-6.403-8.534c-1.154-1.51-1.774-3.29-1.774-5.334 0-4.887 3.997-8.89 8.889-8.89 4.886 0 8.889 4.003 8.889 8.89a8.756 8.756 0 0 1-1.78 5.334M19.557 0A19.5 19.5 0 0 0 0 19.558 19.499 19.499 0 0 0 19.558 39.11 19.498 19.498 0 0 0 39.11 19.558 19.499 19.499 0 0 0 19.558 0"/></g></svg>