<svg width="46" height="39" viewBox="0 0 46 39" xmlns="http://www.w3.org/2000/svg" xmlns:xlink="http://www.w3.org/1999/xlink"><title>4BF21683-857C-46AC-9FF1-345154A45C77</title><defs><path id="a" d="M45.753 32.238H0V.068h45.753v32.17z"/><path id="c" d="M0 1.613V.09h45.753v1.523H0z"/></defs><g fill="none" fill-rule="evenodd"><path fill="#00758D" opacity=".4" d="M30.898 1.026H13.606v6.693h3.387V4.196H28.76V7.72h3.387V1.026z"/><path d="M41.074 38.19H4.678c-2.158 0-3.907-1.73-3.907-3.861V11.403c0-2.132 1.75-3.86 3.907-3.86h36.396c2.158 0 3.908 1.728 3.908 3.86v22.926c0 2.132-1.75 3.86-3.908 3.86" fill="#00758D" opacity=".4"/><g transform="translate(0 6.713)"><mask id="b" fill="#fff"><use xlink:href="#a"/></mask><path d="M4.678 1.591c-1.73 0-3.136 1.39-3.136 3.1v22.925c0 1.709 1.407 3.099 3.136 3.099h36.396c1.73 0 3.137-1.39 3.137-3.1V4.69c0-1.708-1.407-3.099-3.137-3.099H4.678zm36.396 30.647H4.678C2.098 32.238 0 30.164 0 27.616V4.69C0 2.142 2.099.068 4.678.068h36.396c2.58 0 4.679 2.074 4.679 4.622v22.926c0 2.548-2.1 4.622-4.679 4.622z" fill="#00758D" mask="url(#b)"/></g><g transform="translate(0 22.281)"><mask id="d" fill="#fff"><use xlink:href="#c"/></mask><path d="M44.982 1.613H.77A.766.766 0 0 1 0 .85C0 .431.345.09.77.09h44.212c.425 0 .77.34.77.761 0 .42-.345.762-.77.762" fill="#00758D" mask="url(#d)"/></g><path d="M45.07 20.721H.86a.766.766 0 0 1-.771-.761c0-.421.345-.762.77-.762h44.212c.426 0 .77.341.77.762 0 .42-.344.761-.77.761M26.71 29.704h-8.914a.766.766 0 0 1-.771-.762v-5.636c0-.42.345-.761.77-.761.426 0 .771.34.771.761v4.875h7.372v-4.875c0-.42.345-.761.771-.761.426 0 .77.34.77.761v5.636c0 .42-.344.762-.77.762M13.517 8.216a.766.766 0 0 1-.77-.762V2.178c0-1.2.988-2.178 2.204-2.178H30.98c1.216 0 2.205.977 2.205 2.178v5.245c0 .42-.345.761-.771.761a.766.766 0 0 1-.771-.761V2.178a.66.66 0 0 0-.663-.655H14.95a.66.66 0 0 0-.662.655v5.276a.766.766 0 0 1-.77.762" fill="#00758D"/><path d="M17.212 8.242a.766.766 0 0 1-.77-.761V4.196c0-.42.345-.761.77-.761H28.76c.426 0 .771.34.771.761v3.277c0 .42-.345.762-.77.762a.766.766 0 0 1-.772-.762V4.958H17.983V7.48c0 .42-.345.761-.77.761" fill="#00758D"/></g></svg>