<svg width="45" height="50" viewBox="0 0 45 50" xmlns="http://www.w3.org/2000/svg" xmlns:xlink="http://www.w3.org/1999/xlink"><title>17816F22-A6BA-4853-87EA-EF26173806C1</title><defs><path id="a" d="M0 0h30.972v28.89H0V0z"/><path id="c" d="M0 50h45V0H0z"/></defs><g fill="none" fill-rule="evenodd"><path d="M27.861 25.994c9.455 1.88 16.46 8.682 16.46 16.785 0 2.453-9.74 6.54-21.753 6.54S.816 45.777.816 42.779c0-8.075 6.955-14.858 16.36-16.766a11.58 11.58 0 0 1-6.232-10.277c0-6.396 5.174-11.58 11.556-11.58 6.382 0 11.556 5.184 11.556 11.58a11.58 11.58 0 0 1-6.195 10.258z" fill="#00758D" opacity=".357"/><path d="M22.432 4.564c-6.035 0-10.944 4.92-10.944 10.967 0 6.048 4.91 10.968 10.944 10.968 6.035 0 10.944-4.92 10.944-10.968 0-6.047-4.91-10.967-10.944-10.967m0 23.16c-6.71 0-12.168-5.47-12.168-12.193S15.723 3.338 22.432 3.338c6.71 0 12.168 5.47 12.168 12.193 0 6.724-5.459 12.194-12.168 12.194" fill="#00758D"/><g transform="translate(6.934)"><mask id="b" fill="#fff"><use xlink:href="#a"/></mask><path d="M7.758 28.89a.608.608 0 0 1-.318-.09C2.78 25.955 0 20.994 0 15.532 0 6.967 6.953 0 15.5 0c8.204 0 15 6.425 15.47 14.627a.613.613 0 1 1-1.221.07c-.434-7.554-6.693-13.47-14.251-13.47-7.872 0-14.275 6.416-14.275 14.304 0 5.031 2.562 9.6 6.853 12.223a.614.614 0 0 1-.32 1.136" fill="#00758D" mask="url(#b)"/></g><path d="M8.065 20.683A1.769 1.769 0 0 1 6.18 19.04l-.264-3.805a1.769 1.769 0 0 1 3.526-.246l.264 3.806a1.77 1.77 0 0 1-1.64 1.89m29.049.568a1.77 1.77 0 0 1-1.768-1.77V14.85a1.77 1.77 0 0 1 1.768-1.771 1.77 1.77 0 0 1 1.767 1.771v4.632a1.77 1.77 0 0 1-1.767 1.771M16.45 27.93c0-.904-.73-1.636-1.631-1.636s-1.632.732-1.632 1.635.73 1.635 1.632 1.635c.9 0 1.631-.732 1.631-1.635" fill="#00758D"/><path d="M22.5 50c-7.272 0-14.422-1.535-20.677-4.44A3.144 3.144 0 0 1 0 42.728v-.017c0-5.974 3.805-11.496 10.18-14.769a.614.614 0 0 1 .558 1.091c-5.958 3.06-9.514 8.173-9.514 13.678v.017c0 .73.438 1.406 1.113 1.72 6.095 2.83 13.068 4.326 20.163 4.326 7.095 0 14.068-1.496 20.163-4.327a1.914 1.914 0 0 0 1.113-1.72v-.016c0-3.36-1.309-6.59-3.786-9.344-2.447-2.72-5.845-4.786-9.827-5.974a.613.613 0 0 1 .349-1.175c4.198 1.253 7.79 3.441 10.387 6.328C43.582 35.53 45 39.044 45 42.711v.017a3.144 3.144 0 0 1-1.823 2.832C36.922 48.465 29.772 50 22.5 50" fill="#00758D"/><path d="M22.364 32.425a.61.61 0 0 1-.354-.113l-4.215-2.997a.614.614 0 0 1-.144-.855.61.61 0 0 1 .853-.145l4.214 2.997a.614.614 0 0 1-.354 1.113" fill="#00758D"/><path d="M22.364 46.867a.614.614 0 0 1-.511-.95l2.701-4.125-2.778-9.813a.614.614 0 0 1 .234-.667l4.214-2.997a.614.614 0 0 1 .708 1l-3.861 2.746 2.737 9.665a.615.615 0 0 1-.077.504l-2.855 4.36a.612.612 0 0 1-.512.277" fill="#00758D"/><path d="M22.365 46.867a.611.611 0 0 1-.513-.277l-2.855-4.36a.615.615 0 0 1-.076-.504l2.855-10.081a.612.612 0 1 1 1.177.334l-2.779 9.813 2.702 4.125a.614.614 0 0 1-.511.95" fill="#00758D"/><mask id="d" fill="#fff"><use xlink:href="#c"/></mask><path d="M29.773 39.646h6.662v-1.499h-6.662v1.499zm7.274 1.226h-7.885a.612.612 0 0 1-.612-.613v-2.725c0-.338.274-.613.612-.613h7.885c.338 0 .612.275.612.613v2.725a.612.612 0 0 1-.612.613z" fill="#00758D" mask="url(#d)"/></g></svg>