<svg width="37" height="45" viewBox="0 0 37 45" xmlns="http://www.w3.org/2000/svg"><title>4130FBE1-8A95-448A-B610-7BED1244C79F</title><g fill="#00758D" fill-rule="evenodd"><path d="M4.38 44.161h31.932V.686H4.38A3.688 3.688 0 0 0 .688 4.37v36.107a3.688 3.688 0 0 0 3.692 3.684" fill-opacity=".4"/><path d="M16.054 44.924a.687.687 0 0 1-.688-.687v-4.604L3.846 27.714a1.502 1.502 0 0 1 .23-2.285l.39-.267a4.094 4.094 0 0 1 5.104.396l3.312 3.13a.093.093 0 0 0 .123.004l1.335-1.141a.091.091 0 0 0 .032-.07V9.839a2.828 2.828 0 0 1 5.657 0v10.983a.687.687 0 0 1-1.376 0V9.839a1.453 1.453 0 0 0-2.905 0v17.642c0 .428-.187.833-.513 1.112l-1.334 1.141a1.468 1.468 0 0 1-1.965-.049l-3.313-3.13a2.709 2.709 0 0 0-3.377-.262l-.39.267a.129.129 0 0 0-.056.096.128.128 0 0 0 .037.105L16.549 38.88a.686.686 0 0 1 .193.477v4.881c0 .38-.308.687-.688.687"/><path d="M23.469 21.356a.687.687 0 0 1-.688-.687V7.627a1.376 1.376 0 0 0-2.752 0V9.84a.687.687 0 0 1-1.376 0V7.627a2.752 2.752 0 0 1 5.504 0V20.67c0 .38-.308.687-.688.687"/><path d="M27.597 21.432a.687.687 0 0 1-.688-.686V9.076a1.376 1.376 0 0 0-2.752 0v2.212a.687.687 0 0 1-1.376 0V9.076a2.752 2.752 0 0 1 5.504 0v11.67a.687.687 0 0 1-.688.686"/><path d="M29.89 45a.687.687 0 0 1-.688-.686v-4.577c0-.064.01-.128.028-.19l1.807-6.238V12.432a1.376 1.376 0 0 0-2.752 0v2.212a.687.687 0 0 1-1.376 0v-2.212a2.752 2.752 0 0 1 5.504 0v20.975a.676.676 0 0 1-.027.19l-1.807 6.238v4.479a.688.688 0 0 1-.689.686m-13.76 0H5.733C2.572 45 0 42.434 0 39.28c0-3.155 2.572-5.72 5.733-5.72h5.199a.687.687 0 1 1 0 1.372H5.733a4.357 4.357 0 0 0-4.357 4.348 4.357 4.357 0 0 0 4.357 4.347H16.13a.687.687 0 1 1 0 1.373"/><path d="M36.312 45H29.89a.687.687 0 1 1 0-1.373h5.734v-8.695h-4.052a.687.687 0 1 1 0-1.373h4.74c.38 0 .688.308.688.687v10.068a.687.687 0 0 1-.688.686"/><path d="M.688 39.966A.687.687 0 0 1 0 39.28V4.986C0 2.236 2.242 0 4.997 0h31.315c.38 0 .688.307.688.686v33.56a.687.687 0 0 1-1.376 0V1.373H4.997a3.62 3.62 0 0 0-3.621 3.613V39.28a.687.687 0 0 1-.688.686"/><path d="M5.122 20.746a.687.687 0 0 1-.688-.687V6.483a.687.687 0 0 1 1.376 0V20.06c0 .38-.308.687-.688.687m9.236 17.693H4.663a.687.687 0 1 1 0-1.372h9.695a.687.687 0 1 1 0 1.373m21.954-.001H30.62a.687.687 0 1 1 0-1.372h5.692a.687.687 0 1 1 0 1.373m-20.297 2.898H4.663a.687.687 0 1 1 0-1.373h11.352a.687.687 0 1 1 0 1.373m20.297 0H29.91a.687.687 0 1 1 0-1.373h6.402a.687.687 0 1 1 0 1.373"/></g></svg>