<?xml version="1.0" encoding="UTF-8" standalone="no"?>
<svg width="56px" height="39px" viewBox="0 0 56 39" version="1.1" xmlns="http://www.w3.org/2000/svg" xmlns:xlink="http://www.w3.org/1999/xlink">
    <!-- Generator: sketchtool 46 (44423) - http://www.bohemiancoding.com/sketch -->
    <title>3C3ED7CF-AC70-4A45-8F90-BDB84E1802E7</title>
    <desc>Created with sketchtool.</desc>
    <defs>
        <polygon id="path-1" points="0.118187012 0.140313653 40.2062064 0.140313653 40.2062064 23.9189303 0.118187012 23.9189303 0.118187012 0.140313653"></polygon>
    </defs>
    <g id="02-Quienes-somos" stroke="none" stroke-width="1" fill="none" fill-rule="evenodd">
        <g id="2.3-Valores" transform="translate(-672.000000, -536.000000)">
            <g id="Comprimiso" transform="translate(672.000000, 536.000000)">
                <g id="Page-1">
                    <g id="Group-13" opacity="0.385785914" transform="translate(0.580311, 0.723155)" fill="#00758D">
                        <path d="M18.4848456,25.7709697 C18.4848456,26.2818554 18.3078508,26.7970583 17.9466073,27.2172797 L17.2038093,28.0807483 L15.4991461,30.063848 L14.9347938,30.7200841 C14.1281617,31.6583867 12.7093016,31.7704937 11.7648456,30.97049 C10.8189389,30.1717815 10.707229,28.7628886 11.5124104,27.8258812 L12.0709596,27.1755454 L13.7756228,25.1923018 L14.5242238,24.3217815 C15.330856,23.3849181 16.7497161,23.2726672 17.694172,24.0712317 C18.2164518,24.5131838 18.4848456,25.1390546 18.4848456,25.7709697" id="Fill-1"></path>
                        <path d="M21.1543337,29.539924 C21.1543337,30.0523926 20.9773389,30.5675956 20.6160953,30.987817 L20.2548518,31.4078945 C20.2490487,31.4137948 20.2446964,31.4195513 20.2388933,31.4253077 L18.9215876,32.9578207 C18.1164062,33.8962672 16.6960953,34.0069351 15.7516394,33.2082266 C14.8071834,32.4095181 14.6940228,31.0006251 15.4992041,30.0639055 L17.2038674,28.080662 C18.0119503,27.1538723 19.4235565,27.0459387 20.3636601,27.8432081 C20.8859399,28.283721 21.1543337,28.9095919 21.1543337,29.539924" id="Fill-3"></path>
                        <path d="M14.3095378,23.7518491 C14.3095378,24.2612956 14.1339938,24.7736203 13.7756518,25.1924026 L12.0709886,27.1755022 C11.2658073,28.1066092 9.85129948,28.217421 8.90684352,27.4187125 C7.96238756,26.6200041 7.84922694,25.2111111 8.65440829,24.2742476 L9.62642902,23.1431037 L10.3489161,22.3026609 C11.1555482,21.3657974 12.5744083,21.2535465 13.5188642,22.0536941 C14.041144,22.4940631 14.3095378,23.121517 14.3095378,23.7518491" id="Fill-5"></path>
                        <path d="M23.4624767,34.5509779 L22.3439275,35.8533764 C21.5372953,36.7902399 20.1184352,36.9024908 19.1739793,36.1023432 C18.2280725,35.3034908 18.1163627,33.8961808 18.921544,32.9578782 L20.2388497,31.4252214 C20.2446528,31.4194649 20.2490052,31.4137085 20.2548083,31.407952 C21.0628912,30.4869188 22.4701451,30.3818635 23.4102487,31.1748155 C23.9310777,31.6166236 24.1994715,32.2426384 24.1994715,32.8729705 C24.1994715,33.3852952 24.0224767,33.899059 23.6612332,34.3192804 L23.4624767,34.5509779 Z" id="Fill-7"></path>
                        <path d="M13.7756373,25.1923738 C14.1339793,24.7735915 14.3095233,24.2612668 14.3095233,23.7518203 C14.3095233,23.1214882 14.0411295,22.4940343 13.5188497,22.0536653 C12.5743938,21.2535177 11.1555337,21.3657686 10.3489016,22.3026321 L9.62641451,23.1430749 L9.62206218,23.1401967 C4.34268394,18.4616358 0.0469326425,14.3615989 0.0469326425,14.3615989 C0.0469326425,14.3615989 1.35263212,3.85606384 9.7671399,0.546100738 L18.0583316,4.0217059 C17.4664145,4.31658044 16.9180207,4.60584244 16.4378135,4.88071328 C15.7893161,5.25070959 15.6311813,6.11835166 16.1171917,6.68406753 C17.2836166,8.0424476 19.8152228,10.0269863 24.1167772,8.88864686 L27.8800933,7.64395683 C27.8800933,7.64395683 40.8442383,19.2590491 46.2803005,22.577503 C46.2803005,22.577503 46.2948083,22.5731856 46.3238238,22.5645509 C48.2286943,24.51599 48.5391606,26.1436284 46.9070363,27.7626321 C45.2342902,29.4220749 43.1437202,27.7626321 43.1437202,27.7626321 L41.8496269,26.7122225 L41.8293161,26.7379827 C43.5020622,28.3974255 44.8077617,30.2594956 43.1350155,31.9187945 C41.4622694,33.5782373 38.9625803,32.3247686 38.9625803,32.3247686 L36.8110777,30.3429642 C36.6456891,30.17761 36.4701451,30.0164292 36.2887979,29.8608609 L36.8110777,30.3429642 C38.3097306,31.8310085 39.0960518,33.6227059 37.6220622,35.0848461 C37.2042383,35.4993111 36.613772,35.8965066 36.1814404,36.0420011 C35.0977098,36.4059531 34.0444456,35.977097 33.1899378,35.2202668 C32.8939793,34.9582041 32.5109741,34.6185731 32.0626839,34.2213775 L32.0278653,34.2602336 C32.010456,35.8331856 30.8628912,37.1932926 29.2713886,37.4651413 C28.4589534,37.6047354 27.6218549,37.4406764 26.9283834,37.0003074 C26.0027876,36.4132926 24.5824767,35.3784255 23.4624767,34.5509347 L23.6612332,34.3192373 C24.0224767,33.8990159 24.1994715,33.3853959 24.1994715,32.8729273 C24.1994715,32.2425952 23.9310777,31.6167244 23.4102487,31.1747723 C22.4701451,30.3819642 21.0628912,30.4868756 20.2548083,31.4079089 L20.6160518,30.9878314 C20.9772953,30.56761 21.1542902,30.052407 21.1542902,29.5399384 C21.1542902,28.9096063 20.8858964,28.2835915 20.3636166,27.8432225 C19.423513,27.0459531 18.0119067,27.1538867 17.2038238,28.0806764 L17.9466218,27.2172077 C18.3078653,26.7969863 18.4848601,26.2817834 18.4848601,25.7710417 C18.4848601,25.1391266 18.2164663,24.5131118 17.6941865,24.0713037 C16.7497306,23.2725952 15.3308705,23.3848461 14.5242383,24.3217096 L13.7756373,25.1923738 Z" id="Fill-9"></path>
                        <path d="M46.3238383,22.5645797 C46.2948228,22.5732144 46.280315,22.5775317 46.280315,22.5775317 C40.8442528,19.2589339 27.8801078,7.6438417 27.8801078,7.6438417 L24.1167917,8.88867565 C19.8152373,10.0270151 17.2836311,8.04247638 16.1172062,6.6839524 C15.6311959,6.11838044 15.7893306,5.25059446 16.437828,4.88074207 C16.9180352,4.60587122 17.466429,4.31660923 18.0583461,4.02159077 C20.8191751,2.63860185 24.4997969,1.11745793 26.478657,0.320188561 C27.3752373,-0.0410291513 28.3719212,-0.0482247232 29.2743047,0.298601845 L34.8757554,2.45295609 C37.0475689,3.28908155 39.4935793,3.08760554 41.4840456,1.88594502 C42.1572062,1.47867565 42.8506777,1.0440631 43.5339938,0.603694096 C45.4881907,1.0642107 47.9196933,2.0140262 50.0349264,3.96546531 C52.4330611,6.17882325 53.983942,9.27004096 54.667258,13.1858712 C53.3775171,14.6695982 52.0616622,16.34041 50.8792788,18.0141 C48.227258,21.7745059 46.6052891,22.4667199 46.3238383,22.5645797" id="Fill-11"></path>
                    </g>
                    <g id="Group-16" transform="translate(15.668394, 0.003598)">
                        <mask id="mask-2" fill="white">
                            <use xlink:href="#path-1"></use>
                        </mask>
                        <g id="Clip-15"></g>
                        <path d="M12.7923876,7.74170148 C12.9454446,7.74170148 13.0958902,7.79725129 13.2128228,7.90201882 C13.3399109,8.01585277 25.7649472,19.1311406 31.2445326,22.5953768 C31.7634756,22.3176277 33.1739212,21.3584579 35.2776933,18.3771886 C36.3862321,16.8061074 37.6376725,15.2030779 38.9089886,13.7251074 C38.2258176,10.0854432 36.7497969,7.1985797 34.5195171,5.14079004 C32.8926155,3.64008155 30.8883668,2.58132509 28.5587088,1.99128819 C27.9023772,2.41150959 27.2855067,2.79618487 26.7220249,3.13639151 C24.5863358,4.42583801 21.9089264,4.65638413 19.5602632,3.75319594 L13.9588124,1.59855387 C13.2036829,1.30799668 12.3754342,1.31447269 11.6268332,1.61567934 C9.04517513,2.65500775 4.31796269,4.62486753 1.66275026,6.13982325 C1.51346528,6.22501882 1.41089534,6.37080111 1.38144456,6.53975314 C1.36432539,6.63718118 1.35794197,6.82671255 1.50664663,7.00012583 C2.53771399,8.20178635 4.86171399,10.0588196 8.84903005,9.01200775 L12.5940663,7.77364982 C12.6590611,7.7520631 12.725942,7.74170148 12.7923876,7.74170148 M31.1917244,23.9189303 C31.0765326,23.9189303 30.9626466,23.8875576 30.8629782,23.8268269 C25.8119523,20.7433804 14.5881596,10.8016904 12.6442632,9.06885277 L9.22724767,10.1985576 C9.21520622,10.202731 9.20287461,10.2063288 9.19054301,10.2094948 C4.52600415,11.442672 1.7757658,9.23348745 0.551309845,7.80660554 C0.200366839,7.3973214 0.0523875648,6.85808524 0.145382383,6.32690812 C0.238957513,5.79242103 0.564076684,5.33104096 1.03732021,5.0610631 C3.75709223,3.50926605 8.54378653,1.51393395 11.1550404,0.462660886 C12.2010508,0.0411442804 13.3579005,0.0329413284 14.4123254,0.438339852 L20.0137762,2.59298192 C22.0011959,3.35729557 24.2649886,3.16330295 26.0697554,2.07331771 C26.6877865,1.70029926 27.3722632,1.27201882 28.1041803,0.800852768 C28.2482425,0.708317712 28.4242218,0.677952399 28.590771,0.717384133 C31.2443876,1.34383063 33.5264601,2.52548745 35.3737347,4.2295428 C37.8679109,6.53068672 39.4906052,9.75056125 40.1969886,13.7997974 C40.2290508,13.9831406 40.1765326,14.1712328 40.054087,14.3121221 C38.7431648,15.8207458 37.4468953,17.4731369 36.3054238,19.0908454 C33.3297347,23.3075945 31.538315,23.8521554 31.3437658,23.9003657 C31.2935689,23.912886 31.2425016,23.9189303 31.1917244,23.9189303" id="Fill-14" fill="#00758D" mask="url(#mask-2)"></path>
                    </g>
                    <path d="M12.6434798,22.8652827 C12.5999565,22.8652827 12.556143,22.8670096 12.5123295,22.8704635 C12.0805782,22.9044266 11.688143,23.1031683 11.4071275,23.430279 L9.71261969,25.40129 C9.43160415,25.7282568 9.29566632,26.144017 9.33004974,26.5722974 C9.36428808,27.0005779 9.56478549,27.3900022 9.89440207,27.6687587 C10.2238736,27.9475151 10.6432933,28.082648 11.0748995,28.0482531 C11.5066508,28.0141461 11.8992311,27.8154044 12.1802466,27.4884376 L13.8746093,25.5174266 C14.4546301,24.8426258 14.3730964,23.8254598 13.6928269,23.2499579 C13.3968684,22.999552 13.028371,22.8652827 12.6434798,22.8652827 M10.9417181,29.2978362 C10.2589824,29.2978362 9.60555233,29.0598066 9.08037098,28.6156959 L9.08037098,28.6156959 C8.49585285,28.1212162 8.14041244,27.4305852 8.07947979,26.6708768 C8.01869223,25.9113122 8.25966632,25.1736221 8.75815337,24.593803 L10.452371,22.622648 C10.950858,22.0429727 11.647086,21.6903897 12.4129513,21.6299469 C13.1783813,21.5690723 13.9223399,21.8086849 14.506858,22.3030207 C15.7134694,23.3237845 15.8581119,25.1280022 14.8292207,26.3249137 L13.134858,28.2959247 C12.636371,28.8757439 11.940143,29.2283269 11.1744228,29.2887697 C11.0965161,29.2949579 11.0188995,29.2978362 10.9417181,29.2978362" id="Fill-17" fill="#00758D"></path>
                    <path d="M16.7387482,33.4580856 C17.4191627,34.0335875 18.4447171,33.9527092 19.0245927,33.2777646 L20.7189554,31.3066096 C20.999971,30.9796428 21.1359088,30.5638827 21.1015254,30.1356022 C21.067142,29.7073218 20.8667896,29.3178974 20.5373181,29.0392849 C20.2077016,28.7603845 19.7887171,28.6265469 19.3566756,28.6596465 C18.9249244,28.6937535 18.5324891,28.8924952 18.2514736,29.219462 L16.5571109,31.190617 C16.2759503,31.5175838 16.1401575,31.9333439 16.1743959,32.3616244 C16.2087793,32.7899048 16.4092767,33.1793292 16.7387482,33.4580856 M17.7886756,35.0858679 C17.128572,35.0858679 16.4652767,34.8622295 15.9248622,34.4050229 C15.340199,33.9106871 14.9847585,33.2199122 14.9238259,32.4602037 C14.8630383,31.7006391 15.1040124,30.9629491 15.6024995,30.3831299 L17.2968622,28.4121188 C17.7952041,27.8321557 18.4914321,27.4795727 19.2572974,27.4191299 C20.0228725,27.3592627 20.766686,27.597724 21.3512041,28.0923476 C21.9357223,28.5866834 22.2911627,29.2773144 22.3520953,30.0370229 C22.413028,30.7965875 22.1720539,31.5342775 21.6735668,32.1140967 L19.9792041,34.0852517 C19.4110798,34.7459491 18.6022715,35.0858679 17.7886756,35.0858679" id="Fill-19" fill="#00758D"></path>
                    <path d="M22.5335005,31.98721 C22.4899772,31.98721 22.4461637,31.9889369 22.4023503,31.9923908 C21.970599,32.0263539 21.5781637,32.2250956 21.2971482,32.5522063 L19.9792622,34.0852948 C19.6982466,34.4122616 19.5623088,34.8280218 19.5966922,35.2563022 C19.6309306,35.6844387 19.831428,36.0738631 20.1608995,36.3526196 L20.1608995,36.3526196 C20.4905161,36.631376 20.9095005,36.7656454 21.341542,36.7322579 C21.7732933,36.6981509 22.1657285,36.4994092 22.4468891,36.1724424 L23.7646301,34.6393539 C24.0456456,34.3123871 24.1815834,33.8966269 24.1472,33.4683465 C24.1129617,33.0399221 23.9124642,32.6504978 23.5828477,32.3718852 C23.2868891,32.1214793 22.9183917,31.98721 22.5335005,31.98721 M21.2083606,37.981841 C20.5256249,37.981841 19.8720497,37.7438114 19.3470135,37.2995568 C18.7623503,36.805221 18.4070549,36.11459 18.3461223,35.3548815 C18.2851896,34.595317 18.5261637,33.8576269 19.0245057,33.2778077 L20.3423917,31.7445753 C20.8408788,31.1649 21.5371067,30.812317 22.302972,30.7518742 C23.0681119,30.6911435 23.8123606,30.9306122 24.3968788,31.424948 C24.9813969,31.9192838 25.3368373,32.6100587 25.3977699,33.3696232 C25.4587026,34.1293317 25.2175834,34.8670218 24.7190964,35.446841 L23.4013554,36.9797856 C22.9028684,37.5597487 22.2066404,37.9123317 21.4409202,37.9727745 C21.3631585,37.9788188 21.285542,37.981841 21.2083606,37.981841" id="Fill-21" fill="#00758D"></path>
                    <path d="M16.8172352,24.8846768 C16.3584995,24.8846768 15.9025202,25.0762229 15.5823337,25.4488096 L12.570085,28.9530531 C11.9899192,29.62771 12.0714528,30.644876 12.7517223,31.2203779 C13.0813389,31.4992782 13.5003233,31.634555 13.9323648,31.5998723 C14.363971,31.5659092 14.7565513,31.3670236 15.0377119,31.0400568 L18.0498155,27.5359572 C18.3309762,27.2089904 18.4667689,26.7932303 18.4323855,26.3649498 C18.3981472,25.9366694 18.1976497,25.547245 17.8681782,25.2684886 C17.5633699,25.0107432 17.1893596,24.8846768 16.8172352,24.8846768 M13.8016497,32.8481601 C13.1415461,32.8481601 12.4782508,32.6245218 11.9378363,32.1673151 C10.7310798,31.1466952 10.5865824,29.3424775 11.6154736,28.1454221 L14.6277223,24.6413225 C15.6566135,23.444555 17.4754528,23.3009314 18.6820642,24.3215513 C19.2665824,24.8158871 19.6220228,25.506662 19.6829554,26.2663705 C19.7438881,27.0259351 19.502914,27.7636251 19.0044269,28.3434443 L15.9921782,31.8476878 C15.4240539,32.5085292 14.6152456,32.8481601 13.8016497,32.8481601" id="Fill-23" fill="#00758D"></path>
                    <path d="M29.2822259,38.8596863 C28.5359461,38.8596863 27.8044642,38.6501513 27.1700394,38.2474871 C26.2550342,37.6668044 25.1919047,36.9299779 24.0099565,36.0575867 C23.7319876,35.8525129 23.6743917,35.4628007 23.8811275,35.1869225 C24.0880083,34.9111882 24.4810238,34.8541993 24.7588477,35.0592731 C25.9172933,35.9142509 26.9559047,36.6342399 27.8461016,37.1993801 C28.4074073,37.5555609 29.0818736,37.6893985 29.7457492,37.5757085 C31.0262052,37.3568192 31.9660187,36.2636679 31.9803813,34.9766679 C31.9842984,34.63531 32.2642984,34.3613026 32.6074073,34.3613026 L32.6145161,34.3613026 C32.9609617,34.3651882 33.2386404,34.6468229 33.2348684,34.9903395 C33.213687,36.8780258 31.836029,38.4810554 29.9588684,38.8021218 C29.7335627,38.8405461 29.5070964,38.8596863 29.2822259,38.8596863" id="Fill-25" fill="#00758D"></path>
                    <path d="M10.0515648,24.2882358 C9.9028601,24.2882358 9.75343005,24.2361399 9.63388601,24.1299332 C4.40862176,19.4984314 0.237056995,15.5752616 0.195419689,15.5362616 C0.0512124352,15.4002653 -0.0195854922,15.2045458 0.00478756477,15.0086823 C0.0185699482,14.8975827 0.358777202,12.2533539 1.75979275,9.16299963 C3.63144041,5.03475609 6.52109845,2.10500701 10.1162694,0.690789299 C10.2693264,0.630778229 10.4400829,0.632505166 10.5916891,0.696114022 L18.8821554,4.17215092 C19.2013264,4.30584465 19.3506114,4.67094797 19.2156891,4.98755314 C19.0809119,5.30401439 18.7127047,5.45209926 18.3938238,5.31840554 L10.3433161,1.94296273 C3.36203109,4.85702546 1.59019689,13.1602838 1.29757513,14.8571435 C2.25349223,15.751697 5.96936788,19.213055 10.4696788,23.2021362 C10.7280622,23.4310993 10.7502591,23.8244092 10.5195855,24.0807155 C10.3956891,24.2182948 10.2239171,24.2882358 10.0515648,24.2882358" id="Fill-27" fill="#00758D"></path>
                    <path d="M46.1449575,29.8333162 C45.4184083,29.8333162 44.6872166,29.6165856 44.0613513,29.1668624 L32.1762943,20.6255745 C31.8958591,20.4239546 31.8331855,20.034962 32.0364394,19.7566373 C32.2395482,19.4781686 32.6318383,19.4161428 32.9124187,19.6179066 L44.7973306,28.1591945 C45.8093927,28.886379 47.2466777,28.6741096 48.001372,27.6861576 C48.3909057,27.1761354 48.5462839,26.5478181 48.4389264,25.9167664 C48.3315689,25.2858587 47.9768539,24.7430247 47.4402114,24.3881391 L46.5590093,23.8054417 C46.270885,23.614759 46.1929782,23.2283568 46.3852062,22.9425487 C46.5772891,22.6564528 46.9668228,22.5794601 47.2549472,22.7699989 L48.1360041,23.3526963 C48.9635275,23.8999915 49.5103254,24.7369804 49.6758591,25.7096779 C49.8413927,26.6823753 49.6018694,27.6511871 49.0013927,28.4375192 C48.3044394,29.3500616 47.2299938,29.8333162 46.1449575,29.8333162" id="Fill-29" fill="#00758D"></path>
                    <path d="M41.7926259,33.8628365 C41.0660767,33.8628365 40.334885,33.6461059 39.7090197,33.1963827 L27.8239627,24.6550948 C27.5435275,24.4534749 27.4808539,24.0644823 27.6841078,23.7861576 C27.8873617,23.5078328 28.2795067,23.4456631 28.560087,23.6474269 L40.444999,32.1887148 C41.4570611,32.9158993 42.8943461,32.7037738 43.6490404,31.7156779 C44.0385741,31.2056557 44.1939523,30.5773384 44.0865948,29.9462867 C43.9792373,29.315379 43.6245223,28.772545 43.0878798,28.4176594 L42.2066777,27.834962 C41.9185534,27.6442793 41.8406466,27.2578771 42.0328746,26.972069 C42.2251026,26.686117 42.6144912,26.6091244 42.9026155,26.7995192 L43.7836725,27.3822166 C44.6111959,27.9295118 45.1579938,28.7665007 45.3235275,29.7391982 C45.4890611,30.7118956 45.2495378,31.6807074 44.6490611,32.4670395 C43.9521078,33.3795819 42.8776622,33.8628365 41.7926259,33.8628365" id="Fill-31" fill="#00758D"></path>
                    <path d="M36.4247503,37.1727996 C35.698201,37.1727996 34.9670093,36.956069 34.341144,36.5063458 L25.3550301,29.9779472 C25.0756104,29.7748882 25.0149679,29.3856077 25.2196725,29.1082904 C25.4243772,28.8309731 25.8169575,28.7711059 26.0963772,28.9738771 L35.0797347,35.5005487 C36.0891855,36.2260063 37.5264705,36.0137369 38.2811648,35.025641 C38.6706984,34.5156188 38.8260767,33.8873015 38.7187192,33.2562498 C38.6113617,32.6253421 38.2566466,32.0825081 37.7200041,31.7276225 L36.8388021,31.1449251 C36.5506777,30.9542424 36.472771,30.5678402 36.664999,30.2820321 C36.8570819,29.9960801 37.2466155,29.9190875 37.5347399,30.1094823 L38.4157969,30.6921797 C39.2433202,31.2394749 39.7901181,32.0764638 39.9556518,33.0491613 C40.1211855,34.0218587 39.8816622,34.9906705 39.2811855,35.7770026 C38.5842321,36.689545 37.5097865,37.1727996 36.4247503,37.1727996" id="Fill-33" fill="#00758D"></path>
                </g>
            </g>
        </g>
    </g>
</svg>