<svg width="56" height="39" viewBox="0 0 56 39" xmlns="http://www.w3.org/2000/svg" xmlns:xlink="http://www.w3.org/1999/xlink"><title>3C3ED7CF-AC70-4A45-8F90-BDB84E1802E7</title><defs><path id="a" d="M.118.14h40.088v23.78H.118V.14z"/></defs><g fill="none" fill-rule="evenodd"><g opacity=".386" fill="#00758D"><path d="M19.065 26.494c0 .511-.177 1.026-.538 1.446l-.743.864-1.705 1.983-.564.656a2.26 2.26 0 0 1-3.17.25 2.218 2.218 0 0 1-.252-3.144l.558-.65 1.705-1.984.749-.87a2.262 2.262 0 0 1 3.17-.25c.522.441.79 1.067.79 1.7"/><path d="M21.735 30.263a2.21 2.21 0 0 1-.539 1.448l-.36.42-.017.017-1.317 1.533a2.26 2.26 0 0 1-3.17.25 2.219 2.219 0 0 1-.252-3.144l1.704-1.983a2.26 2.26 0 0 1 3.16-.238c.522.44.79 1.067.79 1.697m-6.844-5.788c0 .51-.176 1.022-.534 1.44L12.651 27.9a2.26 2.26 0 0 1-3.164.243 2.22 2.22 0 0 1-.252-3.145l.972-1.13.722-.841a2.26 2.26 0 0 1 3.17-.25c.522.441.79 1.069.79 1.699"/><path d="M24.043 35.274l-1.119 1.303a2.26 2.26 0 0 1-3.17.248 2.218 2.218 0 0 1-.252-3.144l1.317-1.533.016-.017a2.264 2.264 0 0 1 3.156-.233 2.221 2.221 0 0 1 .25 3.144l-.198.232z"/><path d="M14.356 25.916a2.216 2.216 0 0 0-.257-3.139 2.26 2.26 0 0 0-3.17.249l-.722.84-.005-.003C4.923 19.185.627 15.085.627 15.085s1.306-10.506 9.72-13.816l8.292 3.476a32.31 32.31 0 0 0-1.62.859 1.187 1.187 0 0 0-.321 1.803c1.166 1.359 3.698 3.343 8 2.205l3.762-1.245s12.965 11.615 18.4 14.934l.044-.013c1.905 1.951 2.215 3.579.583 5.198-1.672 1.66-3.763 0-3.763 0l-1.294-1.05-.02.025c1.672 1.66 2.978 3.522 1.305 5.18-1.672 1.66-4.172.407-4.172.407l-2.152-1.982a9.35 9.35 0 0 0-.522-.482l.522.482c1.499 1.488 2.285 3.28.811 4.742-.417.414-1.008.812-1.44.957-1.084.364-2.137-.065-2.992-.822l-1.127-.998-.035.038a3.3 3.3 0 0 1-2.756 3.205 3.324 3.324 0 0 1-2.343-.465c-.926-.587-2.346-1.621-3.466-2.449l.199-.232a2.221 2.221 0 0 0-.251-3.144 2.264 2.264 0 0 0-3.156.233l.361-.42a2.214 2.214 0 0 0-.252-3.145 2.26 2.26 0 0 0-3.16.238l.743-.864a2.219 2.219 0 0 0-.252-3.146 2.262 2.262 0 0 0-3.17.25l-.75.872z"/><path d="M46.904 23.288l-.043.013c-5.436-3.319-18.4-14.934-18.4-14.934l-3.764 1.245c-4.301 1.138-6.833-.846-8-2.205a1.187 1.187 0 0 1 .321-1.803c.48-.275 1.029-.564 1.62-.86 2.761-1.382 6.442-2.903 8.421-3.7a3.812 3.812 0 0 1 2.796-.022l5.601 2.154a7.551 7.551 0 0 0 6.608-.567 85.938 85.938 0 0 0 2.05-1.282c1.955.46 4.386 1.41 6.501 3.362 2.398 2.213 3.95 5.304 4.633 9.22a62.264 62.264 0 0 0-3.788 4.828c-2.652 3.76-4.274 4.453-4.556 4.55"/></g><g transform="translate(15.668 .004)"><mask id="b" fill="#fff"><use xlink:href="#a"/></mask><path d="M12.792 7.742a.63.63 0 0 1 .42.16c.128.114 12.553 11.23 18.033 14.693.518-.277 1.929-1.237 4.033-4.218a62.582 62.582 0 0 1 3.631-4.652c-.683-3.64-2.16-6.526-4.39-8.584-1.626-1.5-3.63-2.56-5.96-3.15-.657.42-1.273.805-1.837 1.145-2.136 1.29-4.813 1.52-7.162.617L13.96 1.6a3.174 3.174 0 0 0-2.332.017C9.045 2.655 4.318 4.625 1.663 6.14a.572.572 0 0 0-.282.4.551.551 0 0 0 .126.46c1.03 1.202 3.355 3.059 7.342 2.012l3.745-1.238a.628.628 0 0 1 .198-.032m18.4 16.177a.632.632 0 0 1-.329-.092c-5.051-3.084-16.275-13.025-18.219-14.758l-3.417 1.13a.467.467 0 0 1-.036.01C4.526 11.443 1.776 9.233.55 7.807a1.791 1.791 0 0 1-.406-1.48c.094-.535.42-.996.892-1.266C3.757 3.51 8.544 1.514 11.155.463a4.432 4.432 0 0 1 3.257-.025l5.602 2.155c1.987.764 4.251.57 6.056-.52A83.932 83.932 0 0 0 28.104.801a.632.632 0 0 1 .487-.084c2.653.627 4.935 1.808 6.783 3.513 2.494 2.3 4.117 5.52 4.823 9.57a.619.619 0 0 1-.143.512 61.319 61.319 0 0 0-3.749 4.779c-2.975 4.217-4.767 4.761-4.961 4.81a.628.628 0 0 1-.152.018" fill="#00758D" mask="url(#b)"/></g><path d="M12.643 22.865a1.614 1.614 0 0 0-1.236.565l-1.694 1.971a1.59 1.59 0 0 0-.383 1.171 1.618 1.618 0 0 0 1.745 1.476 1.615 1.615 0 0 0 1.105-.56l1.695-1.97a1.601 1.601 0 0 0-.182-2.268 1.617 1.617 0 0 0-1.05-.385m-1.701 6.433a2.868 2.868 0 0 1-1.862-.682 2.827 2.827 0 0 1-1-1.945 2.82 2.82 0 0 1 .678-2.077l1.694-1.971a2.866 2.866 0 0 1 1.961-.993 2.87 2.87 0 0 1 2.094.673 2.84 2.84 0 0 1 .322 4.022l-1.694 1.97a2.865 2.865 0 0 1-2.193 1.003m5.797 4.16c.68.576 1.706.495 2.286-.18l1.694-1.971a1.59 1.59 0 0 0 .383-1.171 1.594 1.594 0 0 0-.565-1.097 1.623 1.623 0 0 0-1.18-.38 1.615 1.615 0 0 0-1.106.56l-1.694 1.972a1.59 1.59 0 0 0-.383 1.17c.035.429.235.818.565 1.097m1.05 1.628c-.66 0-1.324-.224-1.864-.681a2.826 2.826 0 0 1-1.001-1.945 2.82 2.82 0 0 1 .678-2.077l1.695-1.97a2.864 2.864 0 0 1 1.96-.994c.766-.06 1.51.179 2.094.673.585.495.94 1.185 1.001 1.945a2.82 2.82 0 0 1-.678 2.077l-1.695 1.971c-.568.66-1.377 1-2.19 1" fill="#00758D"/><path d="M22.534 31.987a1.614 1.614 0 0 0-1.236.565l-1.319 1.533a1.59 1.59 0 0 0-.382 1.171c.034.428.234.818.564 1.097.33.278.749.413 1.18.38a1.616 1.616 0 0 0 1.106-.56l1.318-1.534a1.59 1.59 0 0 0 .382-1.17 1.617 1.617 0 0 0-1.614-1.481m-1.325 5.994a2.867 2.867 0 0 1-1.861-.682 2.826 2.826 0 0 1-1-1.945 2.82 2.82 0 0 1 .678-2.077l1.317-1.533a2.866 2.866 0 0 1 1.961-.993c.765-.06 1.51.179 2.094.673.584.494.94 1.185 1 1.945a2.82 2.82 0 0 1-.678 2.077l-1.318 1.533a2.865 2.865 0 0 1-2.193 1.002m-4.391-13.097c-.459 0-.914.191-1.235.564l-3.012 3.504a1.601 1.601 0 0 0 .182 2.267c.33.28.748.415 1.18.38a1.615 1.615 0 0 0 1.106-.56l3.012-3.504c.281-.327.417-.743.382-1.171a1.594 1.594 0 0 0-.564-1.097 1.623 1.623 0 0 0-1.05-.383m-3.016 7.963c-.66 0-1.324-.223-1.864-.68a2.84 2.84 0 0 1-.323-4.023l3.013-3.504a2.896 2.896 0 0 1 4.054-.32c.585.495.94 1.186 1.001 1.945.06.76-.18 1.498-.679 2.077l-3.012 3.505a2.88 2.88 0 0 1-2.19 1" fill="#00758D"/><path d="M29.282 38.86c-.746 0-1.478-.21-2.112-.613a55.871 55.871 0 0 1-3.16-2.19.619.619 0 0 1-.129-.87.63.63 0 0 1 .878-.128 54.783 54.783 0 0 0 3.087 2.14 2.69 2.69 0 0 0 1.9.377 2.675 2.675 0 0 0 2.234-2.6.625.625 0 0 1 .627-.615h.008a.625.625 0 0 1 .62.63 3.923 3.923 0 0 1-3.276 3.811 4.026 4.026 0 0 1-.677.058m-19.23-14.572a.627.627 0 0 1-.418-.158C4.409 19.498.237 15.575.195 15.536a.62.62 0 0 1-.19-.527c.014-.111.354-2.756 1.755-5.846C3.63 5.035 6.52 2.105 10.116.691a.633.633 0 0 1 .476.005l8.29 3.476a.62.62 0 0 1 .334.816.63.63 0 0 1-.822.33l-8.05-3.375C3.361 4.857 1.59 13.16 1.297 14.857a488.99 488.99 0 0 0 9.172 8.345.62.62 0 0 1 .05.879.628.628 0 0 1-.468.207m36.094 5.545a3.56 3.56 0 0 1-2.084-.666l-11.885-8.541a.62.62 0 0 1-.14-.87.63.63 0 0 1 .876-.138l11.885 8.541a2.341 2.341 0 0 0 3.204-.473c.39-.51.545-1.138.438-1.77a2.273 2.273 0 0 0-.999-1.528l-.881-.583a.62.62 0 0 1-.174-.862.63.63 0 0 1 .87-.173l.881.583a3.505 3.505 0 0 1 1.54 2.357A3.486 3.486 0 0 1 49 28.438a3.587 3.587 0 0 1-2.856 1.395" fill="#00758D"/><path d="M41.793 33.863a3.56 3.56 0 0 1-2.084-.667l-11.885-8.54a.62.62 0 0 1-.14-.87.63.63 0 0 1 .876-.139l11.885 8.542a2.341 2.341 0 0 0 3.204-.473c.39-.51.545-1.139.438-1.77a2.273 2.273 0 0 0-1-1.528l-.88-.583a.62.62 0 0 1-.174-.863.63.63 0 0 1 .87-.172l.88.582a3.505 3.505 0 0 1 1.54 2.357 3.486 3.486 0 0 1-.674 2.728 3.587 3.587 0 0 1-2.856 1.396" fill="#00758D"/><path d="M36.425 37.173a3.56 3.56 0 0 1-2.084-.667l-8.986-6.528a.619.619 0 0 1-.135-.87.63.63 0 0 1 .876-.134L35.08 35.5a2.34 2.34 0 0 0 3.201-.475c.39-.51.545-1.139.438-1.77a2.273 2.273 0 0 0-.999-1.528l-.881-.583a.62.62 0 0 1-.174-.863.63.63 0 0 1 .87-.173l.88.583a3.505 3.505 0 0 1 1.54 2.357 3.486 3.486 0 0 1-.674 2.728 3.587 3.587 0 0 1-2.856 1.396" fill="#00758D"/></g></svg>