<svg width="31" height="50" viewBox="0 0 31 50" xmlns="http://www.w3.org/2000/svg" xmlns:xlink="http://www.w3.org/1999/xlink"><title>CB042933-B125-49E5-9633-259727718731</title><defs><path id="a" d="M0 49.911h30.872V0H0z"/></defs><g fill="none" fill-rule="evenodd"><path d="M12.949 46.868l5.487-.525a4.601 4.601 0 0 1-.294 1.356c-.113.297-.26.586-.482.815-.26.268-.605.438-.955.571-.43.165-.883.285-1.343.274a2.452 2.452 0 0 1-2.065-1.275c-.198-.376-.292-.796-.348-1.216zM8.355 35.532h13.48v-4.4l3.07-2.876s6.143-6.431 5.29-12.354C29.342 9.98 28.659.672 15.009.672S.677 14.379.677 16.41c0 2.03 2.218 10.153 7.678 14.892v4.23zm-.085 5.669h14.332v-3.215H8.27zm13.82 4.908H9.635L8.44 43.4l14.161.17z" fill="#00758D" opacity=".4"/><path d="M15.521 49.911c-1.86 0-3.427-1.44-3.567-3.277a.678.678 0 0 1 1.35-.101c.088 1.14 1.061 2.035 2.217 2.035 1.2 0 2.176-.93 2.222-2.118a.674.674 0 0 1 .703-.645.674.674 0 0 1 .65.697 3.553 3.553 0 0 1-3.575 3.41" fill="#00758D"/><mask id="b" fill="#fff"><use xlink:href="#a"/></mask><path d="M9.032 40.276H22.01v-1.534H9.032v1.534zm13.656 1.343H8.355a.674.674 0 0 1-.677-.672v-2.876c0-.371.303-.672.677-.672h14.333c.374 0 .677.3.677.672v2.876a.674.674 0 0 1-.677.672zm-13.55 2.538a2.225 2.225 0 0 0 2.118 1.534h8.531c.99 0 1.83-.645 2.118-1.534H9.138zm10.649 2.877h-8.531c-1.973 0-3.578-1.592-3.578-3.548 0-.371.303-.672.677-.672h14.333c.374 0 .677.301.677.672 0 1.956-1.605 3.548-3.578 3.548zM9.176 34.86h12.152v-3.728a.67.67 0 0 1 .264-.532c.078-.06 7.926-6.185 7.926-15.375 0-3.882-1.247-7.364-3.511-9.805-2.474-2.667-6.1-4.077-10.486-4.077-5.434 0-8.749 2.322-10.573 4.27a13.457 13.457 0 0 0-3.594 9.104c0 8.902 7.395 16.028 7.47 16.1a.67.67 0 0 1 .208.458l.144 3.586zm12.83 1.344H8.525a.675.675 0 0 1-.677-.645l-.16-3.966C6.44 30.342 0 23.469 0 14.717 0 7.583 5.44 0 15.522 0c4.775 0 8.745 1.56 11.483 4.51 2.494 2.69 3.868 6.495 3.868 10.715 0 5.164-2.298 9.359-4.226 11.968-1.672 2.264-3.332 3.735-3.964 4.259v4.08a.675.675 0 0 1-.677.672z" fill="#00758D" mask="url(#b)"/><path d="M9.701 17.075a.31.31 0 0 0-.085.012c-.39.109-.884.797-.77 1.628.13.936.942 1.655 2.295 2.099-.25-1.305-.533-2.403-.847-3.121-.106-.24-.315-.618-.593-.618m10.585 0c-.277 0-.487.378-.592.618-.315.718-.597 1.816-.848 3.121 1.353-.444 2.165-1.163 2.295-2.099.115-.831-.38-1.52-.77-1.628a.312.312 0 0 0-.085-.012m-3.667 19.129l-.036-.001a.674.674 0 0 1-.64-.706c.021-.415.402-7.474 1.24-12.956-.642.079-1.361.123-2.167.125h-.045a18.057 18.057 0 0 1-2.166-.125c.838 5.482 1.218 12.541 1.24 12.956a.674.674 0 0 1-.64.706.68.68 0 0 1-.712-.636c-.006-.104-.419-7.775-1.295-13.28-3.13-.77-3.772-2.52-3.893-3.389-.193-1.39.59-2.783 1.746-3.104.726-.203 1.709.05 2.285 1.363.397.907.743 2.33 1.04 3.992.718.114 1.528.173 2.418.174.89-.001 1.7-.06 2.418-.174.297-1.662.642-3.085 1.04-3.992.576-1.314 1.558-1.566 2.285-1.363 1.155.32 1.938 1.714 1.745 3.104-.12.868-.762 2.619-3.893 3.39-.876 5.505-1.289 13.175-1.294 13.28a.675.675 0 0 1-.676.636" fill="#00758D" mask="url(#b)"/></g></svg>